G04 #@! TF.GenerationSoftware,KiCad,Pcbnew,8.0.4*
G04 #@! TF.CreationDate,2025-01-23T14:05:32+11:00*
G04 #@! TF.ProjectId,Rotating_Cube_Shelf_2,526f7461-7469-46e6-975f-437562655f53,rev?*
G04 #@! TF.SameCoordinates,Original*
G04 #@! TF.FileFunction,Soldermask,Top*
G04 #@! TF.FilePolarity,Negative*
%FSLAX46Y46*%
G04 Gerber Fmt 4.6, Leading zero omitted, Abs format (unit mm)*
G04 Created by KiCad (PCBNEW 8.0.4) date 2025-01-23 14:05:32*
%MOMM*%
%LPD*%
G01*
G04 APERTURE LIST*
G04 Aperture macros list*
%AMRoundRect*
0 Rectangle with rounded corners*
0 $1 Rounding radius*
0 $2 $3 $4 $5 $6 $7 $8 $9 X,Y pos of 4 corners*
0 Add a 4 corners polygon primitive as box body*
4,1,4,$2,$3,$4,$5,$6,$7,$8,$9,$2,$3,0*
0 Add four circle primitives for the rounded corners*
1,1,$1+$1,$2,$3*
1,1,$1+$1,$4,$5*
1,1,$1+$1,$6,$7*
1,1,$1+$1,$8,$9*
0 Add four rect primitives between the rounded corners*
20,1,$1+$1,$2,$3,$4,$5,0*
20,1,$1+$1,$4,$5,$6,$7,0*
20,1,$1+$1,$6,$7,$8,$9,0*
20,1,$1+$1,$8,$9,$2,$3,0*%
G04 Aperture macros list end*
%ADD10C,0.010000*%
%ADD11RoundRect,0.250000X-0.600000X-0.725000X0.600000X-0.725000X0.600000X0.725000X-0.600000X0.725000X0*%
%ADD12O,1.700000X1.950000*%
%ADD13C,1.000000*%
%ADD14RoundRect,0.200000X0.275000X-0.200000X0.275000X0.200000X-0.275000X0.200000X-0.275000X-0.200000X0*%
%ADD15R,1.600000X1.600000*%
%ADD16O,1.600000X1.600000*%
%ADD17RoundRect,0.200000X-0.200000X-0.275000X0.200000X-0.275000X0.200000X0.275000X-0.200000X0.275000X0*%
%ADD18RoundRect,0.150000X-0.587500X-0.150000X0.587500X-0.150000X0.587500X0.150000X-0.587500X0.150000X0*%
%ADD19RoundRect,0.250000X-0.725000X0.600000X-0.725000X-0.600000X0.725000X-0.600000X0.725000X0.600000X0*%
%ADD20O,1.950000X1.700000*%
%ADD21RoundRect,0.250000X-0.550000X1.250000X-0.550000X-1.250000X0.550000X-1.250000X0.550000X1.250000X0*%
%ADD22RoundRect,0.250000X1.500000X1.000000X-1.500000X1.000000X-1.500000X-1.000000X1.500000X-1.000000X0*%
%ADD23RoundRect,0.225000X0.475000X0.225000X-0.475000X0.225000X-0.475000X-0.225000X0.475000X-0.225000X0*%
%ADD24RoundRect,0.243750X-0.243750X-0.456250X0.243750X-0.456250X0.243750X0.456250X-0.243750X0.456250X0*%
%ADD25RoundRect,0.243750X0.243750X0.456250X-0.243750X0.456250X-0.243750X-0.456250X0.243750X-0.456250X0*%
%ADD26RoundRect,0.250000X0.725000X-0.600000X0.725000X0.600000X-0.725000X0.600000X-0.725000X-0.600000X0*%
%ADD27RoundRect,0.225000X0.225000X0.250000X-0.225000X0.250000X-0.225000X-0.250000X0.225000X-0.250000X0*%
%ADD28RoundRect,0.250000X1.750000X1.000000X-1.750000X1.000000X-1.750000X-1.000000X1.750000X-1.000000X0*%
%ADD29R,3.500000X3.500000*%
%ADD30RoundRect,0.750000X-1.000000X0.750000X-1.000000X-0.750000X1.000000X-0.750000X1.000000X0.750000X0*%
%ADD31RoundRect,0.875000X-0.875000X0.875000X-0.875000X-0.875000X0.875000X-0.875000X0.875000X0.875000X0*%
%ADD32RoundRect,0.250000X1.000000X0.650000X-1.000000X0.650000X-1.000000X-0.650000X1.000000X-0.650000X0*%
%ADD33C,0.600000*%
%ADD34R,4.200000X4.200000*%
%ADD35R,1.500000X0.900000*%
%ADD36R,0.900000X1.500000*%
%ADD37C,3.200000*%
%ADD38R,1.700000X1.700000*%
%ADD39O,1.700000X1.700000*%
%ADD40RoundRect,0.250000X1.000000X-1.500000X1.000000X1.500000X-1.000000X1.500000X-1.000000X-1.500000X0*%
%ADD41RoundRect,0.375000X-0.375000X0.625000X-0.375000X-0.625000X0.375000X-0.625000X0.375000X0.625000X0*%
%ADD42RoundRect,0.500000X-1.400000X0.500000X-1.400000X-0.500000X1.400000X-0.500000X1.400000X0.500000X0*%
%ADD43RoundRect,0.250000X-0.250000X-0.475000X0.250000X-0.475000X0.250000X0.475000X-0.250000X0.475000X0*%
%ADD44RoundRect,0.225000X-0.250000X0.225000X-0.250000X-0.225000X0.250000X-0.225000X0.250000X0.225000X0*%
%ADD45RoundRect,0.200000X-0.275000X0.200000X-0.275000X-0.200000X0.275000X-0.200000X0.275000X0.200000X0*%
%ADD46RoundRect,0.250000X0.325000X0.650000X-0.325000X0.650000X-0.325000X-0.650000X0.325000X-0.650000X0*%
%ADD47RoundRect,0.250000X0.250000X0.475000X-0.250000X0.475000X-0.250000X-0.475000X0.250000X-0.475000X0*%
%ADD48RoundRect,0.225000X-0.475000X-0.225000X0.475000X-0.225000X0.475000X0.225000X-0.475000X0.225000X0*%
%ADD49RoundRect,0.250000X0.550000X-1.250000X0.550000X1.250000X-0.550000X1.250000X-0.550000X-1.250000X0*%
%ADD50RoundRect,0.725000X1.975000X0.725000X-1.975000X0.725000X-1.975000X-0.725000X1.975000X-0.725000X0*%
%ADD51RoundRect,0.102000X-0.535000X1.080000X-0.535000X-1.080000X0.535000X-1.080000X0.535000X1.080000X0*%
%ADD52RoundRect,0.250000X-1.750000X-1.000000X1.750000X-1.000000X1.750000X1.000000X-1.750000X1.000000X0*%
G04 APERTURE END LIST*
D10*
X-4935000Y-9660000D02*
X-3700000Y-9660000D01*
X-3700000Y-11770000D01*
X-14700000Y-11770000D01*
X-14700000Y-9660000D01*
X-13465000Y-9660000D01*
X-13465000Y-4580000D01*
X-4935000Y-4580000D01*
X-4935000Y-9660000D01*
G36*
X-4935000Y-9660000D02*
G01*
X-3700000Y-9660000D01*
X-3700000Y-11770000D01*
X-14700000Y-11770000D01*
X-14700000Y-9660000D01*
X-13465000Y-9660000D01*
X-13465000Y-4580000D01*
X-4935000Y-4580000D01*
X-4935000Y-9660000D01*
G37*
D11*
X-2500000Y-18000000D03*
D12*
X0Y-18000000D03*
X2500000Y-18000000D03*
D13*
X-18500000Y-28500000D03*
D14*
X17562500Y-325000D03*
X17562500Y1325000D03*
D15*
X27800000Y23840000D03*
D16*
X25260000Y23840000D03*
X22720000Y23840000D03*
X20180000Y23840000D03*
X17640000Y23840000D03*
X15100000Y23840000D03*
X12560000Y23840000D03*
X10020000Y23840000D03*
X10020000Y11140000D03*
X12560000Y11140000D03*
X15100000Y11140000D03*
X17640000Y11140000D03*
X20180000Y11140000D03*
X22720000Y11140000D03*
X25260000Y11140000D03*
X27800000Y11140000D03*
D13*
X-14500000Y-15500000D03*
D14*
X5000000Y25675000D03*
X5000000Y27325000D03*
X-20000000Y-47825000D03*
X-20000000Y-46175000D03*
D17*
X7575000Y45000000D03*
X9225000Y45000000D03*
D18*
X19562500Y-5500000D03*
X19562500Y-7400000D03*
X21437500Y-6450000D03*
D14*
X5000000Y20175000D03*
X5000000Y21825000D03*
D19*
X-20050000Y37500000D03*
D20*
X-20050000Y35000000D03*
X-20050000Y32500000D03*
X-20050000Y30000000D03*
D17*
X14875000Y47500000D03*
X16525000Y47500000D03*
D21*
X-26000000Y-21800000D03*
X-26000000Y-26200000D03*
D22*
X5750000Y-8000000D03*
X-750000Y-8000000D03*
D23*
X14950000Y-54500000D03*
X21050000Y-54500000D03*
X14950000Y-57500000D03*
X21050000Y-57500000D03*
D24*
X-937500Y20500000D03*
X937500Y20500000D03*
D25*
X26000000Y-6500000D03*
X24125000Y-6500000D03*
D17*
X-13825000Y-45000000D03*
X-12175000Y-45000000D03*
D26*
X20000000Y-39000000D03*
D20*
X20000000Y-36500000D03*
X20000000Y-34000000D03*
X20000000Y-31500000D03*
D27*
X12775000Y-56000000D03*
X11225000Y-56000000D03*
D17*
X14875000Y42500000D03*
X16525000Y42500000D03*
D25*
X-12062500Y-43000000D03*
X-13937500Y-43000000D03*
D28*
X-19225000Y-11425000D03*
X-27225000Y-11425000D03*
D13*
X-11500000Y40000000D03*
D17*
X14875000Y45000000D03*
X16525000Y45000000D03*
D18*
X19687500Y450000D03*
X19687500Y-1450000D03*
X21562500Y-500000D03*
X-17875000Y-47050000D03*
X-17875000Y-48950000D03*
X-16000000Y-48000000D03*
D29*
X0Y36000000D03*
D30*
X0Y42000000D03*
D31*
X-4700000Y39000000D03*
D17*
X24175000Y8250000D03*
X25825000Y8250000D03*
D32*
X-9000000Y6500000D03*
X-13000000Y6500000D03*
D33*
X-845000Y-49147500D03*
X-845000Y-50672500D03*
X-82500Y-48385000D03*
X-82500Y-49910000D03*
X-82500Y-51435000D03*
X680000Y-49147500D03*
D34*
X680000Y-49910000D03*
D33*
X680000Y-50672500D03*
X1442500Y-48385000D03*
X1442500Y-49910000D03*
X1442500Y-51435000D03*
X2205000Y-49147500D03*
X2205000Y-50672500D03*
D35*
X-8750000Y-57250000D03*
X-8750000Y-55980000D03*
X-8750000Y-54710000D03*
X-8750000Y-53440000D03*
X-8750000Y-52170000D03*
X-8750000Y-50900000D03*
X-8750000Y-49630000D03*
X-8750000Y-48360000D03*
X-8750000Y-47090000D03*
X-8750000Y-45820000D03*
X-8750000Y-44550000D03*
X-8750000Y-43280000D03*
X-8750000Y-42010000D03*
X-8750000Y-40740000D03*
D36*
X-5720000Y-39490000D03*
X-4450000Y-39490000D03*
X-3180000Y-39490000D03*
X-1910000Y-39490000D03*
X-640000Y-39490000D03*
X630000Y-39490000D03*
X1900000Y-39490000D03*
X3170000Y-39490000D03*
X4440000Y-39490000D03*
X5710000Y-39490000D03*
D35*
X8750000Y-40740000D03*
X8750000Y-42010000D03*
X8750000Y-43280000D03*
X8750000Y-44550000D03*
X8750000Y-45820000D03*
X8750000Y-47090000D03*
X8750000Y-48360000D03*
X8750000Y-49630000D03*
X8750000Y-50900000D03*
X8750000Y-52170000D03*
X8750000Y-53440000D03*
X8750000Y-54710000D03*
X8750000Y-55980000D03*
X8750000Y-57250000D03*
D25*
X18812500Y-47000000D03*
X20687500Y-47000000D03*
D17*
X7575000Y47500000D03*
X9225000Y47500000D03*
D37*
X27000000Y-55750000D03*
D26*
X20000000Y30000000D03*
D20*
X20000000Y32500000D03*
X20000000Y35000000D03*
X20000000Y37500000D03*
D27*
X12775000Y-57500000D03*
X11225000Y-57500000D03*
D38*
X-27000000Y-40880000D03*
D39*
X-27000000Y-43420000D03*
X-27000000Y-45960000D03*
X-27000000Y-48500000D03*
D17*
X24300000Y2250000D03*
X25950000Y2250000D03*
D40*
X11000000Y28250000D03*
X11000000Y34750000D03*
D14*
X-20000000Y-43825000D03*
X-20000000Y-42175000D03*
D37*
X-27000000Y-55750000D03*
D41*
X-16200000Y-18850000D03*
X-18500000Y-18850000D03*
D42*
X-18500000Y-25150000D03*
D41*
X-20800000Y-18850000D03*
D17*
X7575000Y42500000D03*
X9225000Y42500000D03*
D43*
X-25450000Y-18500000D03*
X-23550000Y-18500000D03*
D24*
X-1000000Y26000000D03*
X875000Y26000000D03*
D44*
X-20000000Y-54975000D03*
X-20000000Y-56525000D03*
D45*
X23500000Y-51175000D03*
X23500000Y-52825000D03*
D25*
X-13937500Y-49050000D03*
X-12062500Y-49050000D03*
D11*
X-2500000Y-25525000D03*
D12*
X0Y-25525000D03*
X2500000Y-25525000D03*
D46*
X2475000Y10000000D03*
X-475000Y10000000D03*
D47*
X-11000000Y-26500000D03*
X-12900000Y-26500000D03*
D48*
X-18050000Y-54250000D03*
X-11950000Y-54250000D03*
X-18050000Y-57250000D03*
X-11950000Y-57250000D03*
D18*
X19437500Y6500000D03*
X19437500Y4600000D03*
X21312500Y5550000D03*
D37*
X27000000Y47000000D03*
D18*
X-17937500Y-43100000D03*
X-17937500Y-45000000D03*
X-16062500Y-44050000D03*
D40*
X-11000000Y28250000D03*
X-11000000Y34750000D03*
D25*
X26062500Y-500000D03*
X24187500Y-500000D03*
D37*
X-27000000Y47000000D03*
D14*
X17437500Y5675000D03*
X17437500Y7325000D03*
D11*
X-2500000Y-33000000D03*
D12*
X0Y-33000000D03*
X2500000Y-33000000D03*
D49*
X-11000000Y-23200000D03*
X-11000000Y-18800000D03*
D50*
X-22225000Y6525000D03*
X-22225000Y-3375000D03*
D45*
X-22000000Y-54925000D03*
X-22000000Y-56575000D03*
D14*
X15750000Y-47075000D03*
X15750000Y-45425000D03*
D17*
X-12175000Y-47050000D03*
X-13825000Y-47050000D03*
D14*
X17562500Y-6325000D03*
X17562500Y-4675000D03*
D17*
X24300000Y-3750000D03*
X25950000Y-3750000D03*
D25*
X25937500Y5500000D03*
X24062500Y5500000D03*
D14*
X5000000Y14675000D03*
X5000000Y16325000D03*
D51*
X-5800000Y2500000D03*
X-7500000Y2500000D03*
X-9200000Y2500000D03*
X-10900000Y2500000D03*
X-12600000Y2500000D03*
D44*
X21500000Y-51225000D03*
X21500000Y-52775000D03*
D52*
X0Y2575000D03*
X8000000Y2575000D03*
D24*
X-937500Y15000000D03*
X937500Y15000000D03*
D15*
X10110000Y-25840000D03*
D16*
X12650000Y-25840000D03*
X15190000Y-25840000D03*
X17730000Y-25840000D03*
X20270000Y-25840000D03*
X22810000Y-25840000D03*
X25350000Y-25840000D03*
X27890000Y-25840000D03*
X27890000Y-13140000D03*
X25350000Y-13140000D03*
X22810000Y-13140000D03*
X20270000Y-13140000D03*
X17730000Y-13140000D03*
X15190000Y-13140000D03*
X12650000Y-13140000D03*
X10110000Y-13140000D03*
D15*
X-10000000Y23840000D03*
D16*
X-12540000Y23840000D03*
X-15080000Y23840000D03*
X-17620000Y23840000D03*
X-20160000Y23840000D03*
X-22700000Y23840000D03*
X-25240000Y23840000D03*
X-27780000Y23840000D03*
X-27780000Y11140000D03*
X-25240000Y11140000D03*
X-22700000Y11140000D03*
X-20160000Y11140000D03*
X-17620000Y11140000D03*
X-15080000Y11140000D03*
X-12540000Y11140000D03*
X-10000000Y11140000D03*
M02*
