%TF.GenerationSoftware,KiCad,Pcbnew,8.0.4*%
%TF.CreationDate,2025-01-23T14:04:12+11:00*%
%TF.ProjectId,Rotating_Cube_Shelf_2,526f7461-7469-46e6-975f-437562655f53,rev?*%
%TF.SameCoordinates,Original*%
%TF.FileFunction,Drillmap*%
%TF.FilePolarity,Positive*%
%FSLAX45Y45*%
G04 Gerber Fmt 4.5, Leading zero omitted, Abs format (unit mm)*
G04 Created by KiCad (PCBNEW 8.0.4) date 2025-01-23 14:04:12*
%MOMM*%
%LPD*%
G01*
G04 APERTURE LIST*
%ADD10C,0.050000*%
%ADD11C,0.200000*%
%ADD12C,0.320000*%
G04 APERTURE END LIST*
D10*
X-3000000Y4700000D02*
G75*
G02*
X-2700000Y5000000I300000J0D01*
G01*
X2700000Y5000000D02*
G75*
G02*
X3000000Y4700000I0J-300000D01*
G01*
X-2700000Y5000000D02*
X2700000Y5000000D01*
X-2700000Y-5875000D02*
G75*
G02*
X-3000000Y-5575000I0J300000D01*
G01*
X2700000Y-5875000D02*
X-2700000Y-5875000D01*
X3000000Y4700000D02*
X3000000Y-5575000D01*
X3000000Y-5575000D02*
G75*
G02*
X2700000Y-5875000I-300000J0D01*
G01*
X-3000000Y-5575000D02*
X-3000000Y4700000D01*
D11*
D12*
X-2860000Y4860000D02*
X-2540000Y4540000D01*
X-2540000Y4860000D02*
X-2860000Y4540000D01*
X-2860000Y-5415000D02*
X-2540000Y-5735000D01*
X-2540000Y-5415000D02*
X-2860000Y-5735000D01*
X2540000Y4860000D02*
X2860000Y4540000D01*
X2860000Y4860000D02*
X2540000Y4540000D01*
X2540000Y-5415000D02*
X2860000Y-5735000D01*
X2860000Y-5415000D02*
X2540000Y-5735000D01*
D11*
X-2741723Y-6188984D02*
X-2741723Y-5988984D01*
X-2741723Y-5988984D02*
X-2694104Y-5988984D01*
X-2694104Y-5988984D02*
X-2665533Y-5998508D01*
X-2665533Y-5998508D02*
X-2646485Y-6017555D01*
X-2646485Y-6017555D02*
X-2636961Y-6036603D01*
X-2636961Y-6036603D02*
X-2627437Y-6074698D01*
X-2627437Y-6074698D02*
X-2627437Y-6103269D01*
X-2627437Y-6103269D02*
X-2636961Y-6141365D01*
X-2636961Y-6141365D02*
X-2646485Y-6160412D01*
X-2646485Y-6160412D02*
X-2665533Y-6179460D01*
X-2665533Y-6179460D02*
X-2694104Y-6188984D01*
X-2694104Y-6188984D02*
X-2741723Y-6188984D01*
X-2541723Y-6188984D02*
X-2541723Y-6055650D01*
X-2541723Y-6093746D02*
X-2532199Y-6074698D01*
X-2532199Y-6074698D02*
X-2522676Y-6065174D01*
X-2522676Y-6065174D02*
X-2503628Y-6055650D01*
X-2503628Y-6055650D02*
X-2484580Y-6055650D01*
X-2417914Y-6188984D02*
X-2417914Y-6055650D01*
X-2417914Y-5988984D02*
X-2427437Y-5998508D01*
X-2427437Y-5998508D02*
X-2417914Y-6008031D01*
X-2417914Y-6008031D02*
X-2408390Y-5998508D01*
X-2408390Y-5998508D02*
X-2417914Y-5988984D01*
X-2417914Y-5988984D02*
X-2417914Y-6008031D01*
X-2294104Y-6188984D02*
X-2313152Y-6179460D01*
X-2313152Y-6179460D02*
X-2322676Y-6160412D01*
X-2322676Y-6160412D02*
X-2322676Y-5988984D01*
X-2189342Y-6188984D02*
X-2208390Y-6179460D01*
X-2208390Y-6179460D02*
X-2217914Y-6160412D01*
X-2217914Y-6160412D02*
X-2217914Y-5988984D01*
X-1960771Y-6188984D02*
X-1960771Y-5988984D01*
X-1960771Y-5988984D02*
X-1894104Y-6131841D01*
X-1894104Y-6131841D02*
X-1827437Y-5988984D01*
X-1827437Y-5988984D02*
X-1827437Y-6188984D01*
X-1646485Y-6188984D02*
X-1646485Y-6084222D01*
X-1646485Y-6084222D02*
X-1656009Y-6065174D01*
X-1656009Y-6065174D02*
X-1675056Y-6055650D01*
X-1675056Y-6055650D02*
X-1713152Y-6055650D01*
X-1713152Y-6055650D02*
X-1732199Y-6065174D01*
X-1646485Y-6179460D02*
X-1665533Y-6188984D01*
X-1665533Y-6188984D02*
X-1713152Y-6188984D01*
X-1713152Y-6188984D02*
X-1732199Y-6179460D01*
X-1732199Y-6179460D02*
X-1741723Y-6160412D01*
X-1741723Y-6160412D02*
X-1741723Y-6141365D01*
X-1741723Y-6141365D02*
X-1732199Y-6122317D01*
X-1732199Y-6122317D02*
X-1713152Y-6112793D01*
X-1713152Y-6112793D02*
X-1665533Y-6112793D01*
X-1665533Y-6112793D02*
X-1646485Y-6103269D01*
X-1551247Y-6055650D02*
X-1551247Y-6255650D01*
X-1551247Y-6065174D02*
X-1532199Y-6055650D01*
X-1532199Y-6055650D02*
X-1494104Y-6055650D01*
X-1494104Y-6055650D02*
X-1475056Y-6065174D01*
X-1475056Y-6065174D02*
X-1465533Y-6074698D01*
X-1465533Y-6074698D02*
X-1456009Y-6093746D01*
X-1456009Y-6093746D02*
X-1456009Y-6150888D01*
X-1456009Y-6150888D02*
X-1465533Y-6169936D01*
X-1465533Y-6169936D02*
X-1475056Y-6179460D01*
X-1475056Y-6179460D02*
X-1494104Y-6188984D01*
X-1494104Y-6188984D02*
X-1532199Y-6188984D01*
X-1532199Y-6188984D02*
X-1551247Y-6179460D01*
X-1370295Y-6169936D02*
X-1360771Y-6179460D01*
X-1360771Y-6179460D02*
X-1370295Y-6188984D01*
X-1370295Y-6188984D02*
X-1379818Y-6179460D01*
X-1379818Y-6179460D02*
X-1370295Y-6169936D01*
X-1370295Y-6169936D02*
X-1370295Y-6188984D01*
X-1370295Y-6065174D02*
X-1360771Y-6074698D01*
X-1360771Y-6074698D02*
X-1370295Y-6084222D01*
X-1370295Y-6084222D02*
X-1379818Y-6074698D01*
X-1379818Y-6074698D02*
X-1370295Y-6065174D01*
X-1370295Y-6065174D02*
X-1370295Y-6084222D01*
X-3202500Y-6417500D02*
X-3002500Y-6617500D01*
X-3002500Y-6417500D02*
X-3202500Y-6617500D01*
X-2760771Y-6408984D02*
X-2636961Y-6408984D01*
X-2636961Y-6408984D02*
X-2703628Y-6485174D01*
X-2703628Y-6485174D02*
X-2675056Y-6485174D01*
X-2675056Y-6485174D02*
X-2656009Y-6494698D01*
X-2656009Y-6494698D02*
X-2646485Y-6504222D01*
X-2646485Y-6504222D02*
X-2636961Y-6523269D01*
X-2636961Y-6523269D02*
X-2636961Y-6570888D01*
X-2636961Y-6570888D02*
X-2646485Y-6589936D01*
X-2646485Y-6589936D02*
X-2656009Y-6599460D01*
X-2656009Y-6599460D02*
X-2675056Y-6608984D01*
X-2675056Y-6608984D02*
X-2732199Y-6608984D01*
X-2732199Y-6608984D02*
X-2751247Y-6599460D01*
X-2751247Y-6599460D02*
X-2760771Y-6589936D01*
X-2551247Y-6589936D02*
X-2541723Y-6599460D01*
X-2541723Y-6599460D02*
X-2551247Y-6608984D01*
X-2551247Y-6608984D02*
X-2560771Y-6599460D01*
X-2560771Y-6599460D02*
X-2551247Y-6589936D01*
X-2551247Y-6589936D02*
X-2551247Y-6608984D01*
X-2465533Y-6428031D02*
X-2456009Y-6418508D01*
X-2456009Y-6418508D02*
X-2436961Y-6408984D01*
X-2436961Y-6408984D02*
X-2389342Y-6408984D01*
X-2389342Y-6408984D02*
X-2370295Y-6418508D01*
X-2370295Y-6418508D02*
X-2360771Y-6428031D01*
X-2360771Y-6428031D02*
X-2351247Y-6447079D01*
X-2351247Y-6447079D02*
X-2351247Y-6466127D01*
X-2351247Y-6466127D02*
X-2360771Y-6494698D01*
X-2360771Y-6494698D02*
X-2475056Y-6608984D01*
X-2475056Y-6608984D02*
X-2351247Y-6608984D01*
X-2227437Y-6408984D02*
X-2208390Y-6408984D01*
X-2208390Y-6408984D02*
X-2189342Y-6418508D01*
X-2189342Y-6418508D02*
X-2179818Y-6428031D01*
X-2179818Y-6428031D02*
X-2170295Y-6447079D01*
X-2170295Y-6447079D02*
X-2160771Y-6485174D01*
X-2160771Y-6485174D02*
X-2160771Y-6532793D01*
X-2160771Y-6532793D02*
X-2170295Y-6570888D01*
X-2170295Y-6570888D02*
X-2179818Y-6589936D01*
X-2179818Y-6589936D02*
X-2189342Y-6599460D01*
X-2189342Y-6599460D02*
X-2208390Y-6608984D01*
X-2208390Y-6608984D02*
X-2227437Y-6608984D01*
X-2227437Y-6608984D02*
X-2246485Y-6599460D01*
X-2246485Y-6599460D02*
X-2256009Y-6589936D01*
X-2256009Y-6589936D02*
X-2265533Y-6570888D01*
X-2265533Y-6570888D02*
X-2275056Y-6532793D01*
X-2275056Y-6532793D02*
X-2275056Y-6485174D01*
X-2275056Y-6485174D02*
X-2265533Y-6447079D01*
X-2265533Y-6447079D02*
X-2256009Y-6428031D01*
X-2256009Y-6428031D02*
X-2246485Y-6418508D01*
X-2246485Y-6418508D02*
X-2227437Y-6408984D01*
X-2036961Y-6408984D02*
X-2017913Y-6408984D01*
X-2017913Y-6408984D02*
X-1998866Y-6418508D01*
X-1998866Y-6418508D02*
X-1989342Y-6428031D01*
X-1989342Y-6428031D02*
X-1979818Y-6447079D01*
X-1979818Y-6447079D02*
X-1970294Y-6485174D01*
X-1970294Y-6485174D02*
X-1970294Y-6532793D01*
X-1970294Y-6532793D02*
X-1979818Y-6570888D01*
X-1979818Y-6570888D02*
X-1989342Y-6589936D01*
X-1989342Y-6589936D02*
X-1998866Y-6599460D01*
X-1998866Y-6599460D02*
X-2017913Y-6608984D01*
X-2017913Y-6608984D02*
X-2036961Y-6608984D01*
X-2036961Y-6608984D02*
X-2056009Y-6599460D01*
X-2056009Y-6599460D02*
X-2065533Y-6589936D01*
X-2065533Y-6589936D02*
X-2075056Y-6570888D01*
X-2075056Y-6570888D02*
X-2084580Y-6532793D01*
X-2084580Y-6532793D02*
X-2084580Y-6485174D01*
X-2084580Y-6485174D02*
X-2075056Y-6447079D01*
X-2075056Y-6447079D02*
X-2065533Y-6428031D01*
X-2065533Y-6428031D02*
X-2056009Y-6418508D01*
X-2056009Y-6418508D02*
X-2036961Y-6408984D01*
X-1884580Y-6608984D02*
X-1884580Y-6475650D01*
X-1884580Y-6494698D02*
X-1875056Y-6485174D01*
X-1875056Y-6485174D02*
X-1856009Y-6475650D01*
X-1856009Y-6475650D02*
X-1827437Y-6475650D01*
X-1827437Y-6475650D02*
X-1808390Y-6485174D01*
X-1808390Y-6485174D02*
X-1798866Y-6504222D01*
X-1798866Y-6504222D02*
X-1798866Y-6608984D01*
X-1798866Y-6504222D02*
X-1789342Y-6485174D01*
X-1789342Y-6485174D02*
X-1770294Y-6475650D01*
X-1770294Y-6475650D02*
X-1741723Y-6475650D01*
X-1741723Y-6475650D02*
X-1722675Y-6485174D01*
X-1722675Y-6485174D02*
X-1713152Y-6504222D01*
X-1713152Y-6504222D02*
X-1713152Y-6608984D01*
X-1617913Y-6608984D02*
X-1617913Y-6475650D01*
X-1617913Y-6494698D02*
X-1608390Y-6485174D01*
X-1608390Y-6485174D02*
X-1589342Y-6475650D01*
X-1589342Y-6475650D02*
X-1560771Y-6475650D01*
X-1560771Y-6475650D02*
X-1541723Y-6485174D01*
X-1541723Y-6485174D02*
X-1532199Y-6504222D01*
X-1532199Y-6504222D02*
X-1532199Y-6608984D01*
X-1532199Y-6504222D02*
X-1522675Y-6485174D01*
X-1522675Y-6485174D02*
X-1503628Y-6475650D01*
X-1503628Y-6475650D02*
X-1475056Y-6475650D01*
X-1475056Y-6475650D02*
X-1456009Y-6485174D01*
X-1456009Y-6485174D02*
X-1446485Y-6504222D01*
X-1446485Y-6504222D02*
X-1446485Y-6608984D01*
X-1056009Y-6399460D02*
X-1227437Y-6656603D01*
X-798866Y-6408984D02*
X-779818Y-6408984D01*
X-779818Y-6408984D02*
X-760770Y-6418508D01*
X-760770Y-6418508D02*
X-751247Y-6428031D01*
X-751247Y-6428031D02*
X-741723Y-6447079D01*
X-741723Y-6447079D02*
X-732199Y-6485174D01*
X-732199Y-6485174D02*
X-732199Y-6532793D01*
X-732199Y-6532793D02*
X-741723Y-6570888D01*
X-741723Y-6570888D02*
X-751247Y-6589936D01*
X-751247Y-6589936D02*
X-760770Y-6599460D01*
X-760770Y-6599460D02*
X-779818Y-6608984D01*
X-779818Y-6608984D02*
X-798866Y-6608984D01*
X-798866Y-6608984D02*
X-817913Y-6599460D01*
X-817913Y-6599460D02*
X-827437Y-6589936D01*
X-827437Y-6589936D02*
X-836961Y-6570888D01*
X-836961Y-6570888D02*
X-846485Y-6532793D01*
X-846485Y-6532793D02*
X-846485Y-6485174D01*
X-846485Y-6485174D02*
X-836961Y-6447079D01*
X-836961Y-6447079D02*
X-827437Y-6428031D01*
X-827437Y-6428031D02*
X-817913Y-6418508D01*
X-817913Y-6418508D02*
X-798866Y-6408984D01*
X-646485Y-6589936D02*
X-636961Y-6599460D01*
X-636961Y-6599460D02*
X-646485Y-6608984D01*
X-646485Y-6608984D02*
X-656009Y-6599460D01*
X-656009Y-6599460D02*
X-646485Y-6589936D01*
X-646485Y-6589936D02*
X-646485Y-6608984D01*
X-446485Y-6608984D02*
X-560771Y-6608984D01*
X-503628Y-6608984D02*
X-503628Y-6408984D01*
X-503628Y-6408984D02*
X-522675Y-6437555D01*
X-522675Y-6437555D02*
X-541723Y-6456603D01*
X-541723Y-6456603D02*
X-560771Y-6466127D01*
X-370294Y-6428031D02*
X-360770Y-6418508D01*
X-360770Y-6418508D02*
X-341723Y-6408984D01*
X-341723Y-6408984D02*
X-294104Y-6408984D01*
X-294104Y-6408984D02*
X-275056Y-6418508D01*
X-275056Y-6418508D02*
X-265532Y-6428031D01*
X-265532Y-6428031D02*
X-256009Y-6447079D01*
X-256009Y-6447079D02*
X-256009Y-6466127D01*
X-256009Y-6466127D02*
X-265532Y-6494698D01*
X-265532Y-6494698D02*
X-379818Y-6608984D01*
X-379818Y-6608984D02*
X-256009Y-6608984D01*
X-84580Y-6408984D02*
X-122675Y-6408984D01*
X-122675Y-6408984D02*
X-141723Y-6418508D01*
X-141723Y-6418508D02*
X-151247Y-6428031D01*
X-151247Y-6428031D02*
X-170294Y-6456603D01*
X-170294Y-6456603D02*
X-179818Y-6494698D01*
X-179818Y-6494698D02*
X-179818Y-6570888D01*
X-179818Y-6570888D02*
X-170294Y-6589936D01*
X-170294Y-6589936D02*
X-160771Y-6599460D01*
X-160771Y-6599460D02*
X-141723Y-6608984D01*
X-141723Y-6608984D02*
X-103628Y-6608984D01*
X-103628Y-6608984D02*
X-84580Y-6599460D01*
X-84580Y-6599460D02*
X-75056Y-6589936D01*
X-75056Y-6589936D02*
X-65532Y-6570888D01*
X-65532Y-6570888D02*
X-65532Y-6523269D01*
X-65532Y-6523269D02*
X-75056Y-6504222D01*
X-75056Y-6504222D02*
X-84580Y-6494698D01*
X-84580Y-6494698D02*
X-103628Y-6485174D01*
X-103628Y-6485174D02*
X-141723Y-6485174D01*
X-141723Y-6485174D02*
X-160771Y-6494698D01*
X-160771Y-6494698D02*
X-170294Y-6504222D01*
X-170294Y-6504222D02*
X-179818Y-6523269D01*
X58277Y-6408984D02*
X77325Y-6408984D01*
X77325Y-6408984D02*
X96372Y-6418508D01*
X96372Y-6418508D02*
X105896Y-6428031D01*
X105896Y-6428031D02*
X115420Y-6447079D01*
X115420Y-6447079D02*
X124944Y-6485174D01*
X124944Y-6485174D02*
X124944Y-6532793D01*
X124944Y-6532793D02*
X115420Y-6570888D01*
X115420Y-6570888D02*
X105896Y-6589936D01*
X105896Y-6589936D02*
X96372Y-6599460D01*
X96372Y-6599460D02*
X77325Y-6608984D01*
X77325Y-6608984D02*
X58277Y-6608984D01*
X58277Y-6608984D02*
X39229Y-6599460D01*
X39229Y-6599460D02*
X29706Y-6589936D01*
X29706Y-6589936D02*
X20182Y-6570888D01*
X20182Y-6570888D02*
X10658Y-6532793D01*
X10658Y-6532793D02*
X10658Y-6485174D01*
X10658Y-6485174D02*
X20182Y-6447079D01*
X20182Y-6447079D02*
X29706Y-6428031D01*
X29706Y-6428031D02*
X39229Y-6418508D01*
X39229Y-6418508D02*
X58277Y-6408984D01*
X201134Y-6408984D02*
X201134Y-6447079D01*
X277325Y-6408984D02*
X277325Y-6447079D01*
X572563Y-6685174D02*
X563039Y-6675650D01*
X563039Y-6675650D02*
X543991Y-6647079D01*
X543991Y-6647079D02*
X534468Y-6628031D01*
X534468Y-6628031D02*
X524944Y-6599460D01*
X524944Y-6599460D02*
X515420Y-6551841D01*
X515420Y-6551841D02*
X515420Y-6513746D01*
X515420Y-6513746D02*
X524944Y-6466127D01*
X524944Y-6466127D02*
X534468Y-6437555D01*
X534468Y-6437555D02*
X543991Y-6418508D01*
X543991Y-6418508D02*
X563039Y-6389936D01*
X563039Y-6389936D02*
X572563Y-6380412D01*
X734468Y-6475650D02*
X734468Y-6608984D01*
X686849Y-6399460D02*
X639230Y-6542317D01*
X639230Y-6542317D02*
X763039Y-6542317D01*
X991610Y-6608984D02*
X991610Y-6408984D01*
X1077325Y-6608984D02*
X1077325Y-6504222D01*
X1077325Y-6504222D02*
X1067801Y-6485174D01*
X1067801Y-6485174D02*
X1048753Y-6475650D01*
X1048753Y-6475650D02*
X1020182Y-6475650D01*
X1020182Y-6475650D02*
X1001134Y-6485174D01*
X1001134Y-6485174D02*
X991610Y-6494698D01*
X1201134Y-6608984D02*
X1182087Y-6599460D01*
X1182087Y-6599460D02*
X1172563Y-6589936D01*
X1172563Y-6589936D02*
X1163039Y-6570888D01*
X1163039Y-6570888D02*
X1163039Y-6513746D01*
X1163039Y-6513746D02*
X1172563Y-6494698D01*
X1172563Y-6494698D02*
X1182087Y-6485174D01*
X1182087Y-6485174D02*
X1201134Y-6475650D01*
X1201134Y-6475650D02*
X1229706Y-6475650D01*
X1229706Y-6475650D02*
X1248753Y-6485174D01*
X1248753Y-6485174D02*
X1258277Y-6494698D01*
X1258277Y-6494698D02*
X1267801Y-6513746D01*
X1267801Y-6513746D02*
X1267801Y-6570888D01*
X1267801Y-6570888D02*
X1258277Y-6589936D01*
X1258277Y-6589936D02*
X1248753Y-6599460D01*
X1248753Y-6599460D02*
X1229706Y-6608984D01*
X1229706Y-6608984D02*
X1201134Y-6608984D01*
X1382087Y-6608984D02*
X1363039Y-6599460D01*
X1363039Y-6599460D02*
X1353515Y-6580412D01*
X1353515Y-6580412D02*
X1353515Y-6408984D01*
X1534468Y-6599460D02*
X1515420Y-6608984D01*
X1515420Y-6608984D02*
X1477325Y-6608984D01*
X1477325Y-6608984D02*
X1458277Y-6599460D01*
X1458277Y-6599460D02*
X1448753Y-6580412D01*
X1448753Y-6580412D02*
X1448753Y-6504222D01*
X1448753Y-6504222D02*
X1458277Y-6485174D01*
X1458277Y-6485174D02*
X1477325Y-6475650D01*
X1477325Y-6475650D02*
X1515420Y-6475650D01*
X1515420Y-6475650D02*
X1534468Y-6485174D01*
X1534468Y-6485174D02*
X1543991Y-6504222D01*
X1543991Y-6504222D02*
X1543991Y-6523269D01*
X1543991Y-6523269D02*
X1448753Y-6542317D01*
X1620182Y-6599460D02*
X1639230Y-6608984D01*
X1639230Y-6608984D02*
X1677325Y-6608984D01*
X1677325Y-6608984D02*
X1696372Y-6599460D01*
X1696372Y-6599460D02*
X1705896Y-6580412D01*
X1705896Y-6580412D02*
X1705896Y-6570888D01*
X1705896Y-6570888D02*
X1696372Y-6551841D01*
X1696372Y-6551841D02*
X1677325Y-6542317D01*
X1677325Y-6542317D02*
X1648753Y-6542317D01*
X1648753Y-6542317D02*
X1629706Y-6532793D01*
X1629706Y-6532793D02*
X1620182Y-6513746D01*
X1620182Y-6513746D02*
X1620182Y-6504222D01*
X1620182Y-6504222D02*
X1629706Y-6485174D01*
X1629706Y-6485174D02*
X1648753Y-6475650D01*
X1648753Y-6475650D02*
X1677325Y-6475650D01*
X1677325Y-6475650D02*
X1696372Y-6485174D01*
X1772563Y-6685174D02*
X1782087Y-6675650D01*
X1782087Y-6675650D02*
X1801134Y-6647079D01*
X1801134Y-6647079D02*
X1810658Y-6628031D01*
X1810658Y-6628031D02*
X1820182Y-6599460D01*
X1820182Y-6599460D02*
X1829706Y-6551841D01*
X1829706Y-6551841D02*
X1829706Y-6513746D01*
X1829706Y-6513746D02*
X1820182Y-6466127D01*
X1820182Y-6466127D02*
X1810658Y-6437555D01*
X1810658Y-6437555D02*
X1801134Y-6418508D01*
X1801134Y-6418508D02*
X1782087Y-6389936D01*
X1782087Y-6389936D02*
X1772563Y-6380412D01*
X2134468Y-6685174D02*
X2124944Y-6675650D01*
X2124944Y-6675650D02*
X2105896Y-6647079D01*
X2105896Y-6647079D02*
X2096372Y-6628031D01*
X2096372Y-6628031D02*
X2086849Y-6599460D01*
X2086849Y-6599460D02*
X2077325Y-6551841D01*
X2077325Y-6551841D02*
X2077325Y-6513746D01*
X2077325Y-6513746D02*
X2086849Y-6466127D01*
X2086849Y-6466127D02*
X2096372Y-6437555D01*
X2096372Y-6437555D02*
X2105896Y-6418508D01*
X2105896Y-6418508D02*
X2124944Y-6389936D01*
X2124944Y-6389936D02*
X2134468Y-6380412D01*
X2210658Y-6475650D02*
X2210658Y-6608984D01*
X2210658Y-6494698D02*
X2220182Y-6485174D01*
X2220182Y-6485174D02*
X2239230Y-6475650D01*
X2239230Y-6475650D02*
X2267801Y-6475650D01*
X2267801Y-6475650D02*
X2286849Y-6485174D01*
X2286849Y-6485174D02*
X2296373Y-6504222D01*
X2296373Y-6504222D02*
X2296373Y-6608984D01*
X2420182Y-6608984D02*
X2401134Y-6599460D01*
X2401134Y-6599460D02*
X2391611Y-6589936D01*
X2391611Y-6589936D02*
X2382087Y-6570888D01*
X2382087Y-6570888D02*
X2382087Y-6513746D01*
X2382087Y-6513746D02*
X2391611Y-6494698D01*
X2391611Y-6494698D02*
X2401134Y-6485174D01*
X2401134Y-6485174D02*
X2420182Y-6475650D01*
X2420182Y-6475650D02*
X2448754Y-6475650D01*
X2448754Y-6475650D02*
X2467801Y-6485174D01*
X2467801Y-6485174D02*
X2477325Y-6494698D01*
X2477325Y-6494698D02*
X2486849Y-6513746D01*
X2486849Y-6513746D02*
X2486849Y-6570888D01*
X2486849Y-6570888D02*
X2477325Y-6589936D01*
X2477325Y-6589936D02*
X2467801Y-6599460D01*
X2467801Y-6599460D02*
X2448754Y-6608984D01*
X2448754Y-6608984D02*
X2420182Y-6608984D01*
X2543992Y-6475650D02*
X2620182Y-6475650D01*
X2572563Y-6408984D02*
X2572563Y-6580412D01*
X2572563Y-6580412D02*
X2582087Y-6599460D01*
X2582087Y-6599460D02*
X2601134Y-6608984D01*
X2601134Y-6608984D02*
X2620182Y-6608984D01*
X2839230Y-6475650D02*
X2839230Y-6675650D01*
X2839230Y-6485174D02*
X2858277Y-6475650D01*
X2858277Y-6475650D02*
X2896373Y-6475650D01*
X2896373Y-6475650D02*
X2915420Y-6485174D01*
X2915420Y-6485174D02*
X2924944Y-6494698D01*
X2924944Y-6494698D02*
X2934468Y-6513746D01*
X2934468Y-6513746D02*
X2934468Y-6570888D01*
X2934468Y-6570888D02*
X2924944Y-6589936D01*
X2924944Y-6589936D02*
X2915420Y-6599460D01*
X2915420Y-6599460D02*
X2896373Y-6608984D01*
X2896373Y-6608984D02*
X2858277Y-6608984D01*
X2858277Y-6608984D02*
X2839230Y-6599460D01*
X3048753Y-6608984D02*
X3029706Y-6599460D01*
X3029706Y-6599460D02*
X3020182Y-6580412D01*
X3020182Y-6580412D02*
X3020182Y-6408984D01*
X3210658Y-6608984D02*
X3210658Y-6504222D01*
X3210658Y-6504222D02*
X3201134Y-6485174D01*
X3201134Y-6485174D02*
X3182087Y-6475650D01*
X3182087Y-6475650D02*
X3143992Y-6475650D01*
X3143992Y-6475650D02*
X3124944Y-6485174D01*
X3210658Y-6599460D02*
X3191611Y-6608984D01*
X3191611Y-6608984D02*
X3143992Y-6608984D01*
X3143992Y-6608984D02*
X3124944Y-6599460D01*
X3124944Y-6599460D02*
X3115420Y-6580412D01*
X3115420Y-6580412D02*
X3115420Y-6561365D01*
X3115420Y-6561365D02*
X3124944Y-6542317D01*
X3124944Y-6542317D02*
X3143992Y-6532793D01*
X3143992Y-6532793D02*
X3191611Y-6532793D01*
X3191611Y-6532793D02*
X3210658Y-6523269D01*
X3277325Y-6475650D02*
X3353515Y-6475650D01*
X3305896Y-6408984D02*
X3305896Y-6580412D01*
X3305896Y-6580412D02*
X3315420Y-6599460D01*
X3315420Y-6599460D02*
X3334468Y-6608984D01*
X3334468Y-6608984D02*
X3353515Y-6608984D01*
X3496373Y-6599460D02*
X3477325Y-6608984D01*
X3477325Y-6608984D02*
X3439230Y-6608984D01*
X3439230Y-6608984D02*
X3420182Y-6599460D01*
X3420182Y-6599460D02*
X3410658Y-6580412D01*
X3410658Y-6580412D02*
X3410658Y-6504222D01*
X3410658Y-6504222D02*
X3420182Y-6485174D01*
X3420182Y-6485174D02*
X3439230Y-6475650D01*
X3439230Y-6475650D02*
X3477325Y-6475650D01*
X3477325Y-6475650D02*
X3496373Y-6485174D01*
X3496373Y-6485174D02*
X3505896Y-6504222D01*
X3505896Y-6504222D02*
X3505896Y-6523269D01*
X3505896Y-6523269D02*
X3410658Y-6542317D01*
X3677325Y-6608984D02*
X3677325Y-6408984D01*
X3677325Y-6599460D02*
X3658277Y-6608984D01*
X3658277Y-6608984D02*
X3620182Y-6608984D01*
X3620182Y-6608984D02*
X3601134Y-6599460D01*
X3601134Y-6599460D02*
X3591611Y-6589936D01*
X3591611Y-6589936D02*
X3582087Y-6570888D01*
X3582087Y-6570888D02*
X3582087Y-6513746D01*
X3582087Y-6513746D02*
X3591611Y-6494698D01*
X3591611Y-6494698D02*
X3601134Y-6485174D01*
X3601134Y-6485174D02*
X3620182Y-6475650D01*
X3620182Y-6475650D02*
X3658277Y-6475650D01*
X3658277Y-6475650D02*
X3677325Y-6485174D01*
X3753515Y-6685174D02*
X3763039Y-6675650D01*
X3763039Y-6675650D02*
X3782087Y-6647079D01*
X3782087Y-6647079D02*
X3791611Y-6628031D01*
X3791611Y-6628031D02*
X3801134Y-6599460D01*
X3801134Y-6599460D02*
X3810658Y-6551841D01*
X3810658Y-6551841D02*
X3810658Y-6513746D01*
X3810658Y-6513746D02*
X3801134Y-6466127D01*
X3801134Y-6466127D02*
X3791611Y-6437555D01*
X3791611Y-6437555D02*
X3782087Y-6418508D01*
X3782087Y-6418508D02*
X3763039Y-6389936D01*
X3763039Y-6389936D02*
X3753515Y-6380412D01*
M02*
