M48
; DRILL file {KiCad 8.0.4} date 2025-01-23T14:04:09+1100
; FORMAT={-:-/ absolute / metric / decimal}
; #@! TF.CreationDate,2025-01-23T14:04:09+11:00
; #@! TF.GenerationSoftware,Kicad,Pcbnew,8.0.4
; #@! TF.FileFunction,Plated,1,4,PTH
FMAT,2
METRIC
; #@! TA.AperFunction,Plated,PTH,ViaDrill
T1C0.300
; #@! TA.AperFunction,Plated,PTH,ComponentDrill
T2C0.300
; #@! TA.AperFunction,Plated,PTH,ViaDrill
T3C0.500
; #@! TA.AperFunction,Plated,PTH,ComponentDrill
T4C0.500
; #@! TA.AperFunction,Plated,PTH,ComponentDrill
T5C0.800
; #@! TA.AperFunction,Plated,PTH,ComponentDrill
T6C0.950
; #@! TA.AperFunction,Plated,PTH,ComponentDrill
T7C1.000
%
G90
G05
T1
X-28.0Y-24.25
X-28.0Y-30.0
X-27.748Y20.391
X-27.444Y14.062
X-27.25Y26.25
X-27.243Y-36.889
X-27.2Y6.0
X-27.2Y-19.0
X-27.0Y-15.75
X-26.8Y-7.0
X-26.75Y41.5
X-26.75Y-0.5
X-26.0Y36.25
X-25.75Y31.25
X-25.6Y3.0
X-25.5Y39.0
X-25.5Y-33.5
X-25.0Y18.5
X-24.5Y28.25
X-24.5Y-50.0
X-24.0Y-24.0
X-23.75Y-15.25
X-23.5Y-30.0
X-23.25Y-42.5
X-23.0Y-8.2
X-23.0Y-52.0
X-22.75Y-11.5
X-22.75Y-21.25
X-22.0Y16.5
X-22.0Y-47.5
X-22.0Y-53.5
X-21.5Y20.5
X-21.5Y0.75
X-21.5Y-36.0
X-21.0Y2.75
X-20.8Y26.4
X-20.4Y-20.8
X-19.25Y41.25
X-19.25Y-51.5
X-18.5Y14.0
X-18.5Y-32.5
X-18.4Y-17.0
X-18.0Y-55.5
X-17.6Y-5.8
X-17.0Y15.5
X-17.0Y8.5
X-16.8Y-20.6
X-16.5Y-39.5
X-16.5Y-51.0
X-16.01Y36.542
X-16.0Y39.75
X-15.5Y-42.5
X-15.5Y-47.0
X-15.2Y-8.0
X-15.0Y18.5
X-14.75Y3.25
X-14.75Y1.5
X-14.5Y-55.5
X-14.4Y-17.4
X-14.4Y-28.6
X-14.2Y-24.2
X-12.5Y13.5
X-12.5Y-32.5
X-12.0Y-51.5
X-11.75Y21.25
X-11.7Y-3.0
X-11.5Y-1.75
X-11.5Y-14.25
X-11.0Y-40.5
X-11.0Y-56.0
X-10.25Y-43.28
X-10.25Y-44.5
X-10.25Y-45.82
X-10.2Y14.4
X-10.15Y-28.85
X-10.0Y-35.0
X-9.75Y39.0
X-9.4Y-26.0
X-9.25Y8.75
X-9.25Y-20.5
X-9.1Y-2.7
X-9.0Y4.4
X-9.0Y-39.0
X-8.7Y-0.1
X-7.75Y-14.5
X-7.5Y18.5
X-7.5Y-0.1
X-7.25Y12.75
X-7.25Y10.25
X-7.0Y42.0
X-6.8Y-22.8
X-6.5Y7.0
X-6.3Y-3.0
X-6.25Y-41.75
X-6.25Y-43.0
X-6.25Y-44.25
X-6.25Y-45.5
X-6.25Y-46.75
X-6.25Y-48.0
X-6.25Y-49.25
X-6.25Y-50.5
X-6.25Y-51.75
X-6.25Y-53.0
X-6.25Y-54.25
X-6.25Y-55.5
X-6.25Y-56.75
X-6.0Y-29.0
X-5.5Y-37.75
X-5.0Y33.75
X-5.0Y30.75
X-5.0Y18.2
X-5.0Y-41.75
X-5.0Y-56.75
X-4.75Y12.873
X-4.5Y28.75
X-3.75Y-41.75
X-3.75Y-56.75
X-2.5Y25.0
X-2.5Y20.5
X-2.5Y15.0
X-2.5Y-41.75
X-2.5Y-56.75
X-2.0Y-2.5
X-1.5Y-13.75
X-1.25Y-41.75
X-1.25Y-56.75
X-0.25Y47.0
X0.0Y-11.25
X0.0Y-22.25
X0.0Y-41.75
X0.0Y-56.75
X0.25Y-29.75
X0.457Y-5.028
X1.25Y-41.75
X1.25Y-56.75
X2.0Y-13.5
X2.0Y-27.5
X2.0Y-35.0
X2.5Y27.25
X2.5Y22.0
X2.5Y-41.75
X2.5Y-56.75
X2.685Y16.796
X2.8Y-20.0
X3.0Y-1.5
X3.5Y7.0
X3.5Y5.0
X3.697Y38.57
X3.75Y-41.75
X3.75Y-56.75
X4.25Y-11.0
X4.5Y9.25
X5.0Y-5.25
X5.0Y-41.75
X5.0Y-56.75
X5.203Y30.88
X5.419Y46.165
X5.6Y-13.4
X5.6Y-26.708
X5.6Y-30.4
X5.672Y42.823
X5.75Y-21.5
X5.8Y-16.8
X6.25Y-41.75
X6.25Y-43.0
X6.25Y-44.25
X6.25Y-45.5
X6.25Y-46.75
X6.25Y-48.0
X6.25Y-49.25
X6.25Y-50.5
X6.25Y-51.75
X6.25Y-53.0
X6.25Y-54.25
X6.25Y-55.5
X6.25Y-56.75
X6.5Y16.5
X7.0Y-37.75
X7.1Y12.8
X7.25Y0.0
X7.5Y48.5
X7.75Y29.75
X7.951Y39.836
X8.25Y33.5
X8.336Y6.512
X8.66Y-4.926
X9.0Y-29.0
X9.0Y-34.5
X9.75Y-17.0
X10.0Y21.0
X10.25Y-42.0
X10.5Y15.5
X10.562Y-23.188
X10.75Y-43.25
X10.991Y6.997
X11.0Y46.5
X11.0Y-32.0
X11.0Y-35.5
X11.25Y-44.5
X11.5Y-55.127
X11.6Y43.4
X11.8Y45.0
X12.25Y31.5
X12.5Y18.6
X12.5Y7.25
X12.66Y-1.179
X13.0Y-4.0
X13.0Y-9.0
X13.5Y3.0
X13.6Y40.2
X14.0Y-48.0
X14.5Y0.0
X14.6Y34.0
X14.85Y8.85
X15.0Y15.5
X15.0Y7.325
X15.0Y-52.0
X15.0Y-56.0
X15.394Y-17.585
X15.4Y39.8
X15.5Y-23.0
X16.0Y4.0
X16.2Y19.6
X16.5Y-44.5
X17.5Y16.25
X17.5Y13.5
X18.0Y20.25
X19.5Y26.25
X19.5Y-50.5
X19.75Y-41.25
X20.0Y47.5
X20.0Y-3.5
X20.0Y-23.25
X20.2Y12.8
X20.25Y2.5
X20.5Y8.5
X20.75Y21.75
X20.8Y-9.4
X22.2Y13.4
X22.5Y45.0
X22.5Y42.5
X22.5Y8.25
X22.5Y-3.75
X22.5Y-16.5
X22.7Y-7.5
X23.0Y-19.25
X23.25Y-23.25
X23.5Y-50.0
X23.75Y18.25
X24.2Y28.6
X24.2Y26.4
X25.5Y15.5
X26.0Y31.0
X26.0Y21.25
X26.0Y-32.8
X26.25Y-21.75
X26.25Y-37.75
X26.5Y-35.25
X26.5Y-41.0
X26.571Y-29.191
X26.585Y38.823
X26.686Y-23.712
X26.8Y33.6
X27.0Y26.5
X27.5Y18.75
X27.5Y-10.0
X27.5Y-47.0
X27.5Y-50.5
X28.0Y-18.5
X28.25Y-16.0
X28.8Y2.6
X29.0Y-3.6
X29.2Y8.4
T2
X-0.845Y-49.148
X-0.845Y-50.672
X-0.082Y-48.385
X-0.082Y-49.91
X-0.082Y-51.435
X0.68Y-49.148
X0.68Y-50.672
X1.442Y-48.385
X1.442Y-49.91
X1.442Y-51.435
X2.205Y-49.148
X2.205Y-50.672
T3
X-20.5Y-23.0
X-20.5Y-27.5
X-16.5Y-23.0
X-16.5Y-27.5
X-12.25Y-5.6
X-12.25Y-7.35
X-12.25Y-9.1
X-12.25Y-10.85
X-11.0Y37.5
X-10.25Y-5.6
X-10.25Y-7.35
X-10.25Y-9.1
X-10.25Y-10.85
X-8.5Y27.0
X-8.25Y-5.6
X-8.25Y-7.35
X-8.25Y-9.1
X-8.25Y-10.85
X-6.25Y-5.6
X-6.25Y-7.35
X-6.25Y-9.1
X-6.25Y-10.85
X-3.75Y5.0
X-3.75Y2.5
X-2.75Y8.75
X0.25Y4.75
X7.0Y26.5
X8.5Y-8.0
X11.0Y37.5
T4
X-18.5Y-28.5
X-14.5Y-15.5
X-11.5Y40.0
T5
X-27.78Y23.84
X-27.78Y11.14
X-25.24Y23.84
X-25.24Y11.14
X-22.7Y23.84
X-22.7Y11.14
X-20.16Y23.84
X-20.16Y11.14
X-17.62Y23.84
X-17.62Y11.14
X-15.08Y23.84
X-15.08Y11.14
X-12.54Y23.84
X-12.54Y11.14
X-10.0Y23.84
X-10.0Y11.14
X10.02Y23.84
X10.02Y11.14
X10.11Y-13.14
X10.11Y-25.84
X12.56Y23.84
X12.56Y11.14
X12.65Y-13.14
X12.65Y-25.84
X15.1Y23.84
X15.1Y11.14
X15.19Y-13.14
X15.19Y-25.84
X17.64Y23.84
X17.64Y11.14
X17.73Y-13.14
X17.73Y-25.84
X20.18Y23.84
X20.18Y11.14
X20.27Y-13.14
X20.27Y-25.84
X22.72Y23.84
X22.72Y11.14
X22.81Y-13.14
X22.81Y-25.84
X25.26Y23.84
X25.26Y11.14
X25.35Y-13.14
X25.35Y-25.84
X27.8Y23.84
X27.8Y11.14
X27.89Y-13.14
X27.89Y-25.84
T6
X-20.05Y37.5
X-20.05Y35.0
X-20.05Y32.5
X-20.05Y30.0
X-2.5Y-18.0
X-2.5Y-25.525
X-2.5Y-33.0
X0.0Y-18.0
X0.0Y-25.525
X0.0Y-33.0
X2.5Y-18.0
X2.5Y-25.525
X2.5Y-33.0
X20.0Y37.5
X20.0Y35.0
X20.0Y32.5
X20.0Y30.0
X20.0Y-31.5
X20.0Y-34.0
X20.0Y-36.5
X20.0Y-39.0
T7
X-27.0Y-40.88
X-27.0Y-43.42
X-27.0Y-45.96
X-27.0Y-48.5
T7
X-4.7Y40.0G85X-4.7Y38.0
G05
X1.0Y42.0G85X-1.0Y42.0
G05
X1.0Y36.0G85X-1.0Y36.0
G05
M30
