%TF.GenerationSoftware,KiCad,Pcbnew,8.0.4*%
%TF.CreationDate,2025-01-23T14:04:12+11:00*%
%TF.ProjectId,Rotating_Cube_Shelf_2,526f7461-7469-46e6-975f-437562655f53,rev?*%
%TF.SameCoordinates,Original*%
%TF.FileFunction,Drillmap*%
%TF.FilePolarity,Positive*%
%FSLAX45Y45*%
G04 Gerber Fmt 4.5, Leading zero omitted, Abs format (unit mm)*
G04 Created by KiCad (PCBNEW 8.0.4) date 2025-01-23 14:04:12*
%MOMM*%
%LPD*%
G01*
G04 APERTURE LIST*
%ADD10C,0.050000*%
%ADD11C,0.200000*%
%ADD12C,0.100000*%
G04 APERTURE END LIST*
D10*
X-3000000Y4700000D02*
G75*
G02*
X-2700000Y5000000I300000J0D01*
G01*
X2700000Y5000000D02*
G75*
G02*
X3000000Y4700000I0J-300000D01*
G01*
X-2700000Y5000000D02*
X2700000Y5000000D01*
X-2700000Y-5875000D02*
G75*
G02*
X-3000000Y-5575000I0J300000D01*
G01*
X2700000Y-5875000D02*
X-2700000Y-5875000D01*
X3000000Y4700000D02*
X3000000Y-5575000D01*
X3000000Y-5575000D02*
G75*
G02*
X2700000Y-5875000I-300000J0D01*
G01*
X-3000000Y-5575000D02*
X-3000000Y4700000D01*
D11*
D12*
X-2815000Y-2410000D02*
X-2785000Y-2440000D01*
X-2785000Y-2410000D02*
X-2815000Y-2440000D01*
X-2815000Y-2985000D02*
X-2785000Y-3015000D01*
X-2785000Y-2985000D02*
X-2815000Y-3015000D01*
X-2789752Y2054143D02*
X-2759752Y2024143D01*
X-2759752Y2054143D02*
X-2789752Y2024143D01*
X-2759371Y1421195D02*
X-2729371Y1391195D01*
X-2729371Y1421195D02*
X-2759371Y1391195D01*
X-2740000Y2640000D02*
X-2710000Y2610000D01*
X-2710000Y2640000D02*
X-2740000Y2610000D01*
X-2739270Y-3673877D02*
X-2709270Y-3703877D01*
X-2709270Y-3673877D02*
X-2739270Y-3703877D01*
X-2735000Y615000D02*
X-2705000Y585000D01*
X-2705000Y615000D02*
X-2735000Y585000D01*
X-2735000Y-1885000D02*
X-2705000Y-1915000D01*
X-2705000Y-1885000D02*
X-2735000Y-1915000D01*
X-2715000Y-1560000D02*
X-2685000Y-1590000D01*
X-2685000Y-1560000D02*
X-2715000Y-1590000D01*
X-2695000Y-685000D02*
X-2665000Y-715000D01*
X-2665000Y-685000D02*
X-2695000Y-715000D01*
X-2690000Y4165000D02*
X-2660000Y4135000D01*
X-2660000Y4165000D02*
X-2690000Y4135000D01*
X-2690000Y-35000D02*
X-2660000Y-65000D01*
X-2660000Y-35000D02*
X-2690000Y-65000D01*
X-2615000Y3640000D02*
X-2585000Y3610000D01*
X-2585000Y3640000D02*
X-2615000Y3610000D01*
X-2590000Y3140000D02*
X-2560000Y3110000D01*
X-2560000Y3140000D02*
X-2590000Y3110000D01*
X-2575000Y315000D02*
X-2545000Y285000D01*
X-2545000Y315000D02*
X-2575000Y285000D01*
X-2565000Y3915000D02*
X-2535000Y3885000D01*
X-2535000Y3915000D02*
X-2565000Y3885000D01*
X-2565000Y-3335000D02*
X-2535000Y-3365000D01*
X-2535000Y-3335000D02*
X-2565000Y-3365000D01*
X-2515000Y1865000D02*
X-2485000Y1835000D01*
X-2485000Y1865000D02*
X-2515000Y1835000D01*
X-2465000Y2840000D02*
X-2435000Y2810000D01*
X-2435000Y2840000D02*
X-2465000Y2810000D01*
X-2465000Y-4985000D02*
X-2435000Y-5015000D01*
X-2435000Y-4985000D02*
X-2465000Y-5015000D01*
X-2415000Y-2385000D02*
X-2385000Y-2415000D01*
X-2385000Y-2385000D02*
X-2415000Y-2415000D01*
X-2390000Y-1510000D02*
X-2360000Y-1540000D01*
X-2360000Y-1510000D02*
X-2390000Y-1540000D01*
X-2365000Y-2985000D02*
X-2335000Y-3015000D01*
X-2335000Y-2985000D02*
X-2365000Y-3015000D01*
X-2340000Y-4235000D02*
X-2310000Y-4265000D01*
X-2310000Y-4235000D02*
X-2340000Y-4265000D01*
X-2315000Y-805000D02*
X-2285000Y-835000D01*
X-2285000Y-805000D02*
X-2315000Y-835000D01*
X-2315000Y-5185000D02*
X-2285000Y-5215000D01*
X-2285000Y-5185000D02*
X-2315000Y-5215000D01*
X-2290000Y-1135000D02*
X-2260000Y-1165000D01*
X-2260000Y-1135000D02*
X-2290000Y-1165000D01*
X-2290000Y-2110000D02*
X-2260000Y-2140000D01*
X-2260000Y-2110000D02*
X-2290000Y-2140000D01*
X-2215000Y1665000D02*
X-2185000Y1635000D01*
X-2185000Y1665000D02*
X-2215000Y1635000D01*
X-2215000Y-4735000D02*
X-2185000Y-4765000D01*
X-2185000Y-4735000D02*
X-2215000Y-4765000D01*
X-2215000Y-5335000D02*
X-2185000Y-5365000D01*
X-2185000Y-5335000D02*
X-2215000Y-5365000D01*
X-2165000Y2065000D02*
X-2135000Y2035000D01*
X-2135000Y2065000D02*
X-2165000Y2035000D01*
X-2165000Y90000D02*
X-2135000Y60000D01*
X-2135000Y90000D02*
X-2165000Y60000D01*
X-2165000Y-3585000D02*
X-2135000Y-3615000D01*
X-2135000Y-3585000D02*
X-2165000Y-3615000D01*
X-2115000Y290000D02*
X-2085000Y260000D01*
X-2085000Y290000D02*
X-2115000Y260000D01*
X-2095000Y2655000D02*
X-2065000Y2625000D01*
X-2065000Y2655000D02*
X-2095000Y2625000D01*
X-2055000Y-2065000D02*
X-2025000Y-2095000D01*
X-2025000Y-2065000D02*
X-2055000Y-2095000D01*
X-1940000Y4140000D02*
X-1910000Y4110000D01*
X-1910000Y4140000D02*
X-1940000Y4110000D01*
X-1940000Y-5135000D02*
X-1910000Y-5165000D01*
X-1910000Y-5135000D02*
X-1940000Y-5165000D01*
X-1865000Y1415000D02*
X-1835000Y1385000D01*
X-1835000Y1415000D02*
X-1865000Y1385000D01*
X-1865000Y-3235000D02*
X-1835000Y-3265000D01*
X-1835000Y-3235000D02*
X-1865000Y-3265000D01*
X-1855000Y-1685000D02*
X-1825000Y-1715000D01*
X-1825000Y-1685000D02*
X-1855000Y-1715000D01*
X-1815000Y-5535000D02*
X-1785000Y-5565000D01*
X-1785000Y-5535000D02*
X-1815000Y-5565000D01*
X-1775000Y-565000D02*
X-1745000Y-595000D01*
X-1745000Y-565000D02*
X-1775000Y-595000D01*
X-1715000Y1565000D02*
X-1685000Y1535000D01*
X-1685000Y1565000D02*
X-1715000Y1535000D01*
X-1715000Y865000D02*
X-1685000Y835000D01*
X-1685000Y865000D02*
X-1715000Y835000D01*
X-1695000Y-2045000D02*
X-1665000Y-2075000D01*
X-1665000Y-2045000D02*
X-1695000Y-2075000D01*
X-1665000Y-3935000D02*
X-1635000Y-3965000D01*
X-1635000Y-3935000D02*
X-1665000Y-3965000D01*
X-1665000Y-5085000D02*
X-1635000Y-5115000D01*
X-1635000Y-5085000D02*
X-1665000Y-5115000D01*
X-1615964Y3669177D02*
X-1585964Y3639177D01*
X-1585964Y3669177D02*
X-1615964Y3639177D01*
X-1615000Y3990000D02*
X-1585000Y3960000D01*
X-1585000Y3990000D02*
X-1615000Y3960000D01*
X-1565000Y-4235000D02*
X-1535000Y-4265000D01*
X-1535000Y-4235000D02*
X-1565000Y-4265000D01*
X-1565000Y-4685000D02*
X-1535000Y-4715000D01*
X-1535000Y-4685000D02*
X-1565000Y-4715000D01*
X-1535000Y-785000D02*
X-1505000Y-815000D01*
X-1505000Y-785000D02*
X-1535000Y-815000D01*
X-1515000Y1865000D02*
X-1485000Y1835000D01*
X-1485000Y1865000D02*
X-1515000Y1835000D01*
X-1490000Y340000D02*
X-1460000Y310000D01*
X-1460000Y340000D02*
X-1490000Y310000D01*
X-1490000Y165000D02*
X-1460000Y135000D01*
X-1460000Y165000D02*
X-1490000Y135000D01*
X-1465000Y-5535000D02*
X-1435000Y-5565000D01*
X-1435000Y-5535000D02*
X-1465000Y-5565000D01*
X-1455000Y-1725000D02*
X-1425000Y-1755000D01*
X-1425000Y-1725000D02*
X-1455000Y-1755000D01*
X-1455000Y-2845000D02*
X-1425000Y-2875000D01*
X-1425000Y-2845000D02*
X-1455000Y-2875000D01*
X-1435000Y-2405000D02*
X-1405000Y-2435000D01*
X-1405000Y-2405000D02*
X-1435000Y-2435000D01*
X-1265000Y1365000D02*
X-1235000Y1335000D01*
X-1235000Y1365000D02*
X-1265000Y1335000D01*
X-1265000Y-3235000D02*
X-1235000Y-3265000D01*
X-1235000Y-3235000D02*
X-1265000Y-3265000D01*
X-1215000Y-5135000D02*
X-1185000Y-5165000D01*
X-1185000Y-5135000D02*
X-1215000Y-5165000D01*
X-1190000Y2140000D02*
X-1160000Y2110000D01*
X-1160000Y2140000D02*
X-1190000Y2110000D01*
X-1185000Y-285000D02*
X-1155000Y-315000D01*
X-1155000Y-285000D02*
X-1185000Y-315000D01*
X-1165000Y-160000D02*
X-1135000Y-190000D01*
X-1135000Y-160000D02*
X-1165000Y-190000D01*
X-1165000Y-1410000D02*
X-1135000Y-1440000D01*
X-1135000Y-1410000D02*
X-1165000Y-1440000D01*
X-1115000Y-4035000D02*
X-1085000Y-4065000D01*
X-1085000Y-4035000D02*
X-1115000Y-4065000D01*
X-1115000Y-5585000D02*
X-1085000Y-5615000D01*
X-1085000Y-5585000D02*
X-1115000Y-5615000D01*
X-1040000Y-4313000D02*
X-1010000Y-4343000D01*
X-1010000Y-4313000D02*
X-1040000Y-4343000D01*
X-1040000Y-4435000D02*
X-1010000Y-4465000D01*
X-1010000Y-4435000D02*
X-1040000Y-4465000D01*
X-1040000Y-4567000D02*
X-1010000Y-4597000D01*
X-1010000Y-4567000D02*
X-1040000Y-4597000D01*
X-1035000Y1455000D02*
X-1005000Y1425000D01*
X-1005000Y1455000D02*
X-1035000Y1425000D01*
X-1030000Y-2870000D02*
X-1000000Y-2900000D01*
X-1000000Y-2870000D02*
X-1030000Y-2900000D01*
X-1015000Y-3485000D02*
X-985000Y-3515000D01*
X-985000Y-3485000D02*
X-1015000Y-3515000D01*
X-990000Y3915000D02*
X-960000Y3885000D01*
X-960000Y3915000D02*
X-990000Y3885000D01*
X-955000Y-2585000D02*
X-925000Y-2615000D01*
X-925000Y-2585000D02*
X-955000Y-2615000D01*
X-940000Y890000D02*
X-910000Y860000D01*
X-910000Y890000D02*
X-940000Y860000D01*
X-940000Y-2035000D02*
X-910000Y-2065000D01*
X-910000Y-2035000D02*
X-940000Y-2065000D01*
X-925000Y-255000D02*
X-895000Y-285000D01*
X-895000Y-255000D02*
X-925000Y-285000D01*
X-915000Y455000D02*
X-885000Y425000D01*
X-885000Y455000D02*
X-915000Y425000D01*
X-915000Y-3885000D02*
X-885000Y-3915000D01*
X-885000Y-3885000D02*
X-915000Y-3915000D01*
X-885000Y5000D02*
X-855000Y-25000D01*
X-855000Y5000D02*
X-885000Y-25000D01*
X-790000Y-1435000D02*
X-760000Y-1465000D01*
X-760000Y-1435000D02*
X-790000Y-1465000D01*
X-765000Y1865000D02*
X-735000Y1835000D01*
X-735000Y1865000D02*
X-765000Y1835000D01*
X-765000Y5000D02*
X-735000Y-25000D01*
X-735000Y5000D02*
X-765000Y-25000D01*
X-740000Y1290000D02*
X-710000Y1260000D01*
X-710000Y1290000D02*
X-740000Y1260000D01*
X-740000Y1040000D02*
X-710000Y1010000D01*
X-710000Y1040000D02*
X-740000Y1010000D01*
X-715000Y4215000D02*
X-685000Y4185000D01*
X-685000Y4215000D02*
X-715000Y4185000D01*
X-695000Y-2265000D02*
X-665000Y-2295000D01*
X-665000Y-2265000D02*
X-695000Y-2295000D01*
X-665000Y715000D02*
X-635000Y685000D01*
X-635000Y715000D02*
X-665000Y685000D01*
X-645000Y-285000D02*
X-615000Y-315000D01*
X-615000Y-285000D02*
X-645000Y-315000D01*
X-640000Y-4160000D02*
X-610000Y-4190000D01*
X-610000Y-4160000D02*
X-640000Y-4190000D01*
X-640000Y-4285000D02*
X-610000Y-4315000D01*
X-610000Y-4285000D02*
X-640000Y-4315000D01*
X-640000Y-4410000D02*
X-610000Y-4440000D01*
X-610000Y-4410000D02*
X-640000Y-4440000D01*
X-640000Y-4535000D02*
X-610000Y-4565000D01*
X-610000Y-4535000D02*
X-640000Y-4565000D01*
X-640000Y-4660000D02*
X-610000Y-4690000D01*
X-610000Y-4660000D02*
X-640000Y-4690000D01*
X-640000Y-4785000D02*
X-610000Y-4815000D01*
X-610000Y-4785000D02*
X-640000Y-4815000D01*
X-640000Y-4910000D02*
X-610000Y-4940000D01*
X-610000Y-4910000D02*
X-640000Y-4940000D01*
X-640000Y-5035000D02*
X-610000Y-5065000D01*
X-610000Y-5035000D02*
X-640000Y-5065000D01*
X-640000Y-5160000D02*
X-610000Y-5190000D01*
X-610000Y-5160000D02*
X-640000Y-5190000D01*
X-640000Y-5285000D02*
X-610000Y-5315000D01*
X-610000Y-5285000D02*
X-640000Y-5315000D01*
X-640000Y-5410000D02*
X-610000Y-5440000D01*
X-610000Y-5410000D02*
X-640000Y-5440000D01*
X-640000Y-5535000D02*
X-610000Y-5565000D01*
X-610000Y-5535000D02*
X-640000Y-5565000D01*
X-640000Y-5660000D02*
X-610000Y-5690000D01*
X-610000Y-5660000D02*
X-640000Y-5690000D01*
X-615000Y-2885000D02*
X-585000Y-2915000D01*
X-585000Y-2885000D02*
X-615000Y-2915000D01*
X-565000Y-3760000D02*
X-535000Y-3790000D01*
X-535000Y-3760000D02*
X-565000Y-3790000D01*
X-515000Y3390000D02*
X-485000Y3360000D01*
X-485000Y3390000D02*
X-515000Y3360000D01*
X-515000Y3090000D02*
X-485000Y3060000D01*
X-485000Y3090000D02*
X-515000Y3060000D01*
X-515000Y1835000D02*
X-485000Y1805000D01*
X-485000Y1835000D02*
X-515000Y1805000D01*
X-515000Y-4160000D02*
X-485000Y-4190000D01*
X-485000Y-4160000D02*
X-515000Y-4190000D01*
X-515000Y-5660000D02*
X-485000Y-5690000D01*
X-485000Y-5660000D02*
X-515000Y-5690000D01*
X-490000Y1302300D02*
X-460000Y1272300D01*
X-460000Y1302300D02*
X-490000Y1272300D01*
X-465000Y2890000D02*
X-435000Y2860000D01*
X-435000Y2890000D02*
X-465000Y2860000D01*
X-390000Y-4160000D02*
X-360000Y-4190000D01*
X-360000Y-4160000D02*
X-390000Y-4190000D01*
X-390000Y-5660000D02*
X-360000Y-5690000D01*
X-360000Y-5660000D02*
X-390000Y-5690000D01*
X-265000Y2515000D02*
X-235000Y2485000D01*
X-235000Y2515000D02*
X-265000Y2485000D01*
X-265000Y2065000D02*
X-235000Y2035000D01*
X-235000Y2065000D02*
X-265000Y2035000D01*
X-265000Y1515000D02*
X-235000Y1485000D01*
X-235000Y1515000D02*
X-265000Y1485000D01*
X-265000Y-4160000D02*
X-235000Y-4190000D01*
X-235000Y-4160000D02*
X-265000Y-4190000D01*
X-265000Y-5660000D02*
X-235000Y-5690000D01*
X-235000Y-5660000D02*
X-265000Y-5690000D01*
X-215000Y-235000D02*
X-185000Y-265000D01*
X-185000Y-235000D02*
X-215000Y-265000D01*
X-165000Y-1360000D02*
X-135000Y-1390000D01*
X-135000Y-1360000D02*
X-165000Y-1390000D01*
X-140000Y-4160000D02*
X-110000Y-4190000D01*
X-110000Y-4160000D02*
X-140000Y-4190000D01*
X-140000Y-5660000D02*
X-110000Y-5690000D01*
X-110000Y-5660000D02*
X-140000Y-5690000D01*
X-40000Y4715000D02*
X-10000Y4685000D01*
X-10000Y4715000D02*
X-40000Y4685000D01*
X-15000Y-1110000D02*
X15000Y-1140000D01*
X15000Y-1110000D02*
X-15000Y-1140000D01*
X-15000Y-2210000D02*
X15000Y-2240000D01*
X15000Y-2210000D02*
X-15000Y-2240000D01*
X-15000Y-4160000D02*
X15000Y-4190000D01*
X15000Y-4160000D02*
X-15000Y-4190000D01*
X-15000Y-5660000D02*
X15000Y-5690000D01*
X15000Y-5660000D02*
X-15000Y-5690000D01*
X10000Y-2960000D02*
X40000Y-2990000D01*
X40000Y-2960000D02*
X10000Y-2990000D01*
X30666Y-487777D02*
X60666Y-517777D01*
X60666Y-487777D02*
X30666Y-517777D01*
X110000Y-4160000D02*
X140000Y-4190000D01*
X140000Y-4160000D02*
X110000Y-4190000D01*
X110000Y-5660000D02*
X140000Y-5690000D01*
X140000Y-5660000D02*
X110000Y-5690000D01*
X185000Y-1335000D02*
X215000Y-1365000D01*
X215000Y-1335000D02*
X185000Y-1365000D01*
X185000Y-2735000D02*
X215000Y-2765000D01*
X215000Y-2735000D02*
X185000Y-2765000D01*
X185000Y-3485000D02*
X215000Y-3515000D01*
X215000Y-3485000D02*
X185000Y-3515000D01*
X235000Y2740000D02*
X265000Y2710000D01*
X265000Y2740000D02*
X235000Y2710000D01*
X235000Y2215000D02*
X265000Y2185000D01*
X265000Y2215000D02*
X235000Y2185000D01*
X235000Y-4160000D02*
X265000Y-4190000D01*
X265000Y-4160000D02*
X235000Y-4190000D01*
X235000Y-5660000D02*
X265000Y-5690000D01*
X265000Y-5660000D02*
X235000Y-5690000D01*
X253463Y1694629D02*
X283463Y1664629D01*
X283463Y1694629D02*
X253463Y1664629D01*
X265000Y-1985000D02*
X295000Y-2015000D01*
X295000Y-1985000D02*
X265000Y-2015000D01*
X285000Y-135000D02*
X315000Y-165000D01*
X315000Y-135000D02*
X285000Y-165000D01*
X335000Y715000D02*
X365000Y685000D01*
X365000Y715000D02*
X335000Y685000D01*
X335000Y515000D02*
X365000Y485000D01*
X365000Y515000D02*
X335000Y485000D01*
X354735Y3871971D02*
X384735Y3841971D01*
X384735Y3871971D02*
X354735Y3841971D01*
X360000Y-4160000D02*
X390000Y-4190000D01*
X390000Y-4160000D02*
X360000Y-4190000D01*
X360000Y-5660000D02*
X390000Y-5690000D01*
X390000Y-5660000D02*
X360000Y-5690000D01*
X410000Y-1085000D02*
X440000Y-1115000D01*
X440000Y-1085000D02*
X410000Y-1115000D01*
X435000Y940000D02*
X465000Y910000D01*
X465000Y940000D02*
X435000Y910000D01*
X485000Y-510000D02*
X515000Y-540000D01*
X515000Y-510000D02*
X485000Y-540000D01*
X485000Y-4160000D02*
X515000Y-4190000D01*
X515000Y-4160000D02*
X485000Y-4190000D01*
X485000Y-5660000D02*
X515000Y-5690000D01*
X515000Y-5660000D02*
X485000Y-5690000D01*
X505322Y3102984D02*
X535322Y3072984D01*
X535322Y3102984D02*
X505322Y3072984D01*
X526897Y4631509D02*
X556897Y4601509D01*
X556897Y4631509D02*
X526897Y4601509D01*
X545000Y-1325000D02*
X575000Y-1355000D01*
X575000Y-1325000D02*
X545000Y-1355000D01*
X545000Y-2655759D02*
X575000Y-2685759D01*
X575000Y-2655759D02*
X545000Y-2685759D01*
X545000Y-3025000D02*
X575000Y-3055000D01*
X575000Y-3025000D02*
X545000Y-3055000D01*
X552215Y4297312D02*
X582215Y4267312D01*
X582215Y4297312D02*
X552215Y4267312D01*
X560000Y-2135000D02*
X590000Y-2165000D01*
X590000Y-2135000D02*
X560000Y-2165000D01*
X565000Y-1665000D02*
X595000Y-1695000D01*
X595000Y-1665000D02*
X565000Y-1695000D01*
X610000Y-4160000D02*
X640000Y-4190000D01*
X640000Y-4160000D02*
X610000Y-4190000D01*
X610000Y-4285000D02*
X640000Y-4315000D01*
X640000Y-4285000D02*
X610000Y-4315000D01*
X610000Y-4410000D02*
X640000Y-4440000D01*
X640000Y-4410000D02*
X610000Y-4440000D01*
X610000Y-4535000D02*
X640000Y-4565000D01*
X640000Y-4535000D02*
X610000Y-4565000D01*
X610000Y-4660000D02*
X640000Y-4690000D01*
X640000Y-4660000D02*
X610000Y-4690000D01*
X610000Y-4785000D02*
X640000Y-4815000D01*
X640000Y-4785000D02*
X610000Y-4815000D01*
X610000Y-4910000D02*
X640000Y-4940000D01*
X640000Y-4910000D02*
X610000Y-4940000D01*
X610000Y-5035000D02*
X640000Y-5065000D01*
X640000Y-5035000D02*
X610000Y-5065000D01*
X610000Y-5160000D02*
X640000Y-5190000D01*
X640000Y-5160000D02*
X610000Y-5190000D01*
X610000Y-5285000D02*
X640000Y-5315000D01*
X640000Y-5285000D02*
X610000Y-5315000D01*
X610000Y-5410000D02*
X640000Y-5440000D01*
X640000Y-5410000D02*
X610000Y-5440000D01*
X610000Y-5535000D02*
X640000Y-5565000D01*
X640000Y-5535000D02*
X610000Y-5565000D01*
X610000Y-5660000D02*
X640000Y-5690000D01*
X640000Y-5660000D02*
X610000Y-5690000D01*
X635000Y1665000D02*
X665000Y1635000D01*
X665000Y1665000D02*
X635000Y1635000D01*
X685000Y-3760000D02*
X715000Y-3790000D01*
X715000Y-3760000D02*
X685000Y-3790000D01*
X695000Y1295000D02*
X725000Y1265000D01*
X725000Y1295000D02*
X695000Y1265000D01*
X710000Y15000D02*
X740000Y-15000D01*
X740000Y15000D02*
X710000Y-15000D01*
X735000Y4865000D02*
X765000Y4835000D01*
X765000Y4865000D02*
X735000Y4835000D01*
X760000Y2990000D02*
X790000Y2960000D01*
X790000Y2990000D02*
X760000Y2960000D01*
X780076Y3998561D02*
X810076Y3968561D01*
X810076Y3998561D02*
X780076Y3968561D01*
X810000Y3365000D02*
X840000Y3335000D01*
X840000Y3365000D02*
X810000Y3335000D01*
X818586Y666200D02*
X848586Y636200D01*
X848586Y666200D02*
X818586Y636200D01*
X850967Y-477650D02*
X880967Y-507650D01*
X880967Y-477650D02*
X850967Y-507650D01*
X885000Y-2885000D02*
X915000Y-2915000D01*
X915000Y-2885000D02*
X885000Y-2915000D01*
X885000Y-3435000D02*
X915000Y-3465000D01*
X915000Y-3435000D02*
X885000Y-3465000D01*
X960000Y-1685000D02*
X990000Y-1715000D01*
X990000Y-1685000D02*
X960000Y-1715000D01*
X985000Y2115000D02*
X1015000Y2085000D01*
X1015000Y2115000D02*
X985000Y2085000D01*
X1010000Y-4185000D02*
X1040000Y-4215000D01*
X1040000Y-4185000D02*
X1010000Y-4215000D01*
X1035000Y1565000D02*
X1065000Y1535000D01*
X1065000Y1565000D02*
X1035000Y1535000D01*
X1041226Y-2303797D02*
X1071226Y-2333797D01*
X1071226Y-2303797D02*
X1041226Y-2333797D01*
X1060000Y-4310000D02*
X1090000Y-4340000D01*
X1090000Y-4310000D02*
X1060000Y-4340000D01*
X1084105Y714702D02*
X1114105Y684702D01*
X1114105Y714702D02*
X1084105Y684702D01*
X1085000Y4665000D02*
X1115000Y4635000D01*
X1115000Y4665000D02*
X1085000Y4635000D01*
X1085000Y-3185000D02*
X1115000Y-3215000D01*
X1115000Y-3185000D02*
X1085000Y-3215000D01*
X1085000Y-3535000D02*
X1115000Y-3565000D01*
X1115000Y-3535000D02*
X1085000Y-3565000D01*
X1110000Y-4435000D02*
X1140000Y-4465000D01*
X1140000Y-4435000D02*
X1110000Y-4465000D01*
X1135000Y-5497700D02*
X1165000Y-5527700D01*
X1165000Y-5497700D02*
X1135000Y-5527700D01*
X1145000Y4355000D02*
X1175000Y4325000D01*
X1175000Y4355000D02*
X1145000Y4325000D01*
X1165000Y4515000D02*
X1195000Y4485000D01*
X1195000Y4515000D02*
X1165000Y4485000D01*
X1210000Y3165000D02*
X1240000Y3135000D01*
X1240000Y3165000D02*
X1210000Y3135000D01*
X1235000Y1875000D02*
X1265000Y1845000D01*
X1265000Y1875000D02*
X1235000Y1845000D01*
X1235000Y740000D02*
X1265000Y710000D01*
X1265000Y740000D02*
X1235000Y710000D01*
X1250990Y-102944D02*
X1280990Y-132944D01*
X1280990Y-102944D02*
X1250990Y-132944D01*
X1285000Y-385000D02*
X1315000Y-415000D01*
X1315000Y-385000D02*
X1285000Y-415000D01*
X1285000Y-885000D02*
X1315000Y-915000D01*
X1315000Y-885000D02*
X1285000Y-915000D01*
X1335000Y315000D02*
X1365000Y285000D01*
X1365000Y315000D02*
X1335000Y285000D01*
X1345000Y4035000D02*
X1375000Y4005000D01*
X1375000Y4035000D02*
X1345000Y4005000D01*
X1385000Y-4785000D02*
X1415000Y-4815000D01*
X1415000Y-4785000D02*
X1385000Y-4815000D01*
X1435000Y15000D02*
X1465000Y-15000D01*
X1465000Y15000D02*
X1435000Y-15000D01*
X1445000Y3415000D02*
X1475000Y3385000D01*
X1475000Y3415000D02*
X1445000Y3385000D01*
X1470000Y900000D02*
X1500000Y870000D01*
X1500000Y900000D02*
X1470000Y870000D01*
X1485000Y1565000D02*
X1515000Y1535000D01*
X1515000Y1565000D02*
X1485000Y1535000D01*
X1485000Y747500D02*
X1515000Y717500D01*
X1515000Y747500D02*
X1485000Y717500D01*
X1485000Y-5185000D02*
X1515000Y-5215000D01*
X1515000Y-5185000D02*
X1485000Y-5215000D01*
X1485000Y-5585000D02*
X1515000Y-5615000D01*
X1515000Y-5585000D02*
X1485000Y-5615000D01*
X1524424Y-1743546D02*
X1554424Y-1773546D01*
X1554424Y-1743546D02*
X1524424Y-1773546D01*
X1525000Y3995000D02*
X1555000Y3965000D01*
X1555000Y3995000D02*
X1525000Y3965000D01*
X1535000Y-2285000D02*
X1565000Y-2315000D01*
X1565000Y-2285000D02*
X1535000Y-2315000D01*
X1585000Y415000D02*
X1615000Y385000D01*
X1615000Y415000D02*
X1585000Y385000D01*
X1605000Y1975000D02*
X1635000Y1945000D01*
X1635000Y1975000D02*
X1605000Y1945000D01*
X1635000Y-4435000D02*
X1665000Y-4465000D01*
X1665000Y-4435000D02*
X1635000Y-4465000D01*
X1735000Y1640000D02*
X1765000Y1610000D01*
X1765000Y1640000D02*
X1735000Y1610000D01*
X1735000Y1365000D02*
X1765000Y1335000D01*
X1765000Y1365000D02*
X1735000Y1335000D01*
X1785000Y2040000D02*
X1815000Y2010000D01*
X1815000Y2040000D02*
X1785000Y2010000D01*
X1935000Y2640000D02*
X1965000Y2610000D01*
X1965000Y2640000D02*
X1935000Y2610000D01*
X1935000Y-5035000D02*
X1965000Y-5065000D01*
X1965000Y-5035000D02*
X1935000Y-5065000D01*
X1960000Y-4110000D02*
X1990000Y-4140000D01*
X1990000Y-4110000D02*
X1960000Y-4140000D01*
X1985000Y4765000D02*
X2015000Y4735000D01*
X2015000Y4765000D02*
X1985000Y4735000D01*
X1985000Y-335000D02*
X2015000Y-365000D01*
X2015000Y-335000D02*
X1985000Y-365000D01*
X1985000Y-2310000D02*
X2015000Y-2340000D01*
X2015000Y-2310000D02*
X1985000Y-2340000D01*
X2005000Y1295000D02*
X2035000Y1265000D01*
X2035000Y1295000D02*
X2005000Y1265000D01*
X2010000Y265000D02*
X2040000Y235000D01*
X2040000Y265000D02*
X2010000Y235000D01*
X2035000Y865000D02*
X2065000Y835000D01*
X2065000Y865000D02*
X2035000Y835000D01*
X2060000Y2190000D02*
X2090000Y2160000D01*
X2090000Y2190000D02*
X2060000Y2160000D01*
X2065000Y-925000D02*
X2095000Y-955000D01*
X2095000Y-925000D02*
X2065000Y-955000D01*
X2205000Y1355000D02*
X2235000Y1325000D01*
X2235000Y1355000D02*
X2205000Y1325000D01*
X2235000Y4515000D02*
X2265000Y4485000D01*
X2265000Y4515000D02*
X2235000Y4485000D01*
X2235000Y4265000D02*
X2265000Y4235000D01*
X2265000Y4265000D02*
X2235000Y4235000D01*
X2235000Y840000D02*
X2265000Y810000D01*
X2265000Y840000D02*
X2235000Y810000D01*
X2235000Y-360000D02*
X2265000Y-390000D01*
X2265000Y-360000D02*
X2235000Y-390000D01*
X2235000Y-1635000D02*
X2265000Y-1665000D01*
X2265000Y-1635000D02*
X2235000Y-1665000D01*
X2255000Y-735000D02*
X2285000Y-765000D01*
X2285000Y-735000D02*
X2255000Y-765000D01*
X2285000Y-1910000D02*
X2315000Y-1940000D01*
X2315000Y-1910000D02*
X2285000Y-1940000D01*
X2310000Y-2310000D02*
X2340000Y-2340000D01*
X2340000Y-2310000D02*
X2310000Y-2340000D01*
X2335000Y-4985000D02*
X2365000Y-5015000D01*
X2365000Y-4985000D02*
X2335000Y-5015000D01*
X2360000Y1840000D02*
X2390000Y1810000D01*
X2390000Y1840000D02*
X2360000Y1810000D01*
X2405000Y2875000D02*
X2435000Y2845000D01*
X2435000Y2875000D02*
X2405000Y2845000D01*
X2405000Y2655000D02*
X2435000Y2625000D01*
X2435000Y2655000D02*
X2405000Y2625000D01*
X2535000Y1565000D02*
X2565000Y1535000D01*
X2565000Y1565000D02*
X2535000Y1535000D01*
X2585000Y3115000D02*
X2615000Y3085000D01*
X2615000Y3115000D02*
X2585000Y3085000D01*
X2585000Y2140000D02*
X2615000Y2110000D01*
X2615000Y2140000D02*
X2585000Y2110000D01*
X2585000Y-3265000D02*
X2615000Y-3295000D01*
X2615000Y-3265000D02*
X2585000Y-3295000D01*
X2610000Y-2160000D02*
X2640000Y-2190000D01*
X2640000Y-2160000D02*
X2610000Y-2190000D01*
X2610000Y-3760000D02*
X2640000Y-3790000D01*
X2640000Y-3760000D02*
X2610000Y-3790000D01*
X2635000Y-3510000D02*
X2665000Y-3540000D01*
X2665000Y-3510000D02*
X2635000Y-3540000D01*
X2635000Y-4085000D02*
X2665000Y-4115000D01*
X2665000Y-4085000D02*
X2635000Y-4115000D01*
X2642120Y-2904095D02*
X2672120Y-2934095D01*
X2672120Y-2904095D02*
X2642120Y-2934095D01*
X2643476Y3897289D02*
X2673476Y3867289D01*
X2673476Y3897289D02*
X2643476Y3867289D01*
X2653604Y-2356240D02*
X2683604Y-2386240D01*
X2683604Y-2356240D02*
X2653604Y-2386240D01*
X2665000Y3375000D02*
X2695000Y3345000D01*
X2695000Y3375000D02*
X2665000Y3345000D01*
X2685000Y2665000D02*
X2715000Y2635000D01*
X2715000Y2665000D02*
X2685000Y2635000D01*
X2735000Y1890000D02*
X2765000Y1860000D01*
X2765000Y1890000D02*
X2735000Y1860000D01*
X2735000Y-985000D02*
X2765000Y-1015000D01*
X2765000Y-985000D02*
X2735000Y-1015000D01*
X2735000Y-4685000D02*
X2765000Y-4715000D01*
X2765000Y-4685000D02*
X2735000Y-4715000D01*
X2735000Y-5035000D02*
X2765000Y-5065000D01*
X2765000Y-5035000D02*
X2735000Y-5065000D01*
X2785000Y-1835000D02*
X2815000Y-1865000D01*
X2815000Y-1835000D02*
X2785000Y-1865000D01*
X2810000Y-1585000D02*
X2840000Y-1615000D01*
X2840000Y-1585000D02*
X2810000Y-1615000D01*
X2865000Y275000D02*
X2895000Y245000D01*
X2895000Y275000D02*
X2865000Y245000D01*
X2885000Y-345000D02*
X2915000Y-375000D01*
X2915000Y-345000D02*
X2885000Y-375000D01*
X2905000Y855000D02*
X2935000Y825000D01*
X2935000Y855000D02*
X2905000Y825000D01*
X-69500Y-4914750D02*
G75*
G02*
X-99500Y-4914750I-15000J0D01*
G01*
X-99500Y-4914750D02*
G75*
G02*
X-69500Y-4914750I15000J0D01*
G01*
X-69500Y-5067250D02*
G75*
G02*
X-99500Y-5067250I-15000J0D01*
G01*
X-99500Y-5067250D02*
G75*
G02*
X-69500Y-5067250I15000J0D01*
G01*
X6750Y-4838500D02*
G75*
G02*
X-23250Y-4838500I-15000J0D01*
G01*
X-23250Y-4838500D02*
G75*
G02*
X6750Y-4838500I15000J0D01*
G01*
X6750Y-4991000D02*
G75*
G02*
X-23250Y-4991000I-15000J0D01*
G01*
X-23250Y-4991000D02*
G75*
G02*
X6750Y-4991000I15000J0D01*
G01*
X6750Y-5143500D02*
G75*
G02*
X-23250Y-5143500I-15000J0D01*
G01*
X-23250Y-5143500D02*
G75*
G02*
X6750Y-5143500I15000J0D01*
G01*
X83000Y-4914750D02*
G75*
G02*
X53000Y-4914750I-15000J0D01*
G01*
X53000Y-4914750D02*
G75*
G02*
X83000Y-4914750I15000J0D01*
G01*
X83000Y-5067250D02*
G75*
G02*
X53000Y-5067250I-15000J0D01*
G01*
X53000Y-5067250D02*
G75*
G02*
X83000Y-5067250I15000J0D01*
G01*
X159250Y-4838500D02*
G75*
G02*
X129250Y-4838500I-15000J0D01*
G01*
X129250Y-4838500D02*
G75*
G02*
X159250Y-4838500I15000J0D01*
G01*
X159250Y-4991000D02*
G75*
G02*
X129250Y-4991000I-15000J0D01*
G01*
X129250Y-4991000D02*
G75*
G02*
X159250Y-4991000I15000J0D01*
G01*
X159250Y-5143500D02*
G75*
G02*
X129250Y-5143500I-15000J0D01*
G01*
X129250Y-5143500D02*
G75*
G02*
X159250Y-5143500I15000J0D01*
G01*
X235500Y-4914750D02*
G75*
G02*
X205500Y-4914750I-15000J0D01*
G01*
X205500Y-4914750D02*
G75*
G02*
X235500Y-4914750I15000J0D01*
G01*
X235500Y-5067250D02*
G75*
G02*
X205500Y-5067250I-15000J0D01*
G01*
X205500Y-5067250D02*
G75*
G02*
X235500Y-5067250I15000J0D01*
G01*
X-2050000Y-2275000D02*
X-2050000Y-2325000D01*
X-2075000Y-2300000D02*
X-2025000Y-2300000D01*
X-2050000Y-2725000D02*
X-2050000Y-2775000D01*
X-2075000Y-2750000D02*
X-2025000Y-2750000D01*
X-1650000Y-2275000D02*
X-1650000Y-2325000D01*
X-1675000Y-2300000D02*
X-1625000Y-2300000D01*
X-1650000Y-2725000D02*
X-1650000Y-2775000D01*
X-1675000Y-2750000D02*
X-1625000Y-2750000D01*
X-1225000Y-535000D02*
X-1225000Y-585000D01*
X-1250000Y-560000D02*
X-1200000Y-560000D01*
X-1225000Y-710000D02*
X-1225000Y-760000D01*
X-1250000Y-735000D02*
X-1200000Y-735000D01*
X-1225000Y-885000D02*
X-1225000Y-935000D01*
X-1250000Y-910000D02*
X-1200000Y-910000D01*
X-1225000Y-1060000D02*
X-1225000Y-1110000D01*
X-1250000Y-1085000D02*
X-1200000Y-1085000D01*
X-1100000Y3775000D02*
X-1100000Y3725000D01*
X-1125000Y3750000D02*
X-1075000Y3750000D01*
X-1025000Y-535000D02*
X-1025000Y-585000D01*
X-1050000Y-560000D02*
X-1000000Y-560000D01*
X-1025000Y-710000D02*
X-1025000Y-760000D01*
X-1050000Y-735000D02*
X-1000000Y-735000D01*
X-1025000Y-885000D02*
X-1025000Y-935000D01*
X-1050000Y-910000D02*
X-1000000Y-910000D01*
X-1025000Y-1060000D02*
X-1025000Y-1110000D01*
X-1050000Y-1085000D02*
X-1000000Y-1085000D01*
X-850000Y2725000D02*
X-850000Y2675000D01*
X-875000Y2700000D02*
X-825000Y2700000D01*
X-825000Y-535000D02*
X-825000Y-585000D01*
X-850000Y-560000D02*
X-800000Y-560000D01*
X-825000Y-710000D02*
X-825000Y-760000D01*
X-850000Y-735000D02*
X-800000Y-735000D01*
X-825000Y-885000D02*
X-825000Y-935000D01*
X-850000Y-910000D02*
X-800000Y-910000D01*
X-825000Y-1060000D02*
X-825000Y-1110000D01*
X-850000Y-1085000D02*
X-800000Y-1085000D01*
X-625000Y-535000D02*
X-625000Y-585000D01*
X-650000Y-560000D02*
X-600000Y-560000D01*
X-625000Y-710000D02*
X-625000Y-760000D01*
X-650000Y-735000D02*
X-600000Y-735000D01*
X-625000Y-885000D02*
X-625000Y-935000D01*
X-650000Y-910000D02*
X-600000Y-910000D01*
X-625000Y-1060000D02*
X-625000Y-1110000D01*
X-650000Y-1085000D02*
X-600000Y-1085000D01*
X-375000Y525000D02*
X-375000Y475000D01*
X-400000Y500000D02*
X-350000Y500000D01*
X-375000Y275000D02*
X-375000Y225000D01*
X-400000Y250000D02*
X-350000Y250000D01*
X-275000Y900000D02*
X-275000Y850000D01*
X-300000Y875000D02*
X-250000Y875000D01*
X25000Y500000D02*
X25000Y450000D01*
X0Y475000D02*
X50000Y475000D01*
X700000Y2675000D02*
X700000Y2625000D01*
X675000Y2650000D02*
X725000Y2650000D01*
X850000Y-775000D02*
X850000Y-825000D01*
X825000Y-800000D02*
X875000Y-800000D01*
X1100000Y3775000D02*
X1100000Y3725000D01*
X1075000Y3750000D02*
X1125000Y3750000D01*
X-1832322Y-2867678D02*
X-1832322Y-2832322D01*
X-1867678Y-2832322D01*
X-1867678Y-2867678D01*
X-1832322Y-2867678D01*
X-1432322Y-1567678D02*
X-1432322Y-1532322D01*
X-1467678Y-1532322D01*
X-1467678Y-1567678D01*
X-1432322Y-1567678D01*
X-1132322Y3982322D02*
X-1132322Y4017678D01*
X-1167678Y4017678D01*
X-1167678Y3982322D01*
X-1132322Y3982322D01*
X-2778000Y2344000D02*
X-2738000Y2384000D01*
X-2778000Y2424000D01*
X-2818000Y2384000D01*
X-2778000Y2344000D01*
X-2778000Y1074000D02*
X-2738000Y1114000D01*
X-2778000Y1154000D01*
X-2818000Y1114000D01*
X-2778000Y1074000D01*
X-2524000Y2344000D02*
X-2484000Y2384000D01*
X-2524000Y2424000D01*
X-2564000Y2384000D01*
X-2524000Y2344000D01*
X-2524000Y1074000D02*
X-2484000Y1114000D01*
X-2524000Y1154000D01*
X-2564000Y1114000D01*
X-2524000Y1074000D01*
X-2270000Y2344000D02*
X-2230000Y2384000D01*
X-2270000Y2424000D01*
X-2310000Y2384000D01*
X-2270000Y2344000D01*
X-2270000Y1074000D02*
X-2230000Y1114000D01*
X-2270000Y1154000D01*
X-2310000Y1114000D01*
X-2270000Y1074000D01*
X-2016000Y2344000D02*
X-1976000Y2384000D01*
X-2016000Y2424000D01*
X-2056000Y2384000D01*
X-2016000Y2344000D01*
X-2016000Y1074000D02*
X-1976000Y1114000D01*
X-2016000Y1154000D01*
X-2056000Y1114000D01*
X-2016000Y1074000D01*
X-1762000Y2344000D02*
X-1722000Y2384000D01*
X-1762000Y2424000D01*
X-1802000Y2384000D01*
X-1762000Y2344000D01*
X-1762000Y1074000D02*
X-1722000Y1114000D01*
X-1762000Y1154000D01*
X-1802000Y1114000D01*
X-1762000Y1074000D01*
X-1508000Y2344000D02*
X-1468000Y2384000D01*
X-1508000Y2424000D01*
X-1548000Y2384000D01*
X-1508000Y2344000D01*
X-1508000Y1074000D02*
X-1468000Y1114000D01*
X-1508000Y1154000D01*
X-1548000Y1114000D01*
X-1508000Y1074000D01*
X-1254000Y2344000D02*
X-1214000Y2384000D01*
X-1254000Y2424000D01*
X-1294000Y2384000D01*
X-1254000Y2344000D01*
X-1254000Y1074000D02*
X-1214000Y1114000D01*
X-1254000Y1154000D01*
X-1294000Y1114000D01*
X-1254000Y1074000D01*
X-1000000Y2344000D02*
X-960000Y2384000D01*
X-1000000Y2424000D01*
X-1040000Y2384000D01*
X-1000000Y2344000D01*
X-1000000Y1074000D02*
X-960000Y1114000D01*
X-1000000Y1154000D01*
X-1040000Y1114000D01*
X-1000000Y1074000D01*
X1002000Y2344000D02*
X1042000Y2384000D01*
X1002000Y2424000D01*
X962000Y2384000D01*
X1002000Y2344000D01*
X1002000Y1074000D02*
X1042000Y1114000D01*
X1002000Y1154000D01*
X962000Y1114000D01*
X1002000Y1074000D01*
X1011000Y-1354000D02*
X1051000Y-1314000D01*
X1011000Y-1274000D01*
X971000Y-1314000D01*
X1011000Y-1354000D01*
X1011000Y-2624000D02*
X1051000Y-2584000D01*
X1011000Y-2544000D01*
X971000Y-2584000D01*
X1011000Y-2624000D01*
X1256000Y2344000D02*
X1296000Y2384000D01*
X1256000Y2424000D01*
X1216000Y2384000D01*
X1256000Y2344000D01*
X1256000Y1074000D02*
X1296000Y1114000D01*
X1256000Y1154000D01*
X1216000Y1114000D01*
X1256000Y1074000D01*
X1265000Y-1354000D02*
X1305000Y-1314000D01*
X1265000Y-1274000D01*
X1225000Y-1314000D01*
X1265000Y-1354000D01*
X1265000Y-2624000D02*
X1305000Y-2584000D01*
X1265000Y-2544000D01*
X1225000Y-2584000D01*
X1265000Y-2624000D01*
X1510000Y2344000D02*
X1550000Y2384000D01*
X1510000Y2424000D01*
X1470000Y2384000D01*
X1510000Y2344000D01*
X1510000Y1074000D02*
X1550000Y1114000D01*
X1510000Y1154000D01*
X1470000Y1114000D01*
X1510000Y1074000D01*
X1519000Y-1354000D02*
X1559000Y-1314000D01*
X1519000Y-1274000D01*
X1479000Y-1314000D01*
X1519000Y-1354000D01*
X1519000Y-2624000D02*
X1559000Y-2584000D01*
X1519000Y-2544000D01*
X1479000Y-2584000D01*
X1519000Y-2624000D01*
X1764000Y2344000D02*
X1804000Y2384000D01*
X1764000Y2424000D01*
X1724000Y2384000D01*
X1764000Y2344000D01*
X1764000Y1074000D02*
X1804000Y1114000D01*
X1764000Y1154000D01*
X1724000Y1114000D01*
X1764000Y1074000D01*
X1773000Y-1354000D02*
X1813000Y-1314000D01*
X1773000Y-1274000D01*
X1733000Y-1314000D01*
X1773000Y-1354000D01*
X1773000Y-2624000D02*
X1813000Y-2584000D01*
X1773000Y-2544000D01*
X1733000Y-2584000D01*
X1773000Y-2624000D01*
X2018000Y2344000D02*
X2058000Y2384000D01*
X2018000Y2424000D01*
X1978000Y2384000D01*
X2018000Y2344000D01*
X2018000Y1074000D02*
X2058000Y1114000D01*
X2018000Y1154000D01*
X1978000Y1114000D01*
X2018000Y1074000D01*
X2027000Y-1354000D02*
X2067000Y-1314000D01*
X2027000Y-1274000D01*
X1987000Y-1314000D01*
X2027000Y-1354000D01*
X2027000Y-2624000D02*
X2067000Y-2584000D01*
X2027000Y-2544000D01*
X1987000Y-2584000D01*
X2027000Y-2624000D01*
X2272000Y2344000D02*
X2312000Y2384000D01*
X2272000Y2424000D01*
X2232000Y2384000D01*
X2272000Y2344000D01*
X2272000Y1074000D02*
X2312000Y1114000D01*
X2272000Y1154000D01*
X2232000Y1114000D01*
X2272000Y1074000D01*
X2281000Y-1354000D02*
X2321000Y-1314000D01*
X2281000Y-1274000D01*
X2241000Y-1314000D01*
X2281000Y-1354000D01*
X2281000Y-2624000D02*
X2321000Y-2584000D01*
X2281000Y-2544000D01*
X2241000Y-2584000D01*
X2281000Y-2624000D01*
X2526000Y2344000D02*
X2566000Y2384000D01*
X2526000Y2424000D01*
X2486000Y2384000D01*
X2526000Y2344000D01*
X2526000Y1074000D02*
X2566000Y1114000D01*
X2526000Y1154000D01*
X2486000Y1114000D01*
X2526000Y1074000D01*
X2535000Y-1354000D02*
X2575000Y-1314000D01*
X2535000Y-1274000D01*
X2495000Y-1314000D01*
X2535000Y-1354000D01*
X2535000Y-2624000D02*
X2575000Y-2584000D01*
X2535000Y-2544000D01*
X2495000Y-2584000D01*
X2535000Y-2624000D01*
X2780000Y2344000D02*
X2820000Y2384000D01*
X2780000Y2424000D01*
X2740000Y2384000D01*
X2780000Y2344000D01*
X2780000Y1074000D02*
X2820000Y1114000D01*
X2780000Y1154000D01*
X2740000Y1114000D01*
X2780000Y1074000D01*
X2789000Y-1354000D02*
X2829000Y-1314000D01*
X2789000Y-1274000D01*
X2749000Y-1314000D01*
X2789000Y-1354000D01*
X2789000Y-2624000D02*
X2829000Y-2584000D01*
X2789000Y-2544000D01*
X2749000Y-2584000D01*
X2789000Y-2624000D01*
X-2052500Y3797500D02*
X-1957500Y3702500D01*
X-1957500Y3797500D02*
X-2052500Y3702500D01*
X-1957500Y3750000D02*
G75*
G02*
X-2052500Y3750000I-47500J0D01*
G01*
X-2052500Y3750000D02*
G75*
G02*
X-1957500Y3750000I47500J0D01*
G01*
X-2052500Y3547500D02*
X-1957500Y3452500D01*
X-1957500Y3547500D02*
X-2052500Y3452500D01*
X-1957500Y3500000D02*
G75*
G02*
X-2052500Y3500000I-47500J0D01*
G01*
X-2052500Y3500000D02*
G75*
G02*
X-1957500Y3500000I47500J0D01*
G01*
X-2052500Y3297500D02*
X-1957500Y3202500D01*
X-1957500Y3297500D02*
X-2052500Y3202500D01*
X-1957500Y3250000D02*
G75*
G02*
X-2052500Y3250000I-47500J0D01*
G01*
X-2052500Y3250000D02*
G75*
G02*
X-1957500Y3250000I47500J0D01*
G01*
X-2052500Y3047500D02*
X-1957500Y2952500D01*
X-1957500Y3047500D02*
X-2052500Y2952500D01*
X-1957500Y3000000D02*
G75*
G02*
X-2052500Y3000000I-47500J0D01*
G01*
X-2052500Y3000000D02*
G75*
G02*
X-1957500Y3000000I47500J0D01*
G01*
X-297500Y-1752500D02*
X-202500Y-1847500D01*
X-202500Y-1752500D02*
X-297500Y-1847500D01*
X-202500Y-1800000D02*
G75*
G02*
X-297500Y-1800000I-47500J0D01*
G01*
X-297500Y-1800000D02*
G75*
G02*
X-202500Y-1800000I47500J0D01*
G01*
X-297500Y-2505000D02*
X-202500Y-2600000D01*
X-202500Y-2505000D02*
X-297500Y-2600000D01*
X-202500Y-2552500D02*
G75*
G02*
X-297500Y-2552500I-47500J0D01*
G01*
X-297500Y-2552500D02*
G75*
G02*
X-202500Y-2552500I47500J0D01*
G01*
X-297500Y-3252500D02*
X-202500Y-3347500D01*
X-202500Y-3252500D02*
X-297500Y-3347500D01*
X-202500Y-3300000D02*
G75*
G02*
X-297500Y-3300000I-47500J0D01*
G01*
X-297500Y-3300000D02*
G75*
G02*
X-202500Y-3300000I47500J0D01*
G01*
X-47500Y-1752500D02*
X47500Y-1847500D01*
X47500Y-1752500D02*
X-47500Y-1847500D01*
X47500Y-1800000D02*
G75*
G02*
X-47500Y-1800000I-47500J0D01*
G01*
X-47500Y-1800000D02*
G75*
G02*
X47500Y-1800000I47500J0D01*
G01*
X-47500Y-2505000D02*
X47500Y-2600000D01*
X47500Y-2505000D02*
X-47500Y-2600000D01*
X47500Y-2552500D02*
G75*
G02*
X-47500Y-2552500I-47500J0D01*
G01*
X-47500Y-2552500D02*
G75*
G02*
X47500Y-2552500I47500J0D01*
G01*
X-47500Y-3252500D02*
X47500Y-3347500D01*
X47500Y-3252500D02*
X-47500Y-3347500D01*
X47500Y-3300000D02*
G75*
G02*
X-47500Y-3300000I-47500J0D01*
G01*
X-47500Y-3300000D02*
G75*
G02*
X47500Y-3300000I47500J0D01*
G01*
X202500Y-1752500D02*
X297500Y-1847500D01*
X297500Y-1752500D02*
X202500Y-1847500D01*
X297500Y-1800000D02*
G75*
G02*
X202500Y-1800000I-47500J0D01*
G01*
X202500Y-1800000D02*
G75*
G02*
X297500Y-1800000I47500J0D01*
G01*
X202500Y-2505000D02*
X297500Y-2600000D01*
X297500Y-2505000D02*
X202500Y-2600000D01*
X297500Y-2552500D02*
G75*
G02*
X202500Y-2552500I-47500J0D01*
G01*
X202500Y-2552500D02*
G75*
G02*
X297500Y-2552500I47500J0D01*
G01*
X202500Y-3252500D02*
X297500Y-3347500D01*
X297500Y-3252500D02*
X202500Y-3347500D01*
X297500Y-3300000D02*
G75*
G02*
X202500Y-3300000I-47500J0D01*
G01*
X202500Y-3300000D02*
G75*
G02*
X297500Y-3300000I47500J0D01*
G01*
X1952500Y3797500D02*
X2047500Y3702500D01*
X2047500Y3797500D02*
X1952500Y3702500D01*
X2047500Y3750000D02*
G75*
G02*
X1952500Y3750000I-47500J0D01*
G01*
X1952500Y3750000D02*
G75*
G02*
X2047500Y3750000I47500J0D01*
G01*
X1952500Y3547500D02*
X2047500Y3452500D01*
X2047500Y3547500D02*
X1952500Y3452500D01*
X2047500Y3500000D02*
G75*
G02*
X1952500Y3500000I-47500J0D01*
G01*
X1952500Y3500000D02*
G75*
G02*
X2047500Y3500000I47500J0D01*
G01*
X1952500Y3297500D02*
X2047500Y3202500D01*
X2047500Y3297500D02*
X1952500Y3202500D01*
X2047500Y3250000D02*
G75*
G02*
X1952500Y3250000I-47500J0D01*
G01*
X1952500Y3250000D02*
G75*
G02*
X2047500Y3250000I47500J0D01*
G01*
X1952500Y3047500D02*
X2047500Y2952500D01*
X2047500Y3047500D02*
X1952500Y2952500D01*
X2047500Y3000000D02*
G75*
G02*
X1952500Y3000000I-47500J0D01*
G01*
X1952500Y3000000D02*
G75*
G02*
X2047500Y3000000I47500J0D01*
G01*
X1952500Y-3102500D02*
X2047500Y-3197500D01*
X2047500Y-3102500D02*
X1952500Y-3197500D01*
X2047500Y-3150000D02*
G75*
G02*
X1952500Y-3150000I-47500J0D01*
G01*
X1952500Y-3150000D02*
G75*
G02*
X2047500Y-3150000I47500J0D01*
G01*
X1952500Y-3352500D02*
X2047500Y-3447500D01*
X2047500Y-3352500D02*
X1952500Y-3447500D01*
X2047500Y-3400000D02*
G75*
G02*
X1952500Y-3400000I-47500J0D01*
G01*
X1952500Y-3400000D02*
G75*
G02*
X2047500Y-3400000I47500J0D01*
G01*
X1952500Y-3602500D02*
X2047500Y-3697500D01*
X2047500Y-3602500D02*
X1952500Y-3697500D01*
X2047500Y-3650000D02*
G75*
G02*
X1952500Y-3650000I-47500J0D01*
G01*
X1952500Y-3650000D02*
G75*
G02*
X2047500Y-3650000I47500J0D01*
G01*
X1952500Y-3852500D02*
X2047500Y-3947500D01*
X2047500Y-3852500D02*
X1952500Y-3947500D01*
X2047500Y-3900000D02*
G75*
G02*
X1952500Y-3900000I-47500J0D01*
G01*
X1952500Y-3900000D02*
G75*
G02*
X2047500Y-3900000I47500J0D01*
G01*
X-2750000Y-4038000D02*
X-2650000Y-4138000D01*
X-2650000Y-4038000D02*
X-2750000Y-4138000D01*
X-2700000Y-4038000D02*
X-2700000Y-4138000D01*
X-2750000Y-4088000D02*
X-2650000Y-4088000D01*
X-2750000Y-4292000D02*
X-2650000Y-4392000D01*
X-2650000Y-4292000D02*
X-2750000Y-4392000D01*
X-2700000Y-4292000D02*
X-2700000Y-4392000D01*
X-2750000Y-4342000D02*
X-2650000Y-4342000D01*
X-2750000Y-4546000D02*
X-2650000Y-4646000D01*
X-2650000Y-4546000D02*
X-2750000Y-4646000D01*
X-2700000Y-4546000D02*
X-2700000Y-4646000D01*
X-2750000Y-4596000D02*
X-2650000Y-4596000D01*
X-2750000Y-4800000D02*
X-2650000Y-4900000D01*
X-2650000Y-4800000D02*
X-2750000Y-4900000D01*
X-2700000Y-4800000D02*
X-2700000Y-4900000D01*
X-2750000Y-4850000D02*
X-2650000Y-4850000D01*
X-520000Y3950000D02*
X-420000Y3850000D01*
X-420000Y3950000D02*
X-520000Y3850000D01*
X-470000Y3950000D02*
X-470000Y3850000D01*
X-520000Y3900000D02*
X-420000Y3900000D01*
X-520000Y4000000D02*
X-520000Y3800000D01*
X-420000Y3800000D02*
G75*
G02*
X-520000Y3800000I-50000J0D01*
G01*
X-420000Y3800000D02*
X-420000Y4000000D01*
X-420000Y4000000D02*
G75*
G03*
X-520000Y4000000I-50000J0D01*
G01*
X-50000Y4250000D02*
X50000Y4150000D01*
X50000Y4250000D02*
X-50000Y4150000D01*
X0Y4250000D02*
X0Y4150000D01*
X-50000Y4200000D02*
X50000Y4200000D01*
X100000Y4250000D02*
X-100000Y4250000D01*
X-100000Y4150000D02*
G75*
G02*
X-100000Y4250000I0J50000D01*
G01*
X-100000Y4150000D02*
X100000Y4150000D01*
X100000Y4150000D02*
G75*
G03*
X100000Y4250000I0J50000D01*
G01*
X-50000Y3650000D02*
X50000Y3550000D01*
X50000Y3650000D02*
X-50000Y3550000D01*
X0Y3650000D02*
X0Y3550000D01*
X-50000Y3600000D02*
X50000Y3600000D01*
X100000Y3650000D02*
X-100000Y3650000D01*
X-100000Y3550000D02*
G75*
G02*
X-100000Y3650000I0J50000D01*
G01*
X-100000Y3550000D02*
X100000Y3550000D01*
X100000Y3550000D02*
G75*
G03*
X100000Y3650000I0J50000D01*
G01*
D11*
X-2741723Y-6188984D02*
X-2741723Y-5988984D01*
X-2741723Y-5988984D02*
X-2694104Y-5988984D01*
X-2694104Y-5988984D02*
X-2665533Y-5998508D01*
X-2665533Y-5998508D02*
X-2646485Y-6017555D01*
X-2646485Y-6017555D02*
X-2636961Y-6036603D01*
X-2636961Y-6036603D02*
X-2627437Y-6074698D01*
X-2627437Y-6074698D02*
X-2627437Y-6103269D01*
X-2627437Y-6103269D02*
X-2636961Y-6141365D01*
X-2636961Y-6141365D02*
X-2646485Y-6160412D01*
X-2646485Y-6160412D02*
X-2665533Y-6179460D01*
X-2665533Y-6179460D02*
X-2694104Y-6188984D01*
X-2694104Y-6188984D02*
X-2741723Y-6188984D01*
X-2541723Y-6188984D02*
X-2541723Y-6055650D01*
X-2541723Y-6093746D02*
X-2532199Y-6074698D01*
X-2532199Y-6074698D02*
X-2522676Y-6065174D01*
X-2522676Y-6065174D02*
X-2503628Y-6055650D01*
X-2503628Y-6055650D02*
X-2484580Y-6055650D01*
X-2417914Y-6188984D02*
X-2417914Y-6055650D01*
X-2417914Y-5988984D02*
X-2427437Y-5998508D01*
X-2427437Y-5998508D02*
X-2417914Y-6008031D01*
X-2417914Y-6008031D02*
X-2408390Y-5998508D01*
X-2408390Y-5998508D02*
X-2417914Y-5988984D01*
X-2417914Y-5988984D02*
X-2417914Y-6008031D01*
X-2294104Y-6188984D02*
X-2313152Y-6179460D01*
X-2313152Y-6179460D02*
X-2322676Y-6160412D01*
X-2322676Y-6160412D02*
X-2322676Y-5988984D01*
X-2189342Y-6188984D02*
X-2208390Y-6179460D01*
X-2208390Y-6179460D02*
X-2217914Y-6160412D01*
X-2217914Y-6160412D02*
X-2217914Y-5988984D01*
X-1960771Y-6188984D02*
X-1960771Y-5988984D01*
X-1960771Y-5988984D02*
X-1894104Y-6131841D01*
X-1894104Y-6131841D02*
X-1827437Y-5988984D01*
X-1827437Y-5988984D02*
X-1827437Y-6188984D01*
X-1646485Y-6188984D02*
X-1646485Y-6084222D01*
X-1646485Y-6084222D02*
X-1656009Y-6065174D01*
X-1656009Y-6065174D02*
X-1675056Y-6055650D01*
X-1675056Y-6055650D02*
X-1713152Y-6055650D01*
X-1713152Y-6055650D02*
X-1732199Y-6065174D01*
X-1646485Y-6179460D02*
X-1665533Y-6188984D01*
X-1665533Y-6188984D02*
X-1713152Y-6188984D01*
X-1713152Y-6188984D02*
X-1732199Y-6179460D01*
X-1732199Y-6179460D02*
X-1741723Y-6160412D01*
X-1741723Y-6160412D02*
X-1741723Y-6141365D01*
X-1741723Y-6141365D02*
X-1732199Y-6122317D01*
X-1732199Y-6122317D02*
X-1713152Y-6112793D01*
X-1713152Y-6112793D02*
X-1665533Y-6112793D01*
X-1665533Y-6112793D02*
X-1646485Y-6103269D01*
X-1551247Y-6055650D02*
X-1551247Y-6255650D01*
X-1551247Y-6065174D02*
X-1532199Y-6055650D01*
X-1532199Y-6055650D02*
X-1494104Y-6055650D01*
X-1494104Y-6055650D02*
X-1475056Y-6065174D01*
X-1475056Y-6065174D02*
X-1465533Y-6074698D01*
X-1465533Y-6074698D02*
X-1456009Y-6093746D01*
X-1456009Y-6093746D02*
X-1456009Y-6150888D01*
X-1456009Y-6150888D02*
X-1465533Y-6169936D01*
X-1465533Y-6169936D02*
X-1475056Y-6179460D01*
X-1475056Y-6179460D02*
X-1494104Y-6188984D01*
X-1494104Y-6188984D02*
X-1532199Y-6188984D01*
X-1532199Y-6188984D02*
X-1551247Y-6179460D01*
X-1370295Y-6169936D02*
X-1360771Y-6179460D01*
X-1360771Y-6179460D02*
X-1370295Y-6188984D01*
X-1370295Y-6188984D02*
X-1379818Y-6179460D01*
X-1379818Y-6179460D02*
X-1370295Y-6169936D01*
X-1370295Y-6169936D02*
X-1370295Y-6188984D01*
X-1370295Y-6065174D02*
X-1360771Y-6074698D01*
X-1360771Y-6074698D02*
X-1370295Y-6084222D01*
X-1370295Y-6084222D02*
X-1379818Y-6074698D01*
X-1379818Y-6074698D02*
X-1370295Y-6065174D01*
X-1370295Y-6065174D02*
X-1370295Y-6084222D01*
D12*
X-3032500Y-6502500D02*
X-3002500Y-6532500D01*
X-3002500Y-6502500D02*
X-3032500Y-6532500D01*
D11*
X-2703628Y-6408984D02*
X-2684580Y-6408984D01*
X-2684580Y-6408984D02*
X-2665533Y-6418508D01*
X-2665533Y-6418508D02*
X-2656009Y-6428031D01*
X-2656009Y-6428031D02*
X-2646485Y-6447079D01*
X-2646485Y-6447079D02*
X-2636961Y-6485174D01*
X-2636961Y-6485174D02*
X-2636961Y-6532793D01*
X-2636961Y-6532793D02*
X-2646485Y-6570888D01*
X-2646485Y-6570888D02*
X-2656009Y-6589936D01*
X-2656009Y-6589936D02*
X-2665533Y-6599460D01*
X-2665533Y-6599460D02*
X-2684580Y-6608984D01*
X-2684580Y-6608984D02*
X-2703628Y-6608984D01*
X-2703628Y-6608984D02*
X-2722676Y-6599460D01*
X-2722676Y-6599460D02*
X-2732199Y-6589936D01*
X-2732199Y-6589936D02*
X-2741723Y-6570888D01*
X-2741723Y-6570888D02*
X-2751247Y-6532793D01*
X-2751247Y-6532793D02*
X-2751247Y-6485174D01*
X-2751247Y-6485174D02*
X-2741723Y-6447079D01*
X-2741723Y-6447079D02*
X-2732199Y-6428031D01*
X-2732199Y-6428031D02*
X-2722676Y-6418508D01*
X-2722676Y-6418508D02*
X-2703628Y-6408984D01*
X-2551247Y-6589936D02*
X-2541723Y-6599460D01*
X-2541723Y-6599460D02*
X-2551247Y-6608984D01*
X-2551247Y-6608984D02*
X-2560771Y-6599460D01*
X-2560771Y-6599460D02*
X-2551247Y-6589936D01*
X-2551247Y-6589936D02*
X-2551247Y-6608984D01*
X-2475056Y-6408984D02*
X-2351247Y-6408984D01*
X-2351247Y-6408984D02*
X-2417914Y-6485174D01*
X-2417914Y-6485174D02*
X-2389342Y-6485174D01*
X-2389342Y-6485174D02*
X-2370295Y-6494698D01*
X-2370295Y-6494698D02*
X-2360771Y-6504222D01*
X-2360771Y-6504222D02*
X-2351247Y-6523269D01*
X-2351247Y-6523269D02*
X-2351247Y-6570888D01*
X-2351247Y-6570888D02*
X-2360771Y-6589936D01*
X-2360771Y-6589936D02*
X-2370295Y-6599460D01*
X-2370295Y-6599460D02*
X-2389342Y-6608984D01*
X-2389342Y-6608984D02*
X-2446485Y-6608984D01*
X-2446485Y-6608984D02*
X-2465533Y-6599460D01*
X-2465533Y-6599460D02*
X-2475056Y-6589936D01*
X-2227437Y-6408984D02*
X-2208390Y-6408984D01*
X-2208390Y-6408984D02*
X-2189342Y-6418508D01*
X-2189342Y-6418508D02*
X-2179818Y-6428031D01*
X-2179818Y-6428031D02*
X-2170295Y-6447079D01*
X-2170295Y-6447079D02*
X-2160771Y-6485174D01*
X-2160771Y-6485174D02*
X-2160771Y-6532793D01*
X-2160771Y-6532793D02*
X-2170295Y-6570888D01*
X-2170295Y-6570888D02*
X-2179818Y-6589936D01*
X-2179818Y-6589936D02*
X-2189342Y-6599460D01*
X-2189342Y-6599460D02*
X-2208390Y-6608984D01*
X-2208390Y-6608984D02*
X-2227437Y-6608984D01*
X-2227437Y-6608984D02*
X-2246485Y-6599460D01*
X-2246485Y-6599460D02*
X-2256009Y-6589936D01*
X-2256009Y-6589936D02*
X-2265533Y-6570888D01*
X-2265533Y-6570888D02*
X-2275056Y-6532793D01*
X-2275056Y-6532793D02*
X-2275056Y-6485174D01*
X-2275056Y-6485174D02*
X-2265533Y-6447079D01*
X-2265533Y-6447079D02*
X-2256009Y-6428031D01*
X-2256009Y-6428031D02*
X-2246485Y-6418508D01*
X-2246485Y-6418508D02*
X-2227437Y-6408984D01*
X-2036961Y-6408984D02*
X-2017913Y-6408984D01*
X-2017913Y-6408984D02*
X-1998866Y-6418508D01*
X-1998866Y-6418508D02*
X-1989342Y-6428031D01*
X-1989342Y-6428031D02*
X-1979818Y-6447079D01*
X-1979818Y-6447079D02*
X-1970294Y-6485174D01*
X-1970294Y-6485174D02*
X-1970294Y-6532793D01*
X-1970294Y-6532793D02*
X-1979818Y-6570888D01*
X-1979818Y-6570888D02*
X-1989342Y-6589936D01*
X-1989342Y-6589936D02*
X-1998866Y-6599460D01*
X-1998866Y-6599460D02*
X-2017913Y-6608984D01*
X-2017913Y-6608984D02*
X-2036961Y-6608984D01*
X-2036961Y-6608984D02*
X-2056009Y-6599460D01*
X-2056009Y-6599460D02*
X-2065533Y-6589936D01*
X-2065533Y-6589936D02*
X-2075056Y-6570888D01*
X-2075056Y-6570888D02*
X-2084580Y-6532793D01*
X-2084580Y-6532793D02*
X-2084580Y-6485174D01*
X-2084580Y-6485174D02*
X-2075056Y-6447079D01*
X-2075056Y-6447079D02*
X-2065533Y-6428031D01*
X-2065533Y-6428031D02*
X-2056009Y-6418508D01*
X-2056009Y-6418508D02*
X-2036961Y-6408984D01*
X-1884580Y-6608984D02*
X-1884580Y-6475650D01*
X-1884580Y-6494698D02*
X-1875056Y-6485174D01*
X-1875056Y-6485174D02*
X-1856009Y-6475650D01*
X-1856009Y-6475650D02*
X-1827437Y-6475650D01*
X-1827437Y-6475650D02*
X-1808390Y-6485174D01*
X-1808390Y-6485174D02*
X-1798866Y-6504222D01*
X-1798866Y-6504222D02*
X-1798866Y-6608984D01*
X-1798866Y-6504222D02*
X-1789342Y-6485174D01*
X-1789342Y-6485174D02*
X-1770294Y-6475650D01*
X-1770294Y-6475650D02*
X-1741723Y-6475650D01*
X-1741723Y-6475650D02*
X-1722675Y-6485174D01*
X-1722675Y-6485174D02*
X-1713152Y-6504222D01*
X-1713152Y-6504222D02*
X-1713152Y-6608984D01*
X-1617913Y-6608984D02*
X-1617913Y-6475650D01*
X-1617913Y-6494698D02*
X-1608390Y-6485174D01*
X-1608390Y-6485174D02*
X-1589342Y-6475650D01*
X-1589342Y-6475650D02*
X-1560771Y-6475650D01*
X-1560771Y-6475650D02*
X-1541723Y-6485174D01*
X-1541723Y-6485174D02*
X-1532199Y-6504222D01*
X-1532199Y-6504222D02*
X-1532199Y-6608984D01*
X-1532199Y-6504222D02*
X-1522675Y-6485174D01*
X-1522675Y-6485174D02*
X-1503628Y-6475650D01*
X-1503628Y-6475650D02*
X-1475056Y-6475650D01*
X-1475056Y-6475650D02*
X-1456009Y-6485174D01*
X-1456009Y-6485174D02*
X-1446485Y-6504222D01*
X-1446485Y-6504222D02*
X-1446485Y-6608984D01*
X-1056009Y-6399460D02*
X-1227437Y-6656603D01*
X-798866Y-6408984D02*
X-779818Y-6408984D01*
X-779818Y-6408984D02*
X-760770Y-6418508D01*
X-760770Y-6418508D02*
X-751247Y-6428031D01*
X-751247Y-6428031D02*
X-741723Y-6447079D01*
X-741723Y-6447079D02*
X-732199Y-6485174D01*
X-732199Y-6485174D02*
X-732199Y-6532793D01*
X-732199Y-6532793D02*
X-741723Y-6570888D01*
X-741723Y-6570888D02*
X-751247Y-6589936D01*
X-751247Y-6589936D02*
X-760770Y-6599460D01*
X-760770Y-6599460D02*
X-779818Y-6608984D01*
X-779818Y-6608984D02*
X-798866Y-6608984D01*
X-798866Y-6608984D02*
X-817913Y-6599460D01*
X-817913Y-6599460D02*
X-827437Y-6589936D01*
X-827437Y-6589936D02*
X-836961Y-6570888D01*
X-836961Y-6570888D02*
X-846485Y-6532793D01*
X-846485Y-6532793D02*
X-846485Y-6485174D01*
X-846485Y-6485174D02*
X-836961Y-6447079D01*
X-836961Y-6447079D02*
X-827437Y-6428031D01*
X-827437Y-6428031D02*
X-817913Y-6418508D01*
X-817913Y-6418508D02*
X-798866Y-6408984D01*
X-646485Y-6589936D02*
X-636961Y-6599460D01*
X-636961Y-6599460D02*
X-646485Y-6608984D01*
X-646485Y-6608984D02*
X-656009Y-6599460D01*
X-656009Y-6599460D02*
X-646485Y-6589936D01*
X-646485Y-6589936D02*
X-646485Y-6608984D01*
X-513151Y-6408984D02*
X-494104Y-6408984D01*
X-494104Y-6408984D02*
X-475056Y-6418508D01*
X-475056Y-6418508D02*
X-465532Y-6428031D01*
X-465532Y-6428031D02*
X-456009Y-6447079D01*
X-456009Y-6447079D02*
X-446485Y-6485174D01*
X-446485Y-6485174D02*
X-446485Y-6532793D01*
X-446485Y-6532793D02*
X-456009Y-6570888D01*
X-456009Y-6570888D02*
X-465532Y-6589936D01*
X-465532Y-6589936D02*
X-475056Y-6599460D01*
X-475056Y-6599460D02*
X-494104Y-6608984D01*
X-494104Y-6608984D02*
X-513151Y-6608984D01*
X-513151Y-6608984D02*
X-532199Y-6599460D01*
X-532199Y-6599460D02*
X-541723Y-6589936D01*
X-541723Y-6589936D02*
X-551247Y-6570888D01*
X-551247Y-6570888D02*
X-560771Y-6532793D01*
X-560771Y-6532793D02*
X-560771Y-6485174D01*
X-560771Y-6485174D02*
X-551247Y-6447079D01*
X-551247Y-6447079D02*
X-541723Y-6428031D01*
X-541723Y-6428031D02*
X-532199Y-6418508D01*
X-532199Y-6418508D02*
X-513151Y-6408984D01*
X-256009Y-6608984D02*
X-370294Y-6608984D01*
X-313152Y-6608984D02*
X-313152Y-6408984D01*
X-313152Y-6408984D02*
X-332199Y-6437555D01*
X-332199Y-6437555D02*
X-351247Y-6456603D01*
X-351247Y-6456603D02*
X-370294Y-6466127D01*
X-65532Y-6608984D02*
X-179818Y-6608984D01*
X-122675Y-6608984D02*
X-122675Y-6408984D01*
X-122675Y-6408984D02*
X-141723Y-6437555D01*
X-141723Y-6437555D02*
X-160771Y-6456603D01*
X-160771Y-6456603D02*
X-179818Y-6466127D01*
X48753Y-6494698D02*
X29706Y-6485174D01*
X29706Y-6485174D02*
X20182Y-6475650D01*
X20182Y-6475650D02*
X10658Y-6456603D01*
X10658Y-6456603D02*
X10658Y-6447079D01*
X10658Y-6447079D02*
X20182Y-6428031D01*
X20182Y-6428031D02*
X29706Y-6418508D01*
X29706Y-6418508D02*
X48753Y-6408984D01*
X48753Y-6408984D02*
X86849Y-6408984D01*
X86849Y-6408984D02*
X105896Y-6418508D01*
X105896Y-6418508D02*
X115420Y-6428031D01*
X115420Y-6428031D02*
X124944Y-6447079D01*
X124944Y-6447079D02*
X124944Y-6456603D01*
X124944Y-6456603D02*
X115420Y-6475650D01*
X115420Y-6475650D02*
X105896Y-6485174D01*
X105896Y-6485174D02*
X86849Y-6494698D01*
X86849Y-6494698D02*
X48753Y-6494698D01*
X48753Y-6494698D02*
X29706Y-6504222D01*
X29706Y-6504222D02*
X20182Y-6513746D01*
X20182Y-6513746D02*
X10658Y-6532793D01*
X10658Y-6532793D02*
X10658Y-6570888D01*
X10658Y-6570888D02*
X20182Y-6589936D01*
X20182Y-6589936D02*
X29706Y-6599460D01*
X29706Y-6599460D02*
X48753Y-6608984D01*
X48753Y-6608984D02*
X86849Y-6608984D01*
X86849Y-6608984D02*
X105896Y-6599460D01*
X105896Y-6599460D02*
X115420Y-6589936D01*
X115420Y-6589936D02*
X124944Y-6570888D01*
X124944Y-6570888D02*
X124944Y-6532793D01*
X124944Y-6532793D02*
X115420Y-6513746D01*
X115420Y-6513746D02*
X105896Y-6504222D01*
X105896Y-6504222D02*
X86849Y-6494698D01*
X201134Y-6408984D02*
X201134Y-6447079D01*
X277325Y-6408984D02*
X277325Y-6447079D01*
X572563Y-6685174D02*
X563039Y-6675650D01*
X563039Y-6675650D02*
X543991Y-6647079D01*
X543991Y-6647079D02*
X534468Y-6628031D01*
X534468Y-6628031D02*
X524944Y-6599460D01*
X524944Y-6599460D02*
X515420Y-6551841D01*
X515420Y-6551841D02*
X515420Y-6513746D01*
X515420Y-6513746D02*
X524944Y-6466127D01*
X524944Y-6466127D02*
X534468Y-6437555D01*
X534468Y-6437555D02*
X543991Y-6418508D01*
X543991Y-6418508D02*
X563039Y-6389936D01*
X563039Y-6389936D02*
X572563Y-6380412D01*
X639230Y-6428031D02*
X648753Y-6418508D01*
X648753Y-6418508D02*
X667801Y-6408984D01*
X667801Y-6408984D02*
X715420Y-6408984D01*
X715420Y-6408984D02*
X734468Y-6418508D01*
X734468Y-6418508D02*
X743991Y-6428031D01*
X743991Y-6428031D02*
X753515Y-6447079D01*
X753515Y-6447079D02*
X753515Y-6466127D01*
X753515Y-6466127D02*
X743991Y-6494698D01*
X743991Y-6494698D02*
X629706Y-6608984D01*
X629706Y-6608984D02*
X753515Y-6608984D01*
X820182Y-6408984D02*
X953515Y-6408984D01*
X953515Y-6408984D02*
X867801Y-6608984D01*
X1010658Y-6408984D02*
X1134468Y-6408984D01*
X1134468Y-6408984D02*
X1067801Y-6485174D01*
X1067801Y-6485174D02*
X1096372Y-6485174D01*
X1096372Y-6485174D02*
X1115420Y-6494698D01*
X1115420Y-6494698D02*
X1124944Y-6504222D01*
X1124944Y-6504222D02*
X1134468Y-6523269D01*
X1134468Y-6523269D02*
X1134468Y-6570888D01*
X1134468Y-6570888D02*
X1124944Y-6589936D01*
X1124944Y-6589936D02*
X1115420Y-6599460D01*
X1115420Y-6599460D02*
X1096372Y-6608984D01*
X1096372Y-6608984D02*
X1039229Y-6608984D01*
X1039229Y-6608984D02*
X1020182Y-6599460D01*
X1020182Y-6599460D02*
X1010658Y-6589936D01*
X1372563Y-6608984D02*
X1372563Y-6408984D01*
X1458277Y-6608984D02*
X1458277Y-6504222D01*
X1458277Y-6504222D02*
X1448753Y-6485174D01*
X1448753Y-6485174D02*
X1429706Y-6475650D01*
X1429706Y-6475650D02*
X1401134Y-6475650D01*
X1401134Y-6475650D02*
X1382087Y-6485174D01*
X1382087Y-6485174D02*
X1372563Y-6494698D01*
X1582087Y-6608984D02*
X1563039Y-6599460D01*
X1563039Y-6599460D02*
X1553515Y-6589936D01*
X1553515Y-6589936D02*
X1543991Y-6570888D01*
X1543991Y-6570888D02*
X1543991Y-6513746D01*
X1543991Y-6513746D02*
X1553515Y-6494698D01*
X1553515Y-6494698D02*
X1563039Y-6485174D01*
X1563039Y-6485174D02*
X1582087Y-6475650D01*
X1582087Y-6475650D02*
X1610658Y-6475650D01*
X1610658Y-6475650D02*
X1629706Y-6485174D01*
X1629706Y-6485174D02*
X1639230Y-6494698D01*
X1639230Y-6494698D02*
X1648753Y-6513746D01*
X1648753Y-6513746D02*
X1648753Y-6570888D01*
X1648753Y-6570888D02*
X1639230Y-6589936D01*
X1639230Y-6589936D02*
X1629706Y-6599460D01*
X1629706Y-6599460D02*
X1610658Y-6608984D01*
X1610658Y-6608984D02*
X1582087Y-6608984D01*
X1763039Y-6608984D02*
X1743991Y-6599460D01*
X1743991Y-6599460D02*
X1734468Y-6580412D01*
X1734468Y-6580412D02*
X1734468Y-6408984D01*
X1915420Y-6599460D02*
X1896372Y-6608984D01*
X1896372Y-6608984D02*
X1858277Y-6608984D01*
X1858277Y-6608984D02*
X1839230Y-6599460D01*
X1839230Y-6599460D02*
X1829706Y-6580412D01*
X1829706Y-6580412D02*
X1829706Y-6504222D01*
X1829706Y-6504222D02*
X1839230Y-6485174D01*
X1839230Y-6485174D02*
X1858277Y-6475650D01*
X1858277Y-6475650D02*
X1896372Y-6475650D01*
X1896372Y-6475650D02*
X1915420Y-6485174D01*
X1915420Y-6485174D02*
X1924944Y-6504222D01*
X1924944Y-6504222D02*
X1924944Y-6523269D01*
X1924944Y-6523269D02*
X1829706Y-6542317D01*
X2001134Y-6599460D02*
X2020182Y-6608984D01*
X2020182Y-6608984D02*
X2058277Y-6608984D01*
X2058277Y-6608984D02*
X2077325Y-6599460D01*
X2077325Y-6599460D02*
X2086849Y-6580412D01*
X2086849Y-6580412D02*
X2086849Y-6570888D01*
X2086849Y-6570888D02*
X2077325Y-6551841D01*
X2077325Y-6551841D02*
X2058277Y-6542317D01*
X2058277Y-6542317D02*
X2029706Y-6542317D01*
X2029706Y-6542317D02*
X2010658Y-6532793D01*
X2010658Y-6532793D02*
X2001134Y-6513746D01*
X2001134Y-6513746D02*
X2001134Y-6504222D01*
X2001134Y-6504222D02*
X2010658Y-6485174D01*
X2010658Y-6485174D02*
X2029706Y-6475650D01*
X2029706Y-6475650D02*
X2058277Y-6475650D01*
X2058277Y-6475650D02*
X2077325Y-6485174D01*
X2153515Y-6685174D02*
X2163039Y-6675650D01*
X2163039Y-6675650D02*
X2182087Y-6647079D01*
X2182087Y-6647079D02*
X2191611Y-6628031D01*
X2191611Y-6628031D02*
X2201134Y-6599460D01*
X2201134Y-6599460D02*
X2210658Y-6551841D01*
X2210658Y-6551841D02*
X2210658Y-6513746D01*
X2210658Y-6513746D02*
X2201134Y-6466127D01*
X2201134Y-6466127D02*
X2191611Y-6437555D01*
X2191611Y-6437555D02*
X2182087Y-6418508D01*
X2182087Y-6418508D02*
X2163039Y-6389936D01*
X2163039Y-6389936D02*
X2153515Y-6380412D01*
D12*
X-3002500Y-6781500D02*
G75*
G02*
X-3032500Y-6781500I-15000J0D01*
G01*
X-3032500Y-6781500D02*
G75*
G02*
X-3002500Y-6781500I15000J0D01*
G01*
D11*
X-2703628Y-6672984D02*
X-2684580Y-6672984D01*
X-2684580Y-6672984D02*
X-2665533Y-6682508D01*
X-2665533Y-6682508D02*
X-2656009Y-6692031D01*
X-2656009Y-6692031D02*
X-2646485Y-6711079D01*
X-2646485Y-6711079D02*
X-2636961Y-6749174D01*
X-2636961Y-6749174D02*
X-2636961Y-6796793D01*
X-2636961Y-6796793D02*
X-2646485Y-6834888D01*
X-2646485Y-6834888D02*
X-2656009Y-6853936D01*
X-2656009Y-6853936D02*
X-2665533Y-6863460D01*
X-2665533Y-6863460D02*
X-2684580Y-6872984D01*
X-2684580Y-6872984D02*
X-2703628Y-6872984D01*
X-2703628Y-6872984D02*
X-2722676Y-6863460D01*
X-2722676Y-6863460D02*
X-2732199Y-6853936D01*
X-2732199Y-6853936D02*
X-2741723Y-6834888D01*
X-2741723Y-6834888D02*
X-2751247Y-6796793D01*
X-2751247Y-6796793D02*
X-2751247Y-6749174D01*
X-2751247Y-6749174D02*
X-2741723Y-6711079D01*
X-2741723Y-6711079D02*
X-2732199Y-6692031D01*
X-2732199Y-6692031D02*
X-2722676Y-6682508D01*
X-2722676Y-6682508D02*
X-2703628Y-6672984D01*
X-2551247Y-6853936D02*
X-2541723Y-6863460D01*
X-2541723Y-6863460D02*
X-2551247Y-6872984D01*
X-2551247Y-6872984D02*
X-2560771Y-6863460D01*
X-2560771Y-6863460D02*
X-2551247Y-6853936D01*
X-2551247Y-6853936D02*
X-2551247Y-6872984D01*
X-2475056Y-6672984D02*
X-2351247Y-6672984D01*
X-2351247Y-6672984D02*
X-2417914Y-6749174D01*
X-2417914Y-6749174D02*
X-2389342Y-6749174D01*
X-2389342Y-6749174D02*
X-2370295Y-6758698D01*
X-2370295Y-6758698D02*
X-2360771Y-6768222D01*
X-2360771Y-6768222D02*
X-2351247Y-6787269D01*
X-2351247Y-6787269D02*
X-2351247Y-6834888D01*
X-2351247Y-6834888D02*
X-2360771Y-6853936D01*
X-2360771Y-6853936D02*
X-2370295Y-6863460D01*
X-2370295Y-6863460D02*
X-2389342Y-6872984D01*
X-2389342Y-6872984D02*
X-2446485Y-6872984D01*
X-2446485Y-6872984D02*
X-2465533Y-6863460D01*
X-2465533Y-6863460D02*
X-2475056Y-6853936D01*
X-2227437Y-6672984D02*
X-2208390Y-6672984D01*
X-2208390Y-6672984D02*
X-2189342Y-6682508D01*
X-2189342Y-6682508D02*
X-2179818Y-6692031D01*
X-2179818Y-6692031D02*
X-2170295Y-6711079D01*
X-2170295Y-6711079D02*
X-2160771Y-6749174D01*
X-2160771Y-6749174D02*
X-2160771Y-6796793D01*
X-2160771Y-6796793D02*
X-2170295Y-6834888D01*
X-2170295Y-6834888D02*
X-2179818Y-6853936D01*
X-2179818Y-6853936D02*
X-2189342Y-6863460D01*
X-2189342Y-6863460D02*
X-2208390Y-6872984D01*
X-2208390Y-6872984D02*
X-2227437Y-6872984D01*
X-2227437Y-6872984D02*
X-2246485Y-6863460D01*
X-2246485Y-6863460D02*
X-2256009Y-6853936D01*
X-2256009Y-6853936D02*
X-2265533Y-6834888D01*
X-2265533Y-6834888D02*
X-2275056Y-6796793D01*
X-2275056Y-6796793D02*
X-2275056Y-6749174D01*
X-2275056Y-6749174D02*
X-2265533Y-6711079D01*
X-2265533Y-6711079D02*
X-2256009Y-6692031D01*
X-2256009Y-6692031D02*
X-2246485Y-6682508D01*
X-2246485Y-6682508D02*
X-2227437Y-6672984D01*
X-2036961Y-6672984D02*
X-2017913Y-6672984D01*
X-2017913Y-6672984D02*
X-1998866Y-6682508D01*
X-1998866Y-6682508D02*
X-1989342Y-6692031D01*
X-1989342Y-6692031D02*
X-1979818Y-6711079D01*
X-1979818Y-6711079D02*
X-1970294Y-6749174D01*
X-1970294Y-6749174D02*
X-1970294Y-6796793D01*
X-1970294Y-6796793D02*
X-1979818Y-6834888D01*
X-1979818Y-6834888D02*
X-1989342Y-6853936D01*
X-1989342Y-6853936D02*
X-1998866Y-6863460D01*
X-1998866Y-6863460D02*
X-2017913Y-6872984D01*
X-2017913Y-6872984D02*
X-2036961Y-6872984D01*
X-2036961Y-6872984D02*
X-2056009Y-6863460D01*
X-2056009Y-6863460D02*
X-2065533Y-6853936D01*
X-2065533Y-6853936D02*
X-2075056Y-6834888D01*
X-2075056Y-6834888D02*
X-2084580Y-6796793D01*
X-2084580Y-6796793D02*
X-2084580Y-6749174D01*
X-2084580Y-6749174D02*
X-2075056Y-6711079D01*
X-2075056Y-6711079D02*
X-2065533Y-6692031D01*
X-2065533Y-6692031D02*
X-2056009Y-6682508D01*
X-2056009Y-6682508D02*
X-2036961Y-6672984D01*
X-1884580Y-6872984D02*
X-1884580Y-6739650D01*
X-1884580Y-6758698D02*
X-1875056Y-6749174D01*
X-1875056Y-6749174D02*
X-1856009Y-6739650D01*
X-1856009Y-6739650D02*
X-1827437Y-6739650D01*
X-1827437Y-6739650D02*
X-1808390Y-6749174D01*
X-1808390Y-6749174D02*
X-1798866Y-6768222D01*
X-1798866Y-6768222D02*
X-1798866Y-6872984D01*
X-1798866Y-6768222D02*
X-1789342Y-6749174D01*
X-1789342Y-6749174D02*
X-1770294Y-6739650D01*
X-1770294Y-6739650D02*
X-1741723Y-6739650D01*
X-1741723Y-6739650D02*
X-1722675Y-6749174D01*
X-1722675Y-6749174D02*
X-1713152Y-6768222D01*
X-1713152Y-6768222D02*
X-1713152Y-6872984D01*
X-1617913Y-6872984D02*
X-1617913Y-6739650D01*
X-1617913Y-6758698D02*
X-1608390Y-6749174D01*
X-1608390Y-6749174D02*
X-1589342Y-6739650D01*
X-1589342Y-6739650D02*
X-1560771Y-6739650D01*
X-1560771Y-6739650D02*
X-1541723Y-6749174D01*
X-1541723Y-6749174D02*
X-1532199Y-6768222D01*
X-1532199Y-6768222D02*
X-1532199Y-6872984D01*
X-1532199Y-6768222D02*
X-1522675Y-6749174D01*
X-1522675Y-6749174D02*
X-1503628Y-6739650D01*
X-1503628Y-6739650D02*
X-1475056Y-6739650D01*
X-1475056Y-6739650D02*
X-1456009Y-6749174D01*
X-1456009Y-6749174D02*
X-1446485Y-6768222D01*
X-1446485Y-6768222D02*
X-1446485Y-6872984D01*
X-1056009Y-6663460D02*
X-1227437Y-6920603D01*
X-798866Y-6672984D02*
X-779818Y-6672984D01*
X-779818Y-6672984D02*
X-760770Y-6682508D01*
X-760770Y-6682508D02*
X-751247Y-6692031D01*
X-751247Y-6692031D02*
X-741723Y-6711079D01*
X-741723Y-6711079D02*
X-732199Y-6749174D01*
X-732199Y-6749174D02*
X-732199Y-6796793D01*
X-732199Y-6796793D02*
X-741723Y-6834888D01*
X-741723Y-6834888D02*
X-751247Y-6853936D01*
X-751247Y-6853936D02*
X-760770Y-6863460D01*
X-760770Y-6863460D02*
X-779818Y-6872984D01*
X-779818Y-6872984D02*
X-798866Y-6872984D01*
X-798866Y-6872984D02*
X-817913Y-6863460D01*
X-817913Y-6863460D02*
X-827437Y-6853936D01*
X-827437Y-6853936D02*
X-836961Y-6834888D01*
X-836961Y-6834888D02*
X-846485Y-6796793D01*
X-846485Y-6796793D02*
X-846485Y-6749174D01*
X-846485Y-6749174D02*
X-836961Y-6711079D01*
X-836961Y-6711079D02*
X-827437Y-6692031D01*
X-827437Y-6692031D02*
X-817913Y-6682508D01*
X-817913Y-6682508D02*
X-798866Y-6672984D01*
X-646485Y-6853936D02*
X-636961Y-6863460D01*
X-636961Y-6863460D02*
X-646485Y-6872984D01*
X-646485Y-6872984D02*
X-656009Y-6863460D01*
X-656009Y-6863460D02*
X-646485Y-6853936D01*
X-646485Y-6853936D02*
X-646485Y-6872984D01*
X-513151Y-6672984D02*
X-494104Y-6672984D01*
X-494104Y-6672984D02*
X-475056Y-6682508D01*
X-475056Y-6682508D02*
X-465532Y-6692031D01*
X-465532Y-6692031D02*
X-456009Y-6711079D01*
X-456009Y-6711079D02*
X-446485Y-6749174D01*
X-446485Y-6749174D02*
X-446485Y-6796793D01*
X-446485Y-6796793D02*
X-456009Y-6834888D01*
X-456009Y-6834888D02*
X-465532Y-6853936D01*
X-465532Y-6853936D02*
X-475056Y-6863460D01*
X-475056Y-6863460D02*
X-494104Y-6872984D01*
X-494104Y-6872984D02*
X-513151Y-6872984D01*
X-513151Y-6872984D02*
X-532199Y-6863460D01*
X-532199Y-6863460D02*
X-541723Y-6853936D01*
X-541723Y-6853936D02*
X-551247Y-6834888D01*
X-551247Y-6834888D02*
X-560771Y-6796793D01*
X-560771Y-6796793D02*
X-560771Y-6749174D01*
X-560771Y-6749174D02*
X-551247Y-6711079D01*
X-551247Y-6711079D02*
X-541723Y-6692031D01*
X-541723Y-6692031D02*
X-532199Y-6682508D01*
X-532199Y-6682508D02*
X-513151Y-6672984D01*
X-256009Y-6872984D02*
X-370294Y-6872984D01*
X-313152Y-6872984D02*
X-313152Y-6672984D01*
X-313152Y-6672984D02*
X-332199Y-6701555D01*
X-332199Y-6701555D02*
X-351247Y-6720603D01*
X-351247Y-6720603D02*
X-370294Y-6730127D01*
X-65532Y-6872984D02*
X-179818Y-6872984D01*
X-122675Y-6872984D02*
X-122675Y-6672984D01*
X-122675Y-6672984D02*
X-141723Y-6701555D01*
X-141723Y-6701555D02*
X-160771Y-6720603D01*
X-160771Y-6720603D02*
X-179818Y-6730127D01*
X48753Y-6758698D02*
X29706Y-6749174D01*
X29706Y-6749174D02*
X20182Y-6739650D01*
X20182Y-6739650D02*
X10658Y-6720603D01*
X10658Y-6720603D02*
X10658Y-6711079D01*
X10658Y-6711079D02*
X20182Y-6692031D01*
X20182Y-6692031D02*
X29706Y-6682508D01*
X29706Y-6682508D02*
X48753Y-6672984D01*
X48753Y-6672984D02*
X86849Y-6672984D01*
X86849Y-6672984D02*
X105896Y-6682508D01*
X105896Y-6682508D02*
X115420Y-6692031D01*
X115420Y-6692031D02*
X124944Y-6711079D01*
X124944Y-6711079D02*
X124944Y-6720603D01*
X124944Y-6720603D02*
X115420Y-6739650D01*
X115420Y-6739650D02*
X105896Y-6749174D01*
X105896Y-6749174D02*
X86849Y-6758698D01*
X86849Y-6758698D02*
X48753Y-6758698D01*
X48753Y-6758698D02*
X29706Y-6768222D01*
X29706Y-6768222D02*
X20182Y-6777746D01*
X20182Y-6777746D02*
X10658Y-6796793D01*
X10658Y-6796793D02*
X10658Y-6834888D01*
X10658Y-6834888D02*
X20182Y-6853936D01*
X20182Y-6853936D02*
X29706Y-6863460D01*
X29706Y-6863460D02*
X48753Y-6872984D01*
X48753Y-6872984D02*
X86849Y-6872984D01*
X86849Y-6872984D02*
X105896Y-6863460D01*
X105896Y-6863460D02*
X115420Y-6853936D01*
X115420Y-6853936D02*
X124944Y-6834888D01*
X124944Y-6834888D02*
X124944Y-6796793D01*
X124944Y-6796793D02*
X115420Y-6777746D01*
X115420Y-6777746D02*
X105896Y-6768222D01*
X105896Y-6768222D02*
X86849Y-6758698D01*
X201134Y-6672984D02*
X201134Y-6711079D01*
X277325Y-6672984D02*
X277325Y-6711079D01*
X572563Y-6949174D02*
X563039Y-6939650D01*
X563039Y-6939650D02*
X543991Y-6911079D01*
X543991Y-6911079D02*
X534468Y-6892031D01*
X534468Y-6892031D02*
X524944Y-6863460D01*
X524944Y-6863460D02*
X515420Y-6815841D01*
X515420Y-6815841D02*
X515420Y-6777746D01*
X515420Y-6777746D02*
X524944Y-6730127D01*
X524944Y-6730127D02*
X534468Y-6701555D01*
X534468Y-6701555D02*
X543991Y-6682508D01*
X543991Y-6682508D02*
X563039Y-6653936D01*
X563039Y-6653936D02*
X572563Y-6644412D01*
X753515Y-6872984D02*
X639230Y-6872984D01*
X696372Y-6872984D02*
X696372Y-6672984D01*
X696372Y-6672984D02*
X677325Y-6701555D01*
X677325Y-6701555D02*
X658277Y-6720603D01*
X658277Y-6720603D02*
X639230Y-6730127D01*
X829706Y-6692031D02*
X839229Y-6682508D01*
X839229Y-6682508D02*
X858277Y-6672984D01*
X858277Y-6672984D02*
X905896Y-6672984D01*
X905896Y-6672984D02*
X924944Y-6682508D01*
X924944Y-6682508D02*
X934468Y-6692031D01*
X934468Y-6692031D02*
X943991Y-6711079D01*
X943991Y-6711079D02*
X943991Y-6730127D01*
X943991Y-6730127D02*
X934468Y-6758698D01*
X934468Y-6758698D02*
X820182Y-6872984D01*
X820182Y-6872984D02*
X943991Y-6872984D01*
X1182087Y-6872984D02*
X1182087Y-6672984D01*
X1267801Y-6872984D02*
X1267801Y-6768222D01*
X1267801Y-6768222D02*
X1258277Y-6749174D01*
X1258277Y-6749174D02*
X1239230Y-6739650D01*
X1239230Y-6739650D02*
X1210658Y-6739650D01*
X1210658Y-6739650D02*
X1191611Y-6749174D01*
X1191611Y-6749174D02*
X1182087Y-6758698D01*
X1391611Y-6872984D02*
X1372563Y-6863460D01*
X1372563Y-6863460D02*
X1363039Y-6853936D01*
X1363039Y-6853936D02*
X1353515Y-6834888D01*
X1353515Y-6834888D02*
X1353515Y-6777746D01*
X1353515Y-6777746D02*
X1363039Y-6758698D01*
X1363039Y-6758698D02*
X1372563Y-6749174D01*
X1372563Y-6749174D02*
X1391611Y-6739650D01*
X1391611Y-6739650D02*
X1420182Y-6739650D01*
X1420182Y-6739650D02*
X1439230Y-6749174D01*
X1439230Y-6749174D02*
X1448753Y-6758698D01*
X1448753Y-6758698D02*
X1458277Y-6777746D01*
X1458277Y-6777746D02*
X1458277Y-6834888D01*
X1458277Y-6834888D02*
X1448753Y-6853936D01*
X1448753Y-6853936D02*
X1439230Y-6863460D01*
X1439230Y-6863460D02*
X1420182Y-6872984D01*
X1420182Y-6872984D02*
X1391611Y-6872984D01*
X1572563Y-6872984D02*
X1553515Y-6863460D01*
X1553515Y-6863460D02*
X1543991Y-6844412D01*
X1543991Y-6844412D02*
X1543991Y-6672984D01*
X1724944Y-6863460D02*
X1705896Y-6872984D01*
X1705896Y-6872984D02*
X1667801Y-6872984D01*
X1667801Y-6872984D02*
X1648753Y-6863460D01*
X1648753Y-6863460D02*
X1639230Y-6844412D01*
X1639230Y-6844412D02*
X1639230Y-6768222D01*
X1639230Y-6768222D02*
X1648753Y-6749174D01*
X1648753Y-6749174D02*
X1667801Y-6739650D01*
X1667801Y-6739650D02*
X1705896Y-6739650D01*
X1705896Y-6739650D02*
X1724944Y-6749174D01*
X1724944Y-6749174D02*
X1734468Y-6768222D01*
X1734468Y-6768222D02*
X1734468Y-6787269D01*
X1734468Y-6787269D02*
X1639230Y-6806317D01*
X1810658Y-6863460D02*
X1829706Y-6872984D01*
X1829706Y-6872984D02*
X1867801Y-6872984D01*
X1867801Y-6872984D02*
X1886849Y-6863460D01*
X1886849Y-6863460D02*
X1896372Y-6844412D01*
X1896372Y-6844412D02*
X1896372Y-6834888D01*
X1896372Y-6834888D02*
X1886849Y-6815841D01*
X1886849Y-6815841D02*
X1867801Y-6806317D01*
X1867801Y-6806317D02*
X1839230Y-6806317D01*
X1839230Y-6806317D02*
X1820182Y-6796793D01*
X1820182Y-6796793D02*
X1810658Y-6777746D01*
X1810658Y-6777746D02*
X1810658Y-6768222D01*
X1810658Y-6768222D02*
X1820182Y-6749174D01*
X1820182Y-6749174D02*
X1839230Y-6739650D01*
X1839230Y-6739650D02*
X1867801Y-6739650D01*
X1867801Y-6739650D02*
X1886849Y-6749174D01*
X1963039Y-6949174D02*
X1972563Y-6939650D01*
X1972563Y-6939650D02*
X1991611Y-6911079D01*
X1991611Y-6911079D02*
X2001134Y-6892031D01*
X2001134Y-6892031D02*
X2010658Y-6863460D01*
X2010658Y-6863460D02*
X2020182Y-6815841D01*
X2020182Y-6815841D02*
X2020182Y-6777746D01*
X2020182Y-6777746D02*
X2010658Y-6730127D01*
X2010658Y-6730127D02*
X2001134Y-6701555D01*
X2001134Y-6701555D02*
X1991611Y-6682508D01*
X1991611Y-6682508D02*
X1972563Y-6653936D01*
X1972563Y-6653936D02*
X1963039Y-6644412D01*
D12*
X-3027500Y-7020500D02*
X-3027500Y-7070500D01*
X-3052500Y-7045500D02*
X-3002500Y-7045500D01*
D11*
X-2703628Y-6936984D02*
X-2684580Y-6936984D01*
X-2684580Y-6936984D02*
X-2665533Y-6946508D01*
X-2665533Y-6946508D02*
X-2656009Y-6956031D01*
X-2656009Y-6956031D02*
X-2646485Y-6975079D01*
X-2646485Y-6975079D02*
X-2636961Y-7013174D01*
X-2636961Y-7013174D02*
X-2636961Y-7060793D01*
X-2636961Y-7060793D02*
X-2646485Y-7098888D01*
X-2646485Y-7098888D02*
X-2656009Y-7117936D01*
X-2656009Y-7117936D02*
X-2665533Y-7127460D01*
X-2665533Y-7127460D02*
X-2684580Y-7136984D01*
X-2684580Y-7136984D02*
X-2703628Y-7136984D01*
X-2703628Y-7136984D02*
X-2722676Y-7127460D01*
X-2722676Y-7127460D02*
X-2732199Y-7117936D01*
X-2732199Y-7117936D02*
X-2741723Y-7098888D01*
X-2741723Y-7098888D02*
X-2751247Y-7060793D01*
X-2751247Y-7060793D02*
X-2751247Y-7013174D01*
X-2751247Y-7013174D02*
X-2741723Y-6975079D01*
X-2741723Y-6975079D02*
X-2732199Y-6956031D01*
X-2732199Y-6956031D02*
X-2722676Y-6946508D01*
X-2722676Y-6946508D02*
X-2703628Y-6936984D01*
X-2551247Y-7117936D02*
X-2541723Y-7127460D01*
X-2541723Y-7127460D02*
X-2551247Y-7136984D01*
X-2551247Y-7136984D02*
X-2560771Y-7127460D01*
X-2560771Y-7127460D02*
X-2551247Y-7117936D01*
X-2551247Y-7117936D02*
X-2551247Y-7136984D01*
X-2360771Y-6936984D02*
X-2456009Y-6936984D01*
X-2456009Y-6936984D02*
X-2465533Y-7032222D01*
X-2465533Y-7032222D02*
X-2456009Y-7022698D01*
X-2456009Y-7022698D02*
X-2436961Y-7013174D01*
X-2436961Y-7013174D02*
X-2389342Y-7013174D01*
X-2389342Y-7013174D02*
X-2370295Y-7022698D01*
X-2370295Y-7022698D02*
X-2360771Y-7032222D01*
X-2360771Y-7032222D02*
X-2351247Y-7051269D01*
X-2351247Y-7051269D02*
X-2351247Y-7098888D01*
X-2351247Y-7098888D02*
X-2360771Y-7117936D01*
X-2360771Y-7117936D02*
X-2370295Y-7127460D01*
X-2370295Y-7127460D02*
X-2389342Y-7136984D01*
X-2389342Y-7136984D02*
X-2436961Y-7136984D01*
X-2436961Y-7136984D02*
X-2456009Y-7127460D01*
X-2456009Y-7127460D02*
X-2465533Y-7117936D01*
X-2227437Y-6936984D02*
X-2208390Y-6936984D01*
X-2208390Y-6936984D02*
X-2189342Y-6946508D01*
X-2189342Y-6946508D02*
X-2179818Y-6956031D01*
X-2179818Y-6956031D02*
X-2170295Y-6975079D01*
X-2170295Y-6975079D02*
X-2160771Y-7013174D01*
X-2160771Y-7013174D02*
X-2160771Y-7060793D01*
X-2160771Y-7060793D02*
X-2170295Y-7098888D01*
X-2170295Y-7098888D02*
X-2179818Y-7117936D01*
X-2179818Y-7117936D02*
X-2189342Y-7127460D01*
X-2189342Y-7127460D02*
X-2208390Y-7136984D01*
X-2208390Y-7136984D02*
X-2227437Y-7136984D01*
X-2227437Y-7136984D02*
X-2246485Y-7127460D01*
X-2246485Y-7127460D02*
X-2256009Y-7117936D01*
X-2256009Y-7117936D02*
X-2265533Y-7098888D01*
X-2265533Y-7098888D02*
X-2275056Y-7060793D01*
X-2275056Y-7060793D02*
X-2275056Y-7013174D01*
X-2275056Y-7013174D02*
X-2265533Y-6975079D01*
X-2265533Y-6975079D02*
X-2256009Y-6956031D01*
X-2256009Y-6956031D02*
X-2246485Y-6946508D01*
X-2246485Y-6946508D02*
X-2227437Y-6936984D01*
X-2036961Y-6936984D02*
X-2017913Y-6936984D01*
X-2017913Y-6936984D02*
X-1998866Y-6946508D01*
X-1998866Y-6946508D02*
X-1989342Y-6956031D01*
X-1989342Y-6956031D02*
X-1979818Y-6975079D01*
X-1979818Y-6975079D02*
X-1970294Y-7013174D01*
X-1970294Y-7013174D02*
X-1970294Y-7060793D01*
X-1970294Y-7060793D02*
X-1979818Y-7098888D01*
X-1979818Y-7098888D02*
X-1989342Y-7117936D01*
X-1989342Y-7117936D02*
X-1998866Y-7127460D01*
X-1998866Y-7127460D02*
X-2017913Y-7136984D01*
X-2017913Y-7136984D02*
X-2036961Y-7136984D01*
X-2036961Y-7136984D02*
X-2056009Y-7127460D01*
X-2056009Y-7127460D02*
X-2065533Y-7117936D01*
X-2065533Y-7117936D02*
X-2075056Y-7098888D01*
X-2075056Y-7098888D02*
X-2084580Y-7060793D01*
X-2084580Y-7060793D02*
X-2084580Y-7013174D01*
X-2084580Y-7013174D02*
X-2075056Y-6975079D01*
X-2075056Y-6975079D02*
X-2065533Y-6956031D01*
X-2065533Y-6956031D02*
X-2056009Y-6946508D01*
X-2056009Y-6946508D02*
X-2036961Y-6936984D01*
X-1884580Y-7136984D02*
X-1884580Y-7003650D01*
X-1884580Y-7022698D02*
X-1875056Y-7013174D01*
X-1875056Y-7013174D02*
X-1856009Y-7003650D01*
X-1856009Y-7003650D02*
X-1827437Y-7003650D01*
X-1827437Y-7003650D02*
X-1808390Y-7013174D01*
X-1808390Y-7013174D02*
X-1798866Y-7032222D01*
X-1798866Y-7032222D02*
X-1798866Y-7136984D01*
X-1798866Y-7032222D02*
X-1789342Y-7013174D01*
X-1789342Y-7013174D02*
X-1770294Y-7003650D01*
X-1770294Y-7003650D02*
X-1741723Y-7003650D01*
X-1741723Y-7003650D02*
X-1722675Y-7013174D01*
X-1722675Y-7013174D02*
X-1713152Y-7032222D01*
X-1713152Y-7032222D02*
X-1713152Y-7136984D01*
X-1617913Y-7136984D02*
X-1617913Y-7003650D01*
X-1617913Y-7022698D02*
X-1608390Y-7013174D01*
X-1608390Y-7013174D02*
X-1589342Y-7003650D01*
X-1589342Y-7003650D02*
X-1560771Y-7003650D01*
X-1560771Y-7003650D02*
X-1541723Y-7013174D01*
X-1541723Y-7013174D02*
X-1532199Y-7032222D01*
X-1532199Y-7032222D02*
X-1532199Y-7136984D01*
X-1532199Y-7032222D02*
X-1522675Y-7013174D01*
X-1522675Y-7013174D02*
X-1503628Y-7003650D01*
X-1503628Y-7003650D02*
X-1475056Y-7003650D01*
X-1475056Y-7003650D02*
X-1456009Y-7013174D01*
X-1456009Y-7013174D02*
X-1446485Y-7032222D01*
X-1446485Y-7032222D02*
X-1446485Y-7136984D01*
X-1056009Y-6927460D02*
X-1227437Y-7184603D01*
X-798866Y-6936984D02*
X-779818Y-6936984D01*
X-779818Y-6936984D02*
X-760770Y-6946508D01*
X-760770Y-6946508D02*
X-751247Y-6956031D01*
X-751247Y-6956031D02*
X-741723Y-6975079D01*
X-741723Y-6975079D02*
X-732199Y-7013174D01*
X-732199Y-7013174D02*
X-732199Y-7060793D01*
X-732199Y-7060793D02*
X-741723Y-7098888D01*
X-741723Y-7098888D02*
X-751247Y-7117936D01*
X-751247Y-7117936D02*
X-760770Y-7127460D01*
X-760770Y-7127460D02*
X-779818Y-7136984D01*
X-779818Y-7136984D02*
X-798866Y-7136984D01*
X-798866Y-7136984D02*
X-817913Y-7127460D01*
X-817913Y-7127460D02*
X-827437Y-7117936D01*
X-827437Y-7117936D02*
X-836961Y-7098888D01*
X-836961Y-7098888D02*
X-846485Y-7060793D01*
X-846485Y-7060793D02*
X-846485Y-7013174D01*
X-846485Y-7013174D02*
X-836961Y-6975079D01*
X-836961Y-6975079D02*
X-827437Y-6956031D01*
X-827437Y-6956031D02*
X-817913Y-6946508D01*
X-817913Y-6946508D02*
X-798866Y-6936984D01*
X-646485Y-7117936D02*
X-636961Y-7127460D01*
X-636961Y-7127460D02*
X-646485Y-7136984D01*
X-646485Y-7136984D02*
X-656009Y-7127460D01*
X-656009Y-7127460D02*
X-646485Y-7117936D01*
X-646485Y-7117936D02*
X-646485Y-7136984D01*
X-513151Y-6936984D02*
X-494104Y-6936984D01*
X-494104Y-6936984D02*
X-475056Y-6946508D01*
X-475056Y-6946508D02*
X-465532Y-6956031D01*
X-465532Y-6956031D02*
X-456009Y-6975079D01*
X-456009Y-6975079D02*
X-446485Y-7013174D01*
X-446485Y-7013174D02*
X-446485Y-7060793D01*
X-446485Y-7060793D02*
X-456009Y-7098888D01*
X-456009Y-7098888D02*
X-465532Y-7117936D01*
X-465532Y-7117936D02*
X-475056Y-7127460D01*
X-475056Y-7127460D02*
X-494104Y-7136984D01*
X-494104Y-7136984D02*
X-513151Y-7136984D01*
X-513151Y-7136984D02*
X-532199Y-7127460D01*
X-532199Y-7127460D02*
X-541723Y-7117936D01*
X-541723Y-7117936D02*
X-551247Y-7098888D01*
X-551247Y-7098888D02*
X-560771Y-7060793D01*
X-560771Y-7060793D02*
X-560771Y-7013174D01*
X-560771Y-7013174D02*
X-551247Y-6975079D01*
X-551247Y-6975079D02*
X-541723Y-6956031D01*
X-541723Y-6956031D02*
X-532199Y-6946508D01*
X-532199Y-6946508D02*
X-513151Y-6936984D01*
X-256009Y-7136984D02*
X-370294Y-7136984D01*
X-313152Y-7136984D02*
X-313152Y-6936984D01*
X-313152Y-6936984D02*
X-332199Y-6965555D01*
X-332199Y-6965555D02*
X-351247Y-6984603D01*
X-351247Y-6984603D02*
X-370294Y-6994127D01*
X-160771Y-7136984D02*
X-122675Y-7136984D01*
X-122675Y-7136984D02*
X-103628Y-7127460D01*
X-103628Y-7127460D02*
X-94104Y-7117936D01*
X-94104Y-7117936D02*
X-75056Y-7089365D01*
X-75056Y-7089365D02*
X-65532Y-7051269D01*
X-65532Y-7051269D02*
X-65532Y-6975079D01*
X-65532Y-6975079D02*
X-75056Y-6956031D01*
X-75056Y-6956031D02*
X-84580Y-6946508D01*
X-84580Y-6946508D02*
X-103628Y-6936984D01*
X-103628Y-6936984D02*
X-141723Y-6936984D01*
X-141723Y-6936984D02*
X-160771Y-6946508D01*
X-160771Y-6946508D02*
X-170294Y-6956031D01*
X-170294Y-6956031D02*
X-179818Y-6975079D01*
X-179818Y-6975079D02*
X-179818Y-7022698D01*
X-179818Y-7022698D02*
X-170294Y-7041746D01*
X-170294Y-7041746D02*
X-160771Y-7051269D01*
X-160771Y-7051269D02*
X-141723Y-7060793D01*
X-141723Y-7060793D02*
X-103628Y-7060793D01*
X-103628Y-7060793D02*
X-84580Y-7051269D01*
X-84580Y-7051269D02*
X-75056Y-7041746D01*
X-75056Y-7041746D02*
X-65532Y-7022698D01*
X1134Y-6936984D02*
X134468Y-6936984D01*
X134468Y-6936984D02*
X48753Y-7136984D01*
X201134Y-6936984D02*
X201134Y-6975079D01*
X277325Y-6936984D02*
X277325Y-6975079D01*
X572563Y-7213174D02*
X563039Y-7203650D01*
X563039Y-7203650D02*
X543991Y-7175079D01*
X543991Y-7175079D02*
X534468Y-7156031D01*
X534468Y-7156031D02*
X524944Y-7127460D01*
X524944Y-7127460D02*
X515420Y-7079841D01*
X515420Y-7079841D02*
X515420Y-7041746D01*
X515420Y-7041746D02*
X524944Y-6994127D01*
X524944Y-6994127D02*
X534468Y-6965555D01*
X534468Y-6965555D02*
X543991Y-6946508D01*
X543991Y-6946508D02*
X563039Y-6917936D01*
X563039Y-6917936D02*
X572563Y-6908412D01*
X639230Y-6956031D02*
X648753Y-6946508D01*
X648753Y-6946508D02*
X667801Y-6936984D01*
X667801Y-6936984D02*
X715420Y-6936984D01*
X715420Y-6936984D02*
X734468Y-6946508D01*
X734468Y-6946508D02*
X743991Y-6956031D01*
X743991Y-6956031D02*
X753515Y-6975079D01*
X753515Y-6975079D02*
X753515Y-6994127D01*
X753515Y-6994127D02*
X743991Y-7022698D01*
X743991Y-7022698D02*
X629706Y-7136984D01*
X629706Y-7136984D02*
X753515Y-7136984D01*
X848753Y-7136984D02*
X886848Y-7136984D01*
X886848Y-7136984D02*
X905896Y-7127460D01*
X905896Y-7127460D02*
X915420Y-7117936D01*
X915420Y-7117936D02*
X934468Y-7089365D01*
X934468Y-7089365D02*
X943991Y-7051269D01*
X943991Y-7051269D02*
X943991Y-6975079D01*
X943991Y-6975079D02*
X934468Y-6956031D01*
X934468Y-6956031D02*
X924944Y-6946508D01*
X924944Y-6946508D02*
X905896Y-6936984D01*
X905896Y-6936984D02*
X867801Y-6936984D01*
X867801Y-6936984D02*
X848753Y-6946508D01*
X848753Y-6946508D02*
X839229Y-6956031D01*
X839229Y-6956031D02*
X829706Y-6975079D01*
X829706Y-6975079D02*
X829706Y-7022698D01*
X829706Y-7022698D02*
X839229Y-7041746D01*
X839229Y-7041746D02*
X848753Y-7051269D01*
X848753Y-7051269D02*
X867801Y-7060793D01*
X867801Y-7060793D02*
X905896Y-7060793D01*
X905896Y-7060793D02*
X924944Y-7051269D01*
X924944Y-7051269D02*
X934468Y-7041746D01*
X934468Y-7041746D02*
X943991Y-7022698D01*
X1182087Y-7136984D02*
X1182087Y-6936984D01*
X1267801Y-7136984D02*
X1267801Y-7032222D01*
X1267801Y-7032222D02*
X1258277Y-7013174D01*
X1258277Y-7013174D02*
X1239230Y-7003650D01*
X1239230Y-7003650D02*
X1210658Y-7003650D01*
X1210658Y-7003650D02*
X1191611Y-7013174D01*
X1191611Y-7013174D02*
X1182087Y-7022698D01*
X1391611Y-7136984D02*
X1372563Y-7127460D01*
X1372563Y-7127460D02*
X1363039Y-7117936D01*
X1363039Y-7117936D02*
X1353515Y-7098888D01*
X1353515Y-7098888D02*
X1353515Y-7041746D01*
X1353515Y-7041746D02*
X1363039Y-7022698D01*
X1363039Y-7022698D02*
X1372563Y-7013174D01*
X1372563Y-7013174D02*
X1391611Y-7003650D01*
X1391611Y-7003650D02*
X1420182Y-7003650D01*
X1420182Y-7003650D02*
X1439230Y-7013174D01*
X1439230Y-7013174D02*
X1448753Y-7022698D01*
X1448753Y-7022698D02*
X1458277Y-7041746D01*
X1458277Y-7041746D02*
X1458277Y-7098888D01*
X1458277Y-7098888D02*
X1448753Y-7117936D01*
X1448753Y-7117936D02*
X1439230Y-7127460D01*
X1439230Y-7127460D02*
X1420182Y-7136984D01*
X1420182Y-7136984D02*
X1391611Y-7136984D01*
X1572563Y-7136984D02*
X1553515Y-7127460D01*
X1553515Y-7127460D02*
X1543991Y-7108412D01*
X1543991Y-7108412D02*
X1543991Y-6936984D01*
X1724944Y-7127460D02*
X1705896Y-7136984D01*
X1705896Y-7136984D02*
X1667801Y-7136984D01*
X1667801Y-7136984D02*
X1648753Y-7127460D01*
X1648753Y-7127460D02*
X1639230Y-7108412D01*
X1639230Y-7108412D02*
X1639230Y-7032222D01*
X1639230Y-7032222D02*
X1648753Y-7013174D01*
X1648753Y-7013174D02*
X1667801Y-7003650D01*
X1667801Y-7003650D02*
X1705896Y-7003650D01*
X1705896Y-7003650D02*
X1724944Y-7013174D01*
X1724944Y-7013174D02*
X1734468Y-7032222D01*
X1734468Y-7032222D02*
X1734468Y-7051269D01*
X1734468Y-7051269D02*
X1639230Y-7070317D01*
X1810658Y-7127460D02*
X1829706Y-7136984D01*
X1829706Y-7136984D02*
X1867801Y-7136984D01*
X1867801Y-7136984D02*
X1886849Y-7127460D01*
X1886849Y-7127460D02*
X1896372Y-7108412D01*
X1896372Y-7108412D02*
X1896372Y-7098888D01*
X1896372Y-7098888D02*
X1886849Y-7079841D01*
X1886849Y-7079841D02*
X1867801Y-7070317D01*
X1867801Y-7070317D02*
X1839230Y-7070317D01*
X1839230Y-7070317D02*
X1820182Y-7060793D01*
X1820182Y-7060793D02*
X1810658Y-7041746D01*
X1810658Y-7041746D02*
X1810658Y-7032222D01*
X1810658Y-7032222D02*
X1820182Y-7013174D01*
X1820182Y-7013174D02*
X1839230Y-7003650D01*
X1839230Y-7003650D02*
X1867801Y-7003650D01*
X1867801Y-7003650D02*
X1886849Y-7013174D01*
X1963039Y-7213174D02*
X1972563Y-7203650D01*
X1972563Y-7203650D02*
X1991611Y-7175079D01*
X1991611Y-7175079D02*
X2001134Y-7156031D01*
X2001134Y-7156031D02*
X2010658Y-7127460D01*
X2010658Y-7127460D02*
X2020182Y-7079841D01*
X2020182Y-7079841D02*
X2020182Y-7041746D01*
X2020182Y-7041746D02*
X2010658Y-6994127D01*
X2010658Y-6994127D02*
X2001134Y-6965555D01*
X2001134Y-6965555D02*
X1991611Y-6946508D01*
X1991611Y-6946508D02*
X1972563Y-6917936D01*
X1972563Y-6917936D02*
X1963039Y-6908412D01*
D12*
X-3009822Y-7327178D02*
X-3009822Y-7291822D01*
X-3045178Y-7291822D01*
X-3045178Y-7327178D01*
X-3009822Y-7327178D01*
D11*
X-2703628Y-7200984D02*
X-2684580Y-7200984D01*
X-2684580Y-7200984D02*
X-2665533Y-7210508D01*
X-2665533Y-7210508D02*
X-2656009Y-7220031D01*
X-2656009Y-7220031D02*
X-2646485Y-7239079D01*
X-2646485Y-7239079D02*
X-2636961Y-7277174D01*
X-2636961Y-7277174D02*
X-2636961Y-7324793D01*
X-2636961Y-7324793D02*
X-2646485Y-7362888D01*
X-2646485Y-7362888D02*
X-2656009Y-7381936D01*
X-2656009Y-7381936D02*
X-2665533Y-7391460D01*
X-2665533Y-7391460D02*
X-2684580Y-7400984D01*
X-2684580Y-7400984D02*
X-2703628Y-7400984D01*
X-2703628Y-7400984D02*
X-2722676Y-7391460D01*
X-2722676Y-7391460D02*
X-2732199Y-7381936D01*
X-2732199Y-7381936D02*
X-2741723Y-7362888D01*
X-2741723Y-7362888D02*
X-2751247Y-7324793D01*
X-2751247Y-7324793D02*
X-2751247Y-7277174D01*
X-2751247Y-7277174D02*
X-2741723Y-7239079D01*
X-2741723Y-7239079D02*
X-2732199Y-7220031D01*
X-2732199Y-7220031D02*
X-2722676Y-7210508D01*
X-2722676Y-7210508D02*
X-2703628Y-7200984D01*
X-2551247Y-7381936D02*
X-2541723Y-7391460D01*
X-2541723Y-7391460D02*
X-2551247Y-7400984D01*
X-2551247Y-7400984D02*
X-2560771Y-7391460D01*
X-2560771Y-7391460D02*
X-2551247Y-7381936D01*
X-2551247Y-7381936D02*
X-2551247Y-7400984D01*
X-2360771Y-7200984D02*
X-2456009Y-7200984D01*
X-2456009Y-7200984D02*
X-2465533Y-7296222D01*
X-2465533Y-7296222D02*
X-2456009Y-7286698D01*
X-2456009Y-7286698D02*
X-2436961Y-7277174D01*
X-2436961Y-7277174D02*
X-2389342Y-7277174D01*
X-2389342Y-7277174D02*
X-2370295Y-7286698D01*
X-2370295Y-7286698D02*
X-2360771Y-7296222D01*
X-2360771Y-7296222D02*
X-2351247Y-7315269D01*
X-2351247Y-7315269D02*
X-2351247Y-7362888D01*
X-2351247Y-7362888D02*
X-2360771Y-7381936D01*
X-2360771Y-7381936D02*
X-2370295Y-7391460D01*
X-2370295Y-7391460D02*
X-2389342Y-7400984D01*
X-2389342Y-7400984D02*
X-2436961Y-7400984D01*
X-2436961Y-7400984D02*
X-2456009Y-7391460D01*
X-2456009Y-7391460D02*
X-2465533Y-7381936D01*
X-2227437Y-7200984D02*
X-2208390Y-7200984D01*
X-2208390Y-7200984D02*
X-2189342Y-7210508D01*
X-2189342Y-7210508D02*
X-2179818Y-7220031D01*
X-2179818Y-7220031D02*
X-2170295Y-7239079D01*
X-2170295Y-7239079D02*
X-2160771Y-7277174D01*
X-2160771Y-7277174D02*
X-2160771Y-7324793D01*
X-2160771Y-7324793D02*
X-2170295Y-7362888D01*
X-2170295Y-7362888D02*
X-2179818Y-7381936D01*
X-2179818Y-7381936D02*
X-2189342Y-7391460D01*
X-2189342Y-7391460D02*
X-2208390Y-7400984D01*
X-2208390Y-7400984D02*
X-2227437Y-7400984D01*
X-2227437Y-7400984D02*
X-2246485Y-7391460D01*
X-2246485Y-7391460D02*
X-2256009Y-7381936D01*
X-2256009Y-7381936D02*
X-2265533Y-7362888D01*
X-2265533Y-7362888D02*
X-2275056Y-7324793D01*
X-2275056Y-7324793D02*
X-2275056Y-7277174D01*
X-2275056Y-7277174D02*
X-2265533Y-7239079D01*
X-2265533Y-7239079D02*
X-2256009Y-7220031D01*
X-2256009Y-7220031D02*
X-2246485Y-7210508D01*
X-2246485Y-7210508D02*
X-2227437Y-7200984D01*
X-2036961Y-7200984D02*
X-2017913Y-7200984D01*
X-2017913Y-7200984D02*
X-1998866Y-7210508D01*
X-1998866Y-7210508D02*
X-1989342Y-7220031D01*
X-1989342Y-7220031D02*
X-1979818Y-7239079D01*
X-1979818Y-7239079D02*
X-1970294Y-7277174D01*
X-1970294Y-7277174D02*
X-1970294Y-7324793D01*
X-1970294Y-7324793D02*
X-1979818Y-7362888D01*
X-1979818Y-7362888D02*
X-1989342Y-7381936D01*
X-1989342Y-7381936D02*
X-1998866Y-7391460D01*
X-1998866Y-7391460D02*
X-2017913Y-7400984D01*
X-2017913Y-7400984D02*
X-2036961Y-7400984D01*
X-2036961Y-7400984D02*
X-2056009Y-7391460D01*
X-2056009Y-7391460D02*
X-2065533Y-7381936D01*
X-2065533Y-7381936D02*
X-2075056Y-7362888D01*
X-2075056Y-7362888D02*
X-2084580Y-7324793D01*
X-2084580Y-7324793D02*
X-2084580Y-7277174D01*
X-2084580Y-7277174D02*
X-2075056Y-7239079D01*
X-2075056Y-7239079D02*
X-2065533Y-7220031D01*
X-2065533Y-7220031D02*
X-2056009Y-7210508D01*
X-2056009Y-7210508D02*
X-2036961Y-7200984D01*
X-1884580Y-7400984D02*
X-1884580Y-7267650D01*
X-1884580Y-7286698D02*
X-1875056Y-7277174D01*
X-1875056Y-7277174D02*
X-1856009Y-7267650D01*
X-1856009Y-7267650D02*
X-1827437Y-7267650D01*
X-1827437Y-7267650D02*
X-1808390Y-7277174D01*
X-1808390Y-7277174D02*
X-1798866Y-7296222D01*
X-1798866Y-7296222D02*
X-1798866Y-7400984D01*
X-1798866Y-7296222D02*
X-1789342Y-7277174D01*
X-1789342Y-7277174D02*
X-1770294Y-7267650D01*
X-1770294Y-7267650D02*
X-1741723Y-7267650D01*
X-1741723Y-7267650D02*
X-1722675Y-7277174D01*
X-1722675Y-7277174D02*
X-1713152Y-7296222D01*
X-1713152Y-7296222D02*
X-1713152Y-7400984D01*
X-1617913Y-7400984D02*
X-1617913Y-7267650D01*
X-1617913Y-7286698D02*
X-1608390Y-7277174D01*
X-1608390Y-7277174D02*
X-1589342Y-7267650D01*
X-1589342Y-7267650D02*
X-1560771Y-7267650D01*
X-1560771Y-7267650D02*
X-1541723Y-7277174D01*
X-1541723Y-7277174D02*
X-1532199Y-7296222D01*
X-1532199Y-7296222D02*
X-1532199Y-7400984D01*
X-1532199Y-7296222D02*
X-1522675Y-7277174D01*
X-1522675Y-7277174D02*
X-1503628Y-7267650D01*
X-1503628Y-7267650D02*
X-1475056Y-7267650D01*
X-1475056Y-7267650D02*
X-1456009Y-7277174D01*
X-1456009Y-7277174D02*
X-1446485Y-7296222D01*
X-1446485Y-7296222D02*
X-1446485Y-7400984D01*
X-1056009Y-7191460D02*
X-1227437Y-7448603D01*
X-798866Y-7200984D02*
X-779818Y-7200984D01*
X-779818Y-7200984D02*
X-760770Y-7210508D01*
X-760770Y-7210508D02*
X-751247Y-7220031D01*
X-751247Y-7220031D02*
X-741723Y-7239079D01*
X-741723Y-7239079D02*
X-732199Y-7277174D01*
X-732199Y-7277174D02*
X-732199Y-7324793D01*
X-732199Y-7324793D02*
X-741723Y-7362888D01*
X-741723Y-7362888D02*
X-751247Y-7381936D01*
X-751247Y-7381936D02*
X-760770Y-7391460D01*
X-760770Y-7391460D02*
X-779818Y-7400984D01*
X-779818Y-7400984D02*
X-798866Y-7400984D01*
X-798866Y-7400984D02*
X-817913Y-7391460D01*
X-817913Y-7391460D02*
X-827437Y-7381936D01*
X-827437Y-7381936D02*
X-836961Y-7362888D01*
X-836961Y-7362888D02*
X-846485Y-7324793D01*
X-846485Y-7324793D02*
X-846485Y-7277174D01*
X-846485Y-7277174D02*
X-836961Y-7239079D01*
X-836961Y-7239079D02*
X-827437Y-7220031D01*
X-827437Y-7220031D02*
X-817913Y-7210508D01*
X-817913Y-7210508D02*
X-798866Y-7200984D01*
X-646485Y-7381936D02*
X-636961Y-7391460D01*
X-636961Y-7391460D02*
X-646485Y-7400984D01*
X-646485Y-7400984D02*
X-656009Y-7391460D01*
X-656009Y-7391460D02*
X-646485Y-7381936D01*
X-646485Y-7381936D02*
X-646485Y-7400984D01*
X-513151Y-7200984D02*
X-494104Y-7200984D01*
X-494104Y-7200984D02*
X-475056Y-7210508D01*
X-475056Y-7210508D02*
X-465532Y-7220031D01*
X-465532Y-7220031D02*
X-456009Y-7239079D01*
X-456009Y-7239079D02*
X-446485Y-7277174D01*
X-446485Y-7277174D02*
X-446485Y-7324793D01*
X-446485Y-7324793D02*
X-456009Y-7362888D01*
X-456009Y-7362888D02*
X-465532Y-7381936D01*
X-465532Y-7381936D02*
X-475056Y-7391460D01*
X-475056Y-7391460D02*
X-494104Y-7400984D01*
X-494104Y-7400984D02*
X-513151Y-7400984D01*
X-513151Y-7400984D02*
X-532199Y-7391460D01*
X-532199Y-7391460D02*
X-541723Y-7381936D01*
X-541723Y-7381936D02*
X-551247Y-7362888D01*
X-551247Y-7362888D02*
X-560771Y-7324793D01*
X-560771Y-7324793D02*
X-560771Y-7277174D01*
X-560771Y-7277174D02*
X-551247Y-7239079D01*
X-551247Y-7239079D02*
X-541723Y-7220031D01*
X-541723Y-7220031D02*
X-532199Y-7210508D01*
X-532199Y-7210508D02*
X-513151Y-7200984D01*
X-256009Y-7400984D02*
X-370294Y-7400984D01*
X-313152Y-7400984D02*
X-313152Y-7200984D01*
X-313152Y-7200984D02*
X-332199Y-7229555D01*
X-332199Y-7229555D02*
X-351247Y-7248603D01*
X-351247Y-7248603D02*
X-370294Y-7258127D01*
X-160771Y-7400984D02*
X-122675Y-7400984D01*
X-122675Y-7400984D02*
X-103628Y-7391460D01*
X-103628Y-7391460D02*
X-94104Y-7381936D01*
X-94104Y-7381936D02*
X-75056Y-7353365D01*
X-75056Y-7353365D02*
X-65532Y-7315269D01*
X-65532Y-7315269D02*
X-65532Y-7239079D01*
X-65532Y-7239079D02*
X-75056Y-7220031D01*
X-75056Y-7220031D02*
X-84580Y-7210508D01*
X-84580Y-7210508D02*
X-103628Y-7200984D01*
X-103628Y-7200984D02*
X-141723Y-7200984D01*
X-141723Y-7200984D02*
X-160771Y-7210508D01*
X-160771Y-7210508D02*
X-170294Y-7220031D01*
X-170294Y-7220031D02*
X-179818Y-7239079D01*
X-179818Y-7239079D02*
X-179818Y-7286698D01*
X-179818Y-7286698D02*
X-170294Y-7305746D01*
X-170294Y-7305746D02*
X-160771Y-7315269D01*
X-160771Y-7315269D02*
X-141723Y-7324793D01*
X-141723Y-7324793D02*
X-103628Y-7324793D01*
X-103628Y-7324793D02*
X-84580Y-7315269D01*
X-84580Y-7315269D02*
X-75056Y-7305746D01*
X-75056Y-7305746D02*
X-65532Y-7286698D01*
X1134Y-7200984D02*
X134468Y-7200984D01*
X134468Y-7200984D02*
X48753Y-7400984D01*
X201134Y-7200984D02*
X201134Y-7239079D01*
X277325Y-7200984D02*
X277325Y-7239079D01*
X572563Y-7477174D02*
X563039Y-7467650D01*
X563039Y-7467650D02*
X543991Y-7439079D01*
X543991Y-7439079D02*
X534468Y-7420031D01*
X534468Y-7420031D02*
X524944Y-7391460D01*
X524944Y-7391460D02*
X515420Y-7343841D01*
X515420Y-7343841D02*
X515420Y-7305746D01*
X515420Y-7305746D02*
X524944Y-7258127D01*
X524944Y-7258127D02*
X534468Y-7229555D01*
X534468Y-7229555D02*
X543991Y-7210508D01*
X543991Y-7210508D02*
X563039Y-7181936D01*
X563039Y-7181936D02*
X572563Y-7172412D01*
X629706Y-7200984D02*
X753515Y-7200984D01*
X753515Y-7200984D02*
X686849Y-7277174D01*
X686849Y-7277174D02*
X715420Y-7277174D01*
X715420Y-7277174D02*
X734468Y-7286698D01*
X734468Y-7286698D02*
X743991Y-7296222D01*
X743991Y-7296222D02*
X753515Y-7315269D01*
X753515Y-7315269D02*
X753515Y-7362888D01*
X753515Y-7362888D02*
X743991Y-7381936D01*
X743991Y-7381936D02*
X734468Y-7391460D01*
X734468Y-7391460D02*
X715420Y-7400984D01*
X715420Y-7400984D02*
X658277Y-7400984D01*
X658277Y-7400984D02*
X639230Y-7391460D01*
X639230Y-7391460D02*
X629706Y-7381936D01*
X991610Y-7400984D02*
X991610Y-7200984D01*
X1077325Y-7400984D02*
X1077325Y-7296222D01*
X1077325Y-7296222D02*
X1067801Y-7277174D01*
X1067801Y-7277174D02*
X1048753Y-7267650D01*
X1048753Y-7267650D02*
X1020182Y-7267650D01*
X1020182Y-7267650D02*
X1001134Y-7277174D01*
X1001134Y-7277174D02*
X991610Y-7286698D01*
X1201134Y-7400984D02*
X1182087Y-7391460D01*
X1182087Y-7391460D02*
X1172563Y-7381936D01*
X1172563Y-7381936D02*
X1163039Y-7362888D01*
X1163039Y-7362888D02*
X1163039Y-7305746D01*
X1163039Y-7305746D02*
X1172563Y-7286698D01*
X1172563Y-7286698D02*
X1182087Y-7277174D01*
X1182087Y-7277174D02*
X1201134Y-7267650D01*
X1201134Y-7267650D02*
X1229706Y-7267650D01*
X1229706Y-7267650D02*
X1248753Y-7277174D01*
X1248753Y-7277174D02*
X1258277Y-7286698D01*
X1258277Y-7286698D02*
X1267801Y-7305746D01*
X1267801Y-7305746D02*
X1267801Y-7362888D01*
X1267801Y-7362888D02*
X1258277Y-7381936D01*
X1258277Y-7381936D02*
X1248753Y-7391460D01*
X1248753Y-7391460D02*
X1229706Y-7400984D01*
X1229706Y-7400984D02*
X1201134Y-7400984D01*
X1382087Y-7400984D02*
X1363039Y-7391460D01*
X1363039Y-7391460D02*
X1353515Y-7372412D01*
X1353515Y-7372412D02*
X1353515Y-7200984D01*
X1534468Y-7391460D02*
X1515420Y-7400984D01*
X1515420Y-7400984D02*
X1477325Y-7400984D01*
X1477325Y-7400984D02*
X1458277Y-7391460D01*
X1458277Y-7391460D02*
X1448753Y-7372412D01*
X1448753Y-7372412D02*
X1448753Y-7296222D01*
X1448753Y-7296222D02*
X1458277Y-7277174D01*
X1458277Y-7277174D02*
X1477325Y-7267650D01*
X1477325Y-7267650D02*
X1515420Y-7267650D01*
X1515420Y-7267650D02*
X1534468Y-7277174D01*
X1534468Y-7277174D02*
X1543991Y-7296222D01*
X1543991Y-7296222D02*
X1543991Y-7315269D01*
X1543991Y-7315269D02*
X1448753Y-7334317D01*
X1620182Y-7391460D02*
X1639230Y-7400984D01*
X1639230Y-7400984D02*
X1677325Y-7400984D01*
X1677325Y-7400984D02*
X1696372Y-7391460D01*
X1696372Y-7391460D02*
X1705896Y-7372412D01*
X1705896Y-7372412D02*
X1705896Y-7362888D01*
X1705896Y-7362888D02*
X1696372Y-7343841D01*
X1696372Y-7343841D02*
X1677325Y-7334317D01*
X1677325Y-7334317D02*
X1648753Y-7334317D01*
X1648753Y-7334317D02*
X1629706Y-7324793D01*
X1629706Y-7324793D02*
X1620182Y-7305746D01*
X1620182Y-7305746D02*
X1620182Y-7296222D01*
X1620182Y-7296222D02*
X1629706Y-7277174D01*
X1629706Y-7277174D02*
X1648753Y-7267650D01*
X1648753Y-7267650D02*
X1677325Y-7267650D01*
X1677325Y-7267650D02*
X1696372Y-7277174D01*
X1772563Y-7477174D02*
X1782087Y-7467650D01*
X1782087Y-7467650D02*
X1801134Y-7439079D01*
X1801134Y-7439079D02*
X1810658Y-7420031D01*
X1810658Y-7420031D02*
X1820182Y-7391460D01*
X1820182Y-7391460D02*
X1829706Y-7343841D01*
X1829706Y-7343841D02*
X1829706Y-7305746D01*
X1829706Y-7305746D02*
X1820182Y-7258127D01*
X1820182Y-7258127D02*
X1810658Y-7229555D01*
X1810658Y-7229555D02*
X1801134Y-7210508D01*
X1801134Y-7210508D02*
X1782087Y-7181936D01*
X1782087Y-7181936D02*
X1772563Y-7172412D01*
D12*
X-3042500Y-7613500D02*
X-3002500Y-7573500D01*
X-3042500Y-7533500D01*
X-3082500Y-7573500D01*
X-3042500Y-7613500D01*
D11*
X-2703628Y-7464984D02*
X-2684580Y-7464984D01*
X-2684580Y-7464984D02*
X-2665533Y-7474508D01*
X-2665533Y-7474508D02*
X-2656009Y-7484031D01*
X-2656009Y-7484031D02*
X-2646485Y-7503079D01*
X-2646485Y-7503079D02*
X-2636961Y-7541174D01*
X-2636961Y-7541174D02*
X-2636961Y-7588793D01*
X-2636961Y-7588793D02*
X-2646485Y-7626888D01*
X-2646485Y-7626888D02*
X-2656009Y-7645936D01*
X-2656009Y-7645936D02*
X-2665533Y-7655460D01*
X-2665533Y-7655460D02*
X-2684580Y-7664984D01*
X-2684580Y-7664984D02*
X-2703628Y-7664984D01*
X-2703628Y-7664984D02*
X-2722676Y-7655460D01*
X-2722676Y-7655460D02*
X-2732199Y-7645936D01*
X-2732199Y-7645936D02*
X-2741723Y-7626888D01*
X-2741723Y-7626888D02*
X-2751247Y-7588793D01*
X-2751247Y-7588793D02*
X-2751247Y-7541174D01*
X-2751247Y-7541174D02*
X-2741723Y-7503079D01*
X-2741723Y-7503079D02*
X-2732199Y-7484031D01*
X-2732199Y-7484031D02*
X-2722676Y-7474508D01*
X-2722676Y-7474508D02*
X-2703628Y-7464984D01*
X-2551247Y-7645936D02*
X-2541723Y-7655460D01*
X-2541723Y-7655460D02*
X-2551247Y-7664984D01*
X-2551247Y-7664984D02*
X-2560771Y-7655460D01*
X-2560771Y-7655460D02*
X-2551247Y-7645936D01*
X-2551247Y-7645936D02*
X-2551247Y-7664984D01*
X-2427437Y-7550698D02*
X-2446485Y-7541174D01*
X-2446485Y-7541174D02*
X-2456009Y-7531650D01*
X-2456009Y-7531650D02*
X-2465533Y-7512603D01*
X-2465533Y-7512603D02*
X-2465533Y-7503079D01*
X-2465533Y-7503079D02*
X-2456009Y-7484031D01*
X-2456009Y-7484031D02*
X-2446485Y-7474508D01*
X-2446485Y-7474508D02*
X-2427437Y-7464984D01*
X-2427437Y-7464984D02*
X-2389342Y-7464984D01*
X-2389342Y-7464984D02*
X-2370295Y-7474508D01*
X-2370295Y-7474508D02*
X-2360771Y-7484031D01*
X-2360771Y-7484031D02*
X-2351247Y-7503079D01*
X-2351247Y-7503079D02*
X-2351247Y-7512603D01*
X-2351247Y-7512603D02*
X-2360771Y-7531650D01*
X-2360771Y-7531650D02*
X-2370295Y-7541174D01*
X-2370295Y-7541174D02*
X-2389342Y-7550698D01*
X-2389342Y-7550698D02*
X-2427437Y-7550698D01*
X-2427437Y-7550698D02*
X-2446485Y-7560222D01*
X-2446485Y-7560222D02*
X-2456009Y-7569746D01*
X-2456009Y-7569746D02*
X-2465533Y-7588793D01*
X-2465533Y-7588793D02*
X-2465533Y-7626888D01*
X-2465533Y-7626888D02*
X-2456009Y-7645936D01*
X-2456009Y-7645936D02*
X-2446485Y-7655460D01*
X-2446485Y-7655460D02*
X-2427437Y-7664984D01*
X-2427437Y-7664984D02*
X-2389342Y-7664984D01*
X-2389342Y-7664984D02*
X-2370295Y-7655460D01*
X-2370295Y-7655460D02*
X-2360771Y-7645936D01*
X-2360771Y-7645936D02*
X-2351247Y-7626888D01*
X-2351247Y-7626888D02*
X-2351247Y-7588793D01*
X-2351247Y-7588793D02*
X-2360771Y-7569746D01*
X-2360771Y-7569746D02*
X-2370295Y-7560222D01*
X-2370295Y-7560222D02*
X-2389342Y-7550698D01*
X-2227437Y-7464984D02*
X-2208390Y-7464984D01*
X-2208390Y-7464984D02*
X-2189342Y-7474508D01*
X-2189342Y-7474508D02*
X-2179818Y-7484031D01*
X-2179818Y-7484031D02*
X-2170295Y-7503079D01*
X-2170295Y-7503079D02*
X-2160771Y-7541174D01*
X-2160771Y-7541174D02*
X-2160771Y-7588793D01*
X-2160771Y-7588793D02*
X-2170295Y-7626888D01*
X-2170295Y-7626888D02*
X-2179818Y-7645936D01*
X-2179818Y-7645936D02*
X-2189342Y-7655460D01*
X-2189342Y-7655460D02*
X-2208390Y-7664984D01*
X-2208390Y-7664984D02*
X-2227437Y-7664984D01*
X-2227437Y-7664984D02*
X-2246485Y-7655460D01*
X-2246485Y-7655460D02*
X-2256009Y-7645936D01*
X-2256009Y-7645936D02*
X-2265533Y-7626888D01*
X-2265533Y-7626888D02*
X-2275056Y-7588793D01*
X-2275056Y-7588793D02*
X-2275056Y-7541174D01*
X-2275056Y-7541174D02*
X-2265533Y-7503079D01*
X-2265533Y-7503079D02*
X-2256009Y-7484031D01*
X-2256009Y-7484031D02*
X-2246485Y-7474508D01*
X-2246485Y-7474508D02*
X-2227437Y-7464984D01*
X-2036961Y-7464984D02*
X-2017913Y-7464984D01*
X-2017913Y-7464984D02*
X-1998866Y-7474508D01*
X-1998866Y-7474508D02*
X-1989342Y-7484031D01*
X-1989342Y-7484031D02*
X-1979818Y-7503079D01*
X-1979818Y-7503079D02*
X-1970294Y-7541174D01*
X-1970294Y-7541174D02*
X-1970294Y-7588793D01*
X-1970294Y-7588793D02*
X-1979818Y-7626888D01*
X-1979818Y-7626888D02*
X-1989342Y-7645936D01*
X-1989342Y-7645936D02*
X-1998866Y-7655460D01*
X-1998866Y-7655460D02*
X-2017913Y-7664984D01*
X-2017913Y-7664984D02*
X-2036961Y-7664984D01*
X-2036961Y-7664984D02*
X-2056009Y-7655460D01*
X-2056009Y-7655460D02*
X-2065533Y-7645936D01*
X-2065533Y-7645936D02*
X-2075056Y-7626888D01*
X-2075056Y-7626888D02*
X-2084580Y-7588793D01*
X-2084580Y-7588793D02*
X-2084580Y-7541174D01*
X-2084580Y-7541174D02*
X-2075056Y-7503079D01*
X-2075056Y-7503079D02*
X-2065533Y-7484031D01*
X-2065533Y-7484031D02*
X-2056009Y-7474508D01*
X-2056009Y-7474508D02*
X-2036961Y-7464984D01*
X-1884580Y-7664984D02*
X-1884580Y-7531650D01*
X-1884580Y-7550698D02*
X-1875056Y-7541174D01*
X-1875056Y-7541174D02*
X-1856009Y-7531650D01*
X-1856009Y-7531650D02*
X-1827437Y-7531650D01*
X-1827437Y-7531650D02*
X-1808390Y-7541174D01*
X-1808390Y-7541174D02*
X-1798866Y-7560222D01*
X-1798866Y-7560222D02*
X-1798866Y-7664984D01*
X-1798866Y-7560222D02*
X-1789342Y-7541174D01*
X-1789342Y-7541174D02*
X-1770294Y-7531650D01*
X-1770294Y-7531650D02*
X-1741723Y-7531650D01*
X-1741723Y-7531650D02*
X-1722675Y-7541174D01*
X-1722675Y-7541174D02*
X-1713152Y-7560222D01*
X-1713152Y-7560222D02*
X-1713152Y-7664984D01*
X-1617913Y-7664984D02*
X-1617913Y-7531650D01*
X-1617913Y-7550698D02*
X-1608390Y-7541174D01*
X-1608390Y-7541174D02*
X-1589342Y-7531650D01*
X-1589342Y-7531650D02*
X-1560771Y-7531650D01*
X-1560771Y-7531650D02*
X-1541723Y-7541174D01*
X-1541723Y-7541174D02*
X-1532199Y-7560222D01*
X-1532199Y-7560222D02*
X-1532199Y-7664984D01*
X-1532199Y-7560222D02*
X-1522675Y-7541174D01*
X-1522675Y-7541174D02*
X-1503628Y-7531650D01*
X-1503628Y-7531650D02*
X-1475056Y-7531650D01*
X-1475056Y-7531650D02*
X-1456009Y-7541174D01*
X-1456009Y-7541174D02*
X-1446485Y-7560222D01*
X-1446485Y-7560222D02*
X-1446485Y-7664984D01*
X-1056009Y-7455460D02*
X-1227437Y-7712603D01*
X-798866Y-7464984D02*
X-779818Y-7464984D01*
X-779818Y-7464984D02*
X-760770Y-7474508D01*
X-760770Y-7474508D02*
X-751247Y-7484031D01*
X-751247Y-7484031D02*
X-741723Y-7503079D01*
X-741723Y-7503079D02*
X-732199Y-7541174D01*
X-732199Y-7541174D02*
X-732199Y-7588793D01*
X-732199Y-7588793D02*
X-741723Y-7626888D01*
X-741723Y-7626888D02*
X-751247Y-7645936D01*
X-751247Y-7645936D02*
X-760770Y-7655460D01*
X-760770Y-7655460D02*
X-779818Y-7664984D01*
X-779818Y-7664984D02*
X-798866Y-7664984D01*
X-798866Y-7664984D02*
X-817913Y-7655460D01*
X-817913Y-7655460D02*
X-827437Y-7645936D01*
X-827437Y-7645936D02*
X-836961Y-7626888D01*
X-836961Y-7626888D02*
X-846485Y-7588793D01*
X-846485Y-7588793D02*
X-846485Y-7541174D01*
X-846485Y-7541174D02*
X-836961Y-7503079D01*
X-836961Y-7503079D02*
X-827437Y-7484031D01*
X-827437Y-7484031D02*
X-817913Y-7474508D01*
X-817913Y-7474508D02*
X-798866Y-7464984D01*
X-646485Y-7645936D02*
X-636961Y-7655460D01*
X-636961Y-7655460D02*
X-646485Y-7664984D01*
X-646485Y-7664984D02*
X-656009Y-7655460D01*
X-656009Y-7655460D02*
X-646485Y-7645936D01*
X-646485Y-7645936D02*
X-646485Y-7664984D01*
X-513151Y-7464984D02*
X-494104Y-7464984D01*
X-494104Y-7464984D02*
X-475056Y-7474508D01*
X-475056Y-7474508D02*
X-465532Y-7484031D01*
X-465532Y-7484031D02*
X-456009Y-7503079D01*
X-456009Y-7503079D02*
X-446485Y-7541174D01*
X-446485Y-7541174D02*
X-446485Y-7588793D01*
X-446485Y-7588793D02*
X-456009Y-7626888D01*
X-456009Y-7626888D02*
X-465532Y-7645936D01*
X-465532Y-7645936D02*
X-475056Y-7655460D01*
X-475056Y-7655460D02*
X-494104Y-7664984D01*
X-494104Y-7664984D02*
X-513151Y-7664984D01*
X-513151Y-7664984D02*
X-532199Y-7655460D01*
X-532199Y-7655460D02*
X-541723Y-7645936D01*
X-541723Y-7645936D02*
X-551247Y-7626888D01*
X-551247Y-7626888D02*
X-560771Y-7588793D01*
X-560771Y-7588793D02*
X-560771Y-7541174D01*
X-560771Y-7541174D02*
X-551247Y-7503079D01*
X-551247Y-7503079D02*
X-541723Y-7484031D01*
X-541723Y-7484031D02*
X-532199Y-7474508D01*
X-532199Y-7474508D02*
X-513151Y-7464984D01*
X-379818Y-7464984D02*
X-256009Y-7464984D01*
X-256009Y-7464984D02*
X-322675Y-7541174D01*
X-322675Y-7541174D02*
X-294104Y-7541174D01*
X-294104Y-7541174D02*
X-275056Y-7550698D01*
X-275056Y-7550698D02*
X-265532Y-7560222D01*
X-265532Y-7560222D02*
X-256009Y-7579269D01*
X-256009Y-7579269D02*
X-256009Y-7626888D01*
X-256009Y-7626888D02*
X-265532Y-7645936D01*
X-265532Y-7645936D02*
X-275056Y-7655460D01*
X-275056Y-7655460D02*
X-294104Y-7664984D01*
X-294104Y-7664984D02*
X-351247Y-7664984D01*
X-351247Y-7664984D02*
X-370294Y-7655460D01*
X-370294Y-7655460D02*
X-379818Y-7645936D01*
X-65532Y-7664984D02*
X-179818Y-7664984D01*
X-122675Y-7664984D02*
X-122675Y-7464984D01*
X-122675Y-7464984D02*
X-141723Y-7493555D01*
X-141723Y-7493555D02*
X-160771Y-7512603D01*
X-160771Y-7512603D02*
X-179818Y-7522127D01*
X115420Y-7464984D02*
X20182Y-7464984D01*
X20182Y-7464984D02*
X10658Y-7560222D01*
X10658Y-7560222D02*
X20182Y-7550698D01*
X20182Y-7550698D02*
X39229Y-7541174D01*
X39229Y-7541174D02*
X86849Y-7541174D01*
X86849Y-7541174D02*
X105896Y-7550698D01*
X105896Y-7550698D02*
X115420Y-7560222D01*
X115420Y-7560222D02*
X124944Y-7579269D01*
X124944Y-7579269D02*
X124944Y-7626888D01*
X124944Y-7626888D02*
X115420Y-7645936D01*
X115420Y-7645936D02*
X105896Y-7655460D01*
X105896Y-7655460D02*
X86849Y-7664984D01*
X86849Y-7664984D02*
X39229Y-7664984D01*
X39229Y-7664984D02*
X20182Y-7655460D01*
X20182Y-7655460D02*
X10658Y-7645936D01*
X201134Y-7464984D02*
X201134Y-7503079D01*
X277325Y-7464984D02*
X277325Y-7503079D01*
X572563Y-7741174D02*
X563039Y-7731650D01*
X563039Y-7731650D02*
X543991Y-7703079D01*
X543991Y-7703079D02*
X534468Y-7684031D01*
X534468Y-7684031D02*
X524944Y-7655460D01*
X524944Y-7655460D02*
X515420Y-7607841D01*
X515420Y-7607841D02*
X515420Y-7569746D01*
X515420Y-7569746D02*
X524944Y-7522127D01*
X524944Y-7522127D02*
X534468Y-7493555D01*
X534468Y-7493555D02*
X543991Y-7474508D01*
X543991Y-7474508D02*
X563039Y-7445936D01*
X563039Y-7445936D02*
X572563Y-7436412D01*
X734468Y-7531650D02*
X734468Y-7664984D01*
X686849Y-7455460D02*
X639230Y-7598317D01*
X639230Y-7598317D02*
X763039Y-7598317D01*
X867801Y-7550698D02*
X848753Y-7541174D01*
X848753Y-7541174D02*
X839229Y-7531650D01*
X839229Y-7531650D02*
X829706Y-7512603D01*
X829706Y-7512603D02*
X829706Y-7503079D01*
X829706Y-7503079D02*
X839229Y-7484031D01*
X839229Y-7484031D02*
X848753Y-7474508D01*
X848753Y-7474508D02*
X867801Y-7464984D01*
X867801Y-7464984D02*
X905896Y-7464984D01*
X905896Y-7464984D02*
X924944Y-7474508D01*
X924944Y-7474508D02*
X934468Y-7484031D01*
X934468Y-7484031D02*
X943991Y-7503079D01*
X943991Y-7503079D02*
X943991Y-7512603D01*
X943991Y-7512603D02*
X934468Y-7531650D01*
X934468Y-7531650D02*
X924944Y-7541174D01*
X924944Y-7541174D02*
X905896Y-7550698D01*
X905896Y-7550698D02*
X867801Y-7550698D01*
X867801Y-7550698D02*
X848753Y-7560222D01*
X848753Y-7560222D02*
X839229Y-7569746D01*
X839229Y-7569746D02*
X829706Y-7588793D01*
X829706Y-7588793D02*
X829706Y-7626888D01*
X829706Y-7626888D02*
X839229Y-7645936D01*
X839229Y-7645936D02*
X848753Y-7655460D01*
X848753Y-7655460D02*
X867801Y-7664984D01*
X867801Y-7664984D02*
X905896Y-7664984D01*
X905896Y-7664984D02*
X924944Y-7655460D01*
X924944Y-7655460D02*
X934468Y-7645936D01*
X934468Y-7645936D02*
X943991Y-7626888D01*
X943991Y-7626888D02*
X943991Y-7588793D01*
X943991Y-7588793D02*
X934468Y-7569746D01*
X934468Y-7569746D02*
X924944Y-7560222D01*
X924944Y-7560222D02*
X905896Y-7550698D01*
X1182087Y-7664984D02*
X1182087Y-7464984D01*
X1267801Y-7664984D02*
X1267801Y-7560222D01*
X1267801Y-7560222D02*
X1258277Y-7541174D01*
X1258277Y-7541174D02*
X1239230Y-7531650D01*
X1239230Y-7531650D02*
X1210658Y-7531650D01*
X1210658Y-7531650D02*
X1191611Y-7541174D01*
X1191611Y-7541174D02*
X1182087Y-7550698D01*
X1391611Y-7664984D02*
X1372563Y-7655460D01*
X1372563Y-7655460D02*
X1363039Y-7645936D01*
X1363039Y-7645936D02*
X1353515Y-7626888D01*
X1353515Y-7626888D02*
X1353515Y-7569746D01*
X1353515Y-7569746D02*
X1363039Y-7550698D01*
X1363039Y-7550698D02*
X1372563Y-7541174D01*
X1372563Y-7541174D02*
X1391611Y-7531650D01*
X1391611Y-7531650D02*
X1420182Y-7531650D01*
X1420182Y-7531650D02*
X1439230Y-7541174D01*
X1439230Y-7541174D02*
X1448753Y-7550698D01*
X1448753Y-7550698D02*
X1458277Y-7569746D01*
X1458277Y-7569746D02*
X1458277Y-7626888D01*
X1458277Y-7626888D02*
X1448753Y-7645936D01*
X1448753Y-7645936D02*
X1439230Y-7655460D01*
X1439230Y-7655460D02*
X1420182Y-7664984D01*
X1420182Y-7664984D02*
X1391611Y-7664984D01*
X1572563Y-7664984D02*
X1553515Y-7655460D01*
X1553515Y-7655460D02*
X1543991Y-7636412D01*
X1543991Y-7636412D02*
X1543991Y-7464984D01*
X1724944Y-7655460D02*
X1705896Y-7664984D01*
X1705896Y-7664984D02*
X1667801Y-7664984D01*
X1667801Y-7664984D02*
X1648753Y-7655460D01*
X1648753Y-7655460D02*
X1639230Y-7636412D01*
X1639230Y-7636412D02*
X1639230Y-7560222D01*
X1639230Y-7560222D02*
X1648753Y-7541174D01*
X1648753Y-7541174D02*
X1667801Y-7531650D01*
X1667801Y-7531650D02*
X1705896Y-7531650D01*
X1705896Y-7531650D02*
X1724944Y-7541174D01*
X1724944Y-7541174D02*
X1734468Y-7560222D01*
X1734468Y-7560222D02*
X1734468Y-7579269D01*
X1734468Y-7579269D02*
X1639230Y-7598317D01*
X1810658Y-7655460D02*
X1829706Y-7664984D01*
X1829706Y-7664984D02*
X1867801Y-7664984D01*
X1867801Y-7664984D02*
X1886849Y-7655460D01*
X1886849Y-7655460D02*
X1896372Y-7636412D01*
X1896372Y-7636412D02*
X1896372Y-7626888D01*
X1896372Y-7626888D02*
X1886849Y-7607841D01*
X1886849Y-7607841D02*
X1867801Y-7598317D01*
X1867801Y-7598317D02*
X1839230Y-7598317D01*
X1839230Y-7598317D02*
X1820182Y-7588793D01*
X1820182Y-7588793D02*
X1810658Y-7569746D01*
X1810658Y-7569746D02*
X1810658Y-7560222D01*
X1810658Y-7560222D02*
X1820182Y-7541174D01*
X1820182Y-7541174D02*
X1839230Y-7531650D01*
X1839230Y-7531650D02*
X1867801Y-7531650D01*
X1867801Y-7531650D02*
X1886849Y-7541174D01*
X1963039Y-7741174D02*
X1972563Y-7731650D01*
X1972563Y-7731650D02*
X1991611Y-7703079D01*
X1991611Y-7703079D02*
X2001134Y-7684031D01*
X2001134Y-7684031D02*
X2010658Y-7655460D01*
X2010658Y-7655460D02*
X2020182Y-7607841D01*
X2020182Y-7607841D02*
X2020182Y-7569746D01*
X2020182Y-7569746D02*
X2010658Y-7522127D01*
X2010658Y-7522127D02*
X2001134Y-7493555D01*
X2001134Y-7493555D02*
X1991611Y-7474508D01*
X1991611Y-7474508D02*
X1972563Y-7445936D01*
X1972563Y-7445936D02*
X1963039Y-7436412D01*
D12*
X-3097500Y-7790000D02*
X-3002500Y-7885000D01*
X-3002500Y-7790000D02*
X-3097500Y-7885000D01*
X-3002500Y-7837500D02*
G75*
G02*
X-3097500Y-7837500I-47500J0D01*
G01*
X-3097500Y-7837500D02*
G75*
G02*
X-3002500Y-7837500I47500J0D01*
G01*
D11*
X-2703628Y-7728984D02*
X-2684580Y-7728984D01*
X-2684580Y-7728984D02*
X-2665533Y-7738508D01*
X-2665533Y-7738508D02*
X-2656009Y-7748031D01*
X-2656009Y-7748031D02*
X-2646485Y-7767079D01*
X-2646485Y-7767079D02*
X-2636961Y-7805174D01*
X-2636961Y-7805174D02*
X-2636961Y-7852793D01*
X-2636961Y-7852793D02*
X-2646485Y-7890888D01*
X-2646485Y-7890888D02*
X-2656009Y-7909936D01*
X-2656009Y-7909936D02*
X-2665533Y-7919460D01*
X-2665533Y-7919460D02*
X-2684580Y-7928984D01*
X-2684580Y-7928984D02*
X-2703628Y-7928984D01*
X-2703628Y-7928984D02*
X-2722676Y-7919460D01*
X-2722676Y-7919460D02*
X-2732199Y-7909936D01*
X-2732199Y-7909936D02*
X-2741723Y-7890888D01*
X-2741723Y-7890888D02*
X-2751247Y-7852793D01*
X-2751247Y-7852793D02*
X-2751247Y-7805174D01*
X-2751247Y-7805174D02*
X-2741723Y-7767079D01*
X-2741723Y-7767079D02*
X-2732199Y-7748031D01*
X-2732199Y-7748031D02*
X-2722676Y-7738508D01*
X-2722676Y-7738508D02*
X-2703628Y-7728984D01*
X-2551247Y-7909936D02*
X-2541723Y-7919460D01*
X-2541723Y-7919460D02*
X-2551247Y-7928984D01*
X-2551247Y-7928984D02*
X-2560771Y-7919460D01*
X-2560771Y-7919460D02*
X-2551247Y-7909936D01*
X-2551247Y-7909936D02*
X-2551247Y-7928984D01*
X-2446485Y-7928984D02*
X-2408390Y-7928984D01*
X-2408390Y-7928984D02*
X-2389342Y-7919460D01*
X-2389342Y-7919460D02*
X-2379818Y-7909936D01*
X-2379818Y-7909936D02*
X-2360771Y-7881365D01*
X-2360771Y-7881365D02*
X-2351247Y-7843269D01*
X-2351247Y-7843269D02*
X-2351247Y-7767079D01*
X-2351247Y-7767079D02*
X-2360771Y-7748031D01*
X-2360771Y-7748031D02*
X-2370295Y-7738508D01*
X-2370295Y-7738508D02*
X-2389342Y-7728984D01*
X-2389342Y-7728984D02*
X-2427437Y-7728984D01*
X-2427437Y-7728984D02*
X-2446485Y-7738508D01*
X-2446485Y-7738508D02*
X-2456009Y-7748031D01*
X-2456009Y-7748031D02*
X-2465533Y-7767079D01*
X-2465533Y-7767079D02*
X-2465533Y-7814698D01*
X-2465533Y-7814698D02*
X-2456009Y-7833746D01*
X-2456009Y-7833746D02*
X-2446485Y-7843269D01*
X-2446485Y-7843269D02*
X-2427437Y-7852793D01*
X-2427437Y-7852793D02*
X-2389342Y-7852793D01*
X-2389342Y-7852793D02*
X-2370295Y-7843269D01*
X-2370295Y-7843269D02*
X-2360771Y-7833746D01*
X-2360771Y-7833746D02*
X-2351247Y-7814698D01*
X-2170295Y-7728984D02*
X-2265533Y-7728984D01*
X-2265533Y-7728984D02*
X-2275056Y-7824222D01*
X-2275056Y-7824222D02*
X-2265533Y-7814698D01*
X-2265533Y-7814698D02*
X-2246485Y-7805174D01*
X-2246485Y-7805174D02*
X-2198866Y-7805174D01*
X-2198866Y-7805174D02*
X-2179818Y-7814698D01*
X-2179818Y-7814698D02*
X-2170295Y-7824222D01*
X-2170295Y-7824222D02*
X-2160771Y-7843269D01*
X-2160771Y-7843269D02*
X-2160771Y-7890888D01*
X-2160771Y-7890888D02*
X-2170295Y-7909936D01*
X-2170295Y-7909936D02*
X-2179818Y-7919460D01*
X-2179818Y-7919460D02*
X-2198866Y-7928984D01*
X-2198866Y-7928984D02*
X-2246485Y-7928984D01*
X-2246485Y-7928984D02*
X-2265533Y-7919460D01*
X-2265533Y-7919460D02*
X-2275056Y-7909936D01*
X-2036961Y-7728984D02*
X-2017913Y-7728984D01*
X-2017913Y-7728984D02*
X-1998866Y-7738508D01*
X-1998866Y-7738508D02*
X-1989342Y-7748031D01*
X-1989342Y-7748031D02*
X-1979818Y-7767079D01*
X-1979818Y-7767079D02*
X-1970294Y-7805174D01*
X-1970294Y-7805174D02*
X-1970294Y-7852793D01*
X-1970294Y-7852793D02*
X-1979818Y-7890888D01*
X-1979818Y-7890888D02*
X-1989342Y-7909936D01*
X-1989342Y-7909936D02*
X-1998866Y-7919460D01*
X-1998866Y-7919460D02*
X-2017913Y-7928984D01*
X-2017913Y-7928984D02*
X-2036961Y-7928984D01*
X-2036961Y-7928984D02*
X-2056009Y-7919460D01*
X-2056009Y-7919460D02*
X-2065533Y-7909936D01*
X-2065533Y-7909936D02*
X-2075056Y-7890888D01*
X-2075056Y-7890888D02*
X-2084580Y-7852793D01*
X-2084580Y-7852793D02*
X-2084580Y-7805174D01*
X-2084580Y-7805174D02*
X-2075056Y-7767079D01*
X-2075056Y-7767079D02*
X-2065533Y-7748031D01*
X-2065533Y-7748031D02*
X-2056009Y-7738508D01*
X-2056009Y-7738508D02*
X-2036961Y-7728984D01*
X-1884580Y-7928984D02*
X-1884580Y-7795650D01*
X-1884580Y-7814698D02*
X-1875056Y-7805174D01*
X-1875056Y-7805174D02*
X-1856009Y-7795650D01*
X-1856009Y-7795650D02*
X-1827437Y-7795650D01*
X-1827437Y-7795650D02*
X-1808390Y-7805174D01*
X-1808390Y-7805174D02*
X-1798866Y-7824222D01*
X-1798866Y-7824222D02*
X-1798866Y-7928984D01*
X-1798866Y-7824222D02*
X-1789342Y-7805174D01*
X-1789342Y-7805174D02*
X-1770294Y-7795650D01*
X-1770294Y-7795650D02*
X-1741723Y-7795650D01*
X-1741723Y-7795650D02*
X-1722675Y-7805174D01*
X-1722675Y-7805174D02*
X-1713152Y-7824222D01*
X-1713152Y-7824222D02*
X-1713152Y-7928984D01*
X-1617913Y-7928984D02*
X-1617913Y-7795650D01*
X-1617913Y-7814698D02*
X-1608390Y-7805174D01*
X-1608390Y-7805174D02*
X-1589342Y-7795650D01*
X-1589342Y-7795650D02*
X-1560771Y-7795650D01*
X-1560771Y-7795650D02*
X-1541723Y-7805174D01*
X-1541723Y-7805174D02*
X-1532199Y-7824222D01*
X-1532199Y-7824222D02*
X-1532199Y-7928984D01*
X-1532199Y-7824222D02*
X-1522675Y-7805174D01*
X-1522675Y-7805174D02*
X-1503628Y-7795650D01*
X-1503628Y-7795650D02*
X-1475056Y-7795650D01*
X-1475056Y-7795650D02*
X-1456009Y-7805174D01*
X-1456009Y-7805174D02*
X-1446485Y-7824222D01*
X-1446485Y-7824222D02*
X-1446485Y-7928984D01*
X-1056009Y-7719460D02*
X-1227437Y-7976603D01*
X-798866Y-7728984D02*
X-779818Y-7728984D01*
X-779818Y-7728984D02*
X-760770Y-7738508D01*
X-760770Y-7738508D02*
X-751247Y-7748031D01*
X-751247Y-7748031D02*
X-741723Y-7767079D01*
X-741723Y-7767079D02*
X-732199Y-7805174D01*
X-732199Y-7805174D02*
X-732199Y-7852793D01*
X-732199Y-7852793D02*
X-741723Y-7890888D01*
X-741723Y-7890888D02*
X-751247Y-7909936D01*
X-751247Y-7909936D02*
X-760770Y-7919460D01*
X-760770Y-7919460D02*
X-779818Y-7928984D01*
X-779818Y-7928984D02*
X-798866Y-7928984D01*
X-798866Y-7928984D02*
X-817913Y-7919460D01*
X-817913Y-7919460D02*
X-827437Y-7909936D01*
X-827437Y-7909936D02*
X-836961Y-7890888D01*
X-836961Y-7890888D02*
X-846485Y-7852793D01*
X-846485Y-7852793D02*
X-846485Y-7805174D01*
X-846485Y-7805174D02*
X-836961Y-7767079D01*
X-836961Y-7767079D02*
X-827437Y-7748031D01*
X-827437Y-7748031D02*
X-817913Y-7738508D01*
X-817913Y-7738508D02*
X-798866Y-7728984D01*
X-646485Y-7909936D02*
X-636961Y-7919460D01*
X-636961Y-7919460D02*
X-646485Y-7928984D01*
X-646485Y-7928984D02*
X-656009Y-7919460D01*
X-656009Y-7919460D02*
X-646485Y-7909936D01*
X-646485Y-7909936D02*
X-646485Y-7928984D01*
X-513151Y-7728984D02*
X-494104Y-7728984D01*
X-494104Y-7728984D02*
X-475056Y-7738508D01*
X-475056Y-7738508D02*
X-465532Y-7748031D01*
X-465532Y-7748031D02*
X-456009Y-7767079D01*
X-456009Y-7767079D02*
X-446485Y-7805174D01*
X-446485Y-7805174D02*
X-446485Y-7852793D01*
X-446485Y-7852793D02*
X-456009Y-7890888D01*
X-456009Y-7890888D02*
X-465532Y-7909936D01*
X-465532Y-7909936D02*
X-475056Y-7919460D01*
X-475056Y-7919460D02*
X-494104Y-7928984D01*
X-494104Y-7928984D02*
X-513151Y-7928984D01*
X-513151Y-7928984D02*
X-532199Y-7919460D01*
X-532199Y-7919460D02*
X-541723Y-7909936D01*
X-541723Y-7909936D02*
X-551247Y-7890888D01*
X-551247Y-7890888D02*
X-560771Y-7852793D01*
X-560771Y-7852793D02*
X-560771Y-7805174D01*
X-560771Y-7805174D02*
X-551247Y-7767079D01*
X-551247Y-7767079D02*
X-541723Y-7748031D01*
X-541723Y-7748031D02*
X-532199Y-7738508D01*
X-532199Y-7738508D02*
X-513151Y-7728984D01*
X-379818Y-7728984D02*
X-256009Y-7728984D01*
X-256009Y-7728984D02*
X-322675Y-7805174D01*
X-322675Y-7805174D02*
X-294104Y-7805174D01*
X-294104Y-7805174D02*
X-275056Y-7814698D01*
X-275056Y-7814698D02*
X-265532Y-7824222D01*
X-265532Y-7824222D02*
X-256009Y-7843269D01*
X-256009Y-7843269D02*
X-256009Y-7890888D01*
X-256009Y-7890888D02*
X-265532Y-7909936D01*
X-265532Y-7909936D02*
X-275056Y-7919460D01*
X-275056Y-7919460D02*
X-294104Y-7928984D01*
X-294104Y-7928984D02*
X-351247Y-7928984D01*
X-351247Y-7928984D02*
X-370294Y-7919460D01*
X-370294Y-7919460D02*
X-379818Y-7909936D01*
X-189342Y-7728984D02*
X-56009Y-7728984D01*
X-56009Y-7728984D02*
X-141723Y-7928984D01*
X105896Y-7795650D02*
X105896Y-7928984D01*
X58277Y-7719460D02*
X10658Y-7862317D01*
X10658Y-7862317D02*
X134468Y-7862317D01*
X201134Y-7728984D02*
X201134Y-7767079D01*
X277325Y-7728984D02*
X277325Y-7767079D01*
X572563Y-8005174D02*
X563039Y-7995650D01*
X563039Y-7995650D02*
X543991Y-7967079D01*
X543991Y-7967079D02*
X534468Y-7948031D01*
X534468Y-7948031D02*
X524944Y-7919460D01*
X524944Y-7919460D02*
X515420Y-7871841D01*
X515420Y-7871841D02*
X515420Y-7833746D01*
X515420Y-7833746D02*
X524944Y-7786127D01*
X524944Y-7786127D02*
X534468Y-7757555D01*
X534468Y-7757555D02*
X543991Y-7738508D01*
X543991Y-7738508D02*
X563039Y-7709936D01*
X563039Y-7709936D02*
X572563Y-7700412D01*
X639230Y-7748031D02*
X648753Y-7738508D01*
X648753Y-7738508D02*
X667801Y-7728984D01*
X667801Y-7728984D02*
X715420Y-7728984D01*
X715420Y-7728984D02*
X734468Y-7738508D01*
X734468Y-7738508D02*
X743991Y-7748031D01*
X743991Y-7748031D02*
X753515Y-7767079D01*
X753515Y-7767079D02*
X753515Y-7786127D01*
X753515Y-7786127D02*
X743991Y-7814698D01*
X743991Y-7814698D02*
X629706Y-7928984D01*
X629706Y-7928984D02*
X753515Y-7928984D01*
X943991Y-7928984D02*
X829706Y-7928984D01*
X886848Y-7928984D02*
X886848Y-7728984D01*
X886848Y-7728984D02*
X867801Y-7757555D01*
X867801Y-7757555D02*
X848753Y-7776603D01*
X848753Y-7776603D02*
X829706Y-7786127D01*
X1182087Y-7928984D02*
X1182087Y-7728984D01*
X1267801Y-7928984D02*
X1267801Y-7824222D01*
X1267801Y-7824222D02*
X1258277Y-7805174D01*
X1258277Y-7805174D02*
X1239230Y-7795650D01*
X1239230Y-7795650D02*
X1210658Y-7795650D01*
X1210658Y-7795650D02*
X1191611Y-7805174D01*
X1191611Y-7805174D02*
X1182087Y-7814698D01*
X1391611Y-7928984D02*
X1372563Y-7919460D01*
X1372563Y-7919460D02*
X1363039Y-7909936D01*
X1363039Y-7909936D02*
X1353515Y-7890888D01*
X1353515Y-7890888D02*
X1353515Y-7833746D01*
X1353515Y-7833746D02*
X1363039Y-7814698D01*
X1363039Y-7814698D02*
X1372563Y-7805174D01*
X1372563Y-7805174D02*
X1391611Y-7795650D01*
X1391611Y-7795650D02*
X1420182Y-7795650D01*
X1420182Y-7795650D02*
X1439230Y-7805174D01*
X1439230Y-7805174D02*
X1448753Y-7814698D01*
X1448753Y-7814698D02*
X1458277Y-7833746D01*
X1458277Y-7833746D02*
X1458277Y-7890888D01*
X1458277Y-7890888D02*
X1448753Y-7909936D01*
X1448753Y-7909936D02*
X1439230Y-7919460D01*
X1439230Y-7919460D02*
X1420182Y-7928984D01*
X1420182Y-7928984D02*
X1391611Y-7928984D01*
X1572563Y-7928984D02*
X1553515Y-7919460D01*
X1553515Y-7919460D02*
X1543991Y-7900412D01*
X1543991Y-7900412D02*
X1543991Y-7728984D01*
X1724944Y-7919460D02*
X1705896Y-7928984D01*
X1705896Y-7928984D02*
X1667801Y-7928984D01*
X1667801Y-7928984D02*
X1648753Y-7919460D01*
X1648753Y-7919460D02*
X1639230Y-7900412D01*
X1639230Y-7900412D02*
X1639230Y-7824222D01*
X1639230Y-7824222D02*
X1648753Y-7805174D01*
X1648753Y-7805174D02*
X1667801Y-7795650D01*
X1667801Y-7795650D02*
X1705896Y-7795650D01*
X1705896Y-7795650D02*
X1724944Y-7805174D01*
X1724944Y-7805174D02*
X1734468Y-7824222D01*
X1734468Y-7824222D02*
X1734468Y-7843269D01*
X1734468Y-7843269D02*
X1639230Y-7862317D01*
X1810658Y-7919460D02*
X1829706Y-7928984D01*
X1829706Y-7928984D02*
X1867801Y-7928984D01*
X1867801Y-7928984D02*
X1886849Y-7919460D01*
X1886849Y-7919460D02*
X1896372Y-7900412D01*
X1896372Y-7900412D02*
X1896372Y-7890888D01*
X1896372Y-7890888D02*
X1886849Y-7871841D01*
X1886849Y-7871841D02*
X1867801Y-7862317D01*
X1867801Y-7862317D02*
X1839230Y-7862317D01*
X1839230Y-7862317D02*
X1820182Y-7852793D01*
X1820182Y-7852793D02*
X1810658Y-7833746D01*
X1810658Y-7833746D02*
X1810658Y-7824222D01*
X1810658Y-7824222D02*
X1820182Y-7805174D01*
X1820182Y-7805174D02*
X1839230Y-7795650D01*
X1839230Y-7795650D02*
X1867801Y-7795650D01*
X1867801Y-7795650D02*
X1886849Y-7805174D01*
X1963039Y-8005174D02*
X1972563Y-7995650D01*
X1972563Y-7995650D02*
X1991611Y-7967079D01*
X1991611Y-7967079D02*
X2001134Y-7948031D01*
X2001134Y-7948031D02*
X2010658Y-7919460D01*
X2010658Y-7919460D02*
X2020182Y-7871841D01*
X2020182Y-7871841D02*
X2020182Y-7833746D01*
X2020182Y-7833746D02*
X2010658Y-7786127D01*
X2010658Y-7786127D02*
X2001134Y-7757555D01*
X2001134Y-7757555D02*
X1991611Y-7738508D01*
X1991611Y-7738508D02*
X1972563Y-7709936D01*
X1972563Y-7709936D02*
X1963039Y-7700412D01*
D12*
X-3102500Y-8051500D02*
X-3002500Y-8151500D01*
X-3002500Y-8051500D02*
X-3102500Y-8151500D01*
X-3052500Y-8051500D02*
X-3052500Y-8151500D01*
X-3102500Y-8101500D02*
X-3002500Y-8101500D01*
D11*
X-2636961Y-8192984D02*
X-2751247Y-8192984D01*
X-2694104Y-8192984D02*
X-2694104Y-7992984D01*
X-2694104Y-7992984D02*
X-2713152Y-8021555D01*
X-2713152Y-8021555D02*
X-2732199Y-8040603D01*
X-2732199Y-8040603D02*
X-2751247Y-8050127D01*
X-2551247Y-8173936D02*
X-2541723Y-8183460D01*
X-2541723Y-8183460D02*
X-2551247Y-8192984D01*
X-2551247Y-8192984D02*
X-2560771Y-8183460D01*
X-2560771Y-8183460D02*
X-2551247Y-8173936D01*
X-2551247Y-8173936D02*
X-2551247Y-8192984D01*
X-2417914Y-7992984D02*
X-2398866Y-7992984D01*
X-2398866Y-7992984D02*
X-2379818Y-8002508D01*
X-2379818Y-8002508D02*
X-2370295Y-8012031D01*
X-2370295Y-8012031D02*
X-2360771Y-8031079D01*
X-2360771Y-8031079D02*
X-2351247Y-8069174D01*
X-2351247Y-8069174D02*
X-2351247Y-8116793D01*
X-2351247Y-8116793D02*
X-2360771Y-8154888D01*
X-2360771Y-8154888D02*
X-2370295Y-8173936D01*
X-2370295Y-8173936D02*
X-2379818Y-8183460D01*
X-2379818Y-8183460D02*
X-2398866Y-8192984D01*
X-2398866Y-8192984D02*
X-2417914Y-8192984D01*
X-2417914Y-8192984D02*
X-2436961Y-8183460D01*
X-2436961Y-8183460D02*
X-2446485Y-8173936D01*
X-2446485Y-8173936D02*
X-2456009Y-8154888D01*
X-2456009Y-8154888D02*
X-2465533Y-8116793D01*
X-2465533Y-8116793D02*
X-2465533Y-8069174D01*
X-2465533Y-8069174D02*
X-2456009Y-8031079D01*
X-2456009Y-8031079D02*
X-2446485Y-8012031D01*
X-2446485Y-8012031D02*
X-2436961Y-8002508D01*
X-2436961Y-8002508D02*
X-2417914Y-7992984D01*
X-2227437Y-7992984D02*
X-2208390Y-7992984D01*
X-2208390Y-7992984D02*
X-2189342Y-8002508D01*
X-2189342Y-8002508D02*
X-2179818Y-8012031D01*
X-2179818Y-8012031D02*
X-2170295Y-8031079D01*
X-2170295Y-8031079D02*
X-2160771Y-8069174D01*
X-2160771Y-8069174D02*
X-2160771Y-8116793D01*
X-2160771Y-8116793D02*
X-2170295Y-8154888D01*
X-2170295Y-8154888D02*
X-2179818Y-8173936D01*
X-2179818Y-8173936D02*
X-2189342Y-8183460D01*
X-2189342Y-8183460D02*
X-2208390Y-8192984D01*
X-2208390Y-8192984D02*
X-2227437Y-8192984D01*
X-2227437Y-8192984D02*
X-2246485Y-8183460D01*
X-2246485Y-8183460D02*
X-2256009Y-8173936D01*
X-2256009Y-8173936D02*
X-2265533Y-8154888D01*
X-2265533Y-8154888D02*
X-2275056Y-8116793D01*
X-2275056Y-8116793D02*
X-2275056Y-8069174D01*
X-2275056Y-8069174D02*
X-2265533Y-8031079D01*
X-2265533Y-8031079D02*
X-2256009Y-8012031D01*
X-2256009Y-8012031D02*
X-2246485Y-8002508D01*
X-2246485Y-8002508D02*
X-2227437Y-7992984D01*
X-2036961Y-7992984D02*
X-2017913Y-7992984D01*
X-2017913Y-7992984D02*
X-1998866Y-8002508D01*
X-1998866Y-8002508D02*
X-1989342Y-8012031D01*
X-1989342Y-8012031D02*
X-1979818Y-8031079D01*
X-1979818Y-8031079D02*
X-1970294Y-8069174D01*
X-1970294Y-8069174D02*
X-1970294Y-8116793D01*
X-1970294Y-8116793D02*
X-1979818Y-8154888D01*
X-1979818Y-8154888D02*
X-1989342Y-8173936D01*
X-1989342Y-8173936D02*
X-1998866Y-8183460D01*
X-1998866Y-8183460D02*
X-2017913Y-8192984D01*
X-2017913Y-8192984D02*
X-2036961Y-8192984D01*
X-2036961Y-8192984D02*
X-2056009Y-8183460D01*
X-2056009Y-8183460D02*
X-2065533Y-8173936D01*
X-2065533Y-8173936D02*
X-2075056Y-8154888D01*
X-2075056Y-8154888D02*
X-2084580Y-8116793D01*
X-2084580Y-8116793D02*
X-2084580Y-8069174D01*
X-2084580Y-8069174D02*
X-2075056Y-8031079D01*
X-2075056Y-8031079D02*
X-2065533Y-8012031D01*
X-2065533Y-8012031D02*
X-2056009Y-8002508D01*
X-2056009Y-8002508D02*
X-2036961Y-7992984D01*
X-1884580Y-8192984D02*
X-1884580Y-8059650D01*
X-1884580Y-8078698D02*
X-1875056Y-8069174D01*
X-1875056Y-8069174D02*
X-1856009Y-8059650D01*
X-1856009Y-8059650D02*
X-1827437Y-8059650D01*
X-1827437Y-8059650D02*
X-1808390Y-8069174D01*
X-1808390Y-8069174D02*
X-1798866Y-8088222D01*
X-1798866Y-8088222D02*
X-1798866Y-8192984D01*
X-1798866Y-8088222D02*
X-1789342Y-8069174D01*
X-1789342Y-8069174D02*
X-1770294Y-8059650D01*
X-1770294Y-8059650D02*
X-1741723Y-8059650D01*
X-1741723Y-8059650D02*
X-1722675Y-8069174D01*
X-1722675Y-8069174D02*
X-1713152Y-8088222D01*
X-1713152Y-8088222D02*
X-1713152Y-8192984D01*
X-1617913Y-8192984D02*
X-1617913Y-8059650D01*
X-1617913Y-8078698D02*
X-1608390Y-8069174D01*
X-1608390Y-8069174D02*
X-1589342Y-8059650D01*
X-1589342Y-8059650D02*
X-1560771Y-8059650D01*
X-1560771Y-8059650D02*
X-1541723Y-8069174D01*
X-1541723Y-8069174D02*
X-1532199Y-8088222D01*
X-1532199Y-8088222D02*
X-1532199Y-8192984D01*
X-1532199Y-8088222D02*
X-1522675Y-8069174D01*
X-1522675Y-8069174D02*
X-1503628Y-8059650D01*
X-1503628Y-8059650D02*
X-1475056Y-8059650D01*
X-1475056Y-8059650D02*
X-1456009Y-8069174D01*
X-1456009Y-8069174D02*
X-1446485Y-8088222D01*
X-1446485Y-8088222D02*
X-1446485Y-8192984D01*
X-1056009Y-7983460D02*
X-1227437Y-8240603D01*
X-798866Y-7992984D02*
X-779818Y-7992984D01*
X-779818Y-7992984D02*
X-760770Y-8002508D01*
X-760770Y-8002508D02*
X-751247Y-8012031D01*
X-751247Y-8012031D02*
X-741723Y-8031079D01*
X-741723Y-8031079D02*
X-732199Y-8069174D01*
X-732199Y-8069174D02*
X-732199Y-8116793D01*
X-732199Y-8116793D02*
X-741723Y-8154888D01*
X-741723Y-8154888D02*
X-751247Y-8173936D01*
X-751247Y-8173936D02*
X-760770Y-8183460D01*
X-760770Y-8183460D02*
X-779818Y-8192984D01*
X-779818Y-8192984D02*
X-798866Y-8192984D01*
X-798866Y-8192984D02*
X-817913Y-8183460D01*
X-817913Y-8183460D02*
X-827437Y-8173936D01*
X-827437Y-8173936D02*
X-836961Y-8154888D01*
X-836961Y-8154888D02*
X-846485Y-8116793D01*
X-846485Y-8116793D02*
X-846485Y-8069174D01*
X-846485Y-8069174D02*
X-836961Y-8031079D01*
X-836961Y-8031079D02*
X-827437Y-8012031D01*
X-827437Y-8012031D02*
X-817913Y-8002508D01*
X-817913Y-8002508D02*
X-798866Y-7992984D01*
X-646485Y-8173936D02*
X-636961Y-8183460D01*
X-636961Y-8183460D02*
X-646485Y-8192984D01*
X-646485Y-8192984D02*
X-656009Y-8183460D01*
X-656009Y-8183460D02*
X-646485Y-8173936D01*
X-646485Y-8173936D02*
X-646485Y-8192984D01*
X-513151Y-7992984D02*
X-494104Y-7992984D01*
X-494104Y-7992984D02*
X-475056Y-8002508D01*
X-475056Y-8002508D02*
X-465532Y-8012031D01*
X-465532Y-8012031D02*
X-456009Y-8031079D01*
X-456009Y-8031079D02*
X-446485Y-8069174D01*
X-446485Y-8069174D02*
X-446485Y-8116793D01*
X-446485Y-8116793D02*
X-456009Y-8154888D01*
X-456009Y-8154888D02*
X-465532Y-8173936D01*
X-465532Y-8173936D02*
X-475056Y-8183460D01*
X-475056Y-8183460D02*
X-494104Y-8192984D01*
X-494104Y-8192984D02*
X-513151Y-8192984D01*
X-513151Y-8192984D02*
X-532199Y-8183460D01*
X-532199Y-8183460D02*
X-541723Y-8173936D01*
X-541723Y-8173936D02*
X-551247Y-8154888D01*
X-551247Y-8154888D02*
X-560771Y-8116793D01*
X-560771Y-8116793D02*
X-560771Y-8069174D01*
X-560771Y-8069174D02*
X-551247Y-8031079D01*
X-551247Y-8031079D02*
X-541723Y-8012031D01*
X-541723Y-8012031D02*
X-532199Y-8002508D01*
X-532199Y-8002508D02*
X-513151Y-7992984D01*
X-379818Y-7992984D02*
X-256009Y-7992984D01*
X-256009Y-7992984D02*
X-322675Y-8069174D01*
X-322675Y-8069174D02*
X-294104Y-8069174D01*
X-294104Y-8069174D02*
X-275056Y-8078698D01*
X-275056Y-8078698D02*
X-265532Y-8088222D01*
X-265532Y-8088222D02*
X-256009Y-8107269D01*
X-256009Y-8107269D02*
X-256009Y-8154888D01*
X-256009Y-8154888D02*
X-265532Y-8173936D01*
X-265532Y-8173936D02*
X-275056Y-8183460D01*
X-275056Y-8183460D02*
X-294104Y-8192984D01*
X-294104Y-8192984D02*
X-351247Y-8192984D01*
X-351247Y-8192984D02*
X-370294Y-8183460D01*
X-370294Y-8183460D02*
X-379818Y-8173936D01*
X-160771Y-8192984D02*
X-122675Y-8192984D01*
X-122675Y-8192984D02*
X-103628Y-8183460D01*
X-103628Y-8183460D02*
X-94104Y-8173936D01*
X-94104Y-8173936D02*
X-75056Y-8145365D01*
X-75056Y-8145365D02*
X-65532Y-8107269D01*
X-65532Y-8107269D02*
X-65532Y-8031079D01*
X-65532Y-8031079D02*
X-75056Y-8012031D01*
X-75056Y-8012031D02*
X-84580Y-8002508D01*
X-84580Y-8002508D02*
X-103628Y-7992984D01*
X-103628Y-7992984D02*
X-141723Y-7992984D01*
X-141723Y-7992984D02*
X-160771Y-8002508D01*
X-160771Y-8002508D02*
X-170294Y-8012031D01*
X-170294Y-8012031D02*
X-179818Y-8031079D01*
X-179818Y-8031079D02*
X-179818Y-8078698D01*
X-179818Y-8078698D02*
X-170294Y-8097746D01*
X-170294Y-8097746D02*
X-160771Y-8107269D01*
X-160771Y-8107269D02*
X-141723Y-8116793D01*
X-141723Y-8116793D02*
X-103628Y-8116793D01*
X-103628Y-8116793D02*
X-84580Y-8107269D01*
X-84580Y-8107269D02*
X-75056Y-8097746D01*
X-75056Y-8097746D02*
X-65532Y-8078698D01*
X105896Y-8059650D02*
X105896Y-8192984D01*
X58277Y-7983460D02*
X10658Y-8126317D01*
X10658Y-8126317D02*
X134468Y-8126317D01*
X201134Y-7992984D02*
X201134Y-8031079D01*
X277325Y-7992984D02*
X277325Y-8031079D01*
X572563Y-8269174D02*
X563039Y-8259650D01*
X563039Y-8259650D02*
X543991Y-8231079D01*
X543991Y-8231079D02*
X534468Y-8212031D01*
X534468Y-8212031D02*
X524944Y-8183460D01*
X524944Y-8183460D02*
X515420Y-8135841D01*
X515420Y-8135841D02*
X515420Y-8097746D01*
X515420Y-8097746D02*
X524944Y-8050127D01*
X524944Y-8050127D02*
X534468Y-8021555D01*
X534468Y-8021555D02*
X543991Y-8002508D01*
X543991Y-8002508D02*
X563039Y-7973936D01*
X563039Y-7973936D02*
X572563Y-7964412D01*
X734468Y-8059650D02*
X734468Y-8192984D01*
X686849Y-7983460D02*
X639230Y-8126317D01*
X639230Y-8126317D02*
X763039Y-8126317D01*
X991610Y-8192984D02*
X991610Y-7992984D01*
X1077325Y-8192984D02*
X1077325Y-8088222D01*
X1077325Y-8088222D02*
X1067801Y-8069174D01*
X1067801Y-8069174D02*
X1048753Y-8059650D01*
X1048753Y-8059650D02*
X1020182Y-8059650D01*
X1020182Y-8059650D02*
X1001134Y-8069174D01*
X1001134Y-8069174D02*
X991610Y-8078698D01*
X1201134Y-8192984D02*
X1182087Y-8183460D01*
X1182087Y-8183460D02*
X1172563Y-8173936D01*
X1172563Y-8173936D02*
X1163039Y-8154888D01*
X1163039Y-8154888D02*
X1163039Y-8097746D01*
X1163039Y-8097746D02*
X1172563Y-8078698D01*
X1172563Y-8078698D02*
X1182087Y-8069174D01*
X1182087Y-8069174D02*
X1201134Y-8059650D01*
X1201134Y-8059650D02*
X1229706Y-8059650D01*
X1229706Y-8059650D02*
X1248753Y-8069174D01*
X1248753Y-8069174D02*
X1258277Y-8078698D01*
X1258277Y-8078698D02*
X1267801Y-8097746D01*
X1267801Y-8097746D02*
X1267801Y-8154888D01*
X1267801Y-8154888D02*
X1258277Y-8173936D01*
X1258277Y-8173936D02*
X1248753Y-8183460D01*
X1248753Y-8183460D02*
X1229706Y-8192984D01*
X1229706Y-8192984D02*
X1201134Y-8192984D01*
X1382087Y-8192984D02*
X1363039Y-8183460D01*
X1363039Y-8183460D02*
X1353515Y-8164412D01*
X1353515Y-8164412D02*
X1353515Y-7992984D01*
X1534468Y-8183460D02*
X1515420Y-8192984D01*
X1515420Y-8192984D02*
X1477325Y-8192984D01*
X1477325Y-8192984D02*
X1458277Y-8183460D01*
X1458277Y-8183460D02*
X1448753Y-8164412D01*
X1448753Y-8164412D02*
X1448753Y-8088222D01*
X1448753Y-8088222D02*
X1458277Y-8069174D01*
X1458277Y-8069174D02*
X1477325Y-8059650D01*
X1477325Y-8059650D02*
X1515420Y-8059650D01*
X1515420Y-8059650D02*
X1534468Y-8069174D01*
X1534468Y-8069174D02*
X1543991Y-8088222D01*
X1543991Y-8088222D02*
X1543991Y-8107269D01*
X1543991Y-8107269D02*
X1448753Y-8126317D01*
X1620182Y-8183460D02*
X1639230Y-8192984D01*
X1639230Y-8192984D02*
X1677325Y-8192984D01*
X1677325Y-8192984D02*
X1696372Y-8183460D01*
X1696372Y-8183460D02*
X1705896Y-8164412D01*
X1705896Y-8164412D02*
X1705896Y-8154888D01*
X1705896Y-8154888D02*
X1696372Y-8135841D01*
X1696372Y-8135841D02*
X1677325Y-8126317D01*
X1677325Y-8126317D02*
X1648753Y-8126317D01*
X1648753Y-8126317D02*
X1629706Y-8116793D01*
X1629706Y-8116793D02*
X1620182Y-8097746D01*
X1620182Y-8097746D02*
X1620182Y-8088222D01*
X1620182Y-8088222D02*
X1629706Y-8069174D01*
X1629706Y-8069174D02*
X1648753Y-8059650D01*
X1648753Y-8059650D02*
X1677325Y-8059650D01*
X1677325Y-8059650D02*
X1696372Y-8069174D01*
X1943992Y-8116793D02*
X2096373Y-8116793D01*
X2020182Y-8192984D02*
X2020182Y-8040603D01*
X2324944Y-7992984D02*
X2448754Y-7992984D01*
X2448754Y-7992984D02*
X2382087Y-8069174D01*
X2382087Y-8069174D02*
X2410658Y-8069174D01*
X2410658Y-8069174D02*
X2429706Y-8078698D01*
X2429706Y-8078698D02*
X2439230Y-8088222D01*
X2439230Y-8088222D02*
X2448754Y-8107269D01*
X2448754Y-8107269D02*
X2448754Y-8154888D01*
X2448754Y-8154888D02*
X2439230Y-8173936D01*
X2439230Y-8173936D02*
X2429706Y-8183460D01*
X2429706Y-8183460D02*
X2410658Y-8192984D01*
X2410658Y-8192984D02*
X2353515Y-8192984D01*
X2353515Y-8192984D02*
X2334468Y-8183460D01*
X2334468Y-8183460D02*
X2324944Y-8173936D01*
X2677325Y-8183460D02*
X2696373Y-8192984D01*
X2696373Y-8192984D02*
X2734468Y-8192984D01*
X2734468Y-8192984D02*
X2753516Y-8183460D01*
X2753516Y-8183460D02*
X2763039Y-8164412D01*
X2763039Y-8164412D02*
X2763039Y-8154888D01*
X2763039Y-8154888D02*
X2753516Y-8135841D01*
X2753516Y-8135841D02*
X2734468Y-8126317D01*
X2734468Y-8126317D02*
X2705896Y-8126317D01*
X2705896Y-8126317D02*
X2686849Y-8116793D01*
X2686849Y-8116793D02*
X2677325Y-8097746D01*
X2677325Y-8097746D02*
X2677325Y-8088222D01*
X2677325Y-8088222D02*
X2686849Y-8069174D01*
X2686849Y-8069174D02*
X2705896Y-8059650D01*
X2705896Y-8059650D02*
X2734468Y-8059650D01*
X2734468Y-8059650D02*
X2753516Y-8069174D01*
X2877325Y-8192984D02*
X2858277Y-8183460D01*
X2858277Y-8183460D02*
X2848754Y-8164412D01*
X2848754Y-8164412D02*
X2848754Y-7992984D01*
X2982087Y-8192984D02*
X2963039Y-8183460D01*
X2963039Y-8183460D02*
X2953515Y-8173936D01*
X2953515Y-8173936D02*
X2943992Y-8154888D01*
X2943992Y-8154888D02*
X2943992Y-8097746D01*
X2943992Y-8097746D02*
X2953515Y-8078698D01*
X2953515Y-8078698D02*
X2963039Y-8069174D01*
X2963039Y-8069174D02*
X2982087Y-8059650D01*
X2982087Y-8059650D02*
X3010658Y-8059650D01*
X3010658Y-8059650D02*
X3029706Y-8069174D01*
X3029706Y-8069174D02*
X3039230Y-8078698D01*
X3039230Y-8078698D02*
X3048754Y-8097746D01*
X3048754Y-8097746D02*
X3048754Y-8154888D01*
X3048754Y-8154888D02*
X3039230Y-8173936D01*
X3039230Y-8173936D02*
X3029706Y-8183460D01*
X3029706Y-8183460D02*
X3010658Y-8192984D01*
X3010658Y-8192984D02*
X2982087Y-8192984D01*
X3105896Y-8059650D02*
X3182087Y-8059650D01*
X3134468Y-7992984D02*
X3134468Y-8164412D01*
X3134468Y-8164412D02*
X3143992Y-8183460D01*
X3143992Y-8183460D02*
X3163039Y-8192984D01*
X3163039Y-8192984D02*
X3182087Y-8192984D01*
X3239230Y-8183460D02*
X3258277Y-8192984D01*
X3258277Y-8192984D02*
X3296373Y-8192984D01*
X3296373Y-8192984D02*
X3315420Y-8183460D01*
X3315420Y-8183460D02*
X3324944Y-8164412D01*
X3324944Y-8164412D02*
X3324944Y-8154888D01*
X3324944Y-8154888D02*
X3315420Y-8135841D01*
X3315420Y-8135841D02*
X3296373Y-8126317D01*
X3296373Y-8126317D02*
X3267801Y-8126317D01*
X3267801Y-8126317D02*
X3248754Y-8116793D01*
X3248754Y-8116793D02*
X3239230Y-8097746D01*
X3239230Y-8097746D02*
X3239230Y-8088222D01*
X3239230Y-8088222D02*
X3248754Y-8069174D01*
X3248754Y-8069174D02*
X3267801Y-8059650D01*
X3267801Y-8059650D02*
X3296373Y-8059650D01*
X3296373Y-8059650D02*
X3315420Y-8069174D01*
X3391611Y-8269174D02*
X3401135Y-8259650D01*
X3401135Y-8259650D02*
X3420182Y-8231079D01*
X3420182Y-8231079D02*
X3429706Y-8212031D01*
X3429706Y-8212031D02*
X3439230Y-8183460D01*
X3439230Y-8183460D02*
X3448754Y-8135841D01*
X3448754Y-8135841D02*
X3448754Y-8097746D01*
X3448754Y-8097746D02*
X3439230Y-8050127D01*
X3439230Y-8050127D02*
X3429706Y-8021555D01*
X3429706Y-8021555D02*
X3420182Y-8002508D01*
X3420182Y-8002508D02*
X3401135Y-7973936D01*
X3401135Y-7973936D02*
X3391611Y-7964412D01*
M02*
