G04 #@! TF.GenerationSoftware,KiCad,Pcbnew,8.0.4*
G04 #@! TF.CreationDate,2025-01-23T14:05:32+11:00*
G04 #@! TF.ProjectId,Rotating_Cube_Shelf_2,526f7461-7469-46e6-975f-437562655f53,rev?*
G04 #@! TF.SameCoordinates,Original*
G04 #@! TF.FileFunction,Legend,Bot*
G04 #@! TF.FilePolarity,Positive*
%FSLAX46Y46*%
G04 Gerber Fmt 4.6, Leading zero omitted, Abs format (unit mm)*
G04 Created by KiCad (PCBNEW 8.0.4) date 2025-01-23 14:05:32*
%MOMM*%
%LPD*%
G01*
G04 APERTURE LIST*
G04 Aperture macros list*
%AMRoundRect*
0 Rectangle with rounded corners*
0 $1 Rounding radius*
0 $2 $3 $4 $5 $6 $7 $8 $9 X,Y pos of 4 corners*
0 Add a 4 corners polygon primitive as box body*
4,1,4,$2,$3,$4,$5,$6,$7,$8,$9,$2,$3,0*
0 Add four circle primitives for the rounded corners*
1,1,$1+$1,$2,$3*
1,1,$1+$1,$4,$5*
1,1,$1+$1,$6,$7*
1,1,$1+$1,$8,$9*
0 Add four rect primitives between the rounded corners*
20,1,$1+$1,$2,$3,$4,$5,0*
20,1,$1+$1,$4,$5,$6,$7,0*
20,1,$1+$1,$6,$7,$8,$9,0*
20,1,$1+$1,$8,$9,$2,$3,0*%
G04 Aperture macros list end*
%ADD10RoundRect,0.250000X-0.600000X-0.725000X0.600000X-0.725000X0.600000X0.725000X-0.600000X0.725000X0*%
%ADD11O,1.700000X1.950000*%
%ADD12C,1.000000*%
%ADD13R,1.600000X1.600000*%
%ADD14O,1.600000X1.600000*%
%ADD15RoundRect,0.250000X-0.725000X0.600000X-0.725000X-0.600000X0.725000X-0.600000X0.725000X0.600000X0*%
%ADD16O,1.950000X1.700000*%
%ADD17RoundRect,0.250000X0.725000X-0.600000X0.725000X0.600000X-0.725000X0.600000X-0.725000X-0.600000X0*%
%ADD18R,3.500000X3.500000*%
%ADD19RoundRect,0.750000X-1.000000X0.750000X-1.000000X-0.750000X1.000000X-0.750000X1.000000X0.750000X0*%
%ADD20RoundRect,0.875000X-0.875000X0.875000X-0.875000X-0.875000X0.875000X-0.875000X0.875000X0.875000X0*%
%ADD21C,3.200000*%
%ADD22R,1.700000X1.700000*%
%ADD23O,1.700000X1.700000*%
G04 APERTURE END LIST*
%LPC*%
D10*
X-2500000Y-18000000D03*
D11*
X0Y-18000000D03*
X2500000Y-18000000D03*
D12*
X-18500000Y-28500000D03*
D13*
X27800000Y23840000D03*
D14*
X25260000Y23840000D03*
X22720000Y23840000D03*
X20180000Y23840000D03*
X17640000Y23840000D03*
X15100000Y23840000D03*
X12560000Y23840000D03*
X10020000Y23840000D03*
X10020000Y11140000D03*
X12560000Y11140000D03*
X15100000Y11140000D03*
X17640000Y11140000D03*
X20180000Y11140000D03*
X22720000Y11140000D03*
X25260000Y11140000D03*
X27800000Y11140000D03*
D12*
X-14500000Y-15500000D03*
D15*
X-20050000Y37500000D03*
D16*
X-20050000Y35000000D03*
X-20050000Y32500000D03*
X-20050000Y30000000D03*
D17*
X20000000Y-39000000D03*
D16*
X20000000Y-36500000D03*
X20000000Y-34000000D03*
X20000000Y-31500000D03*
D12*
X-11500000Y40000000D03*
D18*
X0Y36000000D03*
D19*
X0Y42000000D03*
D20*
X-4700000Y39000000D03*
D21*
X27000000Y-55750000D03*
D17*
X20000000Y30000000D03*
D16*
X20000000Y32500000D03*
X20000000Y35000000D03*
X20000000Y37500000D03*
D22*
X-27000000Y-40880000D03*
D23*
X-27000000Y-43420000D03*
X-27000000Y-45960000D03*
X-27000000Y-48500000D03*
D21*
X-27000000Y-55750000D03*
D10*
X-2500000Y-25525000D03*
D11*
X0Y-25525000D03*
X2500000Y-25525000D03*
D21*
X27000000Y47000000D03*
X-27000000Y47000000D03*
D10*
X-2500000Y-33000000D03*
D11*
X0Y-33000000D03*
X2500000Y-33000000D03*
D13*
X10110000Y-25840000D03*
D14*
X12650000Y-25840000D03*
X15190000Y-25840000D03*
X17730000Y-25840000D03*
X20270000Y-25840000D03*
X22810000Y-25840000D03*
X25350000Y-25840000D03*
X27890000Y-25840000D03*
X27890000Y-13140000D03*
X25350000Y-13140000D03*
X22810000Y-13140000D03*
X20270000Y-13140000D03*
X17730000Y-13140000D03*
X15190000Y-13140000D03*
X12650000Y-13140000D03*
X10110000Y-13140000D03*
D13*
X-10000000Y23840000D03*
D14*
X-12540000Y23840000D03*
X-15080000Y23840000D03*
X-17620000Y23840000D03*
X-20160000Y23840000D03*
X-22700000Y23840000D03*
X-25240000Y23840000D03*
X-27780000Y23840000D03*
X-27780000Y11140000D03*
X-25240000Y11140000D03*
X-22700000Y11140000D03*
X-20160000Y11140000D03*
X-17620000Y11140000D03*
X-15080000Y11140000D03*
X-12540000Y11140000D03*
X-10000000Y11140000D03*
%LPD*%
M02*
