G04 #@! TF.GenerationSoftware,KiCad,Pcbnew,8.0.4*
G04 #@! TF.CreationDate,2025-01-23T14:05:32+11:00*
G04 #@! TF.ProjectId,Rotating_Cube_Shelf_2,526f7461-7469-46e6-975f-437562655f53,rev?*
G04 #@! TF.SameCoordinates,Original*
G04 #@! TF.FileFunction,Legend,Top*
G04 #@! TF.FilePolarity,Positive*
%FSLAX46Y46*%
G04 Gerber Fmt 4.6, Leading zero omitted, Abs format (unit mm)*
G04 Created by KiCad (PCBNEW 8.0.4) date 2025-01-23 14:05:32*
%MOMM*%
%LPD*%
G01*
G04 APERTURE LIST*
G04 Aperture macros list*
%AMRoundRect*
0 Rectangle with rounded corners*
0 $1 Rounding radius*
0 $2 $3 $4 $5 $6 $7 $8 $9 X,Y pos of 4 corners*
0 Add a 4 corners polygon primitive as box body*
4,1,4,$2,$3,$4,$5,$6,$7,$8,$9,$2,$3,0*
0 Add four circle primitives for the rounded corners*
1,1,$1+$1,$2,$3*
1,1,$1+$1,$4,$5*
1,1,$1+$1,$6,$7*
1,1,$1+$1,$8,$9*
0 Add four rect primitives between the rounded corners*
20,1,$1+$1,$2,$3,$4,$5,0*
20,1,$1+$1,$4,$5,$6,$7,0*
20,1,$1+$1,$6,$7,$8,$9,0*
20,1,$1+$1,$8,$9,$2,$3,0*%
G04 Aperture macros list end*
%ADD10C,0.150000*%
%ADD11C,0.200000*%
%ADD12C,0.100000*%
%ADD13C,0.300000*%
%ADD14C,0.120000*%
%ADD15C,0.000000*%
%ADD16C,0.127000*%
%ADD17C,0.010000*%
%ADD18RoundRect,0.250000X-0.600000X-0.725000X0.600000X-0.725000X0.600000X0.725000X-0.600000X0.725000X0*%
%ADD19O,1.700000X1.950000*%
%ADD20C,1.000000*%
%ADD21RoundRect,0.200000X0.275000X-0.200000X0.275000X0.200000X-0.275000X0.200000X-0.275000X-0.200000X0*%
%ADD22R,1.600000X1.600000*%
%ADD23O,1.600000X1.600000*%
%ADD24RoundRect,0.200000X-0.200000X-0.275000X0.200000X-0.275000X0.200000X0.275000X-0.200000X0.275000X0*%
%ADD25RoundRect,0.150000X-0.587500X-0.150000X0.587500X-0.150000X0.587500X0.150000X-0.587500X0.150000X0*%
%ADD26RoundRect,0.250000X-0.725000X0.600000X-0.725000X-0.600000X0.725000X-0.600000X0.725000X0.600000X0*%
%ADD27O,1.950000X1.700000*%
%ADD28RoundRect,0.250000X-0.550000X1.250000X-0.550000X-1.250000X0.550000X-1.250000X0.550000X1.250000X0*%
%ADD29RoundRect,0.250000X1.500000X1.000000X-1.500000X1.000000X-1.500000X-1.000000X1.500000X-1.000000X0*%
%ADD30RoundRect,0.225000X0.475000X0.225000X-0.475000X0.225000X-0.475000X-0.225000X0.475000X-0.225000X0*%
%ADD31RoundRect,0.243750X-0.243750X-0.456250X0.243750X-0.456250X0.243750X0.456250X-0.243750X0.456250X0*%
%ADD32RoundRect,0.243750X0.243750X0.456250X-0.243750X0.456250X-0.243750X-0.456250X0.243750X-0.456250X0*%
%ADD33RoundRect,0.250000X0.725000X-0.600000X0.725000X0.600000X-0.725000X0.600000X-0.725000X-0.600000X0*%
%ADD34RoundRect,0.225000X0.225000X0.250000X-0.225000X0.250000X-0.225000X-0.250000X0.225000X-0.250000X0*%
%ADD35RoundRect,0.250000X1.750000X1.000000X-1.750000X1.000000X-1.750000X-1.000000X1.750000X-1.000000X0*%
%ADD36R,3.500000X3.500000*%
%ADD37RoundRect,0.750000X-1.000000X0.750000X-1.000000X-0.750000X1.000000X-0.750000X1.000000X0.750000X0*%
%ADD38RoundRect,0.875000X-0.875000X0.875000X-0.875000X-0.875000X0.875000X-0.875000X0.875000X0.875000X0*%
%ADD39RoundRect,0.250000X1.000000X0.650000X-1.000000X0.650000X-1.000000X-0.650000X1.000000X-0.650000X0*%
%ADD40C,0.600000*%
%ADD41R,4.200000X4.200000*%
%ADD42R,1.500000X0.900000*%
%ADD43R,0.900000X1.500000*%
%ADD44C,3.200000*%
%ADD45R,1.700000X1.700000*%
%ADD46O,1.700000X1.700000*%
%ADD47RoundRect,0.250000X1.000000X-1.500000X1.000000X1.500000X-1.000000X1.500000X-1.000000X-1.500000X0*%
%ADD48RoundRect,0.375000X-0.375000X0.625000X-0.375000X-0.625000X0.375000X-0.625000X0.375000X0.625000X0*%
%ADD49RoundRect,0.500000X-1.400000X0.500000X-1.400000X-0.500000X1.400000X-0.500000X1.400000X0.500000X0*%
%ADD50RoundRect,0.250000X-0.250000X-0.475000X0.250000X-0.475000X0.250000X0.475000X-0.250000X0.475000X0*%
%ADD51RoundRect,0.225000X-0.250000X0.225000X-0.250000X-0.225000X0.250000X-0.225000X0.250000X0.225000X0*%
%ADD52RoundRect,0.200000X-0.275000X0.200000X-0.275000X-0.200000X0.275000X-0.200000X0.275000X0.200000X0*%
%ADD53RoundRect,0.250000X0.325000X0.650000X-0.325000X0.650000X-0.325000X-0.650000X0.325000X-0.650000X0*%
%ADD54RoundRect,0.250000X0.250000X0.475000X-0.250000X0.475000X-0.250000X-0.475000X0.250000X-0.475000X0*%
%ADD55RoundRect,0.225000X-0.475000X-0.225000X0.475000X-0.225000X0.475000X0.225000X-0.475000X0.225000X0*%
%ADD56RoundRect,0.250000X0.550000X-1.250000X0.550000X1.250000X-0.550000X1.250000X-0.550000X-1.250000X0*%
%ADD57RoundRect,0.725000X1.975000X0.725000X-1.975000X0.725000X-1.975000X-0.725000X1.975000X-0.725000X0*%
%ADD58RoundRect,0.102000X-0.535000X1.080000X-0.535000X-1.080000X0.535000X-1.080000X0.535000X1.080000X0*%
%ADD59RoundRect,0.250000X-1.750000X-1.000000X1.750000X-1.000000X1.750000X1.000000X-1.750000X1.000000X0*%
G04 APERTURE END LIST*
D10*
X18183333Y-45406533D02*
X18183333Y-44706533D01*
X18183333Y-44706533D02*
X18350000Y-44706533D01*
X18350000Y-44706533D02*
X18450000Y-44739866D01*
X18450000Y-44739866D02*
X18516667Y-44806533D01*
X18516667Y-44806533D02*
X18550000Y-44873200D01*
X18550000Y-44873200D02*
X18583333Y-45006533D01*
X18583333Y-45006533D02*
X18583333Y-45106533D01*
X18583333Y-45106533D02*
X18550000Y-45239866D01*
X18550000Y-45239866D02*
X18516667Y-45306533D01*
X18516667Y-45306533D02*
X18450000Y-45373200D01*
X18450000Y-45373200D02*
X18350000Y-45406533D01*
X18350000Y-45406533D02*
X18183333Y-45406533D01*
X18883333Y-45039866D02*
X19116667Y-45039866D01*
X19216667Y-45406533D02*
X18883333Y-45406533D01*
X18883333Y-45406533D02*
X18883333Y-44706533D01*
X18883333Y-44706533D02*
X19216667Y-44706533D01*
X19750000Y-45039866D02*
X19850000Y-45073200D01*
X19850000Y-45073200D02*
X19883333Y-45106533D01*
X19883333Y-45106533D02*
X19916666Y-45173200D01*
X19916666Y-45173200D02*
X19916666Y-45273200D01*
X19916666Y-45273200D02*
X19883333Y-45339866D01*
X19883333Y-45339866D02*
X19850000Y-45373200D01*
X19850000Y-45373200D02*
X19783333Y-45406533D01*
X19783333Y-45406533D02*
X19516666Y-45406533D01*
X19516666Y-45406533D02*
X19516666Y-44706533D01*
X19516666Y-44706533D02*
X19750000Y-44706533D01*
X19750000Y-44706533D02*
X19816666Y-44739866D01*
X19816666Y-44739866D02*
X19850000Y-44773200D01*
X19850000Y-44773200D02*
X19883333Y-44839866D01*
X19883333Y-44839866D02*
X19883333Y-44906533D01*
X19883333Y-44906533D02*
X19850000Y-44973200D01*
X19850000Y-44973200D02*
X19816666Y-45006533D01*
X19816666Y-45006533D02*
X19750000Y-45039866D01*
X19750000Y-45039866D02*
X19516666Y-45039866D01*
X20216666Y-44706533D02*
X20216666Y-45273200D01*
X20216666Y-45273200D02*
X20250000Y-45339866D01*
X20250000Y-45339866D02*
X20283333Y-45373200D01*
X20283333Y-45373200D02*
X20350000Y-45406533D01*
X20350000Y-45406533D02*
X20483333Y-45406533D01*
X20483333Y-45406533D02*
X20550000Y-45373200D01*
X20550000Y-45373200D02*
X20583333Y-45339866D01*
X20583333Y-45339866D02*
X20616666Y-45273200D01*
X20616666Y-45273200D02*
X20616666Y-44706533D01*
X21316666Y-44739866D02*
X21249999Y-44706533D01*
X21249999Y-44706533D02*
X21149999Y-44706533D01*
X21149999Y-44706533D02*
X21049999Y-44739866D01*
X21049999Y-44739866D02*
X20983333Y-44806533D01*
X20983333Y-44806533D02*
X20949999Y-44873200D01*
X20949999Y-44873200D02*
X20916666Y-45006533D01*
X20916666Y-45006533D02*
X20916666Y-45106533D01*
X20916666Y-45106533D02*
X20949999Y-45239866D01*
X20949999Y-45239866D02*
X20983333Y-45306533D01*
X20983333Y-45306533D02*
X21049999Y-45373200D01*
X21049999Y-45373200D02*
X21149999Y-45406533D01*
X21149999Y-45406533D02*
X21216666Y-45406533D01*
X21216666Y-45406533D02*
X21316666Y-45373200D01*
X21316666Y-45373200D02*
X21349999Y-45339866D01*
X21349999Y-45339866D02*
X21349999Y-45106533D01*
X21349999Y-45106533D02*
X21216666Y-45106533D01*
D11*
X18250000Y-48750000D02*
G75*
G02*
X17250000Y-47750000I0J1000000D01*
G01*
X22250000Y-47750000D02*
G75*
G02*
X21250000Y-48750000I-1000000J0D01*
G01*
X17250000Y-47750000D02*
X17250000Y-44000000D01*
X21250000Y-48750000D02*
X18250000Y-48750000D01*
X22250000Y-44000000D02*
X22250000Y-47750000D01*
X-23414214Y-38500000D02*
X-30000000Y-38500000D01*
X22875000Y3750000D02*
X22875000Y7250000D01*
X-3000000Y-14500000D02*
X-3000000Y-3250000D01*
X-23414214Y-38500000D02*
G75*
G02*
X-21414214Y-40500000I1J-1999999D01*
G01*
X-1000000Y29500000D02*
X1000000Y29500000D01*
X6250000Y30000000D02*
X-6000000Y30000000D01*
X10500000Y-3250000D02*
X10500000Y9250000D01*
X23750000Y-44000000D02*
X30000000Y-44000000D01*
X10500000Y9250000D02*
X7750000Y9250000D01*
X4000000Y26500000D02*
X4000000Y16000000D01*
X-6000000Y36500000D02*
X-8500000Y36500000D01*
X-21414214Y-40500000D02*
X-21414214Y-49000000D01*
X-4000000Y24000000D02*
X4000000Y24000000D01*
X4000000Y18500000D01*
X-4000000Y18500000D01*
X-4000000Y24000000D01*
X10500000Y-10000000D02*
X10500000Y-3250000D01*
X-7750000Y-31000000D02*
X-23414214Y-31000000D01*
X-7600000Y-14600000D02*
X6500000Y-14600000D01*
X6500000Y-37250000D01*
X-7600000Y-37250000D01*
X-7600000Y-14600000D01*
X17000000Y-44000000D02*
X23750000Y-44000000D01*
X6250000Y12000000D02*
X6250000Y41250000D01*
X6500000Y-37250000D02*
X13000000Y-37250000D01*
X6250000Y41250000D02*
X18500000Y41250000D01*
X13000000Y-37250000D02*
X13000000Y-44000000D01*
X29875000Y3750000D02*
X22875000Y3750000D01*
X-3000000Y-3250000D02*
X10500000Y-3250000D01*
X-6000000Y12000000D02*
X-6000000Y9250000D01*
X-21414214Y-49000000D02*
G75*
G02*
X-23414214Y-50999999I-1999999J0D01*
G01*
D12*
X-25600000Y-44750000D02*
X-23500000Y-44750000D01*
D11*
X1000000Y13000000D02*
X-1000000Y13000000D01*
X-7750000Y-17000000D02*
X-30000000Y-17000000D01*
X18500000Y41250000D02*
X18500000Y43500000D01*
X7750000Y12000000D02*
X-6000000Y12000000D01*
X-6000000Y9250000D02*
X-30000000Y9250000D01*
X30000000Y-8250000D02*
X23000000Y-8250000D01*
X-30000000Y-31000000D02*
X-23414214Y-31000000D01*
X-6000000Y12000000D02*
X-6000000Y36500000D01*
X13000000Y-44000000D02*
X17000000Y-44000000D01*
X23000000Y-2250000D02*
X23000000Y1250000D01*
X6250000Y41250000D02*
X6250000Y50000000D01*
X-8500000Y36500000D02*
X-8500000Y42250000D01*
X-1000000Y13000000D02*
G75*
G02*
X-4000000Y16000000I3J3000003D01*
G01*
X30000000Y-2250000D02*
X23000000Y-2250000D01*
D12*
X-25670000Y-42150000D02*
X-23670000Y-42150000D01*
D11*
X-23000000Y49000000D02*
X-20800000Y49000000D01*
X-20000000Y49000000D02*
X-17800000Y49000000D01*
X-17000000Y49000000D02*
X-14800000Y49000000D01*
X-14000000Y49000000D02*
X-11800000Y49000000D01*
X-11000000Y49000000D02*
X-8800000Y49000000D01*
X-8000000Y49000000D02*
X-5800000Y49000000D01*
X-5500000Y49000000D02*
X-5500000Y46800000D01*
X-5500000Y46000000D02*
X-5500000Y43800000D01*
X-5500000Y43500000D02*
X-7700000Y43500000D01*
X-8500000Y43500000D02*
X-10700000Y43500000D01*
X-11500000Y43500000D02*
X-13700000Y43500000D01*
X-14500000Y43500000D02*
X-16700000Y43500000D01*
X-17500000Y43500000D02*
X-19700000Y43500000D01*
X-20500000Y43500000D02*
X-22700000Y43500000D01*
X-23000000Y43500000D02*
X-23000000Y45700000D01*
X-23000000Y46500000D02*
X-23000000Y48700000D01*
X7750000Y9250000D02*
X7750000Y12000000D01*
X18500000Y43500000D02*
X18500000Y50000000D01*
X-8500000Y42250000D02*
X-30000000Y42250000D01*
X23000000Y-4750000D02*
X30000000Y-4750000D01*
X-4000000Y16000000D02*
X-4000000Y26500000D01*
X22875000Y7250000D02*
X29875000Y7250000D01*
D12*
X-25600000Y-47500000D02*
X-23500000Y-47500000D01*
D11*
X30000000Y-10000000D02*
X10500000Y-10000000D01*
X1000000Y29500000D02*
G75*
G02*
X4000000Y26500000I0J-3000000D01*
G01*
X18500000Y43500000D02*
X30000000Y43500000D01*
X23000000Y-8250000D02*
X23000000Y-4750000D01*
X4000000Y16000000D02*
G75*
G02*
X1000000Y13000000I-3000001J1D01*
G01*
X23000000Y1250000D02*
X30000000Y1250000D01*
X-4000000Y26500000D02*
G75*
G02*
X-1000000Y29500000I3000001J-1D01*
G01*
X-23414214Y-51000000D02*
X-30000000Y-51000000D01*
X11343409Y-53630326D02*
X11343409Y-53296993D01*
X11867219Y-53154136D02*
X11867219Y-53630326D01*
X11867219Y-53630326D02*
X10867219Y-53630326D01*
X10867219Y-53630326D02*
X10867219Y-53154136D01*
X11819600Y-52773183D02*
X11867219Y-52630326D01*
X11867219Y-52630326D02*
X11867219Y-52392231D01*
X11867219Y-52392231D02*
X11819600Y-52296993D01*
X11819600Y-52296993D02*
X11771980Y-52249374D01*
X11771980Y-52249374D02*
X11676742Y-52201755D01*
X11676742Y-52201755D02*
X11581504Y-52201755D01*
X11581504Y-52201755D02*
X11486266Y-52249374D01*
X11486266Y-52249374D02*
X11438647Y-52296993D01*
X11438647Y-52296993D02*
X11391028Y-52392231D01*
X11391028Y-52392231D02*
X11343409Y-52582707D01*
X11343409Y-52582707D02*
X11295790Y-52677945D01*
X11295790Y-52677945D02*
X11248171Y-52725564D01*
X11248171Y-52725564D02*
X11152933Y-52773183D01*
X11152933Y-52773183D02*
X11057695Y-52773183D01*
X11057695Y-52773183D02*
X10962457Y-52725564D01*
X10962457Y-52725564D02*
X10914838Y-52677945D01*
X10914838Y-52677945D02*
X10867219Y-52582707D01*
X10867219Y-52582707D02*
X10867219Y-52344612D01*
X10867219Y-52344612D02*
X10914838Y-52201755D01*
X11867219Y-51773183D02*
X10867219Y-51773183D01*
X10867219Y-51773183D02*
X10867219Y-51392231D01*
X10867219Y-51392231D02*
X10914838Y-51296993D01*
X10914838Y-51296993D02*
X10962457Y-51249374D01*
X10962457Y-51249374D02*
X11057695Y-51201755D01*
X11057695Y-51201755D02*
X11200552Y-51201755D01*
X11200552Y-51201755D02*
X11295790Y-51249374D01*
X11295790Y-51249374D02*
X11343409Y-51296993D01*
X11343409Y-51296993D02*
X11391028Y-51392231D01*
X11391028Y-51392231D02*
X11391028Y-51773183D01*
X10867219Y-50868421D02*
X10867219Y-50249374D01*
X10867219Y-50249374D02*
X11248171Y-50582707D01*
X11248171Y-50582707D02*
X11248171Y-50439850D01*
X11248171Y-50439850D02*
X11295790Y-50344612D01*
X11295790Y-50344612D02*
X11343409Y-50296993D01*
X11343409Y-50296993D02*
X11438647Y-50249374D01*
X11438647Y-50249374D02*
X11676742Y-50249374D01*
X11676742Y-50249374D02*
X11771980Y-50296993D01*
X11771980Y-50296993D02*
X11819600Y-50344612D01*
X11819600Y-50344612D02*
X11867219Y-50439850D01*
X11867219Y-50439850D02*
X11867219Y-50725564D01*
X11867219Y-50725564D02*
X11819600Y-50820802D01*
X11819600Y-50820802D02*
X11771980Y-50868421D01*
X10962457Y-49868421D02*
X10914838Y-49820802D01*
X10914838Y-49820802D02*
X10867219Y-49725564D01*
X10867219Y-49725564D02*
X10867219Y-49487469D01*
X10867219Y-49487469D02*
X10914838Y-49392231D01*
X10914838Y-49392231D02*
X10962457Y-49344612D01*
X10962457Y-49344612D02*
X11057695Y-49296993D01*
X11057695Y-49296993D02*
X11152933Y-49296993D01*
X11152933Y-49296993D02*
X11295790Y-49344612D01*
X11295790Y-49344612D02*
X11867219Y-49916040D01*
X11867219Y-49916040D02*
X11867219Y-49296993D01*
X11486266Y-48868421D02*
X11486266Y-48106517D01*
X10867219Y-47725564D02*
X11867219Y-47487469D01*
X11867219Y-47487469D02*
X11152933Y-47296993D01*
X11152933Y-47296993D02*
X11867219Y-47106517D01*
X11867219Y-47106517D02*
X10867219Y-46868422D01*
X11867219Y-45916041D02*
X11391028Y-46249374D01*
X11867219Y-46487469D02*
X10867219Y-46487469D01*
X10867219Y-46487469D02*
X10867219Y-46106517D01*
X10867219Y-46106517D02*
X10914838Y-46011279D01*
X10914838Y-46011279D02*
X10962457Y-45963660D01*
X10962457Y-45963660D02*
X11057695Y-45916041D01*
X11057695Y-45916041D02*
X11200552Y-45916041D01*
X11200552Y-45916041D02*
X11295790Y-45963660D01*
X11295790Y-45963660D02*
X11343409Y-46011279D01*
X11343409Y-46011279D02*
X11391028Y-46106517D01*
X11391028Y-46106517D02*
X11391028Y-46487469D01*
X10867219Y-45296993D02*
X10867219Y-45106517D01*
X10867219Y-45106517D02*
X10914838Y-45011279D01*
X10914838Y-45011279D02*
X11010076Y-44916041D01*
X11010076Y-44916041D02*
X11200552Y-44868422D01*
X11200552Y-44868422D02*
X11533885Y-44868422D01*
X11533885Y-44868422D02*
X11724361Y-44916041D01*
X11724361Y-44916041D02*
X11819600Y-45011279D01*
X11819600Y-45011279D02*
X11867219Y-45106517D01*
X11867219Y-45106517D02*
X11867219Y-45296993D01*
X11867219Y-45296993D02*
X11819600Y-45392231D01*
X11819600Y-45392231D02*
X11724361Y-45487469D01*
X11724361Y-45487469D02*
X11533885Y-45535088D01*
X11533885Y-45535088D02*
X11200552Y-45535088D01*
X11200552Y-45535088D02*
X11010076Y-45487469D01*
X11010076Y-45487469D02*
X10914838Y-45392231D01*
X10914838Y-45392231D02*
X10867219Y-45296993D01*
X10867219Y-44249374D02*
X10867219Y-44058898D01*
X10867219Y-44058898D02*
X10914838Y-43963660D01*
X10914838Y-43963660D02*
X11010076Y-43868422D01*
X11010076Y-43868422D02*
X11200552Y-43820803D01*
X11200552Y-43820803D02*
X11533885Y-43820803D01*
X11533885Y-43820803D02*
X11724361Y-43868422D01*
X11724361Y-43868422D02*
X11819600Y-43963660D01*
X11819600Y-43963660D02*
X11867219Y-44058898D01*
X11867219Y-44058898D02*
X11867219Y-44249374D01*
X11867219Y-44249374D02*
X11819600Y-44344612D01*
X11819600Y-44344612D02*
X11724361Y-44439850D01*
X11724361Y-44439850D02*
X11533885Y-44487469D01*
X11533885Y-44487469D02*
X11200552Y-44487469D01*
X11200552Y-44487469D02*
X11010076Y-44439850D01*
X11010076Y-44439850D02*
X10914838Y-44344612D01*
X10914838Y-44344612D02*
X10867219Y-44249374D01*
X11867219Y-43392231D02*
X10867219Y-43392231D01*
X10867219Y-43392231D02*
X11581504Y-43058898D01*
X11581504Y-43058898D02*
X10867219Y-42725565D01*
X10867219Y-42725565D02*
X11867219Y-42725565D01*
X-21558898Y46632780D02*
X-21892231Y47108971D01*
X-22130326Y46632780D02*
X-22130326Y47632780D01*
X-22130326Y47632780D02*
X-21749374Y47632780D01*
X-21749374Y47632780D02*
X-21654136Y47585161D01*
X-21654136Y47585161D02*
X-21606517Y47537542D01*
X-21606517Y47537542D02*
X-21558898Y47442304D01*
X-21558898Y47442304D02*
X-21558898Y47299447D01*
X-21558898Y47299447D02*
X-21606517Y47204209D01*
X-21606517Y47204209D02*
X-21654136Y47156590D01*
X-21654136Y47156590D02*
X-21749374Y47108971D01*
X-21749374Y47108971D02*
X-22130326Y47108971D01*
X-20558898Y46728019D02*
X-20606517Y46680400D01*
X-20606517Y46680400D02*
X-20749374Y46632780D01*
X-20749374Y46632780D02*
X-20844612Y46632780D01*
X-20844612Y46632780D02*
X-20987469Y46680400D01*
X-20987469Y46680400D02*
X-21082707Y46775638D01*
X-21082707Y46775638D02*
X-21130326Y46870876D01*
X-21130326Y46870876D02*
X-21177945Y47061352D01*
X-21177945Y47061352D02*
X-21177945Y47204209D01*
X-21177945Y47204209D02*
X-21130326Y47394685D01*
X-21130326Y47394685D02*
X-21082707Y47489923D01*
X-21082707Y47489923D02*
X-20987469Y47585161D01*
X-20987469Y47585161D02*
X-20844612Y47632780D01*
X-20844612Y47632780D02*
X-20749374Y47632780D01*
X-20749374Y47632780D02*
X-20606517Y47585161D01*
X-20606517Y47585161D02*
X-20558898Y47537542D01*
X-20177945Y46680400D02*
X-20035088Y46632780D01*
X-20035088Y46632780D02*
X-19796993Y46632780D01*
X-19796993Y46632780D02*
X-19701755Y46680400D01*
X-19701755Y46680400D02*
X-19654136Y46728019D01*
X-19654136Y46728019D02*
X-19606517Y46823257D01*
X-19606517Y46823257D02*
X-19606517Y46918495D01*
X-19606517Y46918495D02*
X-19654136Y47013733D01*
X-19654136Y47013733D02*
X-19701755Y47061352D01*
X-19701755Y47061352D02*
X-19796993Y47108971D01*
X-19796993Y47108971D02*
X-19987469Y47156590D01*
X-19987469Y47156590D02*
X-20082707Y47204209D01*
X-20082707Y47204209D02*
X-20130326Y47251828D01*
X-20130326Y47251828D02*
X-20177945Y47347066D01*
X-20177945Y47347066D02*
X-20177945Y47442304D01*
X-20177945Y47442304D02*
X-20130326Y47537542D01*
X-20130326Y47537542D02*
X-20082707Y47585161D01*
X-20082707Y47585161D02*
X-19987469Y47632780D01*
X-19987469Y47632780D02*
X-19749374Y47632780D01*
X-19749374Y47632780D02*
X-19606517Y47585161D01*
X-19416041Y46537542D02*
X-18654136Y46537542D01*
X-17844612Y46728019D02*
X-17892231Y46680400D01*
X-17892231Y46680400D02*
X-18035088Y46632780D01*
X-18035088Y46632780D02*
X-18130326Y46632780D01*
X-18130326Y46632780D02*
X-18273183Y46680400D01*
X-18273183Y46680400D02*
X-18368421Y46775638D01*
X-18368421Y46775638D02*
X-18416040Y46870876D01*
X-18416040Y46870876D02*
X-18463659Y47061352D01*
X-18463659Y47061352D02*
X-18463659Y47204209D01*
X-18463659Y47204209D02*
X-18416040Y47394685D01*
X-18416040Y47394685D02*
X-18368421Y47489923D01*
X-18368421Y47489923D02*
X-18273183Y47585161D01*
X-18273183Y47585161D02*
X-18130326Y47632780D01*
X-18130326Y47632780D02*
X-18035088Y47632780D01*
X-18035088Y47632780D02*
X-17892231Y47585161D01*
X-17892231Y47585161D02*
X-17844612Y47537542D01*
X-17273183Y46632780D02*
X-17368421Y46680400D01*
X-17368421Y46680400D02*
X-17416040Y46728019D01*
X-17416040Y46728019D02*
X-17463659Y46823257D01*
X-17463659Y46823257D02*
X-17463659Y47108971D01*
X-17463659Y47108971D02*
X-17416040Y47204209D01*
X-17416040Y47204209D02*
X-17368421Y47251828D01*
X-17368421Y47251828D02*
X-17273183Y47299447D01*
X-17273183Y47299447D02*
X-17130326Y47299447D01*
X-17130326Y47299447D02*
X-17035088Y47251828D01*
X-17035088Y47251828D02*
X-16987469Y47204209D01*
X-16987469Y47204209D02*
X-16939850Y47108971D01*
X-16939850Y47108971D02*
X-16939850Y46823257D01*
X-16939850Y46823257D02*
X-16987469Y46728019D01*
X-16987469Y46728019D02*
X-17035088Y46680400D01*
X-17035088Y46680400D02*
X-17130326Y46632780D01*
X-17130326Y46632780D02*
X-17273183Y46632780D01*
X-16511278Y47299447D02*
X-16511278Y46632780D01*
X-16511278Y47204209D02*
X-16463659Y47251828D01*
X-16463659Y47251828D02*
X-16368421Y47299447D01*
X-16368421Y47299447D02*
X-16225564Y47299447D01*
X-16225564Y47299447D02*
X-16130326Y47251828D01*
X-16130326Y47251828D02*
X-16082707Y47156590D01*
X-16082707Y47156590D02*
X-16082707Y46632780D01*
X-15749373Y47299447D02*
X-15368421Y47299447D01*
X-15606516Y47632780D02*
X-15606516Y46775638D01*
X-15606516Y46775638D02*
X-15558897Y46680400D01*
X-15558897Y46680400D02*
X-15463659Y46632780D01*
X-15463659Y46632780D02*
X-15368421Y46632780D01*
X-15035087Y46632780D02*
X-15035087Y47299447D01*
X-15035087Y47108971D02*
X-14987468Y47204209D01*
X-14987468Y47204209D02*
X-14939849Y47251828D01*
X-14939849Y47251828D02*
X-14844611Y47299447D01*
X-14844611Y47299447D02*
X-14749373Y47299447D01*
X-14273182Y46632780D02*
X-14368420Y46680400D01*
X-14368420Y46680400D02*
X-14416039Y46728019D01*
X-14416039Y46728019D02*
X-14463658Y46823257D01*
X-14463658Y46823257D02*
X-14463658Y47108971D01*
X-14463658Y47108971D02*
X-14416039Y47204209D01*
X-14416039Y47204209D02*
X-14368420Y47251828D01*
X-14368420Y47251828D02*
X-14273182Y47299447D01*
X-14273182Y47299447D02*
X-14130325Y47299447D01*
X-14130325Y47299447D02*
X-14035087Y47251828D01*
X-14035087Y47251828D02*
X-13987468Y47204209D01*
X-13987468Y47204209D02*
X-13939849Y47108971D01*
X-13939849Y47108971D02*
X-13939849Y46823257D01*
X-13939849Y46823257D02*
X-13987468Y46728019D01*
X-13987468Y46728019D02*
X-14035087Y46680400D01*
X-14035087Y46680400D02*
X-14130325Y46632780D01*
X-14130325Y46632780D02*
X-14273182Y46632780D01*
X-13368420Y46632780D02*
X-13463658Y46680400D01*
X-13463658Y46680400D02*
X-13511277Y46775638D01*
X-13511277Y46775638D02*
X-13511277Y47632780D01*
X-12654134Y47156590D02*
X-12511277Y47108971D01*
X-12511277Y47108971D02*
X-12463658Y47061352D01*
X-12463658Y47061352D02*
X-12416039Y46966114D01*
X-12416039Y46966114D02*
X-12416039Y46823257D01*
X-12416039Y46823257D02*
X-12463658Y46728019D01*
X-12463658Y46728019D02*
X-12511277Y46680400D01*
X-12511277Y46680400D02*
X-12606515Y46632780D01*
X-12606515Y46632780D02*
X-12987467Y46632780D01*
X-12987467Y46632780D02*
X-12987467Y47632780D01*
X-12987467Y47632780D02*
X-12654134Y47632780D01*
X-12654134Y47632780D02*
X-12558896Y47585161D01*
X-12558896Y47585161D02*
X-12511277Y47537542D01*
X-12511277Y47537542D02*
X-12463658Y47442304D01*
X-12463658Y47442304D02*
X-12463658Y47347066D01*
X-12463658Y47347066D02*
X-12511277Y47251828D01*
X-12511277Y47251828D02*
X-12558896Y47204209D01*
X-12558896Y47204209D02*
X-12654134Y47156590D01*
X-12654134Y47156590D02*
X-12987467Y47156590D01*
X-11844610Y46632780D02*
X-11939848Y46680400D01*
X-11939848Y46680400D02*
X-11987467Y46728019D01*
X-11987467Y46728019D02*
X-12035086Y46823257D01*
X-12035086Y46823257D02*
X-12035086Y47108971D01*
X-12035086Y47108971D02*
X-11987467Y47204209D01*
X-11987467Y47204209D02*
X-11939848Y47251828D01*
X-11939848Y47251828D02*
X-11844610Y47299447D01*
X-11844610Y47299447D02*
X-11701753Y47299447D01*
X-11701753Y47299447D02*
X-11606515Y47251828D01*
X-11606515Y47251828D02*
X-11558896Y47204209D01*
X-11558896Y47204209D02*
X-11511277Y47108971D01*
X-11511277Y47108971D02*
X-11511277Y46823257D01*
X-11511277Y46823257D02*
X-11558896Y46728019D01*
X-11558896Y46728019D02*
X-11606515Y46680400D01*
X-11606515Y46680400D02*
X-11701753Y46632780D01*
X-11701753Y46632780D02*
X-11844610Y46632780D01*
X-10654134Y46632780D02*
X-10654134Y47156590D01*
X-10654134Y47156590D02*
X-10701753Y47251828D01*
X-10701753Y47251828D02*
X-10796991Y47299447D01*
X-10796991Y47299447D02*
X-10987467Y47299447D01*
X-10987467Y47299447D02*
X-11082705Y47251828D01*
X-10654134Y46680400D02*
X-10749372Y46632780D01*
X-10749372Y46632780D02*
X-10987467Y46632780D01*
X-10987467Y46632780D02*
X-11082705Y46680400D01*
X-11082705Y46680400D02*
X-11130324Y46775638D01*
X-11130324Y46775638D02*
X-11130324Y46870876D01*
X-11130324Y46870876D02*
X-11082705Y46966114D01*
X-11082705Y46966114D02*
X-10987467Y47013733D01*
X-10987467Y47013733D02*
X-10749372Y47013733D01*
X-10749372Y47013733D02*
X-10654134Y47061352D01*
X-10177943Y46632780D02*
X-10177943Y47299447D01*
X-10177943Y47108971D02*
X-10130324Y47204209D01*
X-10130324Y47204209D02*
X-10082705Y47251828D01*
X-10082705Y47251828D02*
X-9987467Y47299447D01*
X-9987467Y47299447D02*
X-9892229Y47299447D01*
X-9130324Y46632780D02*
X-9130324Y47632780D01*
X-9130324Y46680400D02*
X-9225562Y46632780D01*
X-9225562Y46632780D02*
X-9416038Y46632780D01*
X-9416038Y46632780D02*
X-9511276Y46680400D01*
X-9511276Y46680400D02*
X-9558895Y46728019D01*
X-9558895Y46728019D02*
X-9606514Y46823257D01*
X-9606514Y46823257D02*
X-9606514Y47108971D01*
X-9606514Y47108971D02*
X-9558895Y47204209D01*
X-9558895Y47204209D02*
X-9511276Y47251828D01*
X-9511276Y47251828D02*
X-9416038Y47299447D01*
X-9416038Y47299447D02*
X-9225562Y47299447D01*
X-9225562Y47299447D02*
X-9130324Y47251828D01*
X-8892229Y46537542D02*
X-8130324Y46537542D01*
X-8035085Y47632780D02*
X-7701752Y46632780D01*
X-7701752Y46632780D02*
X-7368419Y47632780D01*
X-7082704Y47537542D02*
X-7035085Y47585161D01*
X-7035085Y47585161D02*
X-6939847Y47632780D01*
X-6939847Y47632780D02*
X-6701752Y47632780D01*
X-6701752Y47632780D02*
X-6606514Y47585161D01*
X-6606514Y47585161D02*
X-6558895Y47537542D01*
X-6558895Y47537542D02*
X-6511276Y47442304D01*
X-6511276Y47442304D02*
X-6511276Y47347066D01*
X-6511276Y47347066D02*
X-6558895Y47204209D01*
X-6558895Y47204209D02*
X-7130323Y46632780D01*
X-7130323Y46632780D02*
X-6511276Y46632780D01*
D10*
X-24869819Y-40583333D02*
X-24393628Y-40250000D01*
X-24869819Y-40011905D02*
X-23869819Y-40011905D01*
X-23869819Y-40011905D02*
X-23869819Y-40392857D01*
X-23869819Y-40392857D02*
X-23917438Y-40488095D01*
X-23917438Y-40488095D02*
X-23965057Y-40535714D01*
X-23965057Y-40535714D02*
X-24060295Y-40583333D01*
X-24060295Y-40583333D02*
X-24203152Y-40583333D01*
X-24203152Y-40583333D02*
X-24298390Y-40535714D01*
X-24298390Y-40535714D02*
X-24346009Y-40488095D01*
X-24346009Y-40488095D02*
X-24393628Y-40392857D01*
X-24393628Y-40392857D02*
X-24393628Y-40011905D01*
X-23869819Y-40916667D02*
X-24869819Y-41583333D01*
X-23869819Y-41583333D02*
X-24869819Y-40916667D01*
D11*
X-21867219Y-43154762D02*
X-22676742Y-43154762D01*
X-22676742Y-43154762D02*
X-22771980Y-43202381D01*
X-22771980Y-43202381D02*
X-22819600Y-43250000D01*
X-22819600Y-43250000D02*
X-22867219Y-43345238D01*
X-22867219Y-43345238D02*
X-22867219Y-43535714D01*
X-22867219Y-43535714D02*
X-22819600Y-43630952D01*
X-22819600Y-43630952D02*
X-22771980Y-43678571D01*
X-22771980Y-43678571D02*
X-22676742Y-43726190D01*
X-22676742Y-43726190D02*
X-21867219Y-43726190D01*
X-22581504Y-44154762D02*
X-22581504Y-44630952D01*
X-22867219Y-44059524D02*
X-21867219Y-44392857D01*
X-21867219Y-44392857D02*
X-22867219Y-44726190D01*
X-22867219Y-45630952D02*
X-22391028Y-45297619D01*
X-22867219Y-45059524D02*
X-21867219Y-45059524D01*
X-21867219Y-45059524D02*
X-21867219Y-45440476D01*
X-21867219Y-45440476D02*
X-21914838Y-45535714D01*
X-21914838Y-45535714D02*
X-21962457Y-45583333D01*
X-21962457Y-45583333D02*
X-22057695Y-45630952D01*
X-22057695Y-45630952D02*
X-22200552Y-45630952D01*
X-22200552Y-45630952D02*
X-22295790Y-45583333D01*
X-22295790Y-45583333D02*
X-22343409Y-45535714D01*
X-22343409Y-45535714D02*
X-22391028Y-45440476D01*
X-22391028Y-45440476D02*
X-22391028Y-45059524D01*
X-21867219Y-45916667D02*
X-21867219Y-46488095D01*
X-22867219Y-46202381D02*
X-21867219Y-46202381D01*
X10769673Y41932780D02*
X10769673Y42932780D01*
X10769673Y42932780D02*
X11103006Y42218495D01*
X11103006Y42218495D02*
X11436339Y42932780D01*
X11436339Y42932780D02*
X11436339Y41932780D01*
X11864911Y41980400D02*
X12007768Y41932780D01*
X12007768Y41932780D02*
X12245863Y41932780D01*
X12245863Y41932780D02*
X12341101Y41980400D01*
X12341101Y41980400D02*
X12388720Y42028019D01*
X12388720Y42028019D02*
X12436339Y42123257D01*
X12436339Y42123257D02*
X12436339Y42218495D01*
X12436339Y42218495D02*
X12388720Y42313733D01*
X12388720Y42313733D02*
X12341101Y42361352D01*
X12341101Y42361352D02*
X12245863Y42408971D01*
X12245863Y42408971D02*
X12055387Y42456590D01*
X12055387Y42456590D02*
X11960149Y42504209D01*
X11960149Y42504209D02*
X11912530Y42551828D01*
X11912530Y42551828D02*
X11864911Y42647066D01*
X11864911Y42647066D02*
X11864911Y42742304D01*
X11864911Y42742304D02*
X11912530Y42837542D01*
X11912530Y42837542D02*
X11960149Y42885161D01*
X11960149Y42885161D02*
X12055387Y42932780D01*
X12055387Y42932780D02*
X12293482Y42932780D01*
X12293482Y42932780D02*
X12436339Y42885161D01*
X13388720Y41932780D02*
X12817292Y41932780D01*
X13103006Y41932780D02*
X13103006Y42932780D01*
X13103006Y42932780D02*
X13007768Y42789923D01*
X13007768Y42789923D02*
X12912530Y42694685D01*
X12912530Y42694685D02*
X12817292Y42647066D01*
D10*
X-23869819Y-42738095D02*
X-23869819Y-43309523D01*
X-24869819Y-43023809D02*
X-23869819Y-43023809D01*
X-23869819Y-43547619D02*
X-24869819Y-44214285D01*
X-23869819Y-44214285D02*
X-24869819Y-43547619D01*
D11*
X-21654136Y44632780D02*
X-22130326Y44632780D01*
X-22130326Y44632780D02*
X-22130326Y45632780D01*
X-20749374Y44728019D02*
X-20796993Y44680400D01*
X-20796993Y44680400D02*
X-20939850Y44632780D01*
X-20939850Y44632780D02*
X-21035088Y44632780D01*
X-21035088Y44632780D02*
X-21177945Y44680400D01*
X-21177945Y44680400D02*
X-21273183Y44775638D01*
X-21273183Y44775638D02*
X-21320802Y44870876D01*
X-21320802Y44870876D02*
X-21368421Y45061352D01*
X-21368421Y45061352D02*
X-21368421Y45204209D01*
X-21368421Y45204209D02*
X-21320802Y45394685D01*
X-21320802Y45394685D02*
X-21273183Y45489923D01*
X-21273183Y45489923D02*
X-21177945Y45585161D01*
X-21177945Y45585161D02*
X-21035088Y45632780D01*
X-21035088Y45632780D02*
X-20939850Y45632780D01*
X-20939850Y45632780D02*
X-20796993Y45585161D01*
X-20796993Y45585161D02*
X-20749374Y45537542D01*
X-19558897Y45013733D02*
X-18796993Y45013733D01*
X-17035088Y44632780D02*
X-17606516Y44632780D01*
X-17320802Y44632780D02*
X-17320802Y45632780D01*
X-17320802Y45632780D02*
X-17416040Y45489923D01*
X-17416040Y45489923D02*
X-17511278Y45394685D01*
X-17511278Y45394685D02*
X-17606516Y45347066D01*
X-16558897Y44632780D02*
X-16368421Y44632780D01*
X-16368421Y44632780D02*
X-16273183Y44680400D01*
X-16273183Y44680400D02*
X-16225564Y44728019D01*
X-16225564Y44728019D02*
X-16130326Y44870876D01*
X-16130326Y44870876D02*
X-16082707Y45061352D01*
X-16082707Y45061352D02*
X-16082707Y45442304D01*
X-16082707Y45442304D02*
X-16130326Y45537542D01*
X-16130326Y45537542D02*
X-16177945Y45585161D01*
X-16177945Y45585161D02*
X-16273183Y45632780D01*
X-16273183Y45632780D02*
X-16463659Y45632780D01*
X-16463659Y45632780D02*
X-16558897Y45585161D01*
X-16558897Y45585161D02*
X-16606516Y45537542D01*
X-16606516Y45537542D02*
X-16654135Y45442304D01*
X-16654135Y45442304D02*
X-16654135Y45204209D01*
X-16654135Y45204209D02*
X-16606516Y45108971D01*
X-16606516Y45108971D02*
X-16558897Y45061352D01*
X-16558897Y45061352D02*
X-16463659Y45013733D01*
X-16463659Y45013733D02*
X-16273183Y45013733D01*
X-16273183Y45013733D02*
X-16177945Y45061352D01*
X-16177945Y45061352D02*
X-16130326Y45108971D01*
X-16130326Y45108971D02*
X-16082707Y45204209D01*
X-14939850Y45680400D02*
X-15796992Y44394685D01*
X-14082707Y44632780D02*
X-14654135Y44632780D01*
X-14368421Y44632780D02*
X-14368421Y45632780D01*
X-14368421Y45632780D02*
X-14463659Y45489923D01*
X-14463659Y45489923D02*
X-14558897Y45394685D01*
X-14558897Y45394685D02*
X-14654135Y45347066D01*
X-12939850Y45680400D02*
X-13796992Y44394685D01*
X-12654135Y45537542D02*
X-12606516Y45585161D01*
X-12606516Y45585161D02*
X-12511278Y45632780D01*
X-12511278Y45632780D02*
X-12273183Y45632780D01*
X-12273183Y45632780D02*
X-12177945Y45585161D01*
X-12177945Y45585161D02*
X-12130326Y45537542D01*
X-12130326Y45537542D02*
X-12082707Y45442304D01*
X-12082707Y45442304D02*
X-12082707Y45347066D01*
X-12082707Y45347066D02*
X-12130326Y45204209D01*
X-12130326Y45204209D02*
X-12701754Y44632780D01*
X-12701754Y44632780D02*
X-12082707Y44632780D01*
X-11177945Y45632780D02*
X-11654135Y45632780D01*
X-11654135Y45632780D02*
X-11701754Y45156590D01*
X-11701754Y45156590D02*
X-11654135Y45204209D01*
X-11654135Y45204209D02*
X-11558897Y45251828D01*
X-11558897Y45251828D02*
X-11320802Y45251828D01*
X-11320802Y45251828D02*
X-11225564Y45204209D01*
X-11225564Y45204209D02*
X-11177945Y45156590D01*
X-11177945Y45156590D02*
X-11130326Y45061352D01*
X-11130326Y45061352D02*
X-11130326Y44823257D01*
X-11130326Y44823257D02*
X-11177945Y44728019D01*
X-11177945Y44728019D02*
X-11225564Y44680400D01*
X-11225564Y44680400D02*
X-11320802Y44632780D01*
X-11320802Y44632780D02*
X-11558897Y44632780D01*
X-11558897Y44632780D02*
X-11654135Y44680400D01*
X-11654135Y44680400D02*
X-11701754Y44728019D01*
X20619673Y40632780D02*
X20619673Y41632780D01*
X20619673Y41632780D02*
X20953006Y40918495D01*
X20953006Y40918495D02*
X21286339Y41632780D01*
X21286339Y41632780D02*
X21286339Y40632780D01*
X21905387Y40632780D02*
X21810149Y40680400D01*
X21810149Y40680400D02*
X21762530Y40728019D01*
X21762530Y40728019D02*
X21714911Y40823257D01*
X21714911Y40823257D02*
X21714911Y41108971D01*
X21714911Y41108971D02*
X21762530Y41204209D01*
X21762530Y41204209D02*
X21810149Y41251828D01*
X21810149Y41251828D02*
X21905387Y41299447D01*
X21905387Y41299447D02*
X22048244Y41299447D01*
X22048244Y41299447D02*
X22143482Y41251828D01*
X22143482Y41251828D02*
X22191101Y41204209D01*
X22191101Y41204209D02*
X22238720Y41108971D01*
X22238720Y41108971D02*
X22238720Y40823257D01*
X22238720Y40823257D02*
X22191101Y40728019D01*
X22191101Y40728019D02*
X22143482Y40680400D01*
X22143482Y40680400D02*
X22048244Y40632780D01*
X22048244Y40632780D02*
X21905387Y40632780D01*
X22524435Y41299447D02*
X22905387Y41299447D01*
X22667292Y41632780D02*
X22667292Y40775638D01*
X22667292Y40775638D02*
X22714911Y40680400D01*
X22714911Y40680400D02*
X22810149Y40632780D01*
X22810149Y40632780D02*
X22905387Y40632780D01*
X23381578Y40632780D02*
X23286340Y40680400D01*
X23286340Y40680400D02*
X23238721Y40728019D01*
X23238721Y40728019D02*
X23191102Y40823257D01*
X23191102Y40823257D02*
X23191102Y41108971D01*
X23191102Y41108971D02*
X23238721Y41204209D01*
X23238721Y41204209D02*
X23286340Y41251828D01*
X23286340Y41251828D02*
X23381578Y41299447D01*
X23381578Y41299447D02*
X23524435Y41299447D01*
X23524435Y41299447D02*
X23619673Y41251828D01*
X23619673Y41251828D02*
X23667292Y41204209D01*
X23667292Y41204209D02*
X23714911Y41108971D01*
X23714911Y41108971D02*
X23714911Y40823257D01*
X23714911Y40823257D02*
X23667292Y40728019D01*
X23667292Y40728019D02*
X23619673Y40680400D01*
X23619673Y40680400D02*
X23524435Y40632780D01*
X23524435Y40632780D02*
X23381578Y40632780D01*
X24143483Y40632780D02*
X24143483Y41299447D01*
X24143483Y41108971D02*
X24191102Y41204209D01*
X24191102Y41204209D02*
X24238721Y41251828D01*
X24238721Y41251828D02*
X24333959Y41299447D01*
X24333959Y41299447D02*
X24429197Y41299447D01*
X25524436Y40632780D02*
X25524436Y41632780D01*
X25524436Y41632780D02*
X25857769Y40918495D01*
X25857769Y40918495D02*
X26191102Y41632780D01*
X26191102Y41632780D02*
X26191102Y40632780D01*
X27429198Y41013733D02*
X28191103Y41013733D01*
X28667293Y41299447D02*
X29429198Y41013733D01*
X29429198Y41013733D02*
X28667293Y40728019D01*
X-1238094Y17632780D02*
X-619047Y17632780D01*
X-619047Y17632780D02*
X-952380Y17251828D01*
X-952380Y17251828D02*
X-809523Y17251828D01*
X-809523Y17251828D02*
X-714285Y17204209D01*
X-714285Y17204209D02*
X-666666Y17156590D01*
X-666666Y17156590D02*
X-619047Y17061352D01*
X-619047Y17061352D02*
X-619047Y16823257D01*
X-619047Y16823257D02*
X-666666Y16728019D01*
X-666666Y16728019D02*
X-714285Y16680400D01*
X-714285Y16680400D02*
X-809523Y16632780D01*
X-809523Y16632780D02*
X-1095237Y16632780D01*
X-1095237Y16632780D02*
X-1190475Y16680400D01*
X-1190475Y16680400D02*
X-1238094Y16728019D01*
X-333332Y17632780D02*
X0Y16632780D01*
X0Y16632780D02*
X333333Y17632780D01*
X571429Y17632780D02*
X1190476Y17632780D01*
X1190476Y17632780D02*
X857143Y17251828D01*
X857143Y17251828D02*
X1000000Y17251828D01*
X1000000Y17251828D02*
X1095238Y17204209D01*
X1095238Y17204209D02*
X1142857Y17156590D01*
X1142857Y17156590D02*
X1190476Y17061352D01*
X1190476Y17061352D02*
X1190476Y16823257D01*
X1190476Y16823257D02*
X1142857Y16728019D01*
X1142857Y16728019D02*
X1095238Y16680400D01*
X1095238Y16680400D02*
X1000000Y16632780D01*
X1000000Y16632780D02*
X714286Y16632780D01*
X714286Y16632780D02*
X619048Y16680400D01*
X619048Y16680400D02*
X571429Y16728019D01*
X-28618422Y41549447D02*
X-29380326Y41263733D01*
X-29380326Y41263733D02*
X-28618422Y40978019D01*
X-28142231Y41263733D02*
X-27380327Y41263733D01*
X-26142231Y40882780D02*
X-26142231Y41882780D01*
X-26142231Y41882780D02*
X-25808898Y41168495D01*
X-25808898Y41168495D02*
X-25475565Y41882780D01*
X-25475565Y41882780D02*
X-25475565Y40882780D01*
X-24856517Y40882780D02*
X-24951755Y40930400D01*
X-24951755Y40930400D02*
X-24999374Y40978019D01*
X-24999374Y40978019D02*
X-25046993Y41073257D01*
X-25046993Y41073257D02*
X-25046993Y41358971D01*
X-25046993Y41358971D02*
X-24999374Y41454209D01*
X-24999374Y41454209D02*
X-24951755Y41501828D01*
X-24951755Y41501828D02*
X-24856517Y41549447D01*
X-24856517Y41549447D02*
X-24713660Y41549447D01*
X-24713660Y41549447D02*
X-24618422Y41501828D01*
X-24618422Y41501828D02*
X-24570803Y41454209D01*
X-24570803Y41454209D02*
X-24523184Y41358971D01*
X-24523184Y41358971D02*
X-24523184Y41073257D01*
X-24523184Y41073257D02*
X-24570803Y40978019D01*
X-24570803Y40978019D02*
X-24618422Y40930400D01*
X-24618422Y40930400D02*
X-24713660Y40882780D01*
X-24713660Y40882780D02*
X-24856517Y40882780D01*
X-24237469Y41549447D02*
X-23856517Y41549447D01*
X-24094612Y41882780D02*
X-24094612Y41025638D01*
X-24094612Y41025638D02*
X-24046993Y40930400D01*
X-24046993Y40930400D02*
X-23951755Y40882780D01*
X-23951755Y40882780D02*
X-23856517Y40882780D01*
X-23380326Y40882780D02*
X-23475564Y40930400D01*
X-23475564Y40930400D02*
X-23523183Y40978019D01*
X-23523183Y40978019D02*
X-23570802Y41073257D01*
X-23570802Y41073257D02*
X-23570802Y41358971D01*
X-23570802Y41358971D02*
X-23523183Y41454209D01*
X-23523183Y41454209D02*
X-23475564Y41501828D01*
X-23475564Y41501828D02*
X-23380326Y41549447D01*
X-23380326Y41549447D02*
X-23237469Y41549447D01*
X-23237469Y41549447D02*
X-23142231Y41501828D01*
X-23142231Y41501828D02*
X-23094612Y41454209D01*
X-23094612Y41454209D02*
X-23046993Y41358971D01*
X-23046993Y41358971D02*
X-23046993Y41073257D01*
X-23046993Y41073257D02*
X-23094612Y40978019D01*
X-23094612Y40978019D02*
X-23142231Y40930400D01*
X-23142231Y40930400D02*
X-23237469Y40882780D01*
X-23237469Y40882780D02*
X-23380326Y40882780D01*
X-22618421Y40882780D02*
X-22618421Y41549447D01*
X-22618421Y41358971D02*
X-22570802Y41454209D01*
X-22570802Y41454209D02*
X-22523183Y41501828D01*
X-22523183Y41501828D02*
X-22427945Y41549447D01*
X-22427945Y41549447D02*
X-22332707Y41549447D01*
X-20761278Y40882780D02*
X-21237468Y40882780D01*
X-21237468Y40882780D02*
X-21237468Y41882780D01*
X27843409Y-7630326D02*
X27843409Y-7296993D01*
X28367219Y-7154136D02*
X28367219Y-7630326D01*
X28367219Y-7630326D02*
X27367219Y-7630326D01*
X27367219Y-7630326D02*
X27367219Y-7154136D01*
X28367219Y-6725564D02*
X27367219Y-6725564D01*
X27367219Y-6725564D02*
X28367219Y-6154136D01*
X28367219Y-6154136D02*
X27367219Y-6154136D01*
X27367219Y-5773183D02*
X27367219Y-5154136D01*
X27367219Y-5154136D02*
X27748171Y-5487469D01*
X27748171Y-5487469D02*
X27748171Y-5344612D01*
X27748171Y-5344612D02*
X27795790Y-5249374D01*
X27795790Y-5249374D02*
X27843409Y-5201755D01*
X27843409Y-5201755D02*
X27938647Y-5154136D01*
X27938647Y-5154136D02*
X28176742Y-5154136D01*
X28176742Y-5154136D02*
X28271980Y-5201755D01*
X28271980Y-5201755D02*
X28319600Y-5249374D01*
X28319600Y-5249374D02*
X28367219Y-5344612D01*
X28367219Y-5344612D02*
X28367219Y-5630326D01*
X28367219Y-5630326D02*
X28319600Y-5725564D01*
X28319600Y-5725564D02*
X28271980Y-5773183D01*
X-6132780Y-35058898D02*
X-6608971Y-35392231D01*
X-6132780Y-35630326D02*
X-7132780Y-35630326D01*
X-7132780Y-35630326D02*
X-7132780Y-35249374D01*
X-7132780Y-35249374D02*
X-7085161Y-35154136D01*
X-7085161Y-35154136D02*
X-7037542Y-35106517D01*
X-7037542Y-35106517D02*
X-6942304Y-35058898D01*
X-6942304Y-35058898D02*
X-6799447Y-35058898D01*
X-6799447Y-35058898D02*
X-6704209Y-35106517D01*
X-6704209Y-35106517D02*
X-6656590Y-35154136D01*
X-6656590Y-35154136D02*
X-6608971Y-35249374D01*
X-6608971Y-35249374D02*
X-6608971Y-35630326D01*
X-6132780Y-34630326D02*
X-6799447Y-34630326D01*
X-7132780Y-34630326D02*
X-7085161Y-34677945D01*
X-7085161Y-34677945D02*
X-7037542Y-34630326D01*
X-7037542Y-34630326D02*
X-7085161Y-34582707D01*
X-7085161Y-34582707D02*
X-7132780Y-34630326D01*
X-7132780Y-34630326D02*
X-7037542Y-34630326D01*
X-6799447Y-34154136D02*
X-6132780Y-34154136D01*
X-6704209Y-34154136D02*
X-6751828Y-34106517D01*
X-6751828Y-34106517D02*
X-6799447Y-34011279D01*
X-6799447Y-34011279D02*
X-6799447Y-33868422D01*
X-6799447Y-33868422D02*
X-6751828Y-33773184D01*
X-6751828Y-33773184D02*
X-6656590Y-33725565D01*
X-6656590Y-33725565D02*
X-6132780Y-33725565D01*
X-6799447Y-32820803D02*
X-5989923Y-32820803D01*
X-5989923Y-32820803D02*
X-5894685Y-32868422D01*
X-5894685Y-32868422D02*
X-5847066Y-32916041D01*
X-5847066Y-32916041D02*
X-5799447Y-33011279D01*
X-5799447Y-33011279D02*
X-5799447Y-33154136D01*
X-5799447Y-33154136D02*
X-5847066Y-33249374D01*
X-6180400Y-32820803D02*
X-6132780Y-32916041D01*
X-6132780Y-32916041D02*
X-6132780Y-33106517D01*
X-6132780Y-33106517D02*
X-6180400Y-33201755D01*
X-6180400Y-33201755D02*
X-6228019Y-33249374D01*
X-6228019Y-33249374D02*
X-6323257Y-33296993D01*
X-6323257Y-33296993D02*
X-6608971Y-33296993D01*
X-6608971Y-33296993D02*
X-6704209Y-33249374D01*
X-6704209Y-33249374D02*
X-6751828Y-33201755D01*
X-6751828Y-33201755D02*
X-6799447Y-33106517D01*
X-6799447Y-33106517D02*
X-6799447Y-32916041D01*
X-6799447Y-32916041D02*
X-6751828Y-32820803D01*
X-6132780Y-31106517D02*
X-6132780Y-31582707D01*
X-6132780Y-31582707D02*
X-7132780Y-31582707D01*
X-619047Y27632780D02*
X-428571Y27632780D01*
X-428571Y27632780D02*
X-333333Y27680400D01*
X-333333Y27680400D02*
X-285714Y27728019D01*
X-285714Y27728019D02*
X-190476Y27870876D01*
X-190476Y27870876D02*
X-142857Y28061352D01*
X-142857Y28061352D02*
X-142857Y28442304D01*
X-142857Y28442304D02*
X-190476Y28537542D01*
X-190476Y28537542D02*
X-238095Y28585161D01*
X-238095Y28585161D02*
X-333333Y28632780D01*
X-333333Y28632780D02*
X-523809Y28632780D01*
X-523809Y28632780D02*
X-619047Y28585161D01*
X-619047Y28585161D02*
X-666666Y28537542D01*
X-666666Y28537542D02*
X-714285Y28442304D01*
X-714285Y28442304D02*
X-714285Y28204209D01*
X-714285Y28204209D02*
X-666666Y28108971D01*
X-666666Y28108971D02*
X-619047Y28061352D01*
X-619047Y28061352D02*
X-523809Y28013733D01*
X-523809Y28013733D02*
X-333333Y28013733D01*
X-333333Y28013733D02*
X-238095Y28061352D01*
X-238095Y28061352D02*
X-190476Y28108971D01*
X-190476Y28108971D02*
X-142857Y28204209D01*
X142857Y28632780D02*
X476190Y27632780D01*
X476190Y27632780D02*
X809523Y28632780D01*
X8169673Y48532780D02*
X8169673Y49532780D01*
X8169673Y49056590D02*
X8741101Y49056590D01*
X8741101Y48532780D02*
X8741101Y49532780D01*
X27718409Y4369673D02*
X27718409Y4703006D01*
X28242219Y4845863D02*
X28242219Y4369673D01*
X28242219Y4369673D02*
X27242219Y4369673D01*
X27242219Y4369673D02*
X27242219Y4845863D01*
X28242219Y5274435D02*
X27242219Y5274435D01*
X27242219Y5274435D02*
X28242219Y5845863D01*
X28242219Y5845863D02*
X27242219Y5845863D01*
X28242219Y6845863D02*
X28242219Y6274435D01*
X28242219Y6560149D02*
X27242219Y6560149D01*
X27242219Y6560149D02*
X27385076Y6464911D01*
X27385076Y6464911D02*
X27480314Y6369673D01*
X27480314Y6369673D02*
X27527933Y6274435D01*
X-12440476Y-15117219D02*
X-12916666Y-15117219D01*
X-12916666Y-15117219D02*
X-12964285Y-15593409D01*
X-12964285Y-15593409D02*
X-12916666Y-15545790D01*
X-12916666Y-15545790D02*
X-12821428Y-15498171D01*
X-12821428Y-15498171D02*
X-12583333Y-15498171D01*
X-12583333Y-15498171D02*
X-12488095Y-15545790D01*
X-12488095Y-15545790D02*
X-12440476Y-15593409D01*
X-12440476Y-15593409D02*
X-12392857Y-15688647D01*
X-12392857Y-15688647D02*
X-12392857Y-15926742D01*
X-12392857Y-15926742D02*
X-12440476Y-16021980D01*
X-12440476Y-16021980D02*
X-12488095Y-16069600D01*
X-12488095Y-16069600D02*
X-12583333Y-16117219D01*
X-12583333Y-16117219D02*
X-12821428Y-16117219D01*
X-12821428Y-16117219D02*
X-12916666Y-16069600D01*
X-12916666Y-16069600D02*
X-12964285Y-16021980D01*
X-12107142Y-15117219D02*
X-11773809Y-16117219D01*
X-11773809Y-16117219D02*
X-11440476Y-15117219D01*
X-190476Y23132780D02*
X-666666Y23132780D01*
X-666666Y23132780D02*
X-714285Y22656590D01*
X-714285Y22656590D02*
X-666666Y22704209D01*
X-666666Y22704209D02*
X-571428Y22751828D01*
X-571428Y22751828D02*
X-333333Y22751828D01*
X-333333Y22751828D02*
X-238095Y22704209D01*
X-238095Y22704209D02*
X-190476Y22656590D01*
X-190476Y22656590D02*
X-142857Y22561352D01*
X-142857Y22561352D02*
X-142857Y22323257D01*
X-142857Y22323257D02*
X-190476Y22228019D01*
X-190476Y22228019D02*
X-238095Y22180400D01*
X-238095Y22180400D02*
X-333333Y22132780D01*
X-333333Y22132780D02*
X-571428Y22132780D01*
X-571428Y22132780D02*
X-666666Y22180400D01*
X-666666Y22180400D02*
X-714285Y22228019D01*
X142857Y23132780D02*
X476190Y22132780D01*
X476190Y22132780D02*
X809523Y23132780D01*
X-6132780Y-20308898D02*
X-6608971Y-20642231D01*
X-6132780Y-20880326D02*
X-7132780Y-20880326D01*
X-7132780Y-20880326D02*
X-7132780Y-20499374D01*
X-7132780Y-20499374D02*
X-7085161Y-20404136D01*
X-7085161Y-20404136D02*
X-7037542Y-20356517D01*
X-7037542Y-20356517D02*
X-6942304Y-20308898D01*
X-6942304Y-20308898D02*
X-6799447Y-20308898D01*
X-6799447Y-20308898D02*
X-6704209Y-20356517D01*
X-6704209Y-20356517D02*
X-6656590Y-20404136D01*
X-6656590Y-20404136D02*
X-6608971Y-20499374D01*
X-6608971Y-20499374D02*
X-6608971Y-20880326D01*
X-6132780Y-19880326D02*
X-6799447Y-19880326D01*
X-7132780Y-19880326D02*
X-7085161Y-19927945D01*
X-7085161Y-19927945D02*
X-7037542Y-19880326D01*
X-7037542Y-19880326D02*
X-7085161Y-19832707D01*
X-7085161Y-19832707D02*
X-7132780Y-19880326D01*
X-7132780Y-19880326D02*
X-7037542Y-19880326D01*
X-6799447Y-19404136D02*
X-6132780Y-19404136D01*
X-6704209Y-19404136D02*
X-6751828Y-19356517D01*
X-6751828Y-19356517D02*
X-6799447Y-19261279D01*
X-6799447Y-19261279D02*
X-6799447Y-19118422D01*
X-6799447Y-19118422D02*
X-6751828Y-19023184D01*
X-6751828Y-19023184D02*
X-6656590Y-18975565D01*
X-6656590Y-18975565D02*
X-6132780Y-18975565D01*
X-6799447Y-18070803D02*
X-5989923Y-18070803D01*
X-5989923Y-18070803D02*
X-5894685Y-18118422D01*
X-5894685Y-18118422D02*
X-5847066Y-18166041D01*
X-5847066Y-18166041D02*
X-5799447Y-18261279D01*
X-5799447Y-18261279D02*
X-5799447Y-18404136D01*
X-5799447Y-18404136D02*
X-5847066Y-18499374D01*
X-6180400Y-18070803D02*
X-6132780Y-18166041D01*
X-6132780Y-18166041D02*
X-6132780Y-18356517D01*
X-6132780Y-18356517D02*
X-6180400Y-18451755D01*
X-6180400Y-18451755D02*
X-6228019Y-18499374D01*
X-6228019Y-18499374D02*
X-6323257Y-18546993D01*
X-6323257Y-18546993D02*
X-6608971Y-18546993D01*
X-6608971Y-18546993D02*
X-6704209Y-18499374D01*
X-6704209Y-18499374D02*
X-6751828Y-18451755D01*
X-6751828Y-18451755D02*
X-6799447Y-18356517D01*
X-6799447Y-18356517D02*
X-6799447Y-18166041D01*
X-6799447Y-18166041D02*
X-6751828Y-18070803D01*
X-6132780Y-16261279D02*
X-6608971Y-16594612D01*
X-6132780Y-16832707D02*
X-7132780Y-16832707D01*
X-7132780Y-16832707D02*
X-7132780Y-16451755D01*
X-7132780Y-16451755D02*
X-7085161Y-16356517D01*
X-7085161Y-16356517D02*
X-7037542Y-16308898D01*
X-7037542Y-16308898D02*
X-6942304Y-16261279D01*
X-6942304Y-16261279D02*
X-6799447Y-16261279D01*
X-6799447Y-16261279D02*
X-6704209Y-16308898D01*
X-6704209Y-16308898D02*
X-6656590Y-16356517D01*
X-6656590Y-16356517D02*
X-6608971Y-16451755D01*
X-6608971Y-16451755D02*
X-6608971Y-16832707D01*
X-19738094Y-29617219D02*
X-19119047Y-29617219D01*
X-19119047Y-29617219D02*
X-19452380Y-29998171D01*
X-19452380Y-29998171D02*
X-19309523Y-29998171D01*
X-19309523Y-29998171D02*
X-19214285Y-30045790D01*
X-19214285Y-30045790D02*
X-19166666Y-30093409D01*
X-19166666Y-30093409D02*
X-19119047Y-30188647D01*
X-19119047Y-30188647D02*
X-19119047Y-30426742D01*
X-19119047Y-30426742D02*
X-19166666Y-30521980D01*
X-19166666Y-30521980D02*
X-19214285Y-30569600D01*
X-19214285Y-30569600D02*
X-19309523Y-30617219D01*
X-19309523Y-30617219D02*
X-19595237Y-30617219D01*
X-19595237Y-30617219D02*
X-19690475Y-30569600D01*
X-19690475Y-30569600D02*
X-19738094Y-30521980D01*
X-18833332Y-29617219D02*
X-18499999Y-30617219D01*
X-18499999Y-30617219D02*
X-18166666Y-29617219D01*
X-17928570Y-29617219D02*
X-17309523Y-29617219D01*
X-17309523Y-29617219D02*
X-17642856Y-29998171D01*
X-17642856Y-29998171D02*
X-17499999Y-29998171D01*
X-17499999Y-29998171D02*
X-17404761Y-30045790D01*
X-17404761Y-30045790D02*
X-17357142Y-30093409D01*
X-17357142Y-30093409D02*
X-17309523Y-30188647D01*
X-17309523Y-30188647D02*
X-17309523Y-30426742D01*
X-17309523Y-30426742D02*
X-17357142Y-30521980D01*
X-17357142Y-30521980D02*
X-17404761Y-30569600D01*
X-17404761Y-30569600D02*
X-17499999Y-30617219D01*
X-17499999Y-30617219D02*
X-17785713Y-30617219D01*
X-17785713Y-30617219D02*
X-17880951Y-30569600D01*
X-17880951Y-30569600D02*
X-17928570Y-30521980D01*
X-16357142Y-52343409D02*
X-16214285Y-52391028D01*
X-16214285Y-52391028D02*
X-16166666Y-52438647D01*
X-16166666Y-52438647D02*
X-16119047Y-52533885D01*
X-16119047Y-52533885D02*
X-16119047Y-52676742D01*
X-16119047Y-52676742D02*
X-16166666Y-52771980D01*
X-16166666Y-52771980D02*
X-16214285Y-52819600D01*
X-16214285Y-52819600D02*
X-16309523Y-52867219D01*
X-16309523Y-52867219D02*
X-16690475Y-52867219D01*
X-16690475Y-52867219D02*
X-16690475Y-51867219D01*
X-16690475Y-51867219D02*
X-16357142Y-51867219D01*
X-16357142Y-51867219D02*
X-16261904Y-51914838D01*
X-16261904Y-51914838D02*
X-16214285Y-51962457D01*
X-16214285Y-51962457D02*
X-16166666Y-52057695D01*
X-16166666Y-52057695D02*
X-16166666Y-52152933D01*
X-16166666Y-52152933D02*
X-16214285Y-52248171D01*
X-16214285Y-52248171D02*
X-16261904Y-52295790D01*
X-16261904Y-52295790D02*
X-16357142Y-52343409D01*
X-16357142Y-52343409D02*
X-16690475Y-52343409D01*
X-15499999Y-51867219D02*
X-15309523Y-51867219D01*
X-15309523Y-51867219D02*
X-15214285Y-51914838D01*
X-15214285Y-51914838D02*
X-15119047Y-52010076D01*
X-15119047Y-52010076D02*
X-15071428Y-52200552D01*
X-15071428Y-52200552D02*
X-15071428Y-52533885D01*
X-15071428Y-52533885D02*
X-15119047Y-52724361D01*
X-15119047Y-52724361D02*
X-15214285Y-52819600D01*
X-15214285Y-52819600D02*
X-15309523Y-52867219D01*
X-15309523Y-52867219D02*
X-15499999Y-52867219D01*
X-15499999Y-52867219D02*
X-15595237Y-52819600D01*
X-15595237Y-52819600D02*
X-15690475Y-52724361D01*
X-15690475Y-52724361D02*
X-15738094Y-52533885D01*
X-15738094Y-52533885D02*
X-15738094Y-52200552D01*
X-15738094Y-52200552D02*
X-15690475Y-52010076D01*
X-15690475Y-52010076D02*
X-15595237Y-51914838D01*
X-15595237Y-51914838D02*
X-15499999Y-51867219D01*
X-14452380Y-51867219D02*
X-14261904Y-51867219D01*
X-14261904Y-51867219D02*
X-14166666Y-51914838D01*
X-14166666Y-51914838D02*
X-14071428Y-52010076D01*
X-14071428Y-52010076D02*
X-14023809Y-52200552D01*
X-14023809Y-52200552D02*
X-14023809Y-52533885D01*
X-14023809Y-52533885D02*
X-14071428Y-52724361D01*
X-14071428Y-52724361D02*
X-14166666Y-52819600D01*
X-14166666Y-52819600D02*
X-14261904Y-52867219D01*
X-14261904Y-52867219D02*
X-14452380Y-52867219D01*
X-14452380Y-52867219D02*
X-14547618Y-52819600D01*
X-14547618Y-52819600D02*
X-14642856Y-52724361D01*
X-14642856Y-52724361D02*
X-14690475Y-52533885D01*
X-14690475Y-52533885D02*
X-14690475Y-52200552D01*
X-14690475Y-52200552D02*
X-14642856Y-52010076D01*
X-14642856Y-52010076D02*
X-14547618Y-51914838D01*
X-14547618Y-51914838D02*
X-14452380Y-51867219D01*
X-13738094Y-51867219D02*
X-13166666Y-51867219D01*
X-13452380Y-52867219D02*
X-13452380Y-51867219D01*
X10769673Y44532780D02*
X10769673Y45532780D01*
X10769673Y45532780D02*
X11103006Y44818495D01*
X11103006Y44818495D02*
X11436339Y45532780D01*
X11436339Y45532780D02*
X11436339Y44532780D01*
X11864911Y44580400D02*
X12007768Y44532780D01*
X12007768Y44532780D02*
X12245863Y44532780D01*
X12245863Y44532780D02*
X12341101Y44580400D01*
X12341101Y44580400D02*
X12388720Y44628019D01*
X12388720Y44628019D02*
X12436339Y44723257D01*
X12436339Y44723257D02*
X12436339Y44818495D01*
X12436339Y44818495D02*
X12388720Y44913733D01*
X12388720Y44913733D02*
X12341101Y44961352D01*
X12341101Y44961352D02*
X12245863Y45008971D01*
X12245863Y45008971D02*
X12055387Y45056590D01*
X12055387Y45056590D02*
X11960149Y45104209D01*
X11960149Y45104209D02*
X11912530Y45151828D01*
X11912530Y45151828D02*
X11864911Y45247066D01*
X11864911Y45247066D02*
X11864911Y45342304D01*
X11864911Y45342304D02*
X11912530Y45437542D01*
X11912530Y45437542D02*
X11960149Y45485161D01*
X11960149Y45485161D02*
X12055387Y45532780D01*
X12055387Y45532780D02*
X12293482Y45532780D01*
X12293482Y45532780D02*
X12436339Y45485161D01*
X12817292Y45437542D02*
X12864911Y45485161D01*
X12864911Y45485161D02*
X12960149Y45532780D01*
X12960149Y45532780D02*
X13198244Y45532780D01*
X13198244Y45532780D02*
X13293482Y45485161D01*
X13293482Y45485161D02*
X13341101Y45437542D01*
X13341101Y45437542D02*
X13388720Y45342304D01*
X13388720Y45342304D02*
X13388720Y45247066D01*
X13388720Y45247066D02*
X13341101Y45104209D01*
X13341101Y45104209D02*
X12769673Y44532780D01*
X12769673Y44532780D02*
X13388720Y44532780D01*
D13*
X-3928570Y31449171D02*
X-3642856Y31449171D01*
X-3642856Y31449171D02*
X-3499999Y31520600D01*
X-3499999Y31520600D02*
X-3428570Y31592028D01*
X-3428570Y31592028D02*
X-3285713Y31806314D01*
X-3285713Y31806314D02*
X-3214284Y32092028D01*
X-3214284Y32092028D02*
X-3214284Y32663457D01*
X-3214284Y32663457D02*
X-3285713Y32806314D01*
X-3285713Y32806314D02*
X-3357142Y32877742D01*
X-3357142Y32877742D02*
X-3499999Y32949171D01*
X-3499999Y32949171D02*
X-3785713Y32949171D01*
X-3785713Y32949171D02*
X-3928570Y32877742D01*
X-3928570Y32877742D02*
X-3999999Y32806314D01*
X-3999999Y32806314D02*
X-4071427Y32663457D01*
X-4071427Y32663457D02*
X-4071427Y32306314D01*
X-4071427Y32306314D02*
X-3999999Y32163457D01*
X-3999999Y32163457D02*
X-3928570Y32092028D01*
X-3928570Y32092028D02*
X-3785713Y32020600D01*
X-3785713Y32020600D02*
X-3499999Y32020600D01*
X-3499999Y32020600D02*
X-3357142Y32092028D01*
X-3357142Y32092028D02*
X-3285713Y32163457D01*
X-3285713Y32163457D02*
X-3214284Y32306314D01*
X-2785713Y32949171D02*
X-2285713Y31449171D01*
X-2285713Y31449171D02*
X-1785713Y32949171D01*
D10*
X-23869819Y-45190476D02*
X-23869819Y-45809523D01*
X-23869819Y-45809523D02*
X-24250771Y-45476190D01*
X-24250771Y-45476190D02*
X-24250771Y-45619047D01*
X-24250771Y-45619047D02*
X-24298390Y-45714285D01*
X-24298390Y-45714285D02*
X-24346009Y-45761904D01*
X-24346009Y-45761904D02*
X-24441247Y-45809523D01*
X-24441247Y-45809523D02*
X-24679342Y-45809523D01*
X-24679342Y-45809523D02*
X-24774580Y-45761904D01*
X-24774580Y-45761904D02*
X-24822200Y-45714285D01*
X-24822200Y-45714285D02*
X-24869819Y-45619047D01*
X-24869819Y-45619047D02*
X-24869819Y-45333333D01*
X-24869819Y-45333333D02*
X-24822200Y-45238095D01*
X-24822200Y-45238095D02*
X-24774580Y-45190476D01*
X-23869819Y-46142857D02*
X-23869819Y-46761904D01*
X-23869819Y-46761904D02*
X-24250771Y-46428571D01*
X-24250771Y-46428571D02*
X-24250771Y-46571428D01*
X-24250771Y-46571428D02*
X-24298390Y-46666666D01*
X-24298390Y-46666666D02*
X-24346009Y-46714285D01*
X-24346009Y-46714285D02*
X-24441247Y-46761904D01*
X-24441247Y-46761904D02*
X-24679342Y-46761904D01*
X-24679342Y-46761904D02*
X-24774580Y-46714285D01*
X-24774580Y-46714285D02*
X-24822200Y-46666666D01*
X-24822200Y-46666666D02*
X-24869819Y-46571428D01*
X-24869819Y-46571428D02*
X-24869819Y-46285714D01*
X-24869819Y-46285714D02*
X-24822200Y-46190476D01*
X-24822200Y-46190476D02*
X-24774580Y-46142857D01*
D11*
X20619673Y-43367219D02*
X20619673Y-42367219D01*
X20619673Y-42367219D02*
X20953006Y-43081504D01*
X20953006Y-43081504D02*
X21286339Y-42367219D01*
X21286339Y-42367219D02*
X21286339Y-43367219D01*
X21905387Y-43367219D02*
X21810149Y-43319600D01*
X21810149Y-43319600D02*
X21762530Y-43271980D01*
X21762530Y-43271980D02*
X21714911Y-43176742D01*
X21714911Y-43176742D02*
X21714911Y-42891028D01*
X21714911Y-42891028D02*
X21762530Y-42795790D01*
X21762530Y-42795790D02*
X21810149Y-42748171D01*
X21810149Y-42748171D02*
X21905387Y-42700552D01*
X21905387Y-42700552D02*
X22048244Y-42700552D01*
X22048244Y-42700552D02*
X22143482Y-42748171D01*
X22143482Y-42748171D02*
X22191101Y-42795790D01*
X22191101Y-42795790D02*
X22238720Y-42891028D01*
X22238720Y-42891028D02*
X22238720Y-43176742D01*
X22238720Y-43176742D02*
X22191101Y-43271980D01*
X22191101Y-43271980D02*
X22143482Y-43319600D01*
X22143482Y-43319600D02*
X22048244Y-43367219D01*
X22048244Y-43367219D02*
X21905387Y-43367219D01*
X22524435Y-42700552D02*
X22905387Y-42700552D01*
X22667292Y-42367219D02*
X22667292Y-43224361D01*
X22667292Y-43224361D02*
X22714911Y-43319600D01*
X22714911Y-43319600D02*
X22810149Y-43367219D01*
X22810149Y-43367219D02*
X22905387Y-43367219D01*
X23381578Y-43367219D02*
X23286340Y-43319600D01*
X23286340Y-43319600D02*
X23238721Y-43271980D01*
X23238721Y-43271980D02*
X23191102Y-43176742D01*
X23191102Y-43176742D02*
X23191102Y-42891028D01*
X23191102Y-42891028D02*
X23238721Y-42795790D01*
X23238721Y-42795790D02*
X23286340Y-42748171D01*
X23286340Y-42748171D02*
X23381578Y-42700552D01*
X23381578Y-42700552D02*
X23524435Y-42700552D01*
X23524435Y-42700552D02*
X23619673Y-42748171D01*
X23619673Y-42748171D02*
X23667292Y-42795790D01*
X23667292Y-42795790D02*
X23714911Y-42891028D01*
X23714911Y-42891028D02*
X23714911Y-43176742D01*
X23714911Y-43176742D02*
X23667292Y-43271980D01*
X23667292Y-43271980D02*
X23619673Y-43319600D01*
X23619673Y-43319600D02*
X23524435Y-43367219D01*
X23524435Y-43367219D02*
X23381578Y-43367219D01*
X24143483Y-43367219D02*
X24143483Y-42700552D01*
X24143483Y-42891028D02*
X24191102Y-42795790D01*
X24191102Y-42795790D02*
X24238721Y-42748171D01*
X24238721Y-42748171D02*
X24333959Y-42700552D01*
X24333959Y-42700552D02*
X24429197Y-42700552D01*
X26095864Y-43367219D02*
X25762531Y-42891028D01*
X25524436Y-43367219D02*
X25524436Y-42367219D01*
X25524436Y-42367219D02*
X25905388Y-42367219D01*
X25905388Y-42367219D02*
X26000626Y-42414838D01*
X26000626Y-42414838D02*
X26048245Y-42462457D01*
X26048245Y-42462457D02*
X26095864Y-42557695D01*
X26095864Y-42557695D02*
X26095864Y-42700552D01*
X26095864Y-42700552D02*
X26048245Y-42795790D01*
X26048245Y-42795790D02*
X26000626Y-42843409D01*
X26000626Y-42843409D02*
X25905388Y-42891028D01*
X25905388Y-42891028D02*
X25524436Y-42891028D01*
X27286341Y-42986266D02*
X28048246Y-42986266D01*
X28524436Y-42700552D02*
X29286341Y-42986266D01*
X29286341Y-42986266D02*
X28524436Y-43271980D01*
X10769673Y46932780D02*
X10769673Y47932780D01*
X10769673Y47932780D02*
X11103006Y47218495D01*
X11103006Y47218495D02*
X11436339Y47932780D01*
X11436339Y47932780D02*
X11436339Y46932780D01*
X11864911Y46980400D02*
X12007768Y46932780D01*
X12007768Y46932780D02*
X12245863Y46932780D01*
X12245863Y46932780D02*
X12341101Y46980400D01*
X12341101Y46980400D02*
X12388720Y47028019D01*
X12388720Y47028019D02*
X12436339Y47123257D01*
X12436339Y47123257D02*
X12436339Y47218495D01*
X12436339Y47218495D02*
X12388720Y47313733D01*
X12388720Y47313733D02*
X12341101Y47361352D01*
X12341101Y47361352D02*
X12245863Y47408971D01*
X12245863Y47408971D02*
X12055387Y47456590D01*
X12055387Y47456590D02*
X11960149Y47504209D01*
X11960149Y47504209D02*
X11912530Y47551828D01*
X11912530Y47551828D02*
X11864911Y47647066D01*
X11864911Y47647066D02*
X11864911Y47742304D01*
X11864911Y47742304D02*
X11912530Y47837542D01*
X11912530Y47837542D02*
X11960149Y47885161D01*
X11960149Y47885161D02*
X12055387Y47932780D01*
X12055387Y47932780D02*
X12293482Y47932780D01*
X12293482Y47932780D02*
X12436339Y47885161D01*
X12769673Y47932780D02*
X13388720Y47932780D01*
X13388720Y47932780D02*
X13055387Y47551828D01*
X13055387Y47551828D02*
X13198244Y47551828D01*
X13198244Y47551828D02*
X13293482Y47504209D01*
X13293482Y47504209D02*
X13341101Y47456590D01*
X13341101Y47456590D02*
X13388720Y47361352D01*
X13388720Y47361352D02*
X13388720Y47123257D01*
X13388720Y47123257D02*
X13341101Y47028019D01*
X13341101Y47028019D02*
X13293482Y46980400D01*
X13293482Y46980400D02*
X13198244Y46932780D01*
X13198244Y46932780D02*
X12912530Y46932780D01*
X12912530Y46932780D02*
X12817292Y46980400D01*
X12817292Y46980400D02*
X12769673Y47028019D01*
X-6132780Y-27558898D02*
X-6608971Y-27892231D01*
X-6132780Y-28130326D02*
X-7132780Y-28130326D01*
X-7132780Y-28130326D02*
X-7132780Y-27749374D01*
X-7132780Y-27749374D02*
X-7085161Y-27654136D01*
X-7085161Y-27654136D02*
X-7037542Y-27606517D01*
X-7037542Y-27606517D02*
X-6942304Y-27558898D01*
X-6942304Y-27558898D02*
X-6799447Y-27558898D01*
X-6799447Y-27558898D02*
X-6704209Y-27606517D01*
X-6704209Y-27606517D02*
X-6656590Y-27654136D01*
X-6656590Y-27654136D02*
X-6608971Y-27749374D01*
X-6608971Y-27749374D02*
X-6608971Y-28130326D01*
X-6132780Y-27130326D02*
X-6799447Y-27130326D01*
X-7132780Y-27130326D02*
X-7085161Y-27177945D01*
X-7085161Y-27177945D02*
X-7037542Y-27130326D01*
X-7037542Y-27130326D02*
X-7085161Y-27082707D01*
X-7085161Y-27082707D02*
X-7132780Y-27130326D01*
X-7132780Y-27130326D02*
X-7037542Y-27130326D01*
X-6799447Y-26654136D02*
X-6132780Y-26654136D01*
X-6704209Y-26654136D02*
X-6751828Y-26606517D01*
X-6751828Y-26606517D02*
X-6799447Y-26511279D01*
X-6799447Y-26511279D02*
X-6799447Y-26368422D01*
X-6799447Y-26368422D02*
X-6751828Y-26273184D01*
X-6751828Y-26273184D02*
X-6656590Y-26225565D01*
X-6656590Y-26225565D02*
X-6132780Y-26225565D01*
X-6799447Y-25320803D02*
X-5989923Y-25320803D01*
X-5989923Y-25320803D02*
X-5894685Y-25368422D01*
X-5894685Y-25368422D02*
X-5847066Y-25416041D01*
X-5847066Y-25416041D02*
X-5799447Y-25511279D01*
X-5799447Y-25511279D02*
X-5799447Y-25654136D01*
X-5799447Y-25654136D02*
X-5847066Y-25749374D01*
X-6180400Y-25320803D02*
X-6132780Y-25416041D01*
X-6132780Y-25416041D02*
X-6132780Y-25606517D01*
X-6132780Y-25606517D02*
X-6180400Y-25701755D01*
X-6180400Y-25701755D02*
X-6228019Y-25749374D01*
X-6228019Y-25749374D02*
X-6323257Y-25796993D01*
X-6323257Y-25796993D02*
X-6608971Y-25796993D01*
X-6608971Y-25796993D02*
X-6704209Y-25749374D01*
X-6704209Y-25749374D02*
X-6751828Y-25701755D01*
X-6751828Y-25701755D02*
X-6799447Y-25606517D01*
X-6799447Y-25606517D02*
X-6799447Y-25416041D01*
X-6799447Y-25416041D02*
X-6751828Y-25320803D01*
X-6132780Y-24082707D02*
X-7132780Y-24082707D01*
X-7132780Y-24082707D02*
X-6418495Y-23749374D01*
X-6418495Y-23749374D02*
X-7132780Y-23416041D01*
X-7132780Y-23416041D02*
X-6132780Y-23416041D01*
X-14369047Y39632780D02*
X-14178571Y39632780D01*
X-14178571Y39632780D02*
X-14083333Y39680400D01*
X-14083333Y39680400D02*
X-14035714Y39728019D01*
X-14035714Y39728019D02*
X-13940476Y39870876D01*
X-13940476Y39870876D02*
X-13892857Y40061352D01*
X-13892857Y40061352D02*
X-13892857Y40442304D01*
X-13892857Y40442304D02*
X-13940476Y40537542D01*
X-13940476Y40537542D02*
X-13988095Y40585161D01*
X-13988095Y40585161D02*
X-14083333Y40632780D01*
X-14083333Y40632780D02*
X-14273809Y40632780D01*
X-14273809Y40632780D02*
X-14369047Y40585161D01*
X-14369047Y40585161D02*
X-14416666Y40537542D01*
X-14416666Y40537542D02*
X-14464285Y40442304D01*
X-14464285Y40442304D02*
X-14464285Y40204209D01*
X-14464285Y40204209D02*
X-14416666Y40108971D01*
X-14416666Y40108971D02*
X-14369047Y40061352D01*
X-14369047Y40061352D02*
X-14273809Y40013733D01*
X-14273809Y40013733D02*
X-14083333Y40013733D01*
X-14083333Y40013733D02*
X-13988095Y40061352D01*
X-13988095Y40061352D02*
X-13940476Y40108971D01*
X-13940476Y40108971D02*
X-13892857Y40204209D01*
X-13607142Y40632780D02*
X-13273809Y39632780D01*
X-13273809Y39632780D02*
X-12940476Y40632780D01*
D10*
X-23917438Y-48761904D02*
X-23869819Y-48666666D01*
X-23869819Y-48666666D02*
X-23869819Y-48523809D01*
X-23869819Y-48523809D02*
X-23917438Y-48380952D01*
X-23917438Y-48380952D02*
X-24012676Y-48285714D01*
X-24012676Y-48285714D02*
X-24107914Y-48238095D01*
X-24107914Y-48238095D02*
X-24298390Y-48190476D01*
X-24298390Y-48190476D02*
X-24441247Y-48190476D01*
X-24441247Y-48190476D02*
X-24631723Y-48238095D01*
X-24631723Y-48238095D02*
X-24726961Y-48285714D01*
X-24726961Y-48285714D02*
X-24822200Y-48380952D01*
X-24822200Y-48380952D02*
X-24869819Y-48523809D01*
X-24869819Y-48523809D02*
X-24869819Y-48619047D01*
X-24869819Y-48619047D02*
X-24822200Y-48761904D01*
X-24822200Y-48761904D02*
X-24774580Y-48809523D01*
X-24774580Y-48809523D02*
X-24441247Y-48809523D01*
X-24441247Y-48809523D02*
X-24441247Y-48619047D01*
D11*
X16045863Y48532780D02*
X15569673Y48532780D01*
X15569673Y48532780D02*
X15569673Y49532780D01*
X17452380Y-52867219D02*
X17119047Y-52391028D01*
X16880952Y-52867219D02*
X16880952Y-51867219D01*
X16880952Y-51867219D02*
X17261904Y-51867219D01*
X17261904Y-51867219D02*
X17357142Y-51914838D01*
X17357142Y-51914838D02*
X17404761Y-51962457D01*
X17404761Y-51962457D02*
X17452380Y-52057695D01*
X17452380Y-52057695D02*
X17452380Y-52200552D01*
X17452380Y-52200552D02*
X17404761Y-52295790D01*
X17404761Y-52295790D02*
X17357142Y-52343409D01*
X17357142Y-52343409D02*
X17261904Y-52391028D01*
X17261904Y-52391028D02*
X16880952Y-52391028D01*
X17833333Y-52819600D02*
X17976190Y-52867219D01*
X17976190Y-52867219D02*
X18214285Y-52867219D01*
X18214285Y-52867219D02*
X18309523Y-52819600D01*
X18309523Y-52819600D02*
X18357142Y-52771980D01*
X18357142Y-52771980D02*
X18404761Y-52676742D01*
X18404761Y-52676742D02*
X18404761Y-52581504D01*
X18404761Y-52581504D02*
X18357142Y-52486266D01*
X18357142Y-52486266D02*
X18309523Y-52438647D01*
X18309523Y-52438647D02*
X18214285Y-52391028D01*
X18214285Y-52391028D02*
X18023809Y-52343409D01*
X18023809Y-52343409D02*
X17928571Y-52295790D01*
X17928571Y-52295790D02*
X17880952Y-52248171D01*
X17880952Y-52248171D02*
X17833333Y-52152933D01*
X17833333Y-52152933D02*
X17833333Y-52057695D01*
X17833333Y-52057695D02*
X17880952Y-51962457D01*
X17880952Y-51962457D02*
X17928571Y-51914838D01*
X17928571Y-51914838D02*
X18023809Y-51867219D01*
X18023809Y-51867219D02*
X18261904Y-51867219D01*
X18261904Y-51867219D02*
X18404761Y-51914838D01*
X18690476Y-51867219D02*
X19261904Y-51867219D01*
X18976190Y-52867219D02*
X18976190Y-51867219D01*
X27843409Y-1630326D02*
X27843409Y-1296993D01*
X28367219Y-1154136D02*
X28367219Y-1630326D01*
X28367219Y-1630326D02*
X27367219Y-1630326D01*
X27367219Y-1630326D02*
X27367219Y-1154136D01*
X28367219Y-725564D02*
X27367219Y-725564D01*
X27367219Y-725564D02*
X28367219Y-154136D01*
X28367219Y-154136D02*
X27367219Y-154136D01*
X27462457Y274435D02*
X27414838Y322054D01*
X27414838Y322054D02*
X27367219Y417292D01*
X27367219Y417292D02*
X27367219Y655387D01*
X27367219Y655387D02*
X27414838Y750625D01*
X27414838Y750625D02*
X27462457Y798244D01*
X27462457Y798244D02*
X27557695Y845863D01*
X27557695Y845863D02*
X27652933Y845863D01*
X27652933Y845863D02*
X27795790Y798244D01*
X27795790Y798244D02*
X28367219Y226816D01*
X28367219Y226816D02*
X28367219Y845863D01*
D14*
X-5350000Y-15250000D02*
X-5350000Y-16500000D01*
X-5060000Y-15540000D02*
X-5060000Y-21510000D01*
X-5060000Y-21510000D02*
X5060000Y-21510000D01*
X-5050000Y-15550000D02*
X-5050000Y-16300000D01*
X-5050000Y-16300000D02*
X-3250000Y-16300000D01*
X-5050000Y-17800000D02*
X-4300000Y-17800000D01*
X-4300000Y-17800000D02*
X-4300000Y-20750000D01*
X-4300000Y-20750000D02*
X0Y-20750000D01*
X-4100000Y-15250000D02*
X-5350000Y-15250000D01*
X-3250000Y-15550000D02*
X-5050000Y-15550000D01*
X-3250000Y-16300000D02*
X-3250000Y-15550000D01*
X-1750000Y-15550000D02*
X-1750000Y-16300000D01*
X-1750000Y-16300000D02*
X1750000Y-16300000D01*
X1750000Y-15550000D02*
X-1750000Y-15550000D01*
X1750000Y-16300000D02*
X1750000Y-15550000D01*
X3250000Y-15550000D02*
X3250000Y-16300000D01*
X3250000Y-16300000D02*
X5050000Y-16300000D01*
X4300000Y-17800000D02*
X4300000Y-20750000D01*
X4300000Y-20750000D02*
X0Y-20750000D01*
X5050000Y-15550000D02*
X3250000Y-15550000D01*
X5050000Y-16300000D02*
X5050000Y-15550000D01*
X5050000Y-17800000D02*
X4300000Y-17800000D01*
X5060000Y-15540000D02*
X-5060000Y-15540000D01*
X5060000Y-21510000D02*
X5060000Y-15540000D01*
X-17800000Y-28500000D02*
G75*
G02*
X-19200000Y-28500000I-700000J0D01*
G01*
X-19200000Y-28500000D02*
G75*
G02*
X-17800000Y-28500000I700000J0D01*
G01*
X17040000Y262742D02*
X17040000Y737258D01*
X18085000Y262742D02*
X18085000Y737258D01*
X8620000Y25240000D02*
X8620000Y9740000D01*
X8620000Y9740000D02*
X29200000Y9740000D01*
X26530000Y25240000D02*
X8620000Y25240000D01*
X26530000Y22570000D02*
X8620000Y22570000D01*
X26530000Y22570000D02*
X26530000Y25240000D01*
X29200000Y25240000D02*
X27800000Y25240000D01*
X29200000Y23840000D02*
X29200000Y25240000D01*
X29200000Y22570000D02*
X26530000Y22570000D01*
X29200000Y12410000D02*
X8620000Y12410000D01*
X29200000Y9740000D02*
X29200000Y22570000D01*
X-13800000Y-15500000D02*
G75*
G02*
X-15200000Y-15500000I-700000J0D01*
G01*
X-15200000Y-15500000D02*
G75*
G02*
X-13800000Y-15500000I700000J0D01*
G01*
X4477500Y26262742D02*
X4477500Y26737258D01*
X5522500Y26262742D02*
X5522500Y26737258D01*
X-20522500Y-47237258D02*
X-20522500Y-46762742D01*
X-19477500Y-47237258D02*
X-19477500Y-46762742D01*
X8162742Y45522500D02*
X8637258Y45522500D01*
X8162742Y44477500D02*
X8637258Y44477500D01*
X20500000Y-4890000D02*
X19850000Y-4890000D01*
X20500000Y-4890000D02*
X21150000Y-4890000D01*
X20500000Y-8010000D02*
X19850000Y-8010000D01*
X20500000Y-8010000D02*
X21150000Y-8010000D01*
X19337500Y-4940000D02*
X19097500Y-4610000D01*
X19577500Y-4610000D01*
X19337500Y-4940000D01*
G36*
X19337500Y-4940000D02*
G01*
X19097500Y-4610000D01*
X19577500Y-4610000D01*
X19337500Y-4940000D01*
G37*
X4477500Y20762742D02*
X4477500Y21237258D01*
X5522500Y20762742D02*
X5522500Y21237258D01*
X-29360000Y40060000D02*
X-17640000Y40060000D01*
X-29360000Y33750000D02*
X-29360000Y40060000D01*
X-29360000Y33750000D02*
X-29360000Y27440000D01*
X-29360000Y27440000D02*
X-17640000Y27440000D01*
X-28750000Y37750000D02*
X-28750000Y37250000D01*
X-28750000Y37250000D02*
X-23250000Y37250000D01*
X-28750000Y35250000D02*
X-28750000Y34750000D01*
X-28750000Y34750000D02*
X-23250000Y34750000D01*
X-28750000Y32750000D02*
X-28750000Y32250000D01*
X-28750000Y32250000D02*
X-23250000Y32250000D01*
X-28750000Y30250000D02*
X-28750000Y29750000D01*
X-28750000Y29750000D02*
X-23250000Y29750000D01*
X-23250000Y37750000D02*
X-28750000Y37750000D01*
X-23250000Y37250000D02*
X-23250000Y37750000D01*
X-23250000Y35250000D02*
X-28750000Y35250000D01*
X-23250000Y34750000D02*
X-23250000Y35250000D01*
X-23250000Y32750000D02*
X-28750000Y32750000D01*
X-23250000Y32250000D02*
X-23250000Y32750000D01*
X-23250000Y30250000D02*
X-28750000Y30250000D01*
X-23250000Y29750000D02*
X-23250000Y30250000D01*
X-22140000Y38640000D02*
X-22140000Y33750000D01*
X-22140000Y28860000D02*
X-22140000Y33750000D01*
X-18550000Y37500000D02*
X-17950000Y37800000D01*
X-17950000Y37800000D02*
X-17950000Y37200000D01*
X-17950000Y37200000D02*
X-18550000Y37500000D01*
X-17640000Y40060000D02*
X-17640000Y38640000D01*
X-17640000Y38640000D02*
X-22140000Y38640000D01*
X-17640000Y28860000D02*
X-22140000Y28860000D01*
X-17640000Y27440000D02*
X-17640000Y28860000D01*
X15462742Y48022500D02*
X15937258Y48022500D01*
X15462742Y46977500D02*
X15937258Y46977500D01*
X-28760000Y-22304437D02*
X-28760000Y-26760000D01*
X-28760000Y-26760000D02*
X-27060000Y-26760000D01*
X-27695563Y-21240000D02*
X-28760000Y-22304437D01*
X-27695563Y-21240000D02*
X-27060000Y-21240000D01*
X-24315000Y-20375000D02*
X-24315000Y-21000000D01*
X-24304437Y-21240000D02*
X-24940000Y-21240000D01*
X-24304437Y-21240000D02*
X-23240000Y-22304437D01*
X-24002500Y-20687500D02*
X-24627500Y-20687500D01*
X-23240000Y-22304437D02*
X-23240000Y-26760000D01*
X-23240000Y-26760000D02*
X-24940000Y-26760000D01*
X-1760000Y-3740000D02*
X-1760000Y-6490000D01*
X-1760000Y-12260000D02*
X-1760000Y-9510000D01*
X5695563Y-3740000D02*
X-1760000Y-3740000D01*
X5695563Y-12260000D02*
X-1760000Y-12260000D01*
X6760000Y-4804437D02*
X5695563Y-3740000D01*
X6760000Y-4804437D02*
X6760000Y-6490000D01*
X6760000Y-11195563D02*
X5695563Y-12260000D01*
X6760000Y-11195563D02*
X6760000Y-9510000D01*
X7500000Y-11010000D02*
X7500000Y-10010000D01*
X8000000Y-10510000D02*
X7000000Y-10510000D01*
D12*
X16860555Y-54500000D02*
G75*
G02*
X16139445Y-54500000I-360555J0D01*
G01*
X16139445Y-54500000D02*
G75*
G02*
X16860555Y-54500000I360555J0D01*
G01*
X16860555Y-57500000D02*
G75*
G02*
X16139445Y-57500000I-360555J0D01*
G01*
X16139445Y-57500000D02*
G75*
G02*
X16860555Y-57500000I360555J0D01*
G01*
X19125000Y-56000000D02*
G75*
G02*
X16875000Y-56000000I-1125000J0D01*
G01*
X16875000Y-56000000D02*
G75*
G02*
X19125000Y-56000000I1125000J0D01*
G01*
X19860555Y-54500000D02*
G75*
G02*
X19139445Y-54500000I-360555J0D01*
G01*
X19139445Y-54500000D02*
G75*
G02*
X19860555Y-54500000I360555J0D01*
G01*
X19860555Y-57500000D02*
G75*
G02*
X19139445Y-57500000I-360555J0D01*
G01*
X19139445Y-57500000D02*
G75*
G02*
X19860555Y-57500000I360555J0D01*
G01*
X20250000Y-58250000D02*
X15750000Y-58250000D01*
X15750000Y-53750000D01*
X20250000Y-53750000D01*
X20250000Y-58250000D01*
D15*
G36*
X-16757361Y-32103677D02*
G01*
X-16732179Y-32108891D01*
X-16700773Y-32118645D01*
X-16661698Y-32133509D01*
X-16613510Y-32154054D01*
X-16554764Y-32180852D01*
X-16484015Y-32214473D01*
X-16399819Y-32255489D01*
X-16300731Y-32304470D01*
X-16185306Y-32361988D01*
X-16052100Y-32428614D01*
X-15969458Y-32469985D01*
X-15830038Y-32539830D01*
X-15709277Y-32600470D01*
X-15605780Y-32652655D01*
X-15518154Y-32697135D01*
X-15445003Y-32734659D01*
X-15384934Y-32765979D01*
X-15336551Y-32791843D01*
X-15298461Y-32813003D01*
X-15269269Y-32830207D01*
X-15247580Y-32844207D01*
X-15232001Y-32855752D01*
X-15221135Y-32865592D01*
X-15213590Y-32874478D01*
X-15211284Y-32877789D01*
X-15182429Y-32935396D01*
X-15174788Y-32990232D01*
X-15182648Y-33031058D01*
X-15189379Y-33043455D01*
X-15204169Y-33063136D01*
X-15227886Y-33091010D01*
X-15261394Y-33127983D01*
X-15305559Y-33174963D01*
X-15361248Y-33232857D01*
X-15429326Y-33302572D01*
X-15510658Y-33385016D01*
X-15606110Y-33481095D01*
X-15716549Y-33591716D01*
X-15740766Y-33615921D01*
X-15833039Y-33707929D01*
X-15921361Y-33795638D01*
X-16004350Y-33877702D01*
X-16080629Y-33952771D01*
X-16148816Y-34019499D01*
X-16207532Y-34076538D01*
X-16255396Y-34122538D01*
X-16291030Y-34156154D01*
X-16313052Y-34176037D01*
X-16319062Y-34180756D01*
X-16365092Y-34197577D01*
X-16418643Y-34200252D01*
X-16469960Y-34188876D01*
X-16489878Y-34179104D01*
X-16532402Y-34141339D01*
X-16560036Y-34092170D01*
X-16571308Y-34037281D01*
X-16564748Y-33982355D01*
X-16549606Y-33948301D01*
X-16537479Y-33933447D01*
X-16511097Y-33904597D01*
X-16472140Y-33863481D01*
X-16422288Y-33811831D01*
X-16363221Y-33751377D01*
X-16296621Y-33683849D01*
X-16224167Y-33610979D01*
X-16155592Y-33542506D01*
X-15782823Y-33171551D01*
X-15835066Y-33171551D01*
X-15881052Y-33173852D01*
X-15943946Y-33180279D01*
X-16018796Y-33190121D01*
X-16100651Y-33202667D01*
X-16184558Y-33217206D01*
X-16265567Y-33233025D01*
X-16271387Y-33234243D01*
X-16453853Y-33279288D01*
X-16643494Y-33338440D01*
X-16832683Y-33409013D01*
X-17013789Y-33488318D01*
X-17068825Y-33515118D01*
X-17145166Y-33553492D01*
X-17206162Y-33584799D01*
X-17256599Y-33611764D01*
X-17301264Y-33637116D01*
X-17344946Y-33663580D01*
X-17392429Y-33693884D01*
X-17448503Y-33730754D01*
X-17455289Y-33735253D01*
X-17685645Y-33901209D01*
X-17900228Y-34082750D01*
X-18098470Y-34279127D01*
X-18279804Y-34489595D01*
X-18443662Y-34713407D01*
X-18589476Y-34949816D01*
X-18716678Y-35198075D01*
X-18824700Y-35457437D01*
X-18875017Y-35602340D01*
X-18940316Y-35834223D01*
X-18989547Y-36074823D01*
X-19022378Y-36320107D01*
X-19038477Y-36566044D01*
X-19037509Y-36808601D01*
X-19019142Y-37043747D01*
X-19003417Y-37156743D01*
X-18990565Y-37247525D01*
X-18984563Y-37319181D01*
X-18985429Y-37373908D01*
X-18993181Y-37413900D01*
X-19005708Y-37438643D01*
X-19048849Y-37479886D01*
X-19101982Y-37505331D01*
X-19159247Y-37513174D01*
X-19212803Y-37502417D01*
X-19253522Y-37477497D01*
X-19289552Y-37440524D01*
X-19312578Y-37400114D01*
X-19313168Y-37398374D01*
X-19323004Y-37359710D01*
X-19333682Y-37302762D01*
X-19344670Y-37231593D01*
X-19355440Y-37150265D01*
X-19365461Y-37062841D01*
X-19374203Y-36973383D01*
X-19381137Y-36885955D01*
X-19382297Y-36868488D01*
X-19388440Y-36612597D01*
X-19375061Y-36350225D01*
X-19342737Y-36084756D01*
X-19292041Y-35819578D01*
X-19223549Y-35558077D01*
X-19137836Y-35303639D01*
X-19100258Y-35208013D01*
X-19040006Y-35071055D01*
X-18968633Y-34925768D01*
X-18890362Y-34780132D01*
X-18809416Y-34642120D01*
X-18757199Y-34560026D01*
X-18583507Y-34316585D01*
X-18394721Y-34089602D01*
X-18191231Y-33879371D01*
X-17973432Y-33686183D01*
X-17741715Y-33510330D01*
X-17496474Y-33352106D01*
X-17238102Y-33211801D01*
X-16966992Y-33089709D01*
X-16683536Y-32986121D01*
X-16610115Y-32962943D01*
X-16545548Y-32944699D01*
X-16467394Y-32924957D01*
X-16381731Y-32905038D01*
X-16294635Y-32886265D01*
X-16212184Y-32869957D01*
X-16140455Y-32857436D01*
X-16095921Y-32851156D01*
X-16062015Y-32845758D01*
X-16039382Y-32839448D01*
X-16033605Y-32835113D01*
X-16043288Y-32828392D01*
X-16070933Y-32812837D01*
X-16114438Y-32789543D01*
X-16171699Y-32759606D01*
X-16240613Y-32724122D01*
X-16319076Y-32684186D01*
X-16404985Y-32640894D01*
X-16442788Y-32621970D01*
X-16551866Y-32567312D01*
X-16642585Y-32521294D01*
X-16716702Y-32482736D01*
X-16775979Y-32450455D01*
X-16822173Y-32423269D01*
X-16857044Y-32399996D01*
X-16882351Y-32379454D01*
X-16899853Y-32360461D01*
X-16911309Y-32341836D01*
X-16918478Y-32322395D01*
X-16923119Y-32300958D01*
X-16923457Y-32298984D01*
X-16921914Y-32247574D01*
X-16903412Y-32195495D01*
X-16871701Y-32150581D01*
X-16840476Y-32125712D01*
X-16824744Y-32116795D01*
X-16810011Y-32109561D01*
X-16794832Y-32104583D01*
X-16777764Y-32102432D01*
X-16757361Y-32103677D01*
G37*
G36*
X-14266116Y-33021238D02*
G01*
X-14227078Y-33031914D01*
X-14123555Y-33069284D01*
X-14007392Y-33117351D01*
X-13883960Y-33173513D01*
X-13758631Y-33235168D01*
X-13636776Y-33299715D01*
X-13523766Y-33364551D01*
X-13463858Y-33401604D01*
X-13218260Y-33570825D01*
X-12990239Y-33753661D01*
X-12779086Y-33950809D01*
X-12584091Y-34162966D01*
X-12404543Y-34390831D01*
X-12291604Y-34554055D01*
X-12145550Y-34793724D01*
X-12019465Y-35037923D01*
X-11912581Y-35288749D01*
X-11824130Y-35548299D01*
X-11753343Y-35818669D01*
X-11699454Y-36101958D01*
X-11682848Y-36216417D01*
X-11675434Y-36287982D01*
X-11669598Y-36376416D01*
X-11665372Y-36476938D01*
X-11662788Y-36584771D01*
X-11661878Y-36695135D01*
X-11662674Y-36803251D01*
X-11665209Y-36904341D01*
X-11669514Y-36993626D01*
X-11675621Y-37066326D01*
X-11677053Y-37078382D01*
X-11710507Y-37304882D01*
X-11752288Y-37516369D01*
X-11803986Y-37719183D01*
X-11867191Y-37919662D01*
X-11932038Y-38095235D01*
X-11948072Y-38137448D01*
X-11959807Y-38171022D01*
X-11965609Y-38191133D01*
X-11965754Y-38194654D01*
X-11955633Y-38189969D01*
X-11928432Y-38174974D01*
X-11886260Y-38150895D01*
X-11831226Y-38118955D01*
X-11765438Y-38080380D01*
X-11691005Y-38036395D01*
X-11610036Y-37988226D01*
X-11595949Y-37979815D01*
X-11512618Y-37930097D01*
X-11434243Y-37883463D01*
X-11363158Y-37841294D01*
X-11301699Y-37804970D01*
X-11252201Y-37775870D01*
X-11217001Y-37755375D01*
X-11198433Y-37744864D01*
X-11197566Y-37744407D01*
X-11144303Y-37727422D01*
X-11093096Y-37729646D01*
X-11046419Y-37747901D01*
X-11006747Y-37779014D01*
X-10976555Y-37819806D01*
X-10958317Y-37867102D01*
X-10954509Y-37917726D01*
X-10967605Y-37968502D01*
X-10992419Y-38007698D01*
X-11007806Y-38020385D01*
X-11040346Y-38043053D01*
X-11087893Y-38074341D01*
X-11148298Y-38112888D01*
X-11219412Y-38157332D01*
X-11299089Y-38206310D01*
X-11385178Y-38258462D01*
X-11436447Y-38289176D01*
X-11534909Y-38347928D01*
X-11636542Y-38408580D01*
X-11737719Y-38468966D01*
X-11834815Y-38526923D01*
X-11924201Y-38580285D01*
X-12002253Y-38626887D01*
X-12065341Y-38664565D01*
X-12074624Y-38670110D01*
X-12160626Y-38721352D01*
X-12229837Y-38762049D01*
X-12284623Y-38793244D01*
X-12327349Y-38815981D01*
X-12360382Y-38831302D01*
X-12386085Y-38840252D01*
X-12406826Y-38843873D01*
X-12424969Y-38843209D01*
X-12442880Y-38839304D01*
X-12452064Y-38836592D01*
X-12478325Y-38828099D01*
X-12500482Y-38818837D01*
X-12519355Y-38806760D01*
X-12535762Y-38789825D01*
X-12550522Y-38765987D01*
X-12564453Y-38733203D01*
X-12578373Y-38689429D01*
X-12593101Y-38632620D01*
X-12609456Y-38560733D01*
X-12628256Y-38471723D01*
X-12650318Y-38363546D01*
X-12659334Y-38318939D01*
X-12698037Y-38127013D01*
X-12732383Y-37956053D01*
X-12762556Y-37805102D01*
X-12788740Y-37673202D01*
X-12811120Y-37559398D01*
X-12829880Y-37462730D01*
X-12845204Y-37382243D01*
X-12857278Y-37316979D01*
X-12866284Y-37265980D01*
X-12872409Y-37228290D01*
X-12875835Y-37202952D01*
X-12876765Y-37190151D01*
X-12866374Y-37137378D01*
X-12838112Y-37089946D01*
X-12796476Y-37052209D01*
X-12745962Y-37028521D01*
X-12703710Y-37022595D01*
X-12661030Y-37031565D01*
X-12616012Y-37054484D01*
X-12577647Y-37085984D01*
X-12560955Y-37107794D01*
X-12553073Y-37128579D01*
X-12541863Y-37168504D01*
X-12528007Y-37224683D01*
X-12512191Y-37294231D01*
X-12495101Y-37374262D01*
X-12479917Y-37449216D01*
X-12455322Y-37572845D01*
X-12431935Y-37688965D01*
X-12410139Y-37795769D01*
X-12390314Y-37891449D01*
X-12372843Y-37974198D01*
X-12358107Y-38042207D01*
X-12346488Y-38093669D01*
X-12338368Y-38126777D01*
X-12334128Y-38139723D01*
X-12334117Y-38139734D01*
X-12327033Y-38133357D01*
X-12314018Y-38108816D01*
X-12296247Y-38069179D01*
X-12274894Y-38017513D01*
X-12251133Y-37956887D01*
X-12226140Y-37890367D01*
X-12201088Y-37821022D01*
X-12177153Y-37751919D01*
X-12155508Y-37686126D01*
X-12137328Y-37626709D01*
X-12136172Y-37622717D01*
X-12105351Y-37504829D01*
X-12076082Y-37371754D01*
X-12049832Y-37230693D01*
X-12029712Y-37100771D01*
X-12022251Y-37030986D01*
X-12016447Y-36943976D01*
X-12012335Y-36844775D01*
X-12009950Y-36738413D01*
X-12009326Y-36629922D01*
X-12010500Y-36524334D01*
X-12013504Y-36426679D01*
X-12018375Y-36341990D01*
X-12024055Y-36283583D01*
X-12060682Y-36043887D01*
X-12109024Y-35818895D01*
X-12170659Y-35603349D01*
X-12247165Y-35391990D01*
X-12340123Y-35179559D01*
X-12380329Y-35096981D01*
X-12515498Y-34851282D01*
X-12668737Y-34618665D01*
X-12839593Y-34399639D01*
X-13027611Y-34194710D01*
X-13232338Y-34004388D01*
X-13453320Y-33829180D01*
X-13610027Y-33720643D01*
X-13705206Y-33661358D01*
X-13811559Y-33600404D01*
X-13923515Y-33540630D01*
X-14035505Y-33484882D01*
X-14141961Y-33436010D01*
X-14237314Y-33396862D01*
X-14258292Y-33389099D01*
X-14328566Y-33361518D01*
X-14380149Y-33335308D01*
X-14416394Y-33307929D01*
X-14440655Y-33276845D01*
X-14456283Y-33239518D01*
X-14456376Y-33239209D01*
X-14463486Y-33180065D01*
X-14450449Y-33124900D01*
X-14419508Y-33077575D01*
X-14372905Y-33041955D01*
X-14332748Y-33026209D01*
X-14297823Y-33019412D01*
X-14266116Y-33021238D01*
G37*
G36*
X-18797737Y-38196220D02*
G01*
X-18776190Y-38199273D01*
X-18747611Y-38204787D01*
X-18710285Y-38213175D01*
X-18662498Y-38224847D01*
X-18602534Y-38240216D01*
X-18528679Y-38259694D01*
X-18439218Y-38283691D01*
X-18332438Y-38312620D01*
X-18206622Y-38346892D01*
X-18138145Y-38365586D01*
X-17972544Y-38410845D01*
X-17827218Y-38450637D01*
X-17700833Y-38485345D01*
X-17592053Y-38515350D01*
X-17499542Y-38541033D01*
X-17421964Y-38562777D01*
X-17357985Y-38580962D01*
X-17306267Y-38595970D01*
X-17265477Y-38608182D01*
X-17234277Y-38617981D01*
X-17211332Y-38625747D01*
X-17195308Y-38631862D01*
X-17184867Y-38636708D01*
X-17181032Y-38638963D01*
X-17140201Y-38677779D01*
X-17116076Y-38726453D01*
X-17108515Y-38780099D01*
X-17117377Y-38833830D01*
X-17142520Y-38882759D01*
X-17183803Y-38921999D01*
X-17189321Y-38925512D01*
X-17205405Y-38934906D01*
X-17221052Y-38942162D01*
X-17238256Y-38946932D01*
X-17259013Y-38948867D01*
X-17285317Y-38947616D01*
X-17319162Y-38942831D01*
X-17362545Y-38934162D01*
X-17417458Y-38921259D01*
X-17485899Y-38903773D01*
X-17569860Y-38881355D01*
X-17671336Y-38853655D01*
X-17792324Y-38820324D01*
X-17796717Y-38819111D01*
X-17912490Y-38787279D01*
X-18020707Y-38757754D01*
X-18119471Y-38731039D01*
X-18206884Y-38707637D01*
X-18281052Y-38688052D01*
X-18340076Y-38672788D01*
X-18382062Y-38662346D01*
X-18405112Y-38657230D01*
X-18408538Y-38656787D01*
X-18410144Y-38664711D01*
X-18398537Y-38686978D01*
X-18375527Y-38721330D01*
X-18342923Y-38765511D01*
X-18302536Y-38817262D01*
X-18256176Y-38874327D01*
X-18205652Y-38934448D01*
X-18152774Y-38995368D01*
X-18099353Y-39054829D01*
X-18047197Y-39110575D01*
X-18032537Y-39125754D01*
X-17827893Y-39320269D01*
X-17611211Y-39496035D01*
X-17383134Y-39652752D01*
X-17144310Y-39790120D01*
X-16895384Y-39907839D01*
X-16637000Y-40005608D01*
X-16369805Y-40083127D01*
X-16094444Y-40140097D01*
X-15811563Y-40176217D01*
X-15764941Y-40180096D01*
X-15504011Y-40189212D01*
X-15240692Y-40177081D01*
X-14977089Y-40144360D01*
X-14715308Y-40091705D01*
X-14457454Y-40019775D01*
X-14205633Y-39929226D01*
X-13961951Y-39820716D01*
X-13728514Y-39694901D01*
X-13507427Y-39552439D01*
X-13334128Y-39421467D01*
X-13277982Y-39376806D01*
X-13234603Y-39345109D01*
X-13200180Y-39324293D01*
X-13170900Y-39312276D01*
X-13142952Y-39306975D01*
X-13123072Y-39306144D01*
X-13066240Y-39315882D01*
X-13018638Y-39342401D01*
X-12982494Y-39381659D01*
X-12960035Y-39429612D01*
X-12953490Y-39482218D01*
X-12965086Y-39535434D01*
X-12980689Y-39564524D01*
X-13008710Y-39597486D01*
X-13053596Y-39639583D01*
X-13112722Y-39688931D01*
X-13183465Y-39743646D01*
X-13263198Y-39801845D01*
X-13349298Y-39861646D01*
X-13439139Y-39921164D01*
X-13530097Y-39978516D01*
X-13619546Y-40031819D01*
X-13677193Y-40064257D01*
X-13923222Y-40187050D01*
X-14181677Y-40293274D01*
X-14448512Y-40381525D01*
X-14719685Y-40450400D01*
X-14878791Y-40481161D01*
X-14911784Y-40486522D01*
X-14943834Y-40490965D01*
X-14977368Y-40494568D01*
X-15014812Y-40497413D01*
X-15058592Y-40499580D01*
X-15111134Y-40501150D01*
X-15174863Y-40502202D01*
X-15252206Y-40502817D01*
X-15345588Y-40503075D01*
X-15457437Y-40503057D01*
X-15536700Y-40502942D01*
X-15659404Y-40502692D01*
X-15762161Y-40502336D01*
X-15847414Y-40501773D01*
X-15917605Y-40500898D01*
X-15975175Y-40499609D01*
X-16022568Y-40497802D01*
X-16062224Y-40495374D01*
X-16096586Y-40492223D01*
X-16128097Y-40488245D01*
X-16159198Y-40483337D01*
X-16192331Y-40477395D01*
X-16207118Y-40474628D01*
X-16498641Y-40409252D01*
X-16778469Y-40324984D01*
X-17047439Y-40221488D01*
X-17306385Y-40098424D01*
X-17556144Y-39955457D01*
X-17662385Y-39886800D01*
X-17889132Y-39722193D01*
X-18106582Y-39538554D01*
X-18312312Y-39338156D01*
X-18503897Y-39123275D01*
X-18588463Y-39017800D01*
X-18651302Y-38936636D01*
X-18657525Y-39006606D01*
X-18659384Y-39034155D01*
X-18661865Y-39080975D01*
X-18664834Y-39143959D01*
X-18668153Y-39220002D01*
X-18671687Y-39305998D01*
X-18675299Y-39398842D01*
X-18678293Y-39479834D01*
X-18682226Y-39586576D01*
X-18685677Y-39673297D01*
X-18688843Y-39742355D01*
X-18691921Y-39796107D01*
X-18695107Y-39836910D01*
X-18698599Y-39867123D01*
X-18702592Y-39889102D01*
X-18707284Y-39905205D01*
X-18712872Y-39917790D01*
X-18715197Y-39922011D01*
X-18743618Y-39955029D01*
X-18784945Y-39984362D01*
X-18830362Y-40004804D01*
X-18866389Y-40011304D01*
X-18907594Y-40002715D01*
X-18951980Y-39980505D01*
X-18990823Y-39950014D01*
X-19012924Y-39921645D01*
X-19018115Y-39910976D01*
X-19022518Y-39898756D01*
X-19026122Y-39883444D01*
X-19028919Y-39863498D01*
X-19030898Y-39837377D01*
X-19032050Y-39803539D01*
X-19032365Y-39760442D01*
X-19031834Y-39706546D01*
X-19030447Y-39640308D01*
X-19028193Y-39560187D01*
X-19025064Y-39464642D01*
X-19021050Y-39352130D01*
X-19016141Y-39221110D01*
X-19010328Y-39070041D01*
X-19007043Y-38985593D01*
X-19001631Y-38847283D01*
X-18996942Y-38729560D01*
X-18992844Y-38630637D01*
X-18989207Y-38548729D01*
X-18985903Y-38482049D01*
X-18982799Y-38428811D01*
X-18979767Y-38387229D01*
X-18976676Y-38355518D01*
X-18973396Y-38331891D01*
X-18969796Y-38314562D01*
X-18965748Y-38301745D01*
X-18961120Y-38291655D01*
X-18955827Y-38282575D01*
X-18918318Y-38236459D01*
X-18871304Y-38207947D01*
X-18837331Y-38197714D01*
X-18826593Y-38195853D01*
X-18813967Y-38195217D01*
X-18797737Y-38196220D01*
G37*
G36*
X-15515278Y-34349102D02*
G01*
X-15495589Y-34355824D01*
X-15465359Y-34367567D01*
X-15423578Y-34384768D01*
X-15369237Y-34407870D01*
X-15301325Y-34437312D01*
X-15218832Y-34473534D01*
X-15120749Y-34516976D01*
X-15006066Y-34568078D01*
X-14873772Y-34627281D01*
X-14722858Y-34695025D01*
X-14600727Y-34749955D01*
X-14546955Y-34774157D01*
X-14483218Y-34802844D01*
X-14419967Y-34831313D01*
X-14393632Y-34843167D01*
X-14359314Y-34858569D01*
X-14307336Y-34881837D01*
X-14240487Y-34911724D01*
X-14161558Y-34946985D01*
X-14073338Y-34986374D01*
X-13978618Y-35028643D01*
X-13880186Y-35072547D01*
X-13828317Y-35095674D01*
X-13732452Y-35138503D01*
X-13641723Y-35179213D01*
X-13558431Y-35216757D01*
X-13484878Y-35250091D01*
X-13423366Y-35278169D01*
X-13376197Y-35299946D01*
X-13345672Y-35314377D01*
X-13335765Y-35319367D01*
X-13296585Y-35340941D01*
X-13293740Y-36656027D01*
X-13293336Y-36862774D01*
X-13293073Y-37048162D01*
X-13292959Y-37213219D01*
X-13293003Y-37358975D01*
X-13293213Y-37486459D01*
X-13293599Y-37596699D01*
X-13294169Y-37690725D01*
X-13294931Y-37769566D01*
X-13295896Y-37834250D01*
X-13297070Y-37885807D01*
X-13298463Y-37925265D01*
X-13300085Y-37953654D01*
X-13301942Y-37972003D01*
X-13304045Y-37981340D01*
X-13304996Y-37982815D01*
X-13319779Y-37991265D01*
X-13351141Y-38006769D01*
X-13395127Y-38027451D01*
X-13447786Y-38051433D01*
X-13475755Y-38063908D01*
X-13538938Y-38092020D01*
X-13602900Y-38120696D01*
X-13661126Y-38147001D01*
X-13707098Y-38168000D01*
X-13716373Y-38172290D01*
X-13758471Y-38191649D01*
X-13794982Y-38208096D01*
X-13819361Y-38218693D01*
X-13822720Y-38220054D01*
X-13837696Y-38226496D01*
X-13870712Y-38241065D01*
X-13919390Y-38262702D01*
X-13981352Y-38290346D01*
X-14054222Y-38322935D01*
X-14135622Y-38359409D01*
X-14223175Y-38398707D01*
X-14236911Y-38404879D01*
X-14335728Y-38449273D01*
X-14437861Y-38495143D01*
X-14539183Y-38540635D01*
X-14635565Y-38583897D01*
X-14722878Y-38623075D01*
X-14796994Y-38656316D01*
X-14841406Y-38676222D01*
X-14914450Y-38708951D01*
X-14989016Y-38742366D01*
X-15059591Y-38773997D01*
X-15120661Y-38801373D01*
X-15166043Y-38821721D01*
X-15258905Y-38863272D01*
X-15333617Y-38896425D01*
X-15392391Y-38922085D01*
X-15437443Y-38941154D01*
X-15470986Y-38954535D01*
X-15495234Y-38963133D01*
X-15512403Y-38967850D01*
X-15524705Y-38969589D01*
X-15528680Y-38969655D01*
X-15546264Y-38965014D01*
X-15581252Y-38952205D01*
X-15630711Y-38932434D01*
X-15691713Y-38906903D01*
X-15761326Y-38876818D01*
X-15836621Y-38843381D01*
X-15843301Y-38840372D01*
X-15921205Y-38805294D01*
X-15995590Y-38771887D01*
X-16063077Y-38741663D01*
X-16120290Y-38716132D01*
X-16163848Y-38696804D01*
X-16190326Y-38685211D01*
X-16234566Y-38665862D01*
X-16286299Y-38642749D01*
X-16324659Y-38625301D01*
X-16346061Y-38615581D01*
X-16385670Y-38597713D01*
X-16441254Y-38572697D01*
X-16510586Y-38541533D01*
X-16591434Y-38505220D01*
X-16681571Y-38464759D01*
X-16778767Y-38421147D01*
X-16880792Y-38375386D01*
X-16985417Y-38328473D01*
X-17090412Y-38281410D01*
X-17193548Y-38235196D01*
X-17292597Y-38190829D01*
X-17385327Y-38149310D01*
X-17469511Y-38111638D01*
X-17542918Y-38078813D01*
X-17603319Y-38051834D01*
X-17648485Y-38031701D01*
X-17665819Y-38023999D01*
X-17704252Y-38004700D01*
X-17735701Y-37984856D01*
X-17752575Y-37969626D01*
X-17755086Y-37963608D01*
X-17757330Y-37952340D01*
X-17759320Y-37934655D01*
X-17761072Y-37909386D01*
X-17762354Y-37880846D01*
X-17623204Y-37880846D01*
X-17536448Y-37920989D01*
X-17507510Y-37934212D01*
X-17460786Y-37955354D01*
X-17398937Y-37983221D01*
X-17324625Y-38016615D01*
X-17240513Y-38054342D01*
X-17149262Y-38095206D01*
X-17053535Y-38138011D01*
X-17007515Y-38158566D01*
X-16910740Y-38201796D01*
X-16817297Y-38243574D01*
X-16729829Y-38282716D01*
X-16650977Y-38318039D01*
X-16583382Y-38348358D01*
X-16529686Y-38372491D01*
X-16492532Y-38389253D01*
X-16481380Y-38394319D01*
X-16450010Y-38408568D01*
X-16403754Y-38429486D01*
X-16345146Y-38455933D01*
X-16276715Y-38486773D01*
X-16200995Y-38520868D01*
X-16120516Y-38557079D01*
X-16037811Y-38594269D01*
X-15955411Y-38631301D01*
X-15875848Y-38667036D01*
X-15801653Y-38700337D01*
X-15735359Y-38730066D01*
X-15679496Y-38755084D01*
X-15636597Y-38774255D01*
X-15609194Y-38786441D01*
X-15599824Y-38790509D01*
X-15599445Y-38779641D01*
X-15599081Y-38747837D01*
X-15598736Y-38696549D01*
X-15598412Y-38627231D01*
X-15598114Y-38541335D01*
X-15597845Y-38440314D01*
X-15597608Y-38325620D01*
X-15597406Y-38198706D01*
X-15597244Y-38061025D01*
X-15597124Y-37914030D01*
X-15597050Y-37759173D01*
X-15597025Y-37601271D01*
X-15597025Y-37595654D01*
X-15451499Y-37595654D01*
X-15451404Y-37775006D01*
X-15451128Y-37943247D01*
X-15450677Y-38099290D01*
X-15450064Y-38242051D01*
X-15449295Y-38370444D01*
X-15448381Y-38483383D01*
X-15447331Y-38579781D01*
X-15446155Y-38658554D01*
X-15444861Y-38718615D01*
X-15443459Y-38758880D01*
X-15441958Y-38778261D01*
X-15441353Y-38779925D01*
X-15428594Y-38775543D01*
X-15398490Y-38763269D01*
X-15354110Y-38744414D01*
X-15298519Y-38720289D01*
X-15234783Y-38692204D01*
X-15203473Y-38678270D01*
X-15130115Y-38645499D01*
X-15057107Y-38612837D01*
X-14989209Y-38582418D01*
X-14931181Y-38556373D01*
X-14887782Y-38536837D01*
X-14880586Y-38533586D01*
X-14852043Y-38520726D01*
X-14805369Y-38499758D01*
X-14742875Y-38471716D01*
X-14666866Y-38437634D01*
X-14579651Y-38398547D01*
X-14483536Y-38355489D01*
X-14380831Y-38309494D01*
X-14273842Y-38261597D01*
X-14231314Y-38242562D01*
X-14086736Y-38177849D01*
X-13961220Y-38121643D01*
X-13853384Y-38073316D01*
X-13761850Y-38032239D01*
X-13685237Y-37997784D01*
X-13622167Y-37969321D01*
X-13571259Y-37946224D01*
X-13531135Y-37927863D01*
X-13500414Y-37913609D01*
X-13477718Y-37902835D01*
X-13461666Y-37894912D01*
X-13450879Y-37889211D01*
X-13443977Y-37885104D01*
X-13439581Y-37881962D01*
X-13439313Y-37881746D01*
X-13436989Y-37875577D01*
X-13434919Y-37860326D01*
X-13433091Y-37834927D01*
X-13431491Y-37798315D01*
X-13430108Y-37749422D01*
X-13428929Y-37687185D01*
X-13427941Y-37610536D01*
X-13427132Y-37518409D01*
X-13426489Y-37409739D01*
X-13426001Y-37283460D01*
X-13425653Y-37138506D01*
X-13425434Y-36973810D01*
X-13425331Y-36788308D01*
X-13425320Y-36690806D01*
X-13425404Y-36530349D01*
X-13425650Y-36376326D01*
X-13426047Y-36230199D01*
X-13426582Y-36093427D01*
X-13427245Y-35967470D01*
X-13428024Y-35853788D01*
X-13428909Y-35753841D01*
X-13429887Y-35669089D01*
X-13430948Y-35600992D01*
X-13432081Y-35551011D01*
X-13433273Y-35520604D01*
X-13434423Y-35511172D01*
X-13446293Y-35515618D01*
X-13476358Y-35528308D01*
X-13522409Y-35548270D01*
X-13582238Y-35574534D01*
X-13653635Y-35606127D01*
X-13734392Y-35642080D01*
X-13822300Y-35681419D01*
X-13857010Y-35697004D01*
X-14050576Y-35783980D01*
X-14224045Y-35861886D01*
X-14377728Y-35930861D01*
X-14511933Y-35991043D01*
X-14626973Y-36042573D01*
X-14723157Y-36085589D01*
X-14800795Y-36120230D01*
X-14860198Y-36146636D01*
X-14891781Y-36160595D01*
X-14947730Y-36185400D01*
X-15008750Y-36212715D01*
X-15063061Y-36237264D01*
X-15070891Y-36240833D01*
X-15113463Y-36260154D01*
X-15169605Y-36285462D01*
X-15232424Y-36313660D01*
X-15295029Y-36341647D01*
X-15303173Y-36345278D01*
X-15451499Y-36411382D01*
X-15451499Y-37595654D01*
X-15597025Y-37595654D01*
X-15597025Y-36411423D01*
X-15597119Y-36411382D01*
X-15678185Y-36376096D01*
X-15709645Y-36362247D01*
X-15758023Y-36340754D01*
X-15819825Y-36313177D01*
X-15891559Y-36281077D01*
X-15969733Y-36246015D01*
X-16050855Y-36209552D01*
X-16061591Y-36204720D01*
X-16143031Y-36168090D01*
X-16222150Y-36132554D01*
X-16295417Y-36099694D01*
X-16359304Y-36071092D01*
X-16410280Y-36048329D01*
X-16444815Y-36032987D01*
X-16447797Y-36031672D01*
X-16480480Y-36017178D01*
X-16529938Y-35995129D01*
X-16592529Y-35967154D01*
X-16664609Y-35934882D01*
X-16742535Y-35899943D01*
X-16822666Y-35863967D01*
X-16822808Y-35863904D01*
X-16990024Y-35788829D01*
X-17137779Y-35722608D01*
X-17265953Y-35665293D01*
X-17374428Y-35616936D01*
X-17463087Y-35577589D01*
X-17531812Y-35547306D01*
X-17580485Y-35526137D01*
X-17608986Y-35514137D01*
X-17617187Y-35511172D01*
X-17618004Y-35522124D01*
X-17618788Y-35554007D01*
X-17619532Y-35605366D01*
X-17620229Y-35674743D01*
X-17620870Y-35760682D01*
X-17621450Y-35861726D01*
X-17621959Y-35976417D01*
X-17622392Y-36103301D01*
X-17622740Y-36240918D01*
X-17622997Y-36387814D01*
X-17623154Y-36542531D01*
X-17623204Y-36696009D01*
X-17623204Y-37880846D01*
X-17762354Y-37880846D01*
X-17762600Y-37875365D01*
X-17763919Y-37831427D01*
X-17765042Y-37776403D01*
X-17765984Y-37709127D01*
X-17766759Y-37628432D01*
X-17767382Y-37533151D01*
X-17767868Y-37422116D01*
X-17768229Y-37294162D01*
X-17768482Y-37148119D01*
X-17768640Y-36982823D01*
X-17768717Y-36797105D01*
X-17768727Y-36696009D01*
X-17768731Y-36657343D01*
X-17768716Y-36459704D01*
X-17768660Y-36283233D01*
X-17768544Y-36126711D01*
X-17768350Y-35988919D01*
X-17768060Y-35868636D01*
X-17767656Y-35764643D01*
X-17767119Y-35675719D01*
X-17766431Y-35600646D01*
X-17765575Y-35538202D01*
X-17764531Y-35487169D01*
X-17763282Y-35446326D01*
X-17761809Y-35414454D01*
X-17760094Y-35390333D01*
X-17759794Y-35387660D01*
X-17505433Y-35387660D01*
X-17497064Y-35394277D01*
X-17470809Y-35408580D01*
X-17429298Y-35429289D01*
X-17375159Y-35455121D01*
X-17311020Y-35484797D01*
X-17245084Y-35514550D01*
X-17163626Y-35550907D01*
X-17080055Y-35588240D01*
X-16999314Y-35624337D01*
X-16926348Y-35656989D01*
X-16866099Y-35683984D01*
X-16839599Y-35695878D01*
X-16785839Y-35720006D01*
X-16717269Y-35750749D01*
X-16639520Y-35785582D01*
X-16558222Y-35821983D01*
X-16479006Y-35857431D01*
X-16464588Y-35863880D01*
X-16393127Y-35895890D01*
X-16306282Y-35934871D01*
X-16209070Y-35978566D01*
X-16106506Y-36024719D01*
X-16003606Y-36071074D01*
X-15905385Y-36115375D01*
X-15882482Y-36125715D01*
X-15800309Y-36162751D01*
X-15724698Y-36196699D01*
X-15658048Y-36226492D01*
X-15602759Y-36251064D01*
X-15561230Y-36269345D01*
X-15535862Y-36280270D01*
X-15528860Y-36282996D01*
X-15517542Y-36278694D01*
X-15488003Y-36266168D01*
X-15442435Y-36246384D01*
X-15383033Y-36220305D01*
X-15311991Y-36188897D01*
X-15231503Y-36153125D01*
X-15143764Y-36113952D01*
X-15109072Y-36098418D01*
X-15016998Y-36057136D01*
X-14929546Y-36017886D01*
X-14849231Y-35981800D01*
X-14778566Y-35950009D01*
X-14720068Y-35923645D01*
X-14676250Y-35903840D01*
X-14649628Y-35891726D01*
X-14645505Y-35889823D01*
X-14609934Y-35873591D01*
X-14563356Y-35852752D01*
X-14515315Y-35831573D01*
X-14511173Y-35829763D01*
X-14478934Y-35815561D01*
X-14429812Y-35793743D01*
X-14367338Y-35765885D01*
X-14295041Y-35733564D01*
X-14216452Y-35698358D01*
X-14135102Y-35661842D01*
X-14124967Y-35657287D01*
X-14039485Y-35618879D01*
X-13952689Y-35579901D01*
X-13868941Y-35542311D01*
X-13792603Y-35508067D01*
X-13728039Y-35479127D01*
X-13680321Y-35457766D01*
X-13629715Y-35434368D01*
X-13588201Y-35413692D01*
X-13559206Y-35397563D01*
X-13546155Y-35387806D01*
X-13545989Y-35386233D01*
X-13558201Y-35379526D01*
X-13587777Y-35365225D01*
X-13631599Y-35344779D01*
X-13686550Y-35319637D01*
X-13749511Y-35291247D01*
X-13772345Y-35281042D01*
X-13846080Y-35248148D01*
X-13921148Y-35214630D01*
X-13992174Y-35182890D01*
X-14053785Y-35155329D01*
X-14100604Y-35134350D01*
X-14102579Y-35133464D01*
X-14162040Y-35106827D01*
X-14226851Y-35077879D01*
X-14286560Y-35051284D01*
X-14309674Y-35041019D01*
X-14361107Y-35018113D01*
X-14413351Y-34994689D01*
X-14457054Y-34974943D01*
X-14466395Y-34970687D01*
X-14541120Y-34936671D01*
X-14624702Y-34898844D01*
X-14714957Y-34858177D01*
X-14809700Y-34815641D01*
X-14906746Y-34772205D01*
X-15003912Y-34728840D01*
X-15099012Y-34686516D01*
X-15189863Y-34646203D01*
X-15274278Y-34608872D01*
X-15350075Y-34575492D01*
X-15415067Y-34547034D01*
X-15467072Y-34524469D01*
X-15503903Y-34508766D01*
X-15523377Y-34500896D01*
X-15525817Y-34500158D01*
X-15543253Y-34504539D01*
X-15571441Y-34515750D01*
X-15581789Y-34520499D01*
X-15610865Y-34533980D01*
X-15653535Y-34553345D01*
X-15702892Y-34575471D01*
X-15731358Y-34588117D01*
X-15771031Y-34605741D01*
X-15827013Y-34630703D01*
X-15895191Y-34661163D01*
X-15971450Y-34695282D01*
X-16051677Y-34731221D01*
X-16117563Y-34760771D01*
X-16210985Y-34802686D01*
X-16315737Y-34849672D01*
X-16424618Y-34898499D01*
X-16530429Y-34945939D01*
X-16625967Y-34988762D01*
X-16660489Y-35004232D01*
X-16740291Y-35039994D01*
X-16821034Y-35076187D01*
X-16898052Y-35110719D01*
X-16966680Y-35141499D01*
X-17022251Y-35166432D01*
X-17046695Y-35177406D01*
X-17103287Y-35202757D01*
X-17172540Y-35233681D01*
X-17246639Y-35266695D01*
X-17317772Y-35298314D01*
X-17335029Y-35305972D01*
X-17391146Y-35331220D01*
X-17439749Y-35353774D01*
X-17477267Y-35371921D01*
X-17500131Y-35383949D01*
X-17505433Y-35387660D01*
X-17759794Y-35387660D01*
X-17758119Y-35372743D01*
X-17755866Y-35360464D01*
X-17753316Y-35352277D01*
X-17750452Y-35346961D01*
X-17749141Y-35345280D01*
X-17735007Y-35335985D01*
X-17702593Y-35318733D01*
X-17654112Y-35294580D01*
X-17591779Y-35264583D01*
X-17517805Y-35229800D01*
X-17434405Y-35191287D01*
X-17343793Y-35150101D01*
X-17287374Y-35124766D01*
X-17165066Y-35070084D01*
X-17060163Y-35023170D01*
X-16969629Y-34982661D01*
X-16890425Y-34947195D01*
X-16819515Y-34915411D01*
X-16753861Y-34885947D01*
X-16690425Y-34857441D01*
X-16626170Y-34828531D01*
X-16558059Y-34797856D01*
X-16526157Y-34783481D01*
X-16340336Y-34699872D01*
X-16174494Y-34625533D01*
X-16028295Y-34560319D01*
X-15901405Y-34504085D01*
X-15793491Y-34456685D01*
X-15704219Y-34417972D01*
X-15633254Y-34387801D01*
X-15580262Y-34366027D01*
X-15544908Y-34352504D01*
X-15526860Y-34347085D01*
X-15525436Y-34346959D01*
X-15515278Y-34349102D01*
G37*
D14*
X-1685000Y21460000D02*
X-1685000Y19540000D01*
X-1685000Y19540000D02*
X1000000Y19540000D01*
X1000000Y21460000D02*
X-1685000Y21460000D01*
X24062500Y-7460000D02*
X26747500Y-7460000D01*
X26747500Y-5540000D02*
X24062500Y-5540000D01*
X26747500Y-7460000D02*
X26747500Y-5540000D01*
X-13237258Y-44477500D02*
X-12762742Y-44477500D01*
X-13237258Y-45522500D02*
X-12762742Y-45522500D01*
X17590000Y-28940000D02*
X17590000Y-30360000D01*
X17590000Y-30360000D02*
X22090000Y-30360000D01*
X17590000Y-40140000D02*
X22090000Y-40140000D01*
X17590000Y-41560000D02*
X17590000Y-40140000D01*
X17900000Y-38700000D02*
X18500000Y-39000000D01*
X17900000Y-39300000D02*
X17900000Y-38700000D01*
X18500000Y-39000000D02*
X17900000Y-39300000D01*
X22090000Y-30360000D02*
X22090000Y-35250000D01*
X22090000Y-40140000D02*
X22090000Y-35250000D01*
X23200000Y-31250000D02*
X23200000Y-31750000D01*
X23200000Y-31750000D02*
X28700000Y-31750000D01*
X23200000Y-33750000D02*
X23200000Y-34250000D01*
X23200000Y-34250000D02*
X28700000Y-34250000D01*
X23200000Y-36250000D02*
X23200000Y-36750000D01*
X23200000Y-36750000D02*
X28700000Y-36750000D01*
X23200000Y-38750000D02*
X23200000Y-39250000D01*
X23200000Y-39250000D02*
X28700000Y-39250000D01*
X28700000Y-31250000D02*
X23200000Y-31250000D01*
X28700000Y-31750000D02*
X28700000Y-31250000D01*
X28700000Y-33750000D02*
X23200000Y-33750000D01*
X28700000Y-34250000D02*
X28700000Y-33750000D01*
X28700000Y-36250000D02*
X23200000Y-36250000D01*
X28700000Y-36750000D02*
X28700000Y-36250000D01*
X28700000Y-38750000D02*
X23200000Y-38750000D01*
X28700000Y-39250000D02*
X28700000Y-38750000D01*
X29310000Y-28940000D02*
X17590000Y-28940000D01*
X29310000Y-35250000D02*
X29310000Y-28940000D01*
X29310000Y-35250000D02*
X29310000Y-41560000D01*
X29310000Y-41560000D02*
X17590000Y-41560000D01*
X12140580Y-55490000D02*
X11859420Y-55490000D01*
X12140580Y-56510000D02*
X11859420Y-56510000D01*
X15462742Y43022500D02*
X15937258Y43022500D01*
X15462742Y41977500D02*
X15937258Y41977500D01*
X-14000000Y-43960000D02*
X-11315000Y-43960000D01*
X-11315000Y-42040000D02*
X-14000000Y-42040000D01*
X-11315000Y-43960000D02*
X-11315000Y-42040000D01*
X-28485000Y-6165000D02*
X-28485000Y-9915000D01*
X-28485000Y-16685000D02*
X-28485000Y-12935000D01*
X-19029437Y-6165000D02*
X-28485000Y-6165000D01*
X-19029437Y-16685000D02*
X-28485000Y-16685000D01*
X-17965000Y-7229437D02*
X-19029437Y-6165000D01*
X-17965000Y-7229437D02*
X-17965000Y-9915000D01*
X-17965000Y-15620563D02*
X-19029437Y-16685000D01*
X-17965000Y-15620563D02*
X-17965000Y-12935000D01*
X-17100000Y-14810000D02*
X-17100000Y-13560000D01*
X-16475000Y-14185000D02*
X-17725000Y-14185000D01*
X-10800000Y40000000D02*
G75*
G02*
X-12200000Y40000000I-700000J0D01*
G01*
X-12200000Y40000000D02*
G75*
G02*
X-10800000Y40000000I700000J0D01*
G01*
X15462742Y45522500D02*
X15937258Y45522500D01*
X15462742Y44477500D02*
X15937258Y44477500D01*
X20625000Y1060000D02*
X19975000Y1060000D01*
X20625000Y1060000D02*
X21275000Y1060000D01*
X20625000Y-2060000D02*
X19975000Y-2060000D01*
X20625000Y-2060000D02*
X21275000Y-2060000D01*
X19462500Y1010000D02*
X19222500Y1340000D01*
X19702500Y1340000D01*
X19462500Y1010000D01*
G36*
X19462500Y1010000D02*
G01*
X19222500Y1340000D01*
X19702500Y1340000D01*
X19462500Y1010000D01*
G37*
X-16937500Y-46440000D02*
X-17587500Y-46440000D01*
X-16937500Y-46440000D02*
X-16287500Y-46440000D01*
X-16937500Y-49560000D02*
X-17587500Y-49560000D01*
X-16937500Y-49560000D02*
X-16287500Y-49560000D01*
X-18100000Y-46490000D02*
X-18340000Y-46160000D01*
X-17860000Y-46160000D01*
X-18100000Y-46490000D01*
G36*
X-18100000Y-46490000D02*
G01*
X-18340000Y-46160000D01*
X-17860000Y-46160000D01*
X-18100000Y-46490000D01*
G37*
X-4600000Y49800000D02*
X4600000Y49800000D01*
X-4600000Y41000000D02*
X-4600000Y49800000D01*
X-4600000Y35100000D02*
X-4600000Y37000000D01*
X-1900000Y35100000D02*
X-4600000Y35100000D01*
X3750000Y34900000D02*
X4800000Y34900000D01*
X4600000Y49800000D02*
X4600000Y35100000D01*
X4600000Y35100000D02*
X2000000Y35100000D01*
X4800000Y35950000D02*
X4800000Y34900000D01*
X24762742Y8772500D02*
X25237258Y8772500D01*
X24762742Y7727500D02*
X25237258Y7727500D01*
X-7490000Y8150000D02*
X-13000000Y8150000D01*
X-7490000Y4850000D02*
X-13000000Y4850000D01*
X-7490000Y4850000D02*
X-7490000Y8150000D01*
X9125000Y-58475000D02*
X9125000Y-57975000D01*
X9625000Y-57975000D01*
X9125000Y-58475000D01*
G36*
X9125000Y-58475000D02*
G01*
X9125000Y-57975000D01*
X9625000Y-57975000D01*
X9125000Y-58475000D01*
G37*
X9120000Y-64860000D02*
X9120000Y-58700000D01*
X9120000Y-64860000D02*
X-9120000Y-64860000D01*
X9120000Y-39900000D02*
X9120000Y-39120000D01*
X9120000Y-39120000D02*
X8120000Y-39120000D01*
X-9120000Y-64860000D02*
X-9120000Y-58445000D01*
X-9120000Y-39900000D02*
X-9120000Y-39120000D01*
X-9120000Y-39120000D02*
X-8120000Y-39120000D01*
X18750000Y-47960000D02*
X21435000Y-47960000D01*
X21435000Y-46040000D02*
X18750000Y-46040000D01*
X21435000Y-47960000D02*
X21435000Y-46040000D01*
X8162742Y48022500D02*
X8637258Y48022500D01*
X8162742Y46977500D02*
X8637258Y46977500D01*
X17590000Y40060000D02*
X17590000Y38640000D01*
X17590000Y38640000D02*
X22090000Y38640000D01*
X17590000Y28860000D02*
X22090000Y28860000D01*
X17590000Y27440000D02*
X17590000Y28860000D01*
X17900000Y30300000D02*
X18500000Y30000000D01*
X17900000Y29700000D02*
X17900000Y30300000D01*
X18500000Y30000000D02*
X17900000Y29700000D01*
X22090000Y38640000D02*
X22090000Y33750000D01*
X22090000Y28860000D02*
X22090000Y33750000D01*
X23200000Y37750000D02*
X23200000Y37250000D01*
X23200000Y37250000D02*
X28700000Y37250000D01*
X23200000Y35250000D02*
X23200000Y34750000D01*
X23200000Y34750000D02*
X28700000Y34750000D01*
X23200000Y32750000D02*
X23200000Y32250000D01*
X23200000Y32250000D02*
X28700000Y32250000D01*
X23200000Y30250000D02*
X23200000Y29750000D01*
X23200000Y29750000D02*
X28700000Y29750000D01*
X28700000Y37750000D02*
X23200000Y37750000D01*
X28700000Y37250000D02*
X28700000Y37750000D01*
X28700000Y35250000D02*
X23200000Y35250000D01*
X28700000Y34750000D02*
X28700000Y35250000D01*
X28700000Y32750000D02*
X23200000Y32750000D01*
X28700000Y32250000D02*
X28700000Y32750000D01*
X28700000Y30250000D02*
X23200000Y30250000D01*
X28700000Y29750000D02*
X28700000Y30250000D01*
X29310000Y40060000D02*
X17590000Y40060000D01*
X29310000Y33750000D02*
X29310000Y40060000D01*
X29310000Y33750000D02*
X29310000Y27440000D01*
X29310000Y27440000D02*
X17590000Y27440000D01*
X12140580Y-56990000D02*
X11859420Y-56990000D01*
X12140580Y-58010000D02*
X11859420Y-58010000D01*
X-28330000Y-39550000D02*
X-27000000Y-39550000D01*
X-28330000Y-40880000D02*
X-28330000Y-39550000D01*
X-28330000Y-42150000D02*
X-28330000Y-49830000D01*
X-28330000Y-42150000D02*
X-25670000Y-42150000D01*
X-28330000Y-49830000D02*
X-25670000Y-49830000D01*
X-25670000Y-42150000D02*
X-25670000Y-49830000D01*
X24887742Y2772500D02*
X25362258Y2772500D01*
X24887742Y1727500D02*
X25362258Y1727500D01*
X6740000Y35760000D02*
X9490000Y35760000D01*
X6740000Y28304437D02*
X6740000Y35760000D01*
X7804437Y27240000D02*
X6740000Y28304437D01*
X7804437Y27240000D02*
X9490000Y27240000D01*
X7990000Y26500000D02*
X8990000Y26500000D01*
X8490000Y26000000D02*
X8490000Y27000000D01*
X14195563Y27240000D02*
X12510000Y27240000D01*
X14195563Y27240000D02*
X15260000Y28304437D01*
X15260000Y35760000D02*
X12510000Y35760000D01*
X15260000Y28304437D02*
X15260000Y35760000D01*
X-20522500Y-43237258D02*
X-20522500Y-42762742D01*
X-19477500Y-43237258D02*
X-19477500Y-42762742D01*
X-21910000Y-20150000D02*
X-21910000Y-23910000D01*
X-21910000Y-23910000D02*
X-20650000Y-23910000D01*
X-15090000Y-20150000D02*
X-15090000Y-23910000D01*
X-15090000Y-23910000D02*
X-16350000Y-23910000D01*
X-14860000Y-19110000D02*
X-15190000Y-18870000D01*
X-14860000Y-18630000D01*
X-14860000Y-19110000D01*
G36*
X-14860000Y-19110000D02*
G01*
X-15190000Y-18870000D01*
X-14860000Y-18630000D01*
X-14860000Y-19110000D01*
G37*
X8162742Y43022500D02*
X8637258Y43022500D01*
X8162742Y41977500D02*
X8637258Y41977500D01*
X-24761252Y-17765000D02*
X-24238748Y-17765000D01*
X-24761252Y-19235000D02*
X-24238748Y-19235000D01*
X-1747500Y26960000D02*
X-1747500Y25040000D01*
X-1747500Y25040000D02*
X937500Y25040000D01*
X937500Y26960000D02*
X-1747500Y26960000D01*
X-20510000Y-55609420D02*
X-20510000Y-55890580D01*
X-19490000Y-55609420D02*
X-19490000Y-55890580D01*
X22977500Y-51762742D02*
X22977500Y-52237258D01*
X24022500Y-51762742D02*
X24022500Y-52237258D01*
X-11315000Y-50010000D02*
X-11315000Y-48090000D01*
X-11315000Y-48090000D02*
X-14000000Y-48090000D01*
X-14000000Y-50010000D02*
X-11315000Y-50010000D01*
X-5350000Y-22775000D02*
X-5350000Y-24025000D01*
X-5060000Y-23065000D02*
X-5060000Y-29035000D01*
X-5060000Y-29035000D02*
X5060000Y-29035000D01*
X-5050000Y-23075000D02*
X-5050000Y-23825000D01*
X-5050000Y-23825000D02*
X-3250000Y-23825000D01*
X-5050000Y-25325000D02*
X-4300000Y-25325000D01*
X-4300000Y-25325000D02*
X-4300000Y-28275000D01*
X-4300000Y-28275000D02*
X0Y-28275000D01*
X-4100000Y-22775000D02*
X-5350000Y-22775000D01*
X-3250000Y-23075000D02*
X-5050000Y-23075000D01*
X-3250000Y-23825000D02*
X-3250000Y-23075000D01*
X-1750000Y-23075000D02*
X-1750000Y-23825000D01*
X-1750000Y-23825000D02*
X1750000Y-23825000D01*
X1750000Y-23075000D02*
X-1750000Y-23075000D01*
X1750000Y-23825000D02*
X1750000Y-23075000D01*
X3250000Y-23075000D02*
X3250000Y-23825000D01*
X3250000Y-23825000D02*
X5050000Y-23825000D01*
X4300000Y-25325000D02*
X4300000Y-28275000D01*
X4300000Y-28275000D02*
X0Y-28275000D01*
X5050000Y-23075000D02*
X3250000Y-23075000D01*
X5050000Y-23825000D02*
X5050000Y-23075000D01*
X5050000Y-25325000D02*
X4300000Y-25325000D01*
X5060000Y-23065000D02*
X-5060000Y-23065000D01*
X5060000Y-29035000D02*
X5060000Y-23065000D01*
D15*
G36*
X309717Y31760000D02*
G01*
X309717Y31565000D01*
X-170378Y31565000D01*
X-650472Y31565000D01*
X-650472Y31760000D01*
X-650472Y31955000D01*
X-170378Y31955000D01*
X309717Y31955000D01*
X309717Y31760000D01*
G37*
G36*
X2230095Y31760000D02*
G01*
X2230095Y31565000D01*
X1750000Y31565000D01*
X1269906Y31565000D01*
X1269906Y31760000D01*
X1269906Y31955000D01*
X1750000Y31955000D01*
X2230095Y31955000D01*
X2230095Y31760000D01*
G37*
G36*
X4150473Y32527500D02*
G01*
X4150473Y32335000D01*
X1750000Y32335000D01*
X-650472Y32335000D01*
X-650472Y32527500D01*
X-650472Y32720000D01*
X1750000Y32720000D01*
X4150473Y32720000D01*
X4150473Y32527500D01*
G37*
G36*
X4150473Y31760000D02*
G01*
X4150473Y31565000D01*
X3670378Y31565000D01*
X3190284Y31565000D01*
X3190284Y31760000D01*
X3190284Y31955000D01*
X3670378Y31955000D01*
X4150473Y31955000D01*
X4150473Y31760000D01*
G37*
D14*
X1711252Y10910000D02*
X288748Y10910000D01*
X1711252Y9090000D02*
X288748Y9090000D01*
X-11688748Y-25765000D02*
X-12211252Y-25765000D01*
X-11688748Y-27235000D02*
X-12211252Y-27235000D01*
D12*
X-17250000Y-53500000D02*
X-12750000Y-53500000D01*
X-12750000Y-58000000D01*
X-17250000Y-58000000D01*
X-17250000Y-53500000D01*
X-16139445Y-54250000D02*
G75*
G02*
X-16860555Y-54250000I-360555J0D01*
G01*
X-16860555Y-54250000D02*
G75*
G02*
X-16139445Y-54250000I360555J0D01*
G01*
X-16139445Y-57250000D02*
G75*
G02*
X-16860555Y-57250000I-360555J0D01*
G01*
X-16860555Y-57250000D02*
G75*
G02*
X-16139445Y-57250000I360555J0D01*
G01*
X-13875000Y-55750000D02*
G75*
G02*
X-16125000Y-55750000I-1125000J0D01*
G01*
X-16125000Y-55750000D02*
G75*
G02*
X-13875000Y-55750000I1125000J0D01*
G01*
X-13139445Y-54250000D02*
G75*
G02*
X-13860555Y-54250000I-360555J0D01*
G01*
X-13860555Y-54250000D02*
G75*
G02*
X-13139445Y-54250000I360555J0D01*
G01*
X-13139445Y-57250000D02*
G75*
G02*
X-13860555Y-57250000I-360555J0D01*
G01*
X-13860555Y-57250000D02*
G75*
G02*
X-13139445Y-57250000I360555J0D01*
G01*
D14*
X20375000Y7110000D02*
X19725000Y7110000D01*
X20375000Y7110000D02*
X21025000Y7110000D01*
X20375000Y3990000D02*
X19725000Y3990000D01*
X20375000Y3990000D02*
X21025000Y3990000D01*
X19212500Y7060000D02*
X18972500Y7390000D01*
X19452500Y7390000D01*
X19212500Y7060000D01*
G36*
X19212500Y7060000D02*
G01*
X18972500Y7390000D01*
X19452500Y7390000D01*
X19212500Y7060000D01*
G37*
X-17000000Y-42490000D02*
X-17650000Y-42490000D01*
X-17000000Y-42490000D02*
X-16350000Y-42490000D01*
X-17000000Y-45610000D02*
X-17650000Y-45610000D01*
X-17000000Y-45610000D02*
X-16350000Y-45610000D01*
X-18162500Y-42540000D02*
X-18402500Y-42210000D01*
X-17922500Y-42210000D01*
X-18162500Y-42540000D01*
G36*
X-18162500Y-42540000D02*
G01*
X-18402500Y-42210000D01*
X-17922500Y-42210000D01*
X-18162500Y-42540000D01*
G37*
X-15260000Y35760000D02*
X-12510000Y35760000D01*
X-15260000Y28304437D02*
X-15260000Y35760000D01*
X-14195563Y27240000D02*
X-15260000Y28304437D01*
X-14195563Y27240000D02*
X-12510000Y27240000D01*
X-14010000Y26500000D02*
X-13010000Y26500000D01*
X-13510000Y26000000D02*
X-13510000Y27000000D01*
X-7804437Y27240000D02*
X-9490000Y27240000D01*
X-7804437Y27240000D02*
X-6740000Y28304437D01*
X-6740000Y35760000D02*
X-9490000Y35760000D01*
X-6740000Y28304437D02*
X-6740000Y35760000D01*
X24125000Y-1460000D02*
X26810000Y-1460000D01*
X26810000Y460000D02*
X24125000Y460000D01*
X26810000Y-1460000D02*
X26810000Y460000D01*
X16915000Y6262742D02*
X16915000Y6737258D01*
X17960000Y6262742D02*
X17960000Y6737258D01*
X-5350000Y-30250000D02*
X-5350000Y-31500000D01*
X-5060000Y-30540000D02*
X-5060000Y-36510000D01*
X-5060000Y-36510000D02*
X5060000Y-36510000D01*
X-5050000Y-30550000D02*
X-5050000Y-31300000D01*
X-5050000Y-31300000D02*
X-3250000Y-31300000D01*
X-5050000Y-32800000D02*
X-4300000Y-32800000D01*
X-4300000Y-32800000D02*
X-4300000Y-35750000D01*
X-4300000Y-35750000D02*
X0Y-35750000D01*
X-4100000Y-30250000D02*
X-5350000Y-30250000D01*
X-3250000Y-30550000D02*
X-5050000Y-30550000D01*
X-3250000Y-31300000D02*
X-3250000Y-30550000D01*
X-1750000Y-30550000D02*
X-1750000Y-31300000D01*
X-1750000Y-31300000D02*
X1750000Y-31300000D01*
X1750000Y-30550000D02*
X-1750000Y-30550000D01*
X1750000Y-31300000D02*
X1750000Y-30550000D01*
X3250000Y-30550000D02*
X3250000Y-31300000D01*
X3250000Y-31300000D02*
X5050000Y-31300000D01*
X4300000Y-32800000D02*
X4300000Y-35750000D01*
X4300000Y-35750000D02*
X0Y-35750000D01*
X5050000Y-30550000D02*
X3250000Y-30550000D01*
X5050000Y-31300000D02*
X5050000Y-30550000D01*
X5050000Y-32800000D02*
X4300000Y-32800000D01*
X5060000Y-30540000D02*
X-5060000Y-30540000D01*
X5060000Y-36510000D02*
X5060000Y-30540000D01*
X-13760000Y-18240000D02*
X-12060000Y-18240000D01*
X-13760000Y-22695563D02*
X-13760000Y-18240000D01*
X-12997500Y-24312500D02*
X-12372500Y-24312500D01*
X-12695563Y-23760000D02*
X-13760000Y-22695563D01*
X-12695563Y-23760000D02*
X-12060000Y-23760000D01*
X-12685000Y-24625000D02*
X-12685000Y-24000000D01*
X-9304437Y-23760000D02*
X-9940000Y-23760000D01*
X-9304437Y-23760000D02*
X-8240000Y-22695563D01*
X-8240000Y-18240000D02*
X-9940000Y-18240000D01*
X-8240000Y-22695563D02*
X-8240000Y-18240000D01*
D12*
X-28475000Y7825000D02*
X-25225000Y7825000D01*
X-28475000Y-4675000D02*
X-28475000Y7825000D01*
X-28475000Y-4675000D02*
X-25225000Y-4675000D01*
X-19225000Y7825000D02*
X-15975000Y7825000D01*
X-15975000Y7825000D02*
X-15975000Y-4675000D01*
X-15975000Y-4675000D02*
X-19225000Y-4675000D01*
X-25225000Y-3424999D02*
G75*
G02*
X-25225000Y6574999I3000000J4999999D01*
G01*
X-22224999Y1575000D02*
X-22224999Y1575000D01*
X-22224999Y1575000D01*
X-22224999Y1575000D01*
X-22224999Y1575000D01*
X-22224999Y1575000D01*
X-22224999Y1575000D01*
X-22224999Y1574999D01*
X-22224999Y1574999D01*
X-22224999Y1574999D01*
X-22224999Y1574999D01*
X-22224999Y1574999D01*
X-22225000Y1574999D01*
X-22225000Y1574999D01*
X-22225000Y1574999D01*
X-22225000Y1574999D01*
X-22225000Y1574999D01*
X-22225000Y1574999D01*
X-22225000Y1574999D01*
X-22225000Y1574999D01*
X-22225000Y1574999D01*
X-22225000Y1574999D01*
X-22225000Y1574999D01*
X-22225000Y1574999D01*
X-22225001Y1574999D01*
X-22225001Y1574999D01*
X-22225001Y1574999D01*
X-22225001Y1574999D01*
X-22225001Y1574999D01*
X-22225001Y1574999D01*
X-22225001Y1575000D01*
X-22225001Y1575000D01*
X-22225001Y1575000D01*
X-22225001Y1575000D01*
X-22225001Y1575000D01*
X-22225001Y1575000D01*
X-22225001Y1575000D01*
X-22225001Y1575000D02*
X-22225001Y1575000D01*
X-22225001Y1575000D01*
X-22225001Y1575000D01*
X-22225001Y1575000D01*
X-22225001Y1575000D01*
X-22225001Y1575001D01*
X-22225001Y1575001D01*
X-22225001Y1575001D01*
X-22225001Y1575001D01*
X-22225001Y1575001D01*
X-22225001Y1575001D01*
X-22225001Y1575001D01*
X-22225000Y1575001D01*
X-22225000Y1575001D01*
X-22225000Y1575001D01*
X-22225000Y1575001D01*
X-22225000Y1575001D01*
X-22225000Y1575001D01*
X-22225000Y1575001D01*
X-22225000Y1575001D01*
X-22225000Y1575001D01*
X-22225000Y1575001D01*
X-22225000Y1575001D01*
X-22225000Y1575001D01*
X-22224999Y1575001D01*
X-22224999Y1575001D01*
X-22224999Y1575001D01*
X-22224999Y1575001D01*
X-22224999Y1575001D01*
X-22224999Y1575001D01*
X-22224999Y1575000D01*
X-22224999Y1575000D01*
X-22224999Y1575000D01*
X-22224999Y1575000D01*
X-22224999Y1575000D01*
X-22224999Y1575000D01*
X-19225000Y6574999D02*
G75*
G02*
X-19225000Y-3424999I-3000000J-4999999D01*
G01*
D14*
X-22522500Y-55512742D02*
X-22522500Y-55987258D01*
X-21477500Y-55512742D02*
X-21477500Y-55987258D01*
X15227500Y-46487258D02*
X15227500Y-46012742D01*
X16272500Y-46487258D02*
X16272500Y-46012742D01*
X-13237258Y-47572500D02*
X-12762742Y-47572500D01*
X-13237258Y-46527500D02*
X-12762742Y-46527500D01*
X17040000Y-5737258D02*
X17040000Y-5262742D01*
X18085000Y-5737258D02*
X18085000Y-5262742D01*
X24887742Y-3227500D02*
X25362258Y-3227500D01*
X24887742Y-4272500D02*
X25362258Y-4272500D01*
X24000000Y4540000D02*
X26685000Y4540000D01*
X26685000Y6460000D02*
X24000000Y6460000D01*
X26685000Y4540000D02*
X26685000Y6460000D01*
X4477500Y15262742D02*
X4477500Y15737258D01*
X5522500Y15262742D02*
X5522500Y15737258D01*
D16*
X-14280000Y-1310000D02*
X-14280000Y-9440000D01*
X-4120000Y-1310000D02*
X-14280000Y-1310000D01*
X-4120000Y-9440000D02*
X-4120000Y-1310000D01*
D11*
X-5700000Y4580000D02*
G75*
G02*
X-5900000Y4580000I-100000J0D01*
G01*
X-5900000Y4580000D02*
G75*
G02*
X-5700000Y4580000I100000J0D01*
G01*
D14*
X20990000Y-51859420D02*
X20990000Y-52140580D01*
X22010000Y-51859420D02*
X22010000Y-52140580D01*
X-2750000Y5335000D02*
X-1500000Y5335000D01*
X-2125000Y5960000D02*
X-2125000Y4710000D01*
X-1260000Y6770563D02*
X-1260000Y4085000D01*
X-1260000Y6770563D02*
X-195563Y7835000D01*
X-1260000Y-1620563D02*
X-1260000Y1065000D01*
X-1260000Y-1620563D02*
X-195563Y-2685000D01*
X-195563Y7835000D02*
X9260000Y7835000D01*
X-195563Y-2685000D02*
X9260000Y-2685000D01*
X9260000Y7835000D02*
X9260000Y4085000D01*
X9260000Y-2685000D02*
X9260000Y1065000D01*
X-1685000Y15960000D02*
X-1685000Y14040000D01*
X-1685000Y14040000D02*
X1000000Y14040000D01*
X1000000Y15960000D02*
X-1685000Y15960000D01*
X8710000Y-11740000D02*
X8710000Y-24570000D01*
X8710000Y-14410000D02*
X29290000Y-14410000D01*
X8710000Y-24570000D02*
X11380000Y-24570000D01*
X8710000Y-25840000D02*
X8710000Y-27240000D01*
X8710000Y-27240000D02*
X10110000Y-27240000D01*
X11380000Y-24570000D02*
X11380000Y-27240000D01*
X11380000Y-24570000D02*
X29290000Y-24570000D01*
X11380000Y-27240000D02*
X29290000Y-27240000D01*
X29290000Y-11740000D02*
X8710000Y-11740000D01*
X29290000Y-27240000D02*
X29290000Y-11740000D01*
X-29180000Y25240000D02*
X-29180000Y9740000D01*
X-29180000Y9740000D02*
X-8600000Y9740000D01*
X-11270000Y25240000D02*
X-29180000Y25240000D01*
X-11270000Y22570000D02*
X-29180000Y22570000D01*
X-11270000Y22570000D02*
X-11270000Y25240000D01*
X-8600000Y25240000D02*
X-10000000Y25240000D01*
X-8600000Y23840000D02*
X-8600000Y25240000D01*
X-8600000Y22570000D02*
X-11270000Y22570000D01*
X-8600000Y12410000D02*
X-29180000Y12410000D01*
X-8600000Y9740000D02*
X-8600000Y22570000D01*
%LPC*%
D17*
X-4935000Y-9660000D02*
X-3700000Y-9660000D01*
X-3700000Y-11770000D01*
X-14700000Y-11770000D01*
X-14700000Y-9660000D01*
X-13465000Y-9660000D01*
X-13465000Y-4580000D01*
X-4935000Y-4580000D01*
X-4935000Y-9660000D01*
G36*
X-4935000Y-9660000D02*
G01*
X-3700000Y-9660000D01*
X-3700000Y-11770000D01*
X-14700000Y-11770000D01*
X-14700000Y-9660000D01*
X-13465000Y-9660000D01*
X-13465000Y-4580000D01*
X-4935000Y-4580000D01*
X-4935000Y-9660000D01*
G37*
D18*
X-2500000Y-18000000D03*
D19*
X0Y-18000000D03*
X2500000Y-18000000D03*
D20*
X-18500000Y-28500000D03*
D21*
X17562500Y-325000D03*
X17562500Y1325000D03*
D22*
X27800000Y23840000D03*
D23*
X25260000Y23840000D03*
X22720000Y23840000D03*
X20180000Y23840000D03*
X17640000Y23840000D03*
X15100000Y23840000D03*
X12560000Y23840000D03*
X10020000Y23840000D03*
X10020000Y11140000D03*
X12560000Y11140000D03*
X15100000Y11140000D03*
X17640000Y11140000D03*
X20180000Y11140000D03*
X22720000Y11140000D03*
X25260000Y11140000D03*
X27800000Y11140000D03*
D20*
X-14500000Y-15500000D03*
D21*
X5000000Y25675000D03*
X5000000Y27325000D03*
X-20000000Y-47825000D03*
X-20000000Y-46175000D03*
D24*
X7575000Y45000000D03*
X9225000Y45000000D03*
D25*
X19562500Y-5500000D03*
X19562500Y-7400000D03*
X21437500Y-6450000D03*
D21*
X5000000Y20175000D03*
X5000000Y21825000D03*
D26*
X-20050000Y37500000D03*
D27*
X-20050000Y35000000D03*
X-20050000Y32500000D03*
X-20050000Y30000000D03*
D24*
X14875000Y47500000D03*
X16525000Y47500000D03*
D28*
X-26000000Y-21800000D03*
X-26000000Y-26200000D03*
D29*
X5750000Y-8000000D03*
X-750000Y-8000000D03*
D30*
X14950000Y-54500000D03*
X21050000Y-54500000D03*
X14950000Y-57500000D03*
X21050000Y-57500000D03*
D31*
X-937500Y20500000D03*
X937500Y20500000D03*
D32*
X26000000Y-6500000D03*
X24125000Y-6500000D03*
D24*
X-13825000Y-45000000D03*
X-12175000Y-45000000D03*
D33*
X20000000Y-39000000D03*
D27*
X20000000Y-36500000D03*
X20000000Y-34000000D03*
X20000000Y-31500000D03*
D34*
X12775000Y-56000000D03*
X11225000Y-56000000D03*
D24*
X14875000Y42500000D03*
X16525000Y42500000D03*
D32*
X-12062500Y-43000000D03*
X-13937500Y-43000000D03*
D35*
X-19225000Y-11425000D03*
X-27225000Y-11425000D03*
D20*
X-11500000Y40000000D03*
D24*
X14875000Y45000000D03*
X16525000Y45000000D03*
D25*
X19687500Y450000D03*
X19687500Y-1450000D03*
X21562500Y-500000D03*
X-17875000Y-47050000D03*
X-17875000Y-48950000D03*
X-16000000Y-48000000D03*
D36*
X0Y36000000D03*
D37*
X0Y42000000D03*
D38*
X-4700000Y39000000D03*
D24*
X24175000Y8250000D03*
X25825000Y8250000D03*
D39*
X-9000000Y6500000D03*
X-13000000Y6500000D03*
D40*
X-845000Y-49147500D03*
X-845000Y-50672500D03*
X-82500Y-48385000D03*
X-82500Y-49910000D03*
X-82500Y-51435000D03*
X680000Y-49147500D03*
D41*
X680000Y-49910000D03*
D40*
X680000Y-50672500D03*
X1442500Y-48385000D03*
X1442500Y-49910000D03*
X1442500Y-51435000D03*
X2205000Y-49147500D03*
X2205000Y-50672500D03*
D42*
X-8750000Y-57250000D03*
X-8750000Y-55980000D03*
X-8750000Y-54710000D03*
X-8750000Y-53440000D03*
X-8750000Y-52170000D03*
X-8750000Y-50900000D03*
X-8750000Y-49630000D03*
X-8750000Y-48360000D03*
X-8750000Y-47090000D03*
X-8750000Y-45820000D03*
X-8750000Y-44550000D03*
X-8750000Y-43280000D03*
X-8750000Y-42010000D03*
X-8750000Y-40740000D03*
D43*
X-5720000Y-39490000D03*
X-4450000Y-39490000D03*
X-3180000Y-39490000D03*
X-1910000Y-39490000D03*
X-640000Y-39490000D03*
X630000Y-39490000D03*
X1900000Y-39490000D03*
X3170000Y-39490000D03*
X4440000Y-39490000D03*
X5710000Y-39490000D03*
D42*
X8750000Y-40740000D03*
X8750000Y-42010000D03*
X8750000Y-43280000D03*
X8750000Y-44550000D03*
X8750000Y-45820000D03*
X8750000Y-47090000D03*
X8750000Y-48360000D03*
X8750000Y-49630000D03*
X8750000Y-50900000D03*
X8750000Y-52170000D03*
X8750000Y-53440000D03*
X8750000Y-54710000D03*
X8750000Y-55980000D03*
X8750000Y-57250000D03*
D32*
X18812500Y-47000000D03*
X20687500Y-47000000D03*
D24*
X7575000Y47500000D03*
X9225000Y47500000D03*
D44*
X27000000Y-55750000D03*
D33*
X20000000Y30000000D03*
D27*
X20000000Y32500000D03*
X20000000Y35000000D03*
X20000000Y37500000D03*
D34*
X12775000Y-57500000D03*
X11225000Y-57500000D03*
D45*
X-27000000Y-40880000D03*
D46*
X-27000000Y-43420000D03*
X-27000000Y-45960000D03*
X-27000000Y-48500000D03*
D24*
X24300000Y2250000D03*
X25950000Y2250000D03*
D47*
X11000000Y28250000D03*
X11000000Y34750000D03*
D21*
X-20000000Y-43825000D03*
X-20000000Y-42175000D03*
D44*
X-27000000Y-55750000D03*
D48*
X-16200000Y-18850000D03*
X-18500000Y-18850000D03*
D49*
X-18500000Y-25150000D03*
D48*
X-20800000Y-18850000D03*
D24*
X7575000Y42500000D03*
X9225000Y42500000D03*
D50*
X-25450000Y-18500000D03*
X-23550000Y-18500000D03*
D31*
X-1000000Y26000000D03*
X875000Y26000000D03*
D51*
X-20000000Y-54975000D03*
X-20000000Y-56525000D03*
D52*
X23500000Y-51175000D03*
X23500000Y-52825000D03*
D32*
X-13937500Y-49050000D03*
X-12062500Y-49050000D03*
D18*
X-2500000Y-25525000D03*
D19*
X0Y-25525000D03*
X2500000Y-25525000D03*
D53*
X2475000Y10000000D03*
X-475000Y10000000D03*
D54*
X-11000000Y-26500000D03*
X-12900000Y-26500000D03*
D55*
X-18050000Y-54250000D03*
X-11950000Y-54250000D03*
X-18050000Y-57250000D03*
X-11950000Y-57250000D03*
D25*
X19437500Y6500000D03*
X19437500Y4600000D03*
X21312500Y5550000D03*
D44*
X27000000Y47000000D03*
D25*
X-17937500Y-43100000D03*
X-17937500Y-45000000D03*
X-16062500Y-44050000D03*
D47*
X-11000000Y28250000D03*
X-11000000Y34750000D03*
D32*
X26062500Y-500000D03*
X24187500Y-500000D03*
D44*
X-27000000Y47000000D03*
D21*
X17437500Y5675000D03*
X17437500Y7325000D03*
D18*
X-2500000Y-33000000D03*
D19*
X0Y-33000000D03*
X2500000Y-33000000D03*
D56*
X-11000000Y-23200000D03*
X-11000000Y-18800000D03*
D57*
X-22225000Y6525000D03*
X-22225000Y-3375000D03*
D52*
X-22000000Y-54925000D03*
X-22000000Y-56575000D03*
D21*
X15750000Y-47075000D03*
X15750000Y-45425000D03*
D24*
X-12175000Y-47050000D03*
X-13825000Y-47050000D03*
D21*
X17562500Y-6325000D03*
X17562500Y-4675000D03*
D24*
X24300000Y-3750000D03*
X25950000Y-3750000D03*
D32*
X25937500Y5500000D03*
X24062500Y5500000D03*
D21*
X5000000Y14675000D03*
X5000000Y16325000D03*
D58*
X-5800000Y2500000D03*
X-7500000Y2500000D03*
X-9200000Y2500000D03*
X-10900000Y2500000D03*
X-12600000Y2500000D03*
D51*
X21500000Y-51225000D03*
X21500000Y-52775000D03*
D59*
X0Y2575000D03*
X8000000Y2575000D03*
D31*
X-937500Y15000000D03*
X937500Y15000000D03*
D22*
X10110000Y-25840000D03*
D23*
X12650000Y-25840000D03*
X15190000Y-25840000D03*
X17730000Y-25840000D03*
X20270000Y-25840000D03*
X22810000Y-25840000D03*
X25350000Y-25840000D03*
X27890000Y-25840000D03*
X27890000Y-13140000D03*
X25350000Y-13140000D03*
X22810000Y-13140000D03*
X20270000Y-13140000D03*
X17730000Y-13140000D03*
X15190000Y-13140000D03*
X12650000Y-13140000D03*
X10110000Y-13140000D03*
D22*
X-10000000Y23840000D03*
D23*
X-12540000Y23840000D03*
X-15080000Y23840000D03*
X-17620000Y23840000D03*
X-20160000Y23840000D03*
X-22700000Y23840000D03*
X-25240000Y23840000D03*
X-27780000Y23840000D03*
X-27780000Y11140000D03*
X-25240000Y11140000D03*
X-22700000Y11140000D03*
X-20160000Y11140000D03*
X-17620000Y11140000D03*
X-15080000Y11140000D03*
X-12540000Y11140000D03*
X-10000000Y11140000D03*
%LPD*%
M02*
