M48
; DRILL file {KiCad 8.0.4} date 2024-11-19T03:06:08+1100
; FORMAT={-:-/ absolute / metric / decimal}
; #@! TF.CreationDate,2024-11-19T03:06:08+11:00
; #@! TF.GenerationSoftware,Kicad,Pcbnew,8.0.4
; #@! TF.FileFunction,Plated,1,2,PTH
FMAT,2
METRIC
; #@! TA.AperFunction,Plated,PTH,ViaDrill
T1C0.300
; #@! TA.AperFunction,Plated,PTH,ViaDrill
T2C0.500
%
G90
G05
T1
X-60.5Y-2.2
X-60.27Y5.716
X-59.695Y-10.078
X-59.008Y13.534
X-57.869Y-17.784
X-57.4Y-2.1
X-57.183Y5.41
X-56.737Y21.12
X-56.635Y-9.574
X-55.988Y12.828
X-55.053Y-25.185
X-54.901Y-16.885
X-53.834Y20.026
X-53.495Y28.345
X-52.227Y-23.906
X-51.295Y-32.155
X-50.76Y26.881
X-49.337Y35.085
X-48.66Y-30.519
X-46.817Y33.277
X-46.659Y-38.575
X-44.336Y41.224
X-44.1Y-36.35
X-41.9Y39.1
X-41.224Y-44.336
X-39.103Y-42.073
X-38.575Y46.659
X-36.609Y44.26
X-35.085Y-49.337
X-33.277Y-46.817
X-32.155Y51.295
X-30.519Y48.66
X-28.345Y-53.495
X-26.881Y-50.76
X-25.185Y55.053
X-23.906Y52.227
X-21.12Y-56.737
X-20.026Y-53.834
X-17.784Y57.869
X-16.885Y54.901
X-13.534Y-59.008
X-12.828Y-55.988
X-10.078Y59.695
X-9.574Y56.635
X-5.716Y-60.27
X-5.41Y-57.183
X-1.9Y60.5
X-1.9Y57.1
X2.1Y-57.4
X2.2Y-60.5
X2.6Y58.3
X5.41Y57.183
X5.716Y60.27
X9.574Y-56.635
X10.078Y-59.695
X12.828Y55.988
X13.534Y59.008
X16.885Y-54.901
X17.784Y-57.869
X20.026Y53.834
X21.12Y56.737
X23.906Y-52.227
X25.185Y-55.053
X26.881Y50.76
X28.345Y53.495
X30.519Y-48.66
X32.155Y-51.295
X33.277Y46.817
X35.085Y49.337
X36.609Y-44.26
X38.575Y-46.659
X39.103Y42.073
X41.224Y44.336
X41.7Y-38.75
X44.1Y36.4
X44.336Y-41.224
X46.659Y38.575
X46.817Y-33.277
X48.66Y30.519
X49.337Y-35.085
X50.76Y-26.881
X51.295Y32.155
X52.227Y23.906
X53.495Y-28.345
X53.834Y-20.026
X54.901Y16.885
X55.053Y25.185
X55.988Y-12.828
X56.635Y9.574
X56.737Y-21.12
X57.183Y-5.41
X57.4Y2.1
X57.869Y17.784
X59.008Y-13.534
X59.695Y10.078
X60.27Y-5.716
X60.5Y2.2
T2
X4.1Y58.9
X10.9Y58.5
M30
