G04 #@! TF.GenerationSoftware,KiCad,Pcbnew,8.0.4*
G04 #@! TF.CreationDate,2024-11-19T03:08:21+11:00*
G04 #@! TF.ProjectId,RCS_WS2812B_Ring,5243535f-5753-4323-9831-32425f52696e,rev?*
G04 #@! TF.SameCoordinates,Original*
G04 #@! TF.FileFunction,Copper,L2,Bot*
G04 #@! TF.FilePolarity,Positive*
%FSLAX46Y46*%
G04 Gerber Fmt 4.6, Leading zero omitted, Abs format (unit mm)*
G04 Created by KiCad (PCBNEW 8.0.4) date 2024-11-19 03:08:21*
%MOMM*%
%LPD*%
G01*
G04 APERTURE LIST*
G04 Aperture macros list*
%AMRoundRect*
0 Rectangle with rounded corners*
0 $1 Rounding radius*
0 $2 $3 $4 $5 $6 $7 $8 $9 X,Y pos of 4 corners*
0 Add a 4 corners polygon primitive as box body*
4,1,4,$2,$3,$4,$5,$6,$7,$8,$9,$2,$3,0*
0 Add four circle primitives for the rounded corners*
1,1,$1+$1,$2,$3*
1,1,$1+$1,$4,$5*
1,1,$1+$1,$6,$7*
1,1,$1+$1,$8,$9*
0 Add four rect primitives between the rounded corners*
20,1,$1+$1,$2,$3,$4,$5,0*
20,1,$1+$1,$4,$5,$6,$7,0*
20,1,$1+$1,$6,$7,$8,$9,0*
20,1,$1+$1,$8,$9,$2,$3,0*%
G04 Aperture macros list end*
G04 #@! TA.AperFunction,SMDPad,CuDef*
%ADD10RoundRect,0.500000X-1.500000X0.500000X-1.500000X-0.500000X1.500000X-0.500000X1.500000X0.500000X0*%
G04 #@! TD*
G04 #@! TA.AperFunction,SMDPad,CuDef*
%ADD11RoundRect,0.500000X-1.421904X0.691512X-1.552430X-0.299933X1.421904X-0.691512X1.552430X0.299933X0*%
G04 #@! TD*
G04 #@! TA.AperFunction,SMDPad,CuDef*
%ADD12RoundRect,0.500000X-1.552430X0.299933X-1.421904X-0.691512X1.552430X-0.299933X1.421904X0.691512X0*%
G04 #@! TD*
G04 #@! TA.AperFunction,ViaPad*
%ADD13C,0.600000*%
G04 #@! TD*
G04 #@! TA.AperFunction,ViaPad*
%ADD14C,1.000000*%
G04 #@! TD*
G04 #@! TA.AperFunction,Conductor*
%ADD15C,0.200000*%
G04 #@! TD*
G04 #@! TA.AperFunction,Conductor*
%ADD16C,0.500000*%
G04 #@! TD*
G04 APERTURE END LIST*
D10*
X0Y59000000D03*
D11*
X7701045Y58495247D03*
D12*
X-7701045Y58495250D03*
D13*
X41700000Y-38750000D03*
X-44100000Y-36350000D03*
X-41900000Y39100000D03*
X44100000Y36400000D03*
D14*
X10900000Y58500000D03*
X4100000Y58900000D03*
D13*
X2600000Y58300000D03*
X-1900000Y57100000D03*
X5410169Y57183040D03*
X12827769Y55987662D03*
X20025882Y53834320D03*
X26881347Y50759858D03*
X33276864Y46816881D03*
X39103005Y42072853D03*
X48659858Y30518653D03*
X52227050Y23906176D03*
X54900622Y16884657D03*
X56634830Y9574238D03*
X57400000Y2100000D03*
X57183040Y-5410169D03*
X55987662Y-12827769D03*
X53834320Y-20025882D03*
X50759858Y-26881347D03*
X46816881Y-33276864D03*
X36608948Y-44260083D03*
X30518653Y-48659858D03*
X23906176Y-52227050D03*
X16884657Y-54900622D03*
X9574238Y-56634830D03*
X2100000Y-57400000D03*
X-5410169Y-57183040D03*
X-12827769Y-55987662D03*
X-20025882Y-53834320D03*
X-26881347Y-50759858D03*
X-33276864Y-46816881D03*
X-39103005Y-42072853D03*
X-48659858Y-30518653D03*
X-52227050Y-23906176D03*
X-54900622Y-16884657D03*
X-56634830Y-9574238D03*
X-57400000Y-2100000D03*
X-57183040Y5410169D03*
X-55987662Y12827769D03*
X-53834320Y20025882D03*
X-50759858Y26881347D03*
X-46816881Y33276864D03*
X-36608948Y44260083D03*
X-30518653Y48659858D03*
X-23906176Y52227050D03*
X-16884657Y54900622D03*
X-9574238Y56634830D03*
X5715656Y60269572D03*
X13533515Y59007914D03*
X21119813Y56736615D03*
X28344744Y53494537D03*
X35084689Y49337152D03*
X41224325Y44335595D03*
X46658602Y38575444D03*
X51294537Y32155256D03*
X55052808Y25184883D03*
X57869111Y17783589D03*
X59695256Y10078013D03*
X60500000Y2200000D03*
X60269572Y-5715656D03*
X59007914Y-13533515D03*
X56736615Y-21119813D03*
X53494537Y-28344744D03*
X49337152Y-35084689D03*
X44335595Y-41224325D03*
X38575444Y-46658602D03*
X32155256Y-51294537D03*
X25184883Y-55052808D03*
X17783589Y-57869111D03*
X10078013Y-59695256D03*
X2200000Y-60500000D03*
X-5715656Y-60269572D03*
X-13533515Y-59007914D03*
X-21119813Y-56736615D03*
X-28344744Y-53494537D03*
X-35084689Y-49337152D03*
X-41224325Y-44335595D03*
X-46658602Y-38575444D03*
X-51294537Y-32155256D03*
X-55052808Y-25184883D03*
X-57869111Y-17783589D03*
X-59695256Y-10078013D03*
X-60500000Y-2200000D03*
X-60269572Y5715656D03*
X-59007914Y13533515D03*
X-56736615Y21119813D03*
X-53494537Y28344744D03*
X-49337152Y35084689D03*
X-44335595Y41224325D03*
X-38575444Y46658602D03*
X-32155256Y51294537D03*
X-25184883Y55052808D03*
X-17783589Y57869111D03*
X-10078013Y59695256D03*
X-1900000Y60500001D03*
D15*
X0Y59000000D02*
X910051Y59000000D01*
X910051Y59000000D02*
G75*
G02*
X2600000Y58300000I-1J-2389950D01*
G01*
D16*
X10888526Y58495247D02*
X10900000Y58500000D01*
X7701045Y58495247D02*
X10888526Y58495247D01*
X6723885Y58900000D02*
X4100000Y58900000D01*
X7701045Y58495247D02*
G75*
G03*
X6723885Y58899993I-977145J-977147D01*
G01*
G04 #@! TA.AperFunction,Conductor*
G36*
X786192Y61494464D02*
G01*
X2354756Y61454392D01*
X2356390Y61454330D01*
X3923502Y61374208D01*
X3925133Y61374103D01*
X5489611Y61253991D01*
X5491239Y61253845D01*
X7052141Y61093817D01*
X7053765Y61093630D01*
X8610114Y60893785D01*
X8611733Y60893556D01*
X10162443Y60654035D01*
X10164055Y60653765D01*
X11708151Y60374716D01*
X11709755Y60374405D01*
X13246212Y60056015D01*
X13247809Y60055663D01*
X14775666Y59698131D01*
X14777252Y59697738D01*
X16295425Y59301318D01*
X16297002Y59300885D01*
X17804632Y58865799D01*
X17806196Y58865325D01*
X19302140Y58391905D01*
X19303692Y58391392D01*
X20787083Y57879912D01*
X20788621Y57879360D01*
X22258498Y57330153D01*
X22260022Y57329561D01*
X23715353Y56743010D01*
X23716861Y56742380D01*
X25156771Y56118838D01*
X25158263Y56118169D01*
X26581742Y55458075D01*
X26583216Y55457369D01*
X27989405Y54761121D01*
X27990861Y54760377D01*
X29378810Y54028443D01*
X29380246Y54027662D01*
X30749068Y53260511D01*
X30750483Y53259693D01*
X32099207Y52457868D01*
X32100601Y52457015D01*
X33428409Y51621009D01*
X33429782Y51620121D01*
X34735902Y50750411D01*
X34737250Y50749488D01*
X36020620Y49846787D01*
X36021945Y49845829D01*
X37281904Y48910600D01*
X37283204Y48909609D01*
X38518843Y47942527D01*
X38520118Y47941503D01*
X39730688Y46943153D01*
X39731935Y46942097D01*
X40916555Y45913208D01*
X40917776Y45912121D01*
X42075811Y44853242D01*
X42077003Y44852123D01*
X43207557Y43764074D01*
X43208720Y43762926D01*
X44311157Y42646319D01*
X44312290Y42645141D01*
X45385814Y41500783D01*
X45386917Y41499577D01*
X46430884Y40328156D01*
X46431956Y40326922D01*
X47445669Y39129217D01*
X47446709Y39127956D01*
X48429502Y37904755D01*
X48430510Y37903467D01*
X49381738Y36655573D01*
X49382712Y36654261D01*
X50301776Y35382461D01*
X50302716Y35381124D01*
X51188985Y34086286D01*
X51189891Y34084925D01*
X52042798Y32767886D01*
X52043669Y32766503D01*
X52862661Y31428111D01*
X52863497Y31426706D01*
X53648065Y30067794D01*
X53648864Y30066368D01*
X54398464Y28687878D01*
X54399226Y28686432D01*
X55113351Y27289295D01*
X55114077Y27287830D01*
X55792327Y25872833D01*
X55793014Y25871350D01*
X56434869Y24439572D01*
X56435519Y24438072D01*
X57040621Y22990317D01*
X57041232Y22988801D01*
X57609158Y21526077D01*
X57609730Y21524546D01*
X58140111Y20047808D01*
X58140644Y20046263D01*
X58633148Y18556428D01*
X58633641Y18554869D01*
X59087928Y17052976D01*
X59088381Y17051406D01*
X59504165Y15538390D01*
X59504578Y15536808D01*
X59881579Y14013695D01*
X59881952Y14012104D01*
X60219950Y12479777D01*
X60220281Y12478176D01*
X60519017Y10937810D01*
X60519308Y10936201D01*
X60778613Y9388681D01*
X60778863Y9387066D01*
X60998567Y7833390D01*
X60998775Y7831769D01*
X61178728Y6272994D01*
X61178894Y6271368D01*
X61318972Y4708588D01*
X61319098Y4706958D01*
X61419226Y3140997D01*
X61419309Y3139364D01*
X61479409Y1571439D01*
X61479451Y1569805D01*
X61499489Y817D01*
X61499489Y-817D01*
X61479451Y-1569805D01*
X61479409Y-1571439D01*
X61419309Y-3139364D01*
X61419226Y-3140997D01*
X61319098Y-4706958D01*
X61318972Y-4708588D01*
X61178894Y-6271368D01*
X61178728Y-6272994D01*
X60998775Y-7831769D01*
X60998567Y-7833390D01*
X60778863Y-9387066D01*
X60778613Y-9388681D01*
X60519308Y-10936201D01*
X60519017Y-10937810D01*
X60220281Y-12478176D01*
X60219950Y-12479777D01*
X59881952Y-14012104D01*
X59881579Y-14013695D01*
X59504578Y-15536808D01*
X59504165Y-15538390D01*
X59088381Y-17051406D01*
X59087928Y-17052976D01*
X58633641Y-18554869D01*
X58633148Y-18556428D01*
X58140644Y-20046263D01*
X58140111Y-20047808D01*
X57609730Y-21524546D01*
X57609158Y-21526077D01*
X57041232Y-22988801D01*
X57040621Y-22990317D01*
X56435519Y-24438072D01*
X56434869Y-24439572D01*
X55793014Y-25871350D01*
X55792327Y-25872833D01*
X55114077Y-27287830D01*
X55113351Y-27289295D01*
X54399226Y-28686432D01*
X54398464Y-28687878D01*
X53648864Y-30066368D01*
X53648065Y-30067794D01*
X52863497Y-31426706D01*
X52862661Y-31428111D01*
X52043669Y-32766503D01*
X52042798Y-32767886D01*
X51189891Y-34084925D01*
X51188985Y-34086286D01*
X50302716Y-35381124D01*
X50301776Y-35382461D01*
X49382712Y-36654261D01*
X49381738Y-36655573D01*
X48430510Y-37903467D01*
X48429502Y-37904755D01*
X47446709Y-39127956D01*
X47445669Y-39129217D01*
X46431956Y-40326922D01*
X46430884Y-40328156D01*
X45386917Y-41499577D01*
X45385814Y-41500783D01*
X44312290Y-42645141D01*
X44311157Y-42646319D01*
X43208720Y-43762926D01*
X43207557Y-43764074D01*
X42077003Y-44852123D01*
X42075811Y-44853242D01*
X40917776Y-45912121D01*
X40916555Y-45913208D01*
X39731935Y-46942097D01*
X39730688Y-46943153D01*
X38520118Y-47941503D01*
X38518843Y-47942527D01*
X37283204Y-48909609D01*
X37281904Y-48910600D01*
X36021945Y-49845829D01*
X36020620Y-49846787D01*
X34737250Y-50749488D01*
X34735902Y-50750411D01*
X33429782Y-51620121D01*
X33428409Y-51621009D01*
X32100601Y-52457015D01*
X32099207Y-52457868D01*
X30750483Y-53259693D01*
X30749068Y-53260511D01*
X29380246Y-54027662D01*
X29378810Y-54028443D01*
X27990861Y-54760377D01*
X27989405Y-54761121D01*
X26583216Y-55457369D01*
X26581742Y-55458075D01*
X25158263Y-56118169D01*
X25156771Y-56118838D01*
X23716861Y-56742380D01*
X23715353Y-56743010D01*
X22260022Y-57329561D01*
X22258498Y-57330153D01*
X20788621Y-57879360D01*
X20787083Y-57879912D01*
X19303692Y-58391392D01*
X19302140Y-58391905D01*
X17806196Y-58865325D01*
X17804632Y-58865799D01*
X16297002Y-59300885D01*
X16295425Y-59301318D01*
X14777252Y-59697738D01*
X14775666Y-59698131D01*
X13247809Y-60055663D01*
X13246212Y-60056015D01*
X11709755Y-60374405D01*
X11708151Y-60374716D01*
X10164055Y-60653765D01*
X10162443Y-60654035D01*
X8611733Y-60893556D01*
X8610114Y-60893785D01*
X7053765Y-61093630D01*
X7052141Y-61093817D01*
X5491239Y-61253845D01*
X5489611Y-61253991D01*
X3925133Y-61374103D01*
X3923502Y-61374208D01*
X2356390Y-61454330D01*
X2354756Y-61454392D01*
X786192Y-61494464D01*
X784558Y-61494485D01*
X-784558Y-61494485D01*
X-786192Y-61494464D01*
X-2354756Y-61454392D01*
X-2356390Y-61454330D01*
X-3923502Y-61374208D01*
X-3925133Y-61374103D01*
X-5489611Y-61253991D01*
X-5491239Y-61253845D01*
X-7052141Y-61093817D01*
X-7053765Y-61093630D01*
X-8610114Y-60893785D01*
X-8611733Y-60893556D01*
X-10162443Y-60654035D01*
X-10164055Y-60653765D01*
X-11708151Y-60374716D01*
X-11709755Y-60374405D01*
X-13246212Y-60056015D01*
X-13247809Y-60055663D01*
X-14775666Y-59698131D01*
X-14777252Y-59697738D01*
X-16295425Y-59301318D01*
X-16297002Y-59300885D01*
X-17804632Y-58865799D01*
X-17806196Y-58865325D01*
X-19302140Y-58391905D01*
X-19303692Y-58391392D01*
X-20787083Y-57879912D01*
X-20788621Y-57879360D01*
X-22258498Y-57330153D01*
X-22260022Y-57329561D01*
X-23715353Y-56743010D01*
X-23716861Y-56742380D01*
X-25156771Y-56118838D01*
X-25158263Y-56118169D01*
X-26581742Y-55458075D01*
X-26583216Y-55457369D01*
X-27989405Y-54761121D01*
X-27990861Y-54760377D01*
X-29378810Y-54028443D01*
X-29380246Y-54027662D01*
X-30749068Y-53260511D01*
X-30750483Y-53259693D01*
X-32099207Y-52457868D01*
X-32100601Y-52457015D01*
X-33428409Y-51621009D01*
X-33429782Y-51620121D01*
X-34735902Y-50750411D01*
X-34737250Y-50749488D01*
X-36020620Y-49846787D01*
X-36021945Y-49845829D01*
X-37281904Y-48910600D01*
X-37283204Y-48909609D01*
X-38518843Y-47942527D01*
X-38520118Y-47941503D01*
X-39730688Y-46943153D01*
X-39731935Y-46942097D01*
X-40916555Y-45913208D01*
X-40917776Y-45912121D01*
X-42075811Y-44853242D01*
X-42077003Y-44852123D01*
X-43207557Y-43764074D01*
X-43208720Y-43762926D01*
X-44311157Y-42646319D01*
X-44312290Y-42645141D01*
X-45385814Y-41500783D01*
X-45386917Y-41499577D01*
X-46430884Y-40328156D01*
X-46431956Y-40326922D01*
X-47445669Y-39129217D01*
X-47446709Y-39127956D01*
X-47449254Y-39124789D01*
X-46084969Y-39124789D01*
X-46084969Y-39337363D01*
X-46051715Y-39547319D01*
X-45986026Y-39749488D01*
X-45889520Y-39938892D01*
X-45764573Y-40110868D01*
X-45614261Y-40261180D01*
X-45442285Y-40386127D01*
X-45442280Y-40386129D01*
X-45442278Y-40386131D01*
X-45252887Y-40482630D01*
X-45252881Y-40482633D01*
X-45050712Y-40548322D01*
X-44840756Y-40581576D01*
X-44840753Y-40581576D01*
X-44628185Y-40581576D01*
X-44628182Y-40581576D01*
X-44418226Y-40548322D01*
X-44216057Y-40482633D01*
X-44216053Y-40482631D01*
X-44216050Y-40482630D01*
X-44026659Y-40386131D01*
X-44026652Y-40386126D01*
X-43946862Y-40328156D01*
X-43854677Y-40261180D01*
X-43704365Y-40110868D01*
X-43579418Y-39938892D01*
X-43579413Y-39938885D01*
X-43482914Y-39749494D01*
X-43482911Y-39749485D01*
X-43417222Y-39547318D01*
X-43383969Y-39337360D01*
X-43383969Y-39124791D01*
X-43417222Y-38914833D01*
X-43482911Y-38712666D01*
X-43482914Y-38712657D01*
X-43579413Y-38523266D01*
X-43579418Y-38523259D01*
X-43704365Y-38351283D01*
X-43854676Y-38200972D01*
X-44026652Y-38076025D01*
X-44026659Y-38076020D01*
X-44216050Y-37979521D01*
X-44216059Y-37979518D01*
X-44418226Y-37913829D01*
X-44560555Y-37891286D01*
X-44628182Y-37880576D01*
X-44840756Y-37880576D01*
X-44916516Y-37892575D01*
X-45050711Y-37913829D01*
X-45252878Y-37979518D01*
X-45252887Y-37979521D01*
X-45442278Y-38076020D01*
X-45442285Y-38076025D01*
X-45614261Y-38200972D01*
X-45764572Y-38351283D01*
X-45889519Y-38523259D01*
X-45889524Y-38523266D01*
X-45986023Y-38712657D01*
X-45986024Y-38712660D01*
X-45986026Y-38712664D01*
X-46051715Y-38914833D01*
X-46084969Y-39124789D01*
X-47449254Y-39124789D01*
X-48429502Y-37904755D01*
X-48430510Y-37903467D01*
X-49381738Y-36655573D01*
X-49382712Y-36654261D01*
X-50301776Y-35382461D01*
X-50302716Y-35381124D01*
X-51188985Y-34086286D01*
X-51189891Y-34084925D01*
X-52042798Y-32767886D01*
X-52043669Y-32766503D01*
X-52862661Y-31428111D01*
X-52863497Y-31426706D01*
X-53648065Y-30067794D01*
X-53648864Y-30066368D01*
X-54398464Y-28687878D01*
X-54399226Y-28686432D01*
X-55113351Y-27289295D01*
X-55114077Y-27287830D01*
X-55792327Y-25872833D01*
X-55793014Y-25871350D01*
X-56434869Y-24439572D01*
X-56435519Y-24438072D01*
X-57040621Y-22990317D01*
X-57041232Y-22988801D01*
X-57609158Y-21526077D01*
X-57609730Y-21524546D01*
X-58140111Y-20047808D01*
X-58140644Y-20046263D01*
X-58633148Y-18556428D01*
X-58633641Y-18554869D01*
X-59087928Y-17052976D01*
X-59088381Y-17051406D01*
X-59504165Y-15538390D01*
X-59504578Y-15536808D01*
X-59881579Y-14013695D01*
X-59881952Y-14012104D01*
X-60219950Y-12479777D01*
X-60220281Y-12478176D01*
X-60519017Y-10937810D01*
X-60519308Y-10936201D01*
X-60778613Y-9388681D01*
X-60778863Y-9387066D01*
X-60998567Y-7833390D01*
X-60998775Y-7831769D01*
X-61178728Y-6272994D01*
X-61178894Y-6271368D01*
X-61318972Y-4708588D01*
X-61319098Y-4706958D01*
X-61419226Y-3140997D01*
X-61419309Y-3139364D01*
X-61479409Y-1571439D01*
X-61479451Y-1569805D01*
X-61499489Y-817D01*
X-61499489Y0D01*
X-56005462Y0D01*
X-55985614Y-1490895D01*
X-55926085Y-2980732D01*
X-55926084Y-2980743D01*
X-55826917Y-4468461D01*
X-55804555Y-4707741D01*
X-55688180Y-5953016D01*
X-55509972Y-7433354D01*
X-55292420Y-8908425D01*
X-55035678Y-10377181D01*
X-54739928Y-11838581D01*
X-54405380Y-13291591D01*
X-54032270Y-14735181D01*
X-53620864Y-16168326D01*
X-53171452Y-17590011D01*
X-52684353Y-18999229D01*
X-52159913Y-20394981D01*
X-51598503Y-21776278D01*
X-51267454Y-22532431D01*
X-51067654Y-22988801D01*
X-51000521Y-23142139D01*
X-50366391Y-24491599D01*
X-49696563Y-25823699D01*
X-48991511Y-27137495D01*
X-48251734Y-28432058D01*
X-47477758Y-29706468D01*
X-46670131Y-30959823D01*
X-45829425Y-32191234D01*
X-44956236Y-33399829D01*
X-44051183Y-34584751D01*
X-43114908Y-35745160D01*
X-42148074Y-36880234D01*
X-41151366Y-37989168D01*
X-40125491Y-39071176D01*
X-39071176Y-40125491D01*
X-37989168Y-41151366D01*
X-36880234Y-42148074D01*
X-35745160Y-43114908D01*
X-34584751Y-44051183D01*
X-33399829Y-44956236D01*
X-32408449Y-45672490D01*
X-32191230Y-45829428D01*
X-32068514Y-45913208D01*
X-30959823Y-46670131D01*
X-29706468Y-47477758D01*
X-28432058Y-48251734D01*
X-27137495Y-48991511D01*
X-25823699Y-49696563D01*
X-24491599Y-50366391D01*
X-23676350Y-50749488D01*
X-23142131Y-51000525D01*
X-22532431Y-51267454D01*
X-21776278Y-51598503D01*
X-20394981Y-52159913D01*
X-20394970Y-52159916D01*
X-20394963Y-52159920D01*
X-19948338Y-52327734D01*
X-18999229Y-52684353D01*
X-17590011Y-53171452D01*
X-16168326Y-53620864D01*
X-14735181Y-54032270D01*
X-13291591Y-54405380D01*
X-11838581Y-54739928D01*
X-10377181Y-55035678D01*
X-8908425Y-55292420D01*
X-7433354Y-55509972D01*
X-5953016Y-55688180D01*
X-5104697Y-55767458D01*
X-4468461Y-55826917D01*
X-3831056Y-55869404D01*
X-2980732Y-55926085D01*
X-1490895Y-55985614D01*
X0Y-56005462D01*
X1490895Y-55985614D01*
X2980732Y-55926085D01*
X3831056Y-55869404D01*
X4468461Y-55826917D01*
X5104697Y-55767458D01*
X5953016Y-55688180D01*
X7433354Y-55509972D01*
X8908425Y-55292420D01*
X10377181Y-55035678D01*
X11838581Y-54739928D01*
X13291591Y-54405380D01*
X14735181Y-54032270D01*
X16168326Y-53620864D01*
X17590011Y-53171452D01*
X18999229Y-52684353D01*
X19948338Y-52327734D01*
X20394963Y-52159920D01*
X20394970Y-52159916D01*
X20394981Y-52159913D01*
X21776278Y-51598503D01*
X22532431Y-51267454D01*
X23142131Y-51000525D01*
X23676350Y-50749488D01*
X24491599Y-50366391D01*
X25823699Y-49696563D01*
X27137495Y-48991511D01*
X28432058Y-48251734D01*
X29706468Y-47477758D01*
X30959823Y-46670131D01*
X32068514Y-45913208D01*
X32191230Y-45829428D01*
X32408449Y-45672490D01*
X33399829Y-44956236D01*
X34584751Y-44051183D01*
X35745160Y-43114908D01*
X36880234Y-42148074D01*
X37989168Y-41151366D01*
X39071176Y-40125491D01*
X40071876Y-39124791D01*
X43383969Y-39124791D01*
X43383969Y-39337360D01*
X43417222Y-39547318D01*
X43482911Y-39749485D01*
X43482914Y-39749494D01*
X43579413Y-39938885D01*
X43579418Y-39938892D01*
X43704365Y-40110868D01*
X43854677Y-40261180D01*
X43946863Y-40328156D01*
X44026652Y-40386126D01*
X44026659Y-40386131D01*
X44216050Y-40482630D01*
X44216053Y-40482631D01*
X44216057Y-40482633D01*
X44418226Y-40548322D01*
X44628182Y-40581576D01*
X44628185Y-40581576D01*
X44840753Y-40581576D01*
X44840756Y-40581576D01*
X45050712Y-40548322D01*
X45252881Y-40482633D01*
X45252887Y-40482630D01*
X45442278Y-40386131D01*
X45442280Y-40386129D01*
X45442285Y-40386127D01*
X45614261Y-40261180D01*
X45764573Y-40110868D01*
X45889520Y-39938892D01*
X45986026Y-39749488D01*
X46051715Y-39547319D01*
X46084969Y-39337363D01*
X46084969Y-39124789D01*
X46051715Y-38914833D01*
X45986026Y-38712664D01*
X45986024Y-38712660D01*
X45986023Y-38712657D01*
X45889524Y-38523266D01*
X45889519Y-38523259D01*
X45764572Y-38351283D01*
X45614261Y-38200972D01*
X45442285Y-38076025D01*
X45442278Y-38076020D01*
X45252887Y-37979521D01*
X45252878Y-37979518D01*
X45050711Y-37913829D01*
X44916516Y-37892575D01*
X44840756Y-37880576D01*
X44628182Y-37880576D01*
X44560555Y-37891286D01*
X44418226Y-37913829D01*
X44216059Y-37979518D01*
X44216050Y-37979521D01*
X44026659Y-38076020D01*
X44026652Y-38076025D01*
X43854676Y-38200972D01*
X43704365Y-38351283D01*
X43579418Y-38523259D01*
X43579413Y-38523266D01*
X43482914Y-38712657D01*
X43482911Y-38712666D01*
X43417222Y-38914833D01*
X43383969Y-39124791D01*
X40071876Y-39124791D01*
X40125491Y-39071176D01*
X41151366Y-37989168D01*
X42148074Y-36880234D01*
X43114908Y-35745160D01*
X44051183Y-34584751D01*
X44956236Y-33399829D01*
X45829425Y-32191234D01*
X46670131Y-30959823D01*
X47477758Y-29706468D01*
X48251734Y-28432058D01*
X48991511Y-27137495D01*
X49696563Y-25823699D01*
X50366391Y-24491599D01*
X51000521Y-23142139D01*
X51067654Y-22988801D01*
X51267454Y-22532431D01*
X51598503Y-21776278D01*
X52159913Y-20394981D01*
X52684353Y-18999229D01*
X53171452Y-17590011D01*
X53620864Y-16168326D01*
X54032270Y-14735181D01*
X54405380Y-13291591D01*
X54739928Y-11838581D01*
X55035678Y-10377181D01*
X55292420Y-8908425D01*
X55509972Y-7433354D01*
X55688180Y-5953016D01*
X55804555Y-4707741D01*
X55826917Y-4468461D01*
X55926084Y-2980743D01*
X55926085Y-2980732D01*
X55985614Y-1490895D01*
X56005462Y0D01*
X55985614Y1490895D01*
X55926085Y2980732D01*
X55869404Y3831056D01*
X55826917Y4468461D01*
X55688180Y5953012D01*
X55688180Y5953016D01*
X55509972Y7433354D01*
X55292420Y8908425D01*
X55035678Y10377181D01*
X54739928Y11838581D01*
X54405380Y13291591D01*
X54032270Y14735181D01*
X53620864Y16168326D01*
X53171452Y17590011D01*
X52684353Y18999229D01*
X52159913Y20394981D01*
X51598503Y21776278D01*
X51102739Y22908662D01*
X51000525Y23142131D01*
X50802504Y23563527D01*
X50366391Y24491599D01*
X49696563Y25823699D01*
X48991511Y27137495D01*
X48251734Y28432058D01*
X47477758Y29706468D01*
X46670131Y30959823D01*
X45829425Y32191234D01*
X44956236Y33399829D01*
X44051183Y34584751D01*
X43114908Y35745160D01*
X42148074Y36880234D01*
X41151366Y37989168D01*
X40125491Y39071176D01*
X39859307Y39337360D01*
X43383969Y39337360D01*
X43383969Y39124791D01*
X43417222Y38914833D01*
X43482911Y38712666D01*
X43482914Y38712657D01*
X43579413Y38523266D01*
X43579418Y38523259D01*
X43704365Y38351283D01*
X43854676Y38200972D01*
X44026652Y38076025D01*
X44026659Y38076020D01*
X44216050Y37979521D01*
X44216059Y37979518D01*
X44418226Y37913829D01*
X44560555Y37891286D01*
X44628182Y37880576D01*
X44628185Y37880576D01*
X44840753Y37880576D01*
X44840756Y37880576D01*
X44916516Y37892575D01*
X45050711Y37913829D01*
X45252878Y37979518D01*
X45252887Y37979521D01*
X45442278Y38076020D01*
X45442285Y38076025D01*
X45614261Y38200972D01*
X45764572Y38351283D01*
X45889519Y38523259D01*
X45889524Y38523266D01*
X45986023Y38712657D01*
X45986024Y38712660D01*
X45986026Y38712664D01*
X46051715Y38914833D01*
X46084969Y39124789D01*
X46084969Y39337363D01*
X46051715Y39547319D01*
X45986026Y39749488D01*
X45889520Y39938892D01*
X45764573Y40110868D01*
X45614261Y40261180D01*
X45442285Y40386127D01*
X45442280Y40386129D01*
X45442278Y40386131D01*
X45252887Y40482630D01*
X45252886Y40482630D01*
X45252881Y40482633D01*
X45050712Y40548322D01*
X44840756Y40581576D01*
X44628182Y40581576D01*
X44418226Y40548322D01*
X44216057Y40482633D01*
X44216053Y40482631D01*
X44216050Y40482630D01*
X44026659Y40386131D01*
X44026654Y40386127D01*
X44026653Y40386127D01*
X43946863Y40328156D01*
X43854676Y40261179D01*
X43704365Y40110868D01*
X43579418Y39938892D01*
X43579413Y39938885D01*
X43482914Y39749494D01*
X43482911Y39749485D01*
X43417222Y39547318D01*
X43383969Y39337360D01*
X39859307Y39337360D01*
X39071176Y40125491D01*
X37989168Y41151366D01*
X36880234Y42148074D01*
X35745160Y43114908D01*
X34584751Y44051183D01*
X33399829Y44956236D01*
X32191234Y45829425D01*
X32070106Y45912121D01*
X31384874Y46379941D01*
X30959823Y46670131D01*
X29706468Y47477758D01*
X28432058Y48251734D01*
X27137495Y48991511D01*
X25823699Y49696563D01*
X24491599Y50366391D01*
X23391655Y50883270D01*
X23142131Y51000525D01*
X22452973Y51302242D01*
X21776278Y51598503D01*
X20394981Y52159913D01*
X20394970Y52159916D01*
X20394963Y52159920D01*
X19948338Y52327734D01*
X18999229Y52684353D01*
X17590011Y53171452D01*
X16168326Y53620864D01*
X14735181Y54032270D01*
X13291591Y54405380D01*
X11838581Y54739928D01*
X10377181Y55035678D01*
X8908425Y55292420D01*
X7433354Y55509972D01*
X5953016Y55688180D01*
X5104697Y55767458D01*
X4468461Y55826917D01*
X3831056Y55869404D01*
X2980732Y55926085D01*
X1490895Y55985614D01*
X0Y56005462D01*
X-1490895Y55985614D01*
X-2980732Y55926085D01*
X-3831056Y55869404D01*
X-4468461Y55826917D01*
X-5104697Y55767458D01*
X-5953016Y55688180D01*
X-7433354Y55509972D01*
X-8908425Y55292420D01*
X-10377181Y55035678D01*
X-11838581Y54739928D01*
X-13291591Y54405380D01*
X-14735181Y54032270D01*
X-16168326Y53620864D01*
X-17590011Y53171452D01*
X-18999229Y52684353D01*
X-19948338Y52327734D01*
X-20394963Y52159920D01*
X-20394970Y52159916D01*
X-20394981Y52159913D01*
X-21776278Y51598503D01*
X-22452973Y51302242D01*
X-23142131Y51000525D01*
X-23391655Y50883270D01*
X-24491599Y50366391D01*
X-25823699Y49696563D01*
X-27137495Y48991511D01*
X-28432058Y48251734D01*
X-29706468Y47477758D01*
X-30959823Y46670131D01*
X-31384874Y46379941D01*
X-32070106Y45912121D01*
X-32191234Y45829425D01*
X-33399829Y44956236D01*
X-34584751Y44051183D01*
X-35745160Y43114908D01*
X-36880234Y42148074D01*
X-37989168Y41151366D01*
X-39071176Y40125491D01*
X-40125491Y39071176D01*
X-41151366Y37989168D01*
X-42148074Y36880234D01*
X-43114908Y35745160D01*
X-44051183Y34584751D01*
X-44956236Y33399829D01*
X-45829425Y32191234D01*
X-46670131Y30959823D01*
X-47477758Y29706468D01*
X-48251734Y28432058D01*
X-48991511Y27137495D01*
X-49696563Y25823699D01*
X-50366391Y24491599D01*
X-50802504Y23563527D01*
X-51000525Y23142131D01*
X-51102739Y22908662D01*
X-51598503Y21776278D01*
X-52159913Y20394981D01*
X-52684353Y18999229D01*
X-53171452Y17590011D01*
X-53620864Y16168326D01*
X-54032270Y14735181D01*
X-54405380Y13291591D01*
X-54739928Y11838581D01*
X-55035678Y10377181D01*
X-55292420Y8908425D01*
X-55509972Y7433354D01*
X-55688180Y5953016D01*
X-55688180Y5953012D01*
X-55826917Y4468461D01*
X-55869404Y3831056D01*
X-55926085Y2980732D01*
X-55985614Y1490895D01*
X-56005462Y0D01*
X-61499489Y0D01*
X-61499489Y817D01*
X-61479451Y1569805D01*
X-61479409Y1571439D01*
X-61419309Y3139364D01*
X-61419226Y3140997D01*
X-61319098Y4706958D01*
X-61318972Y4708588D01*
X-61178894Y6271368D01*
X-61178728Y6272994D01*
X-60998775Y7831769D01*
X-60998567Y7833390D01*
X-60778863Y9387066D01*
X-60778613Y9388681D01*
X-60519308Y10936201D01*
X-60519017Y10937810D01*
X-60220281Y12478176D01*
X-60219950Y12479777D01*
X-59881952Y14012104D01*
X-59881579Y14013695D01*
X-59504578Y15536808D01*
X-59504165Y15538390D01*
X-59088381Y17051406D01*
X-59087928Y17052976D01*
X-58633641Y18554869D01*
X-58633148Y18556428D01*
X-58140644Y20046263D01*
X-58140111Y20047808D01*
X-57609730Y21524546D01*
X-57609158Y21526077D01*
X-57041232Y22988801D01*
X-57040621Y22990317D01*
X-56435519Y24438072D01*
X-56434869Y24439572D01*
X-55793014Y25871350D01*
X-55792327Y25872833D01*
X-55114077Y27287830D01*
X-55113351Y27289295D01*
X-54399226Y28686432D01*
X-54398464Y28687878D01*
X-53648864Y30066368D01*
X-53648065Y30067794D01*
X-52863497Y31426706D01*
X-52862661Y31428111D01*
X-52043669Y32766503D01*
X-52042798Y32767886D01*
X-51189891Y34084925D01*
X-51188985Y34086286D01*
X-50302716Y35381124D01*
X-50301776Y35382461D01*
X-49382712Y36654261D01*
X-49381738Y36655573D01*
X-48430510Y37903467D01*
X-48429502Y37904755D01*
X-47446709Y39127956D01*
X-47445669Y39129217D01*
X-47269498Y39337363D01*
X-46084969Y39337363D01*
X-46084969Y39124789D01*
X-46051715Y38914833D01*
X-45986026Y38712664D01*
X-45986024Y38712660D01*
X-45986023Y38712657D01*
X-45889524Y38523266D01*
X-45889519Y38523259D01*
X-45764572Y38351283D01*
X-45614261Y38200972D01*
X-45442285Y38076025D01*
X-45442278Y38076020D01*
X-45252887Y37979521D01*
X-45252878Y37979518D01*
X-45050711Y37913829D01*
X-44916516Y37892575D01*
X-44840756Y37880576D01*
X-44840753Y37880576D01*
X-44628185Y37880576D01*
X-44628182Y37880576D01*
X-44560555Y37891286D01*
X-44418226Y37913829D01*
X-44216059Y37979518D01*
X-44216050Y37979521D01*
X-44026659Y38076020D01*
X-44026652Y38076025D01*
X-43854676Y38200972D01*
X-43704365Y38351283D01*
X-43579418Y38523259D01*
X-43579413Y38523266D01*
X-43482914Y38712657D01*
X-43482911Y38712666D01*
X-43417222Y38914833D01*
X-43383969Y39124791D01*
X-43383969Y39337360D01*
X-43417222Y39547318D01*
X-43482911Y39749485D01*
X-43482914Y39749494D01*
X-43579413Y39938885D01*
X-43579418Y39938892D01*
X-43704365Y40110868D01*
X-43854676Y40261179D01*
X-43946862Y40328156D01*
X-44026653Y40386127D01*
X-44026654Y40386127D01*
X-44026659Y40386131D01*
X-44216050Y40482630D01*
X-44216053Y40482631D01*
X-44216057Y40482633D01*
X-44418226Y40548322D01*
X-44628182Y40581576D01*
X-44840756Y40581576D01*
X-45050712Y40548322D01*
X-45252881Y40482633D01*
X-45252886Y40482630D01*
X-45252887Y40482630D01*
X-45442278Y40386131D01*
X-45442280Y40386129D01*
X-45442285Y40386127D01*
X-45614261Y40261180D01*
X-45764573Y40110868D01*
X-45889520Y39938892D01*
X-45986026Y39749488D01*
X-46051715Y39547319D01*
X-46084969Y39337363D01*
X-47269498Y39337363D01*
X-46431956Y40326922D01*
X-46430884Y40328156D01*
X-45386917Y41499577D01*
X-45385814Y41500783D01*
X-44312290Y42645141D01*
X-44311157Y42646319D01*
X-43208720Y43762926D01*
X-43207557Y43764074D01*
X-42077003Y44852123D01*
X-42075811Y44853242D01*
X-40917776Y45912121D01*
X-40916555Y45913208D01*
X-39731935Y46942097D01*
X-39730688Y46943153D01*
X-38520118Y47941503D01*
X-38518843Y47942527D01*
X-37283204Y48909609D01*
X-37281904Y48910600D01*
X-36021945Y49845829D01*
X-36020620Y49846787D01*
X-34737250Y50749488D01*
X-34735902Y50750411D01*
X-33429782Y51620121D01*
X-33428409Y51621009D01*
X-32100601Y52457015D01*
X-32099207Y52457868D01*
X-30750483Y53259693D01*
X-30749068Y53260511D01*
X-29380246Y54027662D01*
X-29378810Y54028443D01*
X-27990861Y54760377D01*
X-27989405Y54761121D01*
X-26583216Y55457369D01*
X-26581742Y55458075D01*
X-25158263Y56118169D01*
X-25156771Y56118838D01*
X-23716861Y56742380D01*
X-23715353Y56743010D01*
X-22260022Y57329561D01*
X-22258498Y57330153D01*
X-20788621Y57879360D01*
X-20787083Y57879912D01*
X-19303692Y58391392D01*
X-19302140Y58391905D01*
X-17806196Y58865325D01*
X-17804632Y58865799D01*
X-16297002Y59300885D01*
X-16295425Y59301318D01*
X-15317720Y59556613D01*
X-2200500Y59556613D01*
X-2200500Y58443386D01*
X-2200499Y58443365D01*
X-2194087Y58372809D01*
X-2194084Y58372797D01*
X-2143479Y58210395D01*
X-2085906Y58115158D01*
X-2055472Y58064815D01*
X-1935185Y57944528D01*
X-1935182Y57944526D01*
X-1789604Y57856520D01*
X-1627202Y57805915D01*
X-1627190Y57805912D01*
X-1556634Y57799500D01*
X-1556616Y57799500D01*
X1556634Y57799500D01*
X1627190Y57805912D01*
X1627202Y57805915D01*
X1789604Y57856520D01*
X1935182Y57944526D01*
X1935185Y57944528D01*
X2055472Y58064815D01*
X2055473Y58064817D01*
X2058209Y58067553D01*
X2059261Y58066500D01*
X2097501Y58088070D01*
X2144686Y58074918D01*
X2163433Y58051126D01*
X2174621Y58026629D01*
X2174624Y58026623D01*
X2268870Y57917858D01*
X2268876Y57917853D01*
X2389945Y57840047D01*
X2458993Y57819773D01*
X2528039Y57799500D01*
X2528041Y57799500D01*
X2671959Y57799500D01*
X2671961Y57799500D01*
X2764022Y57826531D01*
X2810054Y57840047D01*
X2931123Y57917853D01*
X2931129Y57917858D01*
X3025375Y58026623D01*
X3025377Y58026627D01*
X3085164Y58157540D01*
X3085164Y58157541D01*
X3085165Y58157543D01*
X3105647Y58300000D01*
X3085165Y58442457D01*
X3025377Y58573373D01*
X3025375Y58573374D01*
X3025375Y58573376D01*
X2982973Y58622309D01*
X2931128Y58682143D01*
X2810053Y58759953D01*
X2671961Y58800500D01*
X2528039Y58800500D01*
X2523534Y58799177D01*
X2474831Y58804412D01*
X2470947Y58806837D01*
X2470910Y58806778D01*
X2322543Y58900003D01*
X3394355Y58900003D01*
X3394355Y58899996D01*
X3414859Y58731129D01*
X3475182Y58572068D01*
X3571814Y58432073D01*
X3571816Y58432071D01*
X3699148Y58319266D01*
X3699147Y58319266D01*
X3849777Y58240208D01*
X4014937Y58199500D01*
X4014944Y58199500D01*
X4185062Y58199500D01*
X4350222Y58240208D01*
X4464144Y58300000D01*
X4500852Y58319266D01*
X4628183Y58432071D01*
X4628184Y58432073D01*
X4629688Y58433405D01*
X4672128Y58449500D01*
X5402557Y58449500D01*
X5447812Y58430755D01*
X5466557Y58385500D01*
X5466009Y58377146D01*
X5446719Y58230632D01*
X5446717Y58230605D01*
X5443864Y58159802D01*
X5443864Y58159797D01*
X5458537Y58074918D01*
X5472840Y57992176D01*
X5472841Y57992174D01*
X5541090Y57836357D01*
X5644649Y57701395D01*
X5777496Y57595140D01*
X5931907Y57523768D01*
X6001041Y57508198D01*
X6001053Y57508196D01*
X9087630Y57101839D01*
X9087657Y57101837D01*
X9158458Y57098985D01*
X9158459Y57098985D01*
X9158461Y57098985D01*
X9326087Y57127961D01*
X9326088Y57127961D01*
X9326090Y57127962D01*
X9481903Y57196209D01*
X9481907Y57196212D01*
X9616866Y57299770D01*
X9641168Y57330153D01*
X9723122Y57432617D01*
X9794494Y57587027D01*
X9794494Y57587028D01*
X9796322Y57595142D01*
X9810066Y57656170D01*
X9853897Y57989101D01*
X9878388Y58031522D01*
X9917349Y58044747D01*
X10333237Y58044747D01*
X10375675Y58028652D01*
X10470633Y57944528D01*
X10499148Y57919266D01*
X10649777Y57840208D01*
X10814937Y57799500D01*
X10814944Y57799500D01*
X10985062Y57799500D01*
X11150222Y57840208D01*
X11224818Y57879360D01*
X11300852Y57919266D01*
X11428183Y58032071D01*
X11428185Y58032073D01*
X11524817Y58172068D01*
X11524818Y58172070D01*
X11585140Y58331128D01*
X11591742Y58385500D01*
X11605645Y58499996D01*
X11605645Y58500003D01*
X11585140Y58668870D01*
X11585140Y58668872D01*
X11524818Y58827930D01*
X11428183Y58967929D01*
X11300852Y59080734D01*
X11150225Y59159790D01*
X11150222Y59159790D01*
X11150222Y59159791D01*
X10985062Y59200499D01*
X10985058Y59200499D01*
X10985056Y59200500D01*
X10814944Y59200500D01*
X10814942Y59200499D01*
X10814937Y59200499D01*
X10649777Y59159791D01*
X10649775Y59159790D01*
X10499148Y59080734D01*
X10427283Y59017067D01*
X10371815Y58967928D01*
X10371269Y58967311D01*
X10370935Y58967148D01*
X10368919Y58965362D01*
X10368421Y58965924D01*
X10327230Y58945864D01*
X10323361Y58945747D01*
X9992223Y58945747D01*
X9946968Y58964492D01*
X9931220Y58994869D01*
X9930364Y58994612D01*
X9929251Y58998310D01*
X9929250Y58998318D01*
X9860998Y59154138D01*
X9757441Y59289097D01*
X9624595Y59395352D01*
X9470180Y59466726D01*
X9401041Y59482297D01*
X6512882Y59862531D01*
X6314459Y59888654D01*
X6314457Y59888654D01*
X6314443Y59888656D01*
X6243629Y59891509D01*
X6076003Y59862533D01*
X6034631Y59844411D01*
X5920186Y59794284D01*
X5920183Y59794282D01*
X5785224Y59690724D01*
X5785222Y59690722D01*
X5785221Y59690721D01*
X5678967Y59557876D01*
X5607595Y59403466D01*
X5607594Y59403462D01*
X5606914Y59400440D01*
X5578685Y59360409D01*
X5544478Y59350500D01*
X4672128Y59350500D01*
X4629688Y59366595D01*
X4628184Y59367927D01*
X4628183Y59367929D01*
X4500852Y59480734D01*
X4350225Y59559790D01*
X4350222Y59559790D01*
X4350222Y59559791D01*
X4185062Y59600499D01*
X4185058Y59600499D01*
X4185056Y59600500D01*
X4014944Y59600500D01*
X4014942Y59600499D01*
X4014937Y59600499D01*
X3849777Y59559791D01*
X3849775Y59559790D01*
X3699148Y59480734D01*
X3571817Y59367929D01*
X3571816Y59367928D01*
X3571814Y59367926D01*
X3475182Y59227931D01*
X3414859Y59068870D01*
X3394355Y58900003D01*
X2322543Y58900003D01*
X2230450Y58957869D01*
X2202105Y58997818D01*
X2200500Y59012059D01*
X2200500Y59556613D01*
X2200499Y59556634D01*
X2194087Y59627190D01*
X2194086Y59627192D01*
X2194086Y59627196D01*
X2143478Y59789606D01*
X2055472Y59935185D01*
X1935185Y60055472D01*
X1789606Y60143478D01*
X1789605Y60143478D01*
X1789604Y60143479D01*
X1627202Y60194084D01*
X1627196Y60194086D01*
X1627192Y60194086D01*
X1627190Y60194087D01*
X1556634Y60200499D01*
X1556618Y60200499D01*
X1556616Y60200500D01*
X-1556616Y60200500D01*
X-1556618Y60200499D01*
X-1556634Y60200499D01*
X-1627190Y60194087D01*
X-1627192Y60194086D01*
X-1627196Y60194086D01*
X-1627202Y60194084D01*
X-1789604Y60143479D01*
X-1789605Y60143478D01*
X-1789606Y60143478D01*
X-1935185Y60055472D01*
X-2055472Y59935185D01*
X-2143478Y59789606D01*
X-2194086Y59627196D01*
X-2194086Y59627192D01*
X-2194087Y59627190D01*
X-2200499Y59556634D01*
X-2200500Y59556613D01*
X-15317720Y59556613D01*
X-14777252Y59697738D01*
X-14775666Y59698131D01*
X-13247809Y60055663D01*
X-13246212Y60056015D01*
X-11709755Y60374405D01*
X-11708151Y60374716D01*
X-10164055Y60653765D01*
X-10162443Y60654035D01*
X-8611733Y60893556D01*
X-8610114Y60893785D01*
X-7053765Y61093630D01*
X-7052141Y61093817D01*
X-5491239Y61253845D01*
X-5489611Y61253991D01*
X-3925133Y61374103D01*
X-3923502Y61374208D01*
X-2356390Y61454330D01*
X-2354756Y61454392D01*
X-786192Y61494464D01*
X-784558Y61494485D01*
X784558Y61494485D01*
X786192Y61494464D01*
G37*
G04 #@! TD.AperFunction*
M02*
