%TF.GenerationSoftware,KiCad,Pcbnew,8.0.4*%
%TF.CreationDate,2024-11-19T03:06:26+11:00*%
%TF.ProjectId,RCS_WS2812B_Ring,5243535f-5753-4323-9831-32425f52696e,rev?*%
%TF.SameCoordinates,Original*%
%TF.FileFunction,Drillmap*%
%TF.FilePolarity,Positive*%
%FSLAX45Y45*%
G04 Gerber Fmt 4.5, Leading zero omitted, Abs format (unit mm)*
G04 Created by KiCad (PCBNEW 8.0.4) date 2024-11-19 03:06:26*
%MOMM*%
%LPD*%
G01*
G04 APERTURE LIST*
%ADD10C,0.050000*%
%ADD11C,0.200000*%
%ADD12C,0.100000*%
G04 APERTURE END LIST*
D10*
X5550000Y0D02*
G75*
G02*
X-5550000Y0I-5550000J0D01*
G01*
X-5550000Y0D02*
G75*
G02*
X5550000Y0I5550000J0D01*
G01*
X6200000Y0D02*
G75*
G02*
X-6200000Y0I-6200000J0D01*
G01*
X-6200000Y0D02*
G75*
G02*
X6200000Y0I6200000J0D01*
G01*
D11*
D12*
X-6065000Y-205000D02*
X-6035000Y-235000D01*
X-6035000Y-205000D02*
X-6065000Y-235000D01*
X-6041957Y586566D02*
X-6011957Y556566D01*
X-6011957Y586566D02*
X-6041957Y556566D01*
X-5984526Y-992801D02*
X-5954526Y-1022801D01*
X-5954526Y-992801D02*
X-5984526Y-1022801D01*
X-5915791Y1368352D02*
X-5885791Y1338352D01*
X-5885791Y1368352D02*
X-5915791Y1338352D01*
X-5801911Y-1763359D02*
X-5771911Y-1793359D01*
X-5771911Y-1763359D02*
X-5801911Y-1793359D01*
X-5755000Y-195000D02*
X-5725000Y-225000D01*
X-5725000Y-195000D02*
X-5755000Y-225000D01*
X-5733304Y556017D02*
X-5703304Y526017D01*
X-5703304Y556017D02*
X-5733304Y526017D01*
X-5688661Y2126981D02*
X-5658661Y2096981D01*
X-5658661Y2126981D02*
X-5688661Y2096981D01*
X-5678483Y-942424D02*
X-5648483Y-972424D01*
X-5648483Y-942424D02*
X-5678483Y-972424D01*
X-5613766Y1297777D02*
X-5583766Y1267777D01*
X-5583766Y1297777D02*
X-5613766Y1267777D01*
X-5520281Y-2503488D02*
X-5490281Y-2533488D01*
X-5490281Y-2503488D02*
X-5520281Y-2533488D01*
X-5505062Y-1673466D02*
X-5475062Y-1703466D01*
X-5475062Y-1673466D02*
X-5505062Y-1703466D01*
X-5398432Y2017588D02*
X-5368432Y1987588D01*
X-5368432Y2017588D02*
X-5398432Y1987588D01*
X-5364454Y2849474D02*
X-5334454Y2819474D01*
X-5334454Y2849474D02*
X-5364454Y2819474D01*
X-5237705Y-2375618D02*
X-5207705Y-2405618D01*
X-5207705Y-2375618D02*
X-5237705Y-2405618D01*
X-5144454Y-3200526D02*
X-5114454Y-3230526D01*
X-5114454Y-3200526D02*
X-5144454Y-3230526D01*
X-5090986Y2703135D02*
X-5060986Y2673135D01*
X-5060986Y2703135D02*
X-5090986Y2673135D01*
X-4948715Y3523469D02*
X-4918715Y3493469D01*
X-4918715Y3523469D02*
X-4948715Y3493469D01*
X-4880986Y-3036865D02*
X-4850986Y-3066865D01*
X-4850986Y-3036865D02*
X-4880986Y-3066865D01*
X-4696688Y3342686D02*
X-4666688Y3312686D01*
X-4666688Y3342686D02*
X-4696688Y3312686D01*
X-4680860Y-3842544D02*
X-4650860Y-3872544D01*
X-4650860Y-3842544D02*
X-4680860Y-3872544D01*
X-4448560Y4137432D02*
X-4418560Y4107432D01*
X-4418560Y4137432D02*
X-4448560Y4107432D01*
X-4425000Y-3620000D02*
X-4395000Y-3650000D01*
X-4395000Y-3620000D02*
X-4425000Y-3650000D01*
X-4205000Y3925000D02*
X-4175000Y3895000D01*
X-4175000Y3925000D02*
X-4205000Y3895000D01*
X-4137432Y-4418560D02*
X-4107432Y-4448560D01*
X-4107432Y-4418560D02*
X-4137432Y-4448560D01*
X-3925300Y-4192285D02*
X-3895300Y-4222285D01*
X-3895300Y-4192285D02*
X-3925300Y-4222285D01*
X-3872544Y4680860D02*
X-3842544Y4650860D01*
X-3842544Y4680860D02*
X-3872544Y4650860D01*
X-3675895Y4441008D02*
X-3645895Y4411008D01*
X-3645895Y4441008D02*
X-3675895Y4411008D01*
X-3523469Y-4918715D02*
X-3493469Y-4948715D01*
X-3493469Y-4918715D02*
X-3523469Y-4948715D01*
X-3342686Y-4666688D02*
X-3312686Y-4696688D01*
X-3312686Y-4666688D02*
X-3342686Y-4696688D01*
X-3230526Y5144454D02*
X-3200526Y5114454D01*
X-3200526Y5144454D02*
X-3230526Y5114454D01*
X-3066865Y4880986D02*
X-3036865Y4850986D01*
X-3036865Y4880986D02*
X-3066865Y4850986D01*
X-2849474Y-5334454D02*
X-2819474Y-5364454D01*
X-2819474Y-5334454D02*
X-2849474Y-5364454D01*
X-2703135Y-5060986D02*
X-2673135Y-5090986D01*
X-2673135Y-5060986D02*
X-2703135Y-5090986D01*
X-2533488Y5520281D02*
X-2503488Y5490281D01*
X-2503488Y5520281D02*
X-2533488Y5490281D01*
X-2405618Y5237705D02*
X-2375618Y5207705D01*
X-2375618Y5237705D02*
X-2405618Y5207705D01*
X-2126981Y-5658661D02*
X-2096981Y-5688661D01*
X-2096981Y-5658661D02*
X-2126981Y-5688661D01*
X-2017588Y-5368432D02*
X-1987588Y-5398432D01*
X-1987588Y-5368432D02*
X-2017588Y-5398432D01*
X-1793359Y5801911D02*
X-1763359Y5771911D01*
X-1763359Y5801911D02*
X-1793359Y5771911D01*
X-1703466Y5505062D02*
X-1673466Y5475062D01*
X-1673466Y5505062D02*
X-1703466Y5475062D01*
X-1368352Y-5885791D02*
X-1338352Y-5915791D01*
X-1338352Y-5885791D02*
X-1368352Y-5915791D01*
X-1297777Y-5583766D02*
X-1267777Y-5613766D01*
X-1267777Y-5583766D02*
X-1297777Y-5613766D01*
X-1022801Y5984526D02*
X-992801Y5954526D01*
X-992801Y5984526D02*
X-1022801Y5954526D01*
X-972424Y5678483D02*
X-942424Y5648483D01*
X-942424Y5678483D02*
X-972424Y5648483D01*
X-586566Y-6011957D02*
X-556566Y-6041957D01*
X-556566Y-6011957D02*
X-586566Y-6041957D01*
X-556017Y-5703304D02*
X-526017Y-5733304D01*
X-526017Y-5703304D02*
X-556017Y-5733304D01*
X-205000Y6065000D02*
X-175000Y6035000D01*
X-175000Y6065000D02*
X-205000Y6035000D01*
X-205000Y5725000D02*
X-175000Y5695000D01*
X-175000Y5725000D02*
X-205000Y5695000D01*
X195000Y-5725000D02*
X225000Y-5755000D01*
X225000Y-5725000D02*
X195000Y-5755000D01*
X205000Y-6035000D02*
X235000Y-6065000D01*
X235000Y-6035000D02*
X205000Y-6065000D01*
X245000Y5845000D02*
X275000Y5815000D01*
X275000Y5845000D02*
X245000Y5815000D01*
X526017Y5733304D02*
X556017Y5703304D01*
X556017Y5733304D02*
X526017Y5703304D01*
X556566Y6041957D02*
X586566Y6011957D01*
X586566Y6041957D02*
X556566Y6011957D01*
X942424Y-5648483D02*
X972424Y-5678483D01*
X972424Y-5648483D02*
X942424Y-5678483D01*
X992801Y-5954526D02*
X1022801Y-5984526D01*
X1022801Y-5954526D02*
X992801Y-5984526D01*
X1267777Y5613766D02*
X1297777Y5583766D01*
X1297777Y5613766D02*
X1267777Y5583766D01*
X1338352Y5915791D02*
X1368352Y5885791D01*
X1368352Y5915791D02*
X1338352Y5885791D01*
X1673466Y-5475062D02*
X1703466Y-5505062D01*
X1703466Y-5475062D02*
X1673466Y-5505062D01*
X1763359Y-5771911D02*
X1793359Y-5801911D01*
X1793359Y-5771911D02*
X1763359Y-5801911D01*
X1987588Y5398432D02*
X2017588Y5368432D01*
X2017588Y5398432D02*
X1987588Y5368432D01*
X2096981Y5688661D02*
X2126981Y5658661D01*
X2126981Y5688661D02*
X2096981Y5658661D01*
X2375618Y-5207705D02*
X2405618Y-5237705D01*
X2405618Y-5207705D02*
X2375618Y-5237705D01*
X2503488Y-5490281D02*
X2533488Y-5520281D01*
X2533488Y-5490281D02*
X2503488Y-5520281D01*
X2673135Y5090986D02*
X2703135Y5060986D01*
X2703135Y5090986D02*
X2673135Y5060986D01*
X2819474Y5364454D02*
X2849474Y5334454D01*
X2849474Y5364454D02*
X2819474Y5334454D01*
X3036865Y-4850986D02*
X3066865Y-4880986D01*
X3066865Y-4850986D02*
X3036865Y-4880986D01*
X3200526Y-5114454D02*
X3230526Y-5144454D01*
X3230526Y-5114454D02*
X3200526Y-5144454D01*
X3312686Y4696688D02*
X3342686Y4666688D01*
X3342686Y4696688D02*
X3312686Y4666688D01*
X3493469Y4948715D02*
X3523469Y4918715D01*
X3523469Y4948715D02*
X3493469Y4918715D01*
X3645895Y-4411008D02*
X3675895Y-4441008D01*
X3675895Y-4411008D02*
X3645895Y-4441008D01*
X3842544Y-4650860D02*
X3872544Y-4680860D01*
X3872544Y-4650860D02*
X3842544Y-4680860D01*
X3895300Y4222285D02*
X3925300Y4192285D01*
X3925300Y4222285D02*
X3895300Y4192285D01*
X4107432Y4448560D02*
X4137432Y4418560D01*
X4137432Y4448560D02*
X4107432Y4418560D01*
X4155000Y-3860000D02*
X4185000Y-3890000D01*
X4185000Y-3860000D02*
X4155000Y-3890000D01*
X4395000Y3655000D02*
X4425000Y3625000D01*
X4425000Y3655000D02*
X4395000Y3625000D01*
X4418560Y-4107432D02*
X4448560Y-4137432D01*
X4448560Y-4107432D02*
X4418560Y-4137432D01*
X4650860Y3872544D02*
X4680860Y3842544D01*
X4680860Y3872544D02*
X4650860Y3842544D01*
X4666688Y-3312686D02*
X4696688Y-3342686D01*
X4696688Y-3312686D02*
X4666688Y-3342686D01*
X4850986Y3066865D02*
X4880986Y3036865D01*
X4880986Y3066865D02*
X4850986Y3036865D01*
X4918715Y-3493469D02*
X4948715Y-3523469D01*
X4948715Y-3493469D02*
X4918715Y-3523469D01*
X5060986Y-2673135D02*
X5090986Y-2703135D01*
X5090986Y-2673135D02*
X5060986Y-2703135D01*
X5114454Y3230526D02*
X5144454Y3200526D01*
X5144454Y3230526D02*
X5114454Y3200526D01*
X5207705Y2405618D02*
X5237705Y2375618D01*
X5237705Y2405618D02*
X5207705Y2375618D01*
X5334454Y-2819474D02*
X5364454Y-2849474D01*
X5364454Y-2819474D02*
X5334454Y-2849474D01*
X5368432Y-1987588D02*
X5398432Y-2017588D01*
X5398432Y-1987588D02*
X5368432Y-2017588D01*
X5475062Y1703466D02*
X5505062Y1673466D01*
X5505062Y1703466D02*
X5475062Y1673466D01*
X5490281Y2533488D02*
X5520281Y2503488D01*
X5520281Y2533488D02*
X5490281Y2503488D01*
X5583766Y-1267777D02*
X5613766Y-1297777D01*
X5613766Y-1267777D02*
X5583766Y-1297777D01*
X5648483Y972424D02*
X5678483Y942424D01*
X5678483Y972424D02*
X5648483Y942424D01*
X5658661Y-2096981D02*
X5688661Y-2126981D01*
X5688661Y-2096981D02*
X5658661Y-2126981D01*
X5703304Y-526017D02*
X5733304Y-556017D01*
X5733304Y-526017D02*
X5703304Y-556017D01*
X5725000Y225000D02*
X5755000Y195000D01*
X5755000Y225000D02*
X5725000Y195000D01*
X5771911Y1793359D02*
X5801911Y1763359D01*
X5801911Y1793359D02*
X5771911Y1763359D01*
X5885791Y-1338352D02*
X5915791Y-1368352D01*
X5915791Y-1338352D02*
X5885791Y-1368352D01*
X5954526Y1022801D02*
X5984526Y992801D01*
X5984526Y1022801D02*
X5954526Y992801D01*
X6011957Y-556566D02*
X6041957Y-586566D01*
X6041957Y-556566D02*
X6011957Y-586566D01*
X6035000Y235000D02*
X6065000Y205000D01*
X6065000Y235000D02*
X6035000Y205000D01*
X435000Y5890000D02*
G75*
G02*
X385000Y5890000I-25000J0D01*
G01*
X385000Y5890000D02*
G75*
G02*
X435000Y5890000I25000J0D01*
G01*
X1115000Y5850000D02*
G75*
G02*
X1065000Y5850000I-25000J0D01*
G01*
X1065000Y5850000D02*
G75*
G02*
X1115000Y5850000I25000J0D01*
G01*
D11*
X-5941723Y-6513984D02*
X-5941723Y-6313984D01*
X-5941723Y-6313984D02*
X-5894104Y-6313984D01*
X-5894104Y-6313984D02*
X-5865533Y-6323508D01*
X-5865533Y-6323508D02*
X-5846485Y-6342555D01*
X-5846485Y-6342555D02*
X-5836961Y-6361603D01*
X-5836961Y-6361603D02*
X-5827437Y-6399698D01*
X-5827437Y-6399698D02*
X-5827437Y-6428269D01*
X-5827437Y-6428269D02*
X-5836961Y-6466365D01*
X-5836961Y-6466365D02*
X-5846485Y-6485412D01*
X-5846485Y-6485412D02*
X-5865533Y-6504460D01*
X-5865533Y-6504460D02*
X-5894104Y-6513984D01*
X-5894104Y-6513984D02*
X-5941723Y-6513984D01*
X-5741723Y-6513984D02*
X-5741723Y-6380650D01*
X-5741723Y-6418746D02*
X-5732199Y-6399698D01*
X-5732199Y-6399698D02*
X-5722675Y-6390174D01*
X-5722675Y-6390174D02*
X-5703628Y-6380650D01*
X-5703628Y-6380650D02*
X-5684580Y-6380650D01*
X-5617914Y-6513984D02*
X-5617914Y-6380650D01*
X-5617914Y-6313984D02*
X-5627437Y-6323508D01*
X-5627437Y-6323508D02*
X-5617914Y-6333031D01*
X-5617914Y-6333031D02*
X-5608390Y-6323508D01*
X-5608390Y-6323508D02*
X-5617914Y-6313984D01*
X-5617914Y-6313984D02*
X-5617914Y-6333031D01*
X-5494104Y-6513984D02*
X-5513152Y-6504460D01*
X-5513152Y-6504460D02*
X-5522676Y-6485412D01*
X-5522676Y-6485412D02*
X-5522676Y-6313984D01*
X-5389342Y-6513984D02*
X-5408390Y-6504460D01*
X-5408390Y-6504460D02*
X-5417914Y-6485412D01*
X-5417914Y-6485412D02*
X-5417914Y-6313984D01*
X-5160771Y-6513984D02*
X-5160771Y-6313984D01*
X-5160771Y-6313984D02*
X-5094104Y-6456841D01*
X-5094104Y-6456841D02*
X-5027437Y-6313984D01*
X-5027437Y-6313984D02*
X-5027437Y-6513984D01*
X-4846485Y-6513984D02*
X-4846485Y-6409222D01*
X-4846485Y-6409222D02*
X-4856009Y-6390174D01*
X-4856009Y-6390174D02*
X-4875056Y-6380650D01*
X-4875056Y-6380650D02*
X-4913152Y-6380650D01*
X-4913152Y-6380650D02*
X-4932199Y-6390174D01*
X-4846485Y-6504460D02*
X-4865533Y-6513984D01*
X-4865533Y-6513984D02*
X-4913152Y-6513984D01*
X-4913152Y-6513984D02*
X-4932199Y-6504460D01*
X-4932199Y-6504460D02*
X-4941723Y-6485412D01*
X-4941723Y-6485412D02*
X-4941723Y-6466365D01*
X-4941723Y-6466365D02*
X-4932199Y-6447317D01*
X-4932199Y-6447317D02*
X-4913152Y-6437793D01*
X-4913152Y-6437793D02*
X-4865533Y-6437793D01*
X-4865533Y-6437793D02*
X-4846485Y-6428269D01*
X-4751247Y-6380650D02*
X-4751247Y-6580650D01*
X-4751247Y-6390174D02*
X-4732199Y-6380650D01*
X-4732199Y-6380650D02*
X-4694104Y-6380650D01*
X-4694104Y-6380650D02*
X-4675056Y-6390174D01*
X-4675056Y-6390174D02*
X-4665533Y-6399698D01*
X-4665533Y-6399698D02*
X-4656009Y-6418746D01*
X-4656009Y-6418746D02*
X-4656009Y-6475888D01*
X-4656009Y-6475888D02*
X-4665533Y-6494936D01*
X-4665533Y-6494936D02*
X-4675056Y-6504460D01*
X-4675056Y-6504460D02*
X-4694104Y-6513984D01*
X-4694104Y-6513984D02*
X-4732199Y-6513984D01*
X-4732199Y-6513984D02*
X-4751247Y-6504460D01*
X-4570295Y-6494936D02*
X-4560771Y-6504460D01*
X-4560771Y-6504460D02*
X-4570295Y-6513984D01*
X-4570295Y-6513984D02*
X-4579818Y-6504460D01*
X-4579818Y-6504460D02*
X-4570295Y-6494936D01*
X-4570295Y-6494936D02*
X-4570295Y-6513984D01*
X-4570295Y-6390174D02*
X-4560771Y-6399698D01*
X-4560771Y-6399698D02*
X-4570295Y-6409222D01*
X-4570295Y-6409222D02*
X-4579818Y-6399698D01*
X-4579818Y-6399698D02*
X-4570295Y-6390174D01*
X-4570295Y-6390174D02*
X-4570295Y-6409222D01*
D12*
X-6232500Y-6827500D02*
X-6202500Y-6857500D01*
X-6202500Y-6827500D02*
X-6232500Y-6857500D01*
D11*
X-5903628Y-6733984D02*
X-5884580Y-6733984D01*
X-5884580Y-6733984D02*
X-5865533Y-6743508D01*
X-5865533Y-6743508D02*
X-5856009Y-6753031D01*
X-5856009Y-6753031D02*
X-5846485Y-6772079D01*
X-5846485Y-6772079D02*
X-5836961Y-6810174D01*
X-5836961Y-6810174D02*
X-5836961Y-6857793D01*
X-5836961Y-6857793D02*
X-5846485Y-6895888D01*
X-5846485Y-6895888D02*
X-5856009Y-6914936D01*
X-5856009Y-6914936D02*
X-5865533Y-6924460D01*
X-5865533Y-6924460D02*
X-5884580Y-6933984D01*
X-5884580Y-6933984D02*
X-5903628Y-6933984D01*
X-5903628Y-6933984D02*
X-5922675Y-6924460D01*
X-5922675Y-6924460D02*
X-5932199Y-6914936D01*
X-5932199Y-6914936D02*
X-5941723Y-6895888D01*
X-5941723Y-6895888D02*
X-5951247Y-6857793D01*
X-5951247Y-6857793D02*
X-5951247Y-6810174D01*
X-5951247Y-6810174D02*
X-5941723Y-6772079D01*
X-5941723Y-6772079D02*
X-5932199Y-6753031D01*
X-5932199Y-6753031D02*
X-5922675Y-6743508D01*
X-5922675Y-6743508D02*
X-5903628Y-6733984D01*
X-5751247Y-6914936D02*
X-5741723Y-6924460D01*
X-5741723Y-6924460D02*
X-5751247Y-6933984D01*
X-5751247Y-6933984D02*
X-5760771Y-6924460D01*
X-5760771Y-6924460D02*
X-5751247Y-6914936D01*
X-5751247Y-6914936D02*
X-5751247Y-6933984D01*
X-5675056Y-6733984D02*
X-5551247Y-6733984D01*
X-5551247Y-6733984D02*
X-5617914Y-6810174D01*
X-5617914Y-6810174D02*
X-5589342Y-6810174D01*
X-5589342Y-6810174D02*
X-5570295Y-6819698D01*
X-5570295Y-6819698D02*
X-5560771Y-6829222D01*
X-5560771Y-6829222D02*
X-5551247Y-6848269D01*
X-5551247Y-6848269D02*
X-5551247Y-6895888D01*
X-5551247Y-6895888D02*
X-5560771Y-6914936D01*
X-5560771Y-6914936D02*
X-5570295Y-6924460D01*
X-5570295Y-6924460D02*
X-5589342Y-6933984D01*
X-5589342Y-6933984D02*
X-5646485Y-6933984D01*
X-5646485Y-6933984D02*
X-5665533Y-6924460D01*
X-5665533Y-6924460D02*
X-5675056Y-6914936D01*
X-5427437Y-6733984D02*
X-5408390Y-6733984D01*
X-5408390Y-6733984D02*
X-5389342Y-6743508D01*
X-5389342Y-6743508D02*
X-5379818Y-6753031D01*
X-5379818Y-6753031D02*
X-5370295Y-6772079D01*
X-5370295Y-6772079D02*
X-5360771Y-6810174D01*
X-5360771Y-6810174D02*
X-5360771Y-6857793D01*
X-5360771Y-6857793D02*
X-5370295Y-6895888D01*
X-5370295Y-6895888D02*
X-5379818Y-6914936D01*
X-5379818Y-6914936D02*
X-5389342Y-6924460D01*
X-5389342Y-6924460D02*
X-5408390Y-6933984D01*
X-5408390Y-6933984D02*
X-5427437Y-6933984D01*
X-5427437Y-6933984D02*
X-5446485Y-6924460D01*
X-5446485Y-6924460D02*
X-5456009Y-6914936D01*
X-5456009Y-6914936D02*
X-5465533Y-6895888D01*
X-5465533Y-6895888D02*
X-5475056Y-6857793D01*
X-5475056Y-6857793D02*
X-5475056Y-6810174D01*
X-5475056Y-6810174D02*
X-5465533Y-6772079D01*
X-5465533Y-6772079D02*
X-5456009Y-6753031D01*
X-5456009Y-6753031D02*
X-5446485Y-6743508D01*
X-5446485Y-6743508D02*
X-5427437Y-6733984D01*
X-5236961Y-6733984D02*
X-5217914Y-6733984D01*
X-5217914Y-6733984D02*
X-5198866Y-6743508D01*
X-5198866Y-6743508D02*
X-5189342Y-6753031D01*
X-5189342Y-6753031D02*
X-5179818Y-6772079D01*
X-5179818Y-6772079D02*
X-5170295Y-6810174D01*
X-5170295Y-6810174D02*
X-5170295Y-6857793D01*
X-5170295Y-6857793D02*
X-5179818Y-6895888D01*
X-5179818Y-6895888D02*
X-5189342Y-6914936D01*
X-5189342Y-6914936D02*
X-5198866Y-6924460D01*
X-5198866Y-6924460D02*
X-5217914Y-6933984D01*
X-5217914Y-6933984D02*
X-5236961Y-6933984D01*
X-5236961Y-6933984D02*
X-5256009Y-6924460D01*
X-5256009Y-6924460D02*
X-5265533Y-6914936D01*
X-5265533Y-6914936D02*
X-5275056Y-6895888D01*
X-5275056Y-6895888D02*
X-5284580Y-6857793D01*
X-5284580Y-6857793D02*
X-5284580Y-6810174D01*
X-5284580Y-6810174D02*
X-5275056Y-6772079D01*
X-5275056Y-6772079D02*
X-5265533Y-6753031D01*
X-5265533Y-6753031D02*
X-5256009Y-6743508D01*
X-5256009Y-6743508D02*
X-5236961Y-6733984D01*
X-5084580Y-6933984D02*
X-5084580Y-6800650D01*
X-5084580Y-6819698D02*
X-5075056Y-6810174D01*
X-5075056Y-6810174D02*
X-5056009Y-6800650D01*
X-5056009Y-6800650D02*
X-5027437Y-6800650D01*
X-5027437Y-6800650D02*
X-5008390Y-6810174D01*
X-5008390Y-6810174D02*
X-4998866Y-6829222D01*
X-4998866Y-6829222D02*
X-4998866Y-6933984D01*
X-4998866Y-6829222D02*
X-4989342Y-6810174D01*
X-4989342Y-6810174D02*
X-4970295Y-6800650D01*
X-4970295Y-6800650D02*
X-4941723Y-6800650D01*
X-4941723Y-6800650D02*
X-4922675Y-6810174D01*
X-4922675Y-6810174D02*
X-4913152Y-6829222D01*
X-4913152Y-6829222D02*
X-4913152Y-6933984D01*
X-4817914Y-6933984D02*
X-4817914Y-6800650D01*
X-4817914Y-6819698D02*
X-4808390Y-6810174D01*
X-4808390Y-6810174D02*
X-4789342Y-6800650D01*
X-4789342Y-6800650D02*
X-4760771Y-6800650D01*
X-4760771Y-6800650D02*
X-4741723Y-6810174D01*
X-4741723Y-6810174D02*
X-4732199Y-6829222D01*
X-4732199Y-6829222D02*
X-4732199Y-6933984D01*
X-4732199Y-6829222D02*
X-4722675Y-6810174D01*
X-4722675Y-6810174D02*
X-4703628Y-6800650D01*
X-4703628Y-6800650D02*
X-4675056Y-6800650D01*
X-4675056Y-6800650D02*
X-4656009Y-6810174D01*
X-4656009Y-6810174D02*
X-4646485Y-6829222D01*
X-4646485Y-6829222D02*
X-4646485Y-6933984D01*
X-4256009Y-6724460D02*
X-4427437Y-6981603D01*
X-3998866Y-6733984D02*
X-3979818Y-6733984D01*
X-3979818Y-6733984D02*
X-3960770Y-6743508D01*
X-3960770Y-6743508D02*
X-3951247Y-6753031D01*
X-3951247Y-6753031D02*
X-3941723Y-6772079D01*
X-3941723Y-6772079D02*
X-3932199Y-6810174D01*
X-3932199Y-6810174D02*
X-3932199Y-6857793D01*
X-3932199Y-6857793D02*
X-3941723Y-6895888D01*
X-3941723Y-6895888D02*
X-3951247Y-6914936D01*
X-3951247Y-6914936D02*
X-3960770Y-6924460D01*
X-3960770Y-6924460D02*
X-3979818Y-6933984D01*
X-3979818Y-6933984D02*
X-3998866Y-6933984D01*
X-3998866Y-6933984D02*
X-4017913Y-6924460D01*
X-4017913Y-6924460D02*
X-4027437Y-6914936D01*
X-4027437Y-6914936D02*
X-4036961Y-6895888D01*
X-4036961Y-6895888D02*
X-4046485Y-6857793D01*
X-4046485Y-6857793D02*
X-4046485Y-6810174D01*
X-4046485Y-6810174D02*
X-4036961Y-6772079D01*
X-4036961Y-6772079D02*
X-4027437Y-6753031D01*
X-4027437Y-6753031D02*
X-4017913Y-6743508D01*
X-4017913Y-6743508D02*
X-3998866Y-6733984D01*
X-3846485Y-6914936D02*
X-3836961Y-6924460D01*
X-3836961Y-6924460D02*
X-3846485Y-6933984D01*
X-3846485Y-6933984D02*
X-3856009Y-6924460D01*
X-3856009Y-6924460D02*
X-3846485Y-6914936D01*
X-3846485Y-6914936D02*
X-3846485Y-6933984D01*
X-3713151Y-6733984D02*
X-3694104Y-6733984D01*
X-3694104Y-6733984D02*
X-3675056Y-6743508D01*
X-3675056Y-6743508D02*
X-3665532Y-6753031D01*
X-3665532Y-6753031D02*
X-3656009Y-6772079D01*
X-3656009Y-6772079D02*
X-3646485Y-6810174D01*
X-3646485Y-6810174D02*
X-3646485Y-6857793D01*
X-3646485Y-6857793D02*
X-3656009Y-6895888D01*
X-3656009Y-6895888D02*
X-3665532Y-6914936D01*
X-3665532Y-6914936D02*
X-3675056Y-6924460D01*
X-3675056Y-6924460D02*
X-3694104Y-6933984D01*
X-3694104Y-6933984D02*
X-3713151Y-6933984D01*
X-3713151Y-6933984D02*
X-3732199Y-6924460D01*
X-3732199Y-6924460D02*
X-3741723Y-6914936D01*
X-3741723Y-6914936D02*
X-3751247Y-6895888D01*
X-3751247Y-6895888D02*
X-3760770Y-6857793D01*
X-3760770Y-6857793D02*
X-3760770Y-6810174D01*
X-3760770Y-6810174D02*
X-3751247Y-6772079D01*
X-3751247Y-6772079D02*
X-3741723Y-6753031D01*
X-3741723Y-6753031D02*
X-3732199Y-6743508D01*
X-3732199Y-6743508D02*
X-3713151Y-6733984D01*
X-3456009Y-6933984D02*
X-3570294Y-6933984D01*
X-3513151Y-6933984D02*
X-3513151Y-6733984D01*
X-3513151Y-6733984D02*
X-3532199Y-6762555D01*
X-3532199Y-6762555D02*
X-3551247Y-6781603D01*
X-3551247Y-6781603D02*
X-3570294Y-6791127D01*
X-3265532Y-6933984D02*
X-3379818Y-6933984D01*
X-3322675Y-6933984D02*
X-3322675Y-6733984D01*
X-3322675Y-6733984D02*
X-3341723Y-6762555D01*
X-3341723Y-6762555D02*
X-3360770Y-6781603D01*
X-3360770Y-6781603D02*
X-3379818Y-6791127D01*
X-3151247Y-6819698D02*
X-3170294Y-6810174D01*
X-3170294Y-6810174D02*
X-3179818Y-6800650D01*
X-3179818Y-6800650D02*
X-3189342Y-6781603D01*
X-3189342Y-6781603D02*
X-3189342Y-6772079D01*
X-3189342Y-6772079D02*
X-3179818Y-6753031D01*
X-3179818Y-6753031D02*
X-3170294Y-6743508D01*
X-3170294Y-6743508D02*
X-3151247Y-6733984D01*
X-3151247Y-6733984D02*
X-3113151Y-6733984D01*
X-3113151Y-6733984D02*
X-3094104Y-6743508D01*
X-3094104Y-6743508D02*
X-3084580Y-6753031D01*
X-3084580Y-6753031D02*
X-3075056Y-6772079D01*
X-3075056Y-6772079D02*
X-3075056Y-6781603D01*
X-3075056Y-6781603D02*
X-3084580Y-6800650D01*
X-3084580Y-6800650D02*
X-3094104Y-6810174D01*
X-3094104Y-6810174D02*
X-3113151Y-6819698D01*
X-3113151Y-6819698D02*
X-3151247Y-6819698D01*
X-3151247Y-6819698D02*
X-3170294Y-6829222D01*
X-3170294Y-6829222D02*
X-3179818Y-6838746D01*
X-3179818Y-6838746D02*
X-3189342Y-6857793D01*
X-3189342Y-6857793D02*
X-3189342Y-6895888D01*
X-3189342Y-6895888D02*
X-3179818Y-6914936D01*
X-3179818Y-6914936D02*
X-3170294Y-6924460D01*
X-3170294Y-6924460D02*
X-3151247Y-6933984D01*
X-3151247Y-6933984D02*
X-3113151Y-6933984D01*
X-3113151Y-6933984D02*
X-3094104Y-6924460D01*
X-3094104Y-6924460D02*
X-3084580Y-6914936D01*
X-3084580Y-6914936D02*
X-3075056Y-6895888D01*
X-3075056Y-6895888D02*
X-3075056Y-6857793D01*
X-3075056Y-6857793D02*
X-3084580Y-6838746D01*
X-3084580Y-6838746D02*
X-3094104Y-6829222D01*
X-3094104Y-6829222D02*
X-3113151Y-6819698D01*
X-2998866Y-6733984D02*
X-2998866Y-6772079D01*
X-2922675Y-6733984D02*
X-2922675Y-6772079D01*
X-2627437Y-7010174D02*
X-2636961Y-7000650D01*
X-2636961Y-7000650D02*
X-2656009Y-6972079D01*
X-2656009Y-6972079D02*
X-2665532Y-6953031D01*
X-2665532Y-6953031D02*
X-2675056Y-6924460D01*
X-2675056Y-6924460D02*
X-2684580Y-6876841D01*
X-2684580Y-6876841D02*
X-2684580Y-6838746D01*
X-2684580Y-6838746D02*
X-2675056Y-6791127D01*
X-2675056Y-6791127D02*
X-2665532Y-6762555D01*
X-2665532Y-6762555D02*
X-2656009Y-6743508D01*
X-2656009Y-6743508D02*
X-2636961Y-6714936D01*
X-2636961Y-6714936D02*
X-2627437Y-6705412D01*
X-2541723Y-6933984D02*
X-2503628Y-6933984D01*
X-2503628Y-6933984D02*
X-2484580Y-6924460D01*
X-2484580Y-6924460D02*
X-2475056Y-6914936D01*
X-2475056Y-6914936D02*
X-2456009Y-6886365D01*
X-2456009Y-6886365D02*
X-2446485Y-6848269D01*
X-2446485Y-6848269D02*
X-2446485Y-6772079D01*
X-2446485Y-6772079D02*
X-2456009Y-6753031D01*
X-2456009Y-6753031D02*
X-2465532Y-6743508D01*
X-2465532Y-6743508D02*
X-2484580Y-6733984D01*
X-2484580Y-6733984D02*
X-2522675Y-6733984D01*
X-2522675Y-6733984D02*
X-2541723Y-6743508D01*
X-2541723Y-6743508D02*
X-2551247Y-6753031D01*
X-2551247Y-6753031D02*
X-2560770Y-6772079D01*
X-2560770Y-6772079D02*
X-2560770Y-6819698D01*
X-2560770Y-6819698D02*
X-2551247Y-6838746D01*
X-2551247Y-6838746D02*
X-2541723Y-6848269D01*
X-2541723Y-6848269D02*
X-2522675Y-6857793D01*
X-2522675Y-6857793D02*
X-2484580Y-6857793D01*
X-2484580Y-6857793D02*
X-2465532Y-6848269D01*
X-2465532Y-6848269D02*
X-2456009Y-6838746D01*
X-2456009Y-6838746D02*
X-2446485Y-6819698D01*
X-2379818Y-6733984D02*
X-2246485Y-6733984D01*
X-2246485Y-6733984D02*
X-2332199Y-6933984D01*
X-2017913Y-6933984D02*
X-2017913Y-6733984D01*
X-1932199Y-6933984D02*
X-1932199Y-6829222D01*
X-1932199Y-6829222D02*
X-1941723Y-6810174D01*
X-1941723Y-6810174D02*
X-1960770Y-6800650D01*
X-1960770Y-6800650D02*
X-1989342Y-6800650D01*
X-1989342Y-6800650D02*
X-2008389Y-6810174D01*
X-2008389Y-6810174D02*
X-2017913Y-6819698D01*
X-1808389Y-6933984D02*
X-1827437Y-6924460D01*
X-1827437Y-6924460D02*
X-1836961Y-6914936D01*
X-1836961Y-6914936D02*
X-1846485Y-6895888D01*
X-1846485Y-6895888D02*
X-1846485Y-6838746D01*
X-1846485Y-6838746D02*
X-1836961Y-6819698D01*
X-1836961Y-6819698D02*
X-1827437Y-6810174D01*
X-1827437Y-6810174D02*
X-1808389Y-6800650D01*
X-1808389Y-6800650D02*
X-1779818Y-6800650D01*
X-1779818Y-6800650D02*
X-1760770Y-6810174D01*
X-1760770Y-6810174D02*
X-1751246Y-6819698D01*
X-1751246Y-6819698D02*
X-1741723Y-6838746D01*
X-1741723Y-6838746D02*
X-1741723Y-6895888D01*
X-1741723Y-6895888D02*
X-1751246Y-6914936D01*
X-1751246Y-6914936D02*
X-1760770Y-6924460D01*
X-1760770Y-6924460D02*
X-1779818Y-6933984D01*
X-1779818Y-6933984D02*
X-1808389Y-6933984D01*
X-1627437Y-6933984D02*
X-1646485Y-6924460D01*
X-1646485Y-6924460D02*
X-1656008Y-6905412D01*
X-1656008Y-6905412D02*
X-1656008Y-6733984D01*
X-1475056Y-6924460D02*
X-1494104Y-6933984D01*
X-1494104Y-6933984D02*
X-1532199Y-6933984D01*
X-1532199Y-6933984D02*
X-1551246Y-6924460D01*
X-1551246Y-6924460D02*
X-1560770Y-6905412D01*
X-1560770Y-6905412D02*
X-1560770Y-6829222D01*
X-1560770Y-6829222D02*
X-1551246Y-6810174D01*
X-1551246Y-6810174D02*
X-1532199Y-6800650D01*
X-1532199Y-6800650D02*
X-1494104Y-6800650D01*
X-1494104Y-6800650D02*
X-1475056Y-6810174D01*
X-1475056Y-6810174D02*
X-1465532Y-6829222D01*
X-1465532Y-6829222D02*
X-1465532Y-6848269D01*
X-1465532Y-6848269D02*
X-1560770Y-6867317D01*
X-1389342Y-6924460D02*
X-1370294Y-6933984D01*
X-1370294Y-6933984D02*
X-1332199Y-6933984D01*
X-1332199Y-6933984D02*
X-1313151Y-6924460D01*
X-1313151Y-6924460D02*
X-1303627Y-6905412D01*
X-1303627Y-6905412D02*
X-1303627Y-6895888D01*
X-1303627Y-6895888D02*
X-1313151Y-6876841D01*
X-1313151Y-6876841D02*
X-1332199Y-6867317D01*
X-1332199Y-6867317D02*
X-1360770Y-6867317D01*
X-1360770Y-6867317D02*
X-1379818Y-6857793D01*
X-1379818Y-6857793D02*
X-1389342Y-6838746D01*
X-1389342Y-6838746D02*
X-1389342Y-6829222D01*
X-1389342Y-6829222D02*
X-1379818Y-6810174D01*
X-1379818Y-6810174D02*
X-1360770Y-6800650D01*
X-1360770Y-6800650D02*
X-1332199Y-6800650D01*
X-1332199Y-6800650D02*
X-1313151Y-6810174D01*
X-1236961Y-7010174D02*
X-1227437Y-7000650D01*
X-1227437Y-7000650D02*
X-1208389Y-6972079D01*
X-1208389Y-6972079D02*
X-1198866Y-6953031D01*
X-1198866Y-6953031D02*
X-1189342Y-6924460D01*
X-1189342Y-6924460D02*
X-1179818Y-6876841D01*
X-1179818Y-6876841D02*
X-1179818Y-6838746D01*
X-1179818Y-6838746D02*
X-1189342Y-6791127D01*
X-1189342Y-6791127D02*
X-1198866Y-6762555D01*
X-1198866Y-6762555D02*
X-1208389Y-6743508D01*
X-1208389Y-6743508D02*
X-1227437Y-6714936D01*
X-1227437Y-6714936D02*
X-1236961Y-6705412D01*
D12*
X-6202500Y-7106500D02*
G75*
G02*
X-6252500Y-7106500I-25000J0D01*
G01*
X-6252500Y-7106500D02*
G75*
G02*
X-6202500Y-7106500I25000J0D01*
G01*
D11*
X-5903628Y-6997984D02*
X-5884580Y-6997984D01*
X-5884580Y-6997984D02*
X-5865533Y-7007508D01*
X-5865533Y-7007508D02*
X-5856009Y-7017031D01*
X-5856009Y-7017031D02*
X-5846485Y-7036079D01*
X-5846485Y-7036079D02*
X-5836961Y-7074174D01*
X-5836961Y-7074174D02*
X-5836961Y-7121793D01*
X-5836961Y-7121793D02*
X-5846485Y-7159888D01*
X-5846485Y-7159888D02*
X-5856009Y-7178936D01*
X-5856009Y-7178936D02*
X-5865533Y-7188460D01*
X-5865533Y-7188460D02*
X-5884580Y-7197984D01*
X-5884580Y-7197984D02*
X-5903628Y-7197984D01*
X-5903628Y-7197984D02*
X-5922675Y-7188460D01*
X-5922675Y-7188460D02*
X-5932199Y-7178936D01*
X-5932199Y-7178936D02*
X-5941723Y-7159888D01*
X-5941723Y-7159888D02*
X-5951247Y-7121793D01*
X-5951247Y-7121793D02*
X-5951247Y-7074174D01*
X-5951247Y-7074174D02*
X-5941723Y-7036079D01*
X-5941723Y-7036079D02*
X-5932199Y-7017031D01*
X-5932199Y-7017031D02*
X-5922675Y-7007508D01*
X-5922675Y-7007508D02*
X-5903628Y-6997984D01*
X-5751247Y-7178936D02*
X-5741723Y-7188460D01*
X-5741723Y-7188460D02*
X-5751247Y-7197984D01*
X-5751247Y-7197984D02*
X-5760771Y-7188460D01*
X-5760771Y-7188460D02*
X-5751247Y-7178936D01*
X-5751247Y-7178936D02*
X-5751247Y-7197984D01*
X-5560771Y-6997984D02*
X-5656009Y-6997984D01*
X-5656009Y-6997984D02*
X-5665533Y-7093222D01*
X-5665533Y-7093222D02*
X-5656009Y-7083698D01*
X-5656009Y-7083698D02*
X-5636961Y-7074174D01*
X-5636961Y-7074174D02*
X-5589342Y-7074174D01*
X-5589342Y-7074174D02*
X-5570295Y-7083698D01*
X-5570295Y-7083698D02*
X-5560771Y-7093222D01*
X-5560771Y-7093222D02*
X-5551247Y-7112269D01*
X-5551247Y-7112269D02*
X-5551247Y-7159888D01*
X-5551247Y-7159888D02*
X-5560771Y-7178936D01*
X-5560771Y-7178936D02*
X-5570295Y-7188460D01*
X-5570295Y-7188460D02*
X-5589342Y-7197984D01*
X-5589342Y-7197984D02*
X-5636961Y-7197984D01*
X-5636961Y-7197984D02*
X-5656009Y-7188460D01*
X-5656009Y-7188460D02*
X-5665533Y-7178936D01*
X-5427437Y-6997984D02*
X-5408390Y-6997984D01*
X-5408390Y-6997984D02*
X-5389342Y-7007508D01*
X-5389342Y-7007508D02*
X-5379818Y-7017031D01*
X-5379818Y-7017031D02*
X-5370295Y-7036079D01*
X-5370295Y-7036079D02*
X-5360771Y-7074174D01*
X-5360771Y-7074174D02*
X-5360771Y-7121793D01*
X-5360771Y-7121793D02*
X-5370295Y-7159888D01*
X-5370295Y-7159888D02*
X-5379818Y-7178936D01*
X-5379818Y-7178936D02*
X-5389342Y-7188460D01*
X-5389342Y-7188460D02*
X-5408390Y-7197984D01*
X-5408390Y-7197984D02*
X-5427437Y-7197984D01*
X-5427437Y-7197984D02*
X-5446485Y-7188460D01*
X-5446485Y-7188460D02*
X-5456009Y-7178936D01*
X-5456009Y-7178936D02*
X-5465533Y-7159888D01*
X-5465533Y-7159888D02*
X-5475056Y-7121793D01*
X-5475056Y-7121793D02*
X-5475056Y-7074174D01*
X-5475056Y-7074174D02*
X-5465533Y-7036079D01*
X-5465533Y-7036079D02*
X-5456009Y-7017031D01*
X-5456009Y-7017031D02*
X-5446485Y-7007508D01*
X-5446485Y-7007508D02*
X-5427437Y-6997984D01*
X-5236961Y-6997984D02*
X-5217914Y-6997984D01*
X-5217914Y-6997984D02*
X-5198866Y-7007508D01*
X-5198866Y-7007508D02*
X-5189342Y-7017031D01*
X-5189342Y-7017031D02*
X-5179818Y-7036079D01*
X-5179818Y-7036079D02*
X-5170295Y-7074174D01*
X-5170295Y-7074174D02*
X-5170295Y-7121793D01*
X-5170295Y-7121793D02*
X-5179818Y-7159888D01*
X-5179818Y-7159888D02*
X-5189342Y-7178936D01*
X-5189342Y-7178936D02*
X-5198866Y-7188460D01*
X-5198866Y-7188460D02*
X-5217914Y-7197984D01*
X-5217914Y-7197984D02*
X-5236961Y-7197984D01*
X-5236961Y-7197984D02*
X-5256009Y-7188460D01*
X-5256009Y-7188460D02*
X-5265533Y-7178936D01*
X-5265533Y-7178936D02*
X-5275056Y-7159888D01*
X-5275056Y-7159888D02*
X-5284580Y-7121793D01*
X-5284580Y-7121793D02*
X-5284580Y-7074174D01*
X-5284580Y-7074174D02*
X-5275056Y-7036079D01*
X-5275056Y-7036079D02*
X-5265533Y-7017031D01*
X-5265533Y-7017031D02*
X-5256009Y-7007508D01*
X-5256009Y-7007508D02*
X-5236961Y-6997984D01*
X-5084580Y-7197984D02*
X-5084580Y-7064650D01*
X-5084580Y-7083698D02*
X-5075056Y-7074174D01*
X-5075056Y-7074174D02*
X-5056009Y-7064650D01*
X-5056009Y-7064650D02*
X-5027437Y-7064650D01*
X-5027437Y-7064650D02*
X-5008390Y-7074174D01*
X-5008390Y-7074174D02*
X-4998866Y-7093222D01*
X-4998866Y-7093222D02*
X-4998866Y-7197984D01*
X-4998866Y-7093222D02*
X-4989342Y-7074174D01*
X-4989342Y-7074174D02*
X-4970295Y-7064650D01*
X-4970295Y-7064650D02*
X-4941723Y-7064650D01*
X-4941723Y-7064650D02*
X-4922675Y-7074174D01*
X-4922675Y-7074174D02*
X-4913152Y-7093222D01*
X-4913152Y-7093222D02*
X-4913152Y-7197984D01*
X-4817914Y-7197984D02*
X-4817914Y-7064650D01*
X-4817914Y-7083698D02*
X-4808390Y-7074174D01*
X-4808390Y-7074174D02*
X-4789342Y-7064650D01*
X-4789342Y-7064650D02*
X-4760771Y-7064650D01*
X-4760771Y-7064650D02*
X-4741723Y-7074174D01*
X-4741723Y-7074174D02*
X-4732199Y-7093222D01*
X-4732199Y-7093222D02*
X-4732199Y-7197984D01*
X-4732199Y-7093222D02*
X-4722675Y-7074174D01*
X-4722675Y-7074174D02*
X-4703628Y-7064650D01*
X-4703628Y-7064650D02*
X-4675056Y-7064650D01*
X-4675056Y-7064650D02*
X-4656009Y-7074174D01*
X-4656009Y-7074174D02*
X-4646485Y-7093222D01*
X-4646485Y-7093222D02*
X-4646485Y-7197984D01*
X-4256009Y-6988460D02*
X-4427437Y-7245603D01*
X-3998866Y-6997984D02*
X-3979818Y-6997984D01*
X-3979818Y-6997984D02*
X-3960770Y-7007508D01*
X-3960770Y-7007508D02*
X-3951247Y-7017031D01*
X-3951247Y-7017031D02*
X-3941723Y-7036079D01*
X-3941723Y-7036079D02*
X-3932199Y-7074174D01*
X-3932199Y-7074174D02*
X-3932199Y-7121793D01*
X-3932199Y-7121793D02*
X-3941723Y-7159888D01*
X-3941723Y-7159888D02*
X-3951247Y-7178936D01*
X-3951247Y-7178936D02*
X-3960770Y-7188460D01*
X-3960770Y-7188460D02*
X-3979818Y-7197984D01*
X-3979818Y-7197984D02*
X-3998866Y-7197984D01*
X-3998866Y-7197984D02*
X-4017913Y-7188460D01*
X-4017913Y-7188460D02*
X-4027437Y-7178936D01*
X-4027437Y-7178936D02*
X-4036961Y-7159888D01*
X-4036961Y-7159888D02*
X-4046485Y-7121793D01*
X-4046485Y-7121793D02*
X-4046485Y-7074174D01*
X-4046485Y-7074174D02*
X-4036961Y-7036079D01*
X-4036961Y-7036079D02*
X-4027437Y-7017031D01*
X-4027437Y-7017031D02*
X-4017913Y-7007508D01*
X-4017913Y-7007508D02*
X-3998866Y-6997984D01*
X-3846485Y-7178936D02*
X-3836961Y-7188460D01*
X-3836961Y-7188460D02*
X-3846485Y-7197984D01*
X-3846485Y-7197984D02*
X-3856009Y-7188460D01*
X-3856009Y-7188460D02*
X-3846485Y-7178936D01*
X-3846485Y-7178936D02*
X-3846485Y-7197984D01*
X-3713151Y-6997984D02*
X-3694104Y-6997984D01*
X-3694104Y-6997984D02*
X-3675056Y-7007508D01*
X-3675056Y-7007508D02*
X-3665532Y-7017031D01*
X-3665532Y-7017031D02*
X-3656009Y-7036079D01*
X-3656009Y-7036079D02*
X-3646485Y-7074174D01*
X-3646485Y-7074174D02*
X-3646485Y-7121793D01*
X-3646485Y-7121793D02*
X-3656009Y-7159888D01*
X-3656009Y-7159888D02*
X-3665532Y-7178936D01*
X-3665532Y-7178936D02*
X-3675056Y-7188460D01*
X-3675056Y-7188460D02*
X-3694104Y-7197984D01*
X-3694104Y-7197984D02*
X-3713151Y-7197984D01*
X-3713151Y-7197984D02*
X-3732199Y-7188460D01*
X-3732199Y-7188460D02*
X-3741723Y-7178936D01*
X-3741723Y-7178936D02*
X-3751247Y-7159888D01*
X-3751247Y-7159888D02*
X-3760770Y-7121793D01*
X-3760770Y-7121793D02*
X-3760770Y-7074174D01*
X-3760770Y-7074174D02*
X-3751247Y-7036079D01*
X-3751247Y-7036079D02*
X-3741723Y-7017031D01*
X-3741723Y-7017031D02*
X-3732199Y-7007508D01*
X-3732199Y-7007508D02*
X-3713151Y-6997984D01*
X-3456009Y-7197984D02*
X-3570294Y-7197984D01*
X-3513151Y-7197984D02*
X-3513151Y-6997984D01*
X-3513151Y-6997984D02*
X-3532199Y-7026555D01*
X-3532199Y-7026555D02*
X-3551247Y-7045603D01*
X-3551247Y-7045603D02*
X-3570294Y-7055127D01*
X-3360770Y-7197984D02*
X-3322675Y-7197984D01*
X-3322675Y-7197984D02*
X-3303628Y-7188460D01*
X-3303628Y-7188460D02*
X-3294104Y-7178936D01*
X-3294104Y-7178936D02*
X-3275056Y-7150365D01*
X-3275056Y-7150365D02*
X-3265532Y-7112269D01*
X-3265532Y-7112269D02*
X-3265532Y-7036079D01*
X-3265532Y-7036079D02*
X-3275056Y-7017031D01*
X-3275056Y-7017031D02*
X-3284580Y-7007508D01*
X-3284580Y-7007508D02*
X-3303628Y-6997984D01*
X-3303628Y-6997984D02*
X-3341723Y-6997984D01*
X-3341723Y-6997984D02*
X-3360770Y-7007508D01*
X-3360770Y-7007508D02*
X-3370294Y-7017031D01*
X-3370294Y-7017031D02*
X-3379818Y-7036079D01*
X-3379818Y-7036079D02*
X-3379818Y-7083698D01*
X-3379818Y-7083698D02*
X-3370294Y-7102746D01*
X-3370294Y-7102746D02*
X-3360770Y-7112269D01*
X-3360770Y-7112269D02*
X-3341723Y-7121793D01*
X-3341723Y-7121793D02*
X-3303628Y-7121793D01*
X-3303628Y-7121793D02*
X-3284580Y-7112269D01*
X-3284580Y-7112269D02*
X-3275056Y-7102746D01*
X-3275056Y-7102746D02*
X-3265532Y-7083698D01*
X-3198866Y-6997984D02*
X-3065532Y-6997984D01*
X-3065532Y-6997984D02*
X-3151247Y-7197984D01*
X-2998866Y-6997984D02*
X-2998866Y-7036079D01*
X-2922675Y-6997984D02*
X-2922675Y-7036079D01*
X-2627437Y-7274174D02*
X-2636961Y-7264650D01*
X-2636961Y-7264650D02*
X-2656009Y-7236079D01*
X-2656009Y-7236079D02*
X-2665532Y-7217031D01*
X-2665532Y-7217031D02*
X-2675056Y-7188460D01*
X-2675056Y-7188460D02*
X-2684580Y-7140841D01*
X-2684580Y-7140841D02*
X-2684580Y-7102746D01*
X-2684580Y-7102746D02*
X-2675056Y-7055127D01*
X-2675056Y-7055127D02*
X-2665532Y-7026555D01*
X-2665532Y-7026555D02*
X-2656009Y-7007508D01*
X-2656009Y-7007508D02*
X-2636961Y-6978936D01*
X-2636961Y-6978936D02*
X-2627437Y-6969412D01*
X-2560770Y-7017031D02*
X-2551247Y-7007508D01*
X-2551247Y-7007508D02*
X-2532199Y-6997984D01*
X-2532199Y-6997984D02*
X-2484580Y-6997984D01*
X-2484580Y-6997984D02*
X-2465532Y-7007508D01*
X-2465532Y-7007508D02*
X-2456009Y-7017031D01*
X-2456009Y-7017031D02*
X-2446485Y-7036079D01*
X-2446485Y-7036079D02*
X-2446485Y-7055127D01*
X-2446485Y-7055127D02*
X-2456009Y-7083698D01*
X-2456009Y-7083698D02*
X-2570294Y-7197984D01*
X-2570294Y-7197984D02*
X-2446485Y-7197984D01*
X-2208389Y-7197984D02*
X-2208389Y-6997984D01*
X-2122675Y-7197984D02*
X-2122675Y-7093222D01*
X-2122675Y-7093222D02*
X-2132199Y-7074174D01*
X-2132199Y-7074174D02*
X-2151247Y-7064650D01*
X-2151247Y-7064650D02*
X-2179818Y-7064650D01*
X-2179818Y-7064650D02*
X-2198866Y-7074174D01*
X-2198866Y-7074174D02*
X-2208389Y-7083698D01*
X-1998866Y-7197984D02*
X-2017913Y-7188460D01*
X-2017913Y-7188460D02*
X-2027437Y-7178936D01*
X-2027437Y-7178936D02*
X-2036961Y-7159888D01*
X-2036961Y-7159888D02*
X-2036961Y-7102746D01*
X-2036961Y-7102746D02*
X-2027437Y-7083698D01*
X-2027437Y-7083698D02*
X-2017913Y-7074174D01*
X-2017913Y-7074174D02*
X-1998866Y-7064650D01*
X-1998866Y-7064650D02*
X-1970294Y-7064650D01*
X-1970294Y-7064650D02*
X-1951246Y-7074174D01*
X-1951246Y-7074174D02*
X-1941723Y-7083698D01*
X-1941723Y-7083698D02*
X-1932199Y-7102746D01*
X-1932199Y-7102746D02*
X-1932199Y-7159888D01*
X-1932199Y-7159888D02*
X-1941723Y-7178936D01*
X-1941723Y-7178936D02*
X-1951246Y-7188460D01*
X-1951246Y-7188460D02*
X-1970294Y-7197984D01*
X-1970294Y-7197984D02*
X-1998866Y-7197984D01*
X-1817913Y-7197984D02*
X-1836961Y-7188460D01*
X-1836961Y-7188460D02*
X-1846485Y-7169412D01*
X-1846485Y-7169412D02*
X-1846485Y-6997984D01*
X-1665532Y-7188460D02*
X-1684580Y-7197984D01*
X-1684580Y-7197984D02*
X-1722675Y-7197984D01*
X-1722675Y-7197984D02*
X-1741723Y-7188460D01*
X-1741723Y-7188460D02*
X-1751246Y-7169412D01*
X-1751246Y-7169412D02*
X-1751246Y-7093222D01*
X-1751246Y-7093222D02*
X-1741723Y-7074174D01*
X-1741723Y-7074174D02*
X-1722675Y-7064650D01*
X-1722675Y-7064650D02*
X-1684580Y-7064650D01*
X-1684580Y-7064650D02*
X-1665532Y-7074174D01*
X-1665532Y-7074174D02*
X-1656008Y-7093222D01*
X-1656008Y-7093222D02*
X-1656008Y-7112269D01*
X-1656008Y-7112269D02*
X-1751246Y-7131317D01*
X-1579818Y-7188460D02*
X-1560770Y-7197984D01*
X-1560770Y-7197984D02*
X-1522675Y-7197984D01*
X-1522675Y-7197984D02*
X-1503627Y-7188460D01*
X-1503627Y-7188460D02*
X-1494104Y-7169412D01*
X-1494104Y-7169412D02*
X-1494104Y-7159888D01*
X-1494104Y-7159888D02*
X-1503627Y-7140841D01*
X-1503627Y-7140841D02*
X-1522675Y-7131317D01*
X-1522675Y-7131317D02*
X-1551246Y-7131317D01*
X-1551246Y-7131317D02*
X-1570294Y-7121793D01*
X-1570294Y-7121793D02*
X-1579818Y-7102746D01*
X-1579818Y-7102746D02*
X-1579818Y-7093222D01*
X-1579818Y-7093222D02*
X-1570294Y-7074174D01*
X-1570294Y-7074174D02*
X-1551246Y-7064650D01*
X-1551246Y-7064650D02*
X-1522675Y-7064650D01*
X-1522675Y-7064650D02*
X-1503627Y-7074174D01*
X-1427437Y-7274174D02*
X-1417913Y-7264650D01*
X-1417913Y-7264650D02*
X-1398865Y-7236079D01*
X-1398865Y-7236079D02*
X-1389342Y-7217031D01*
X-1389342Y-7217031D02*
X-1379818Y-7188460D01*
X-1379818Y-7188460D02*
X-1370294Y-7140841D01*
X-1370294Y-7140841D02*
X-1370294Y-7102746D01*
X-1370294Y-7102746D02*
X-1379818Y-7055127D01*
X-1379818Y-7055127D02*
X-1389342Y-7026555D01*
X-1389342Y-7026555D02*
X-1398865Y-7007508D01*
X-1398865Y-7007508D02*
X-1417913Y-6978936D01*
X-1417913Y-6978936D02*
X-1427437Y-6969412D01*
M02*
