G04 #@! TF.GenerationSoftware,KiCad,Pcbnew,8.0.4*
G04 #@! TF.CreationDate,2024-11-19T03:08:21+11:00*
G04 #@! TF.ProjectId,RCS_WS2812B_Ring,5243535f-5753-4323-9831-32425f52696e,rev?*
G04 #@! TF.SameCoordinates,Original*
G04 #@! TF.FileFunction,Legend,Top*
G04 #@! TF.FilePolarity,Positive*
%FSLAX46Y46*%
G04 Gerber Fmt 4.6, Leading zero omitted, Abs format (unit mm)*
G04 Created by KiCad (PCBNEW 8.0.4) date 2024-11-19 03:08:21*
%MOMM*%
%LPD*%
G01*
G04 APERTURE LIST*
G04 Aperture macros list*
%AMRoundRect*
0 Rectangle with rounded corners*
0 $1 Rounding radius*
0 $2 $3 $4 $5 $6 $7 $8 $9 X,Y pos of 4 corners*
0 Add a 4 corners polygon primitive as box body*
4,1,4,$2,$3,$4,$5,$6,$7,$8,$9,$2,$3,0*
0 Add four circle primitives for the rounded corners*
1,1,$1+$1,$2,$3*
1,1,$1+$1,$4,$5*
1,1,$1+$1,$6,$7*
1,1,$1+$1,$8,$9*
0 Add four rect primitives between the rounded corners*
20,1,$1+$1,$2,$3,$4,$5,0*
20,1,$1+$1,$4,$5,$6,$7,0*
20,1,$1+$1,$6,$7,$8,$9,0*
20,1,$1+$1,$8,$9,$2,$3,0*%
%AMRotRect*
0 Rectangle, with rotation*
0 The origin of the aperture is its center*
0 $1 length*
0 $2 width*
0 $3 Rotation angle, in degrees counterclockwise*
0 Add horizontal line*
21,1,$1,$2,0,0,$3*%
G04 Aperture macros list end*
%ADD10C,0.120000*%
%ADD11C,2.200000*%
%ADD12RotRect,0.700000X0.700000X352.500000*%
%ADD13RotRect,0.700000X0.700000X345.000000*%
%ADD14RotRect,0.700000X0.700000X337.500000*%
%ADD15RotRect,0.700000X0.700000X330.000000*%
%ADD16RotRect,0.700000X0.700000X322.500000*%
%ADD17RotRect,0.700000X0.700000X315.000000*%
%ADD18RotRect,0.700000X0.700000X307.500000*%
%ADD19RotRect,0.700000X0.700000X300.000000*%
%ADD20RotRect,0.700000X0.700000X292.500000*%
%ADD21RotRect,0.700000X0.700000X285.000000*%
%ADD22RotRect,0.700000X0.700000X277.500000*%
%ADD23R,0.700000X0.700000*%
%ADD24RotRect,0.700000X0.700000X262.500000*%
%ADD25RotRect,0.700000X0.700000X255.000000*%
%ADD26RotRect,0.700000X0.700000X247.500000*%
%ADD27RotRect,0.700000X0.700000X240.000000*%
%ADD28RotRect,0.700000X0.700000X232.500000*%
%ADD29RotRect,0.700000X0.700000X225.000000*%
%ADD30RotRect,0.700000X0.700000X217.500000*%
%ADD31RotRect,0.700000X0.700000X210.000000*%
%ADD32RotRect,0.700000X0.700000X202.500000*%
%ADD33RotRect,0.700000X0.700000X195.000000*%
%ADD34RotRect,0.700000X0.700000X187.500000*%
%ADD35RotRect,0.700000X0.700000X172.500000*%
%ADD36RotRect,0.700000X0.700000X165.000000*%
%ADD37RotRect,0.700000X0.700000X157.500000*%
%ADD38RotRect,0.700000X0.700000X150.000000*%
%ADD39RotRect,0.700000X0.700000X142.500000*%
%ADD40RotRect,0.700000X0.700000X135.000000*%
%ADD41RotRect,0.700000X0.700000X127.500000*%
%ADD42RotRect,0.700000X0.700000X120.000000*%
%ADD43RotRect,0.700000X0.700000X112.500000*%
%ADD44RotRect,0.700000X0.700000X105.000000*%
%ADD45RotRect,0.700000X0.700000X97.500000*%
%ADD46RotRect,0.700000X0.700000X82.500000*%
%ADD47RotRect,0.700000X0.700000X75.000000*%
%ADD48RotRect,0.700000X0.700000X67.500000*%
%ADD49RotRect,0.700000X0.700000X60.000000*%
%ADD50RotRect,0.700000X0.700000X52.500000*%
%ADD51RotRect,0.700000X0.700000X45.000000*%
%ADD52RotRect,0.700000X0.700000X37.500000*%
%ADD53RotRect,0.700000X0.700000X30.000000*%
%ADD54RotRect,0.700000X0.700000X22.500000*%
%ADD55RotRect,0.700000X0.700000X15.000000*%
%ADD56RotRect,0.700000X0.700000X7.500000*%
%ADD57RoundRect,0.225000X0.255707X0.218493X-0.190444X0.277230X-0.255707X-0.218493X0.190444X-0.277230X0*%
%ADD58RoundRect,0.225000X0.282038X0.183247X-0.152629X0.299716X-0.282038X-0.183247X0.152629X-0.299716X0*%
%ADD59RoundRect,0.225000X0.303544X0.144866X-0.112202X0.317074X-0.303544X-0.144866X0.112202X-0.317074X0*%
%ADD60RoundRect,0.225000X0.319856X0.104006X-0.069856X0.329006X-0.319856X-0.104006X0.069856X-0.329006X0*%
%ADD61RoundRect,0.225000X0.330695X0.061367X-0.026314X0.335310X-0.330695X-0.061367X0.026314X-0.335310X0*%
%ADD62RoundRect,0.225000X0.335876X0.017678X0.017678X0.335876X-0.335876X-0.017678X-0.017678X-0.335876X0*%
%ADD63RoundRect,0.225000X0.335310X-0.026314X0.061367X0.330695X-0.335310X0.026314X-0.061367X-0.330695X0*%
%ADD64RoundRect,0.225000X0.329006X-0.069856X0.104006X0.319856X-0.329006X0.069856X-0.104006X-0.319856X0*%
%ADD65RoundRect,0.225000X0.317074X-0.112202X0.144866X0.303544X-0.317074X0.112202X-0.144866X-0.303544X0*%
%ADD66RoundRect,0.225000X0.299716X-0.152629X0.183247X0.282038X-0.299716X0.152629X-0.183247X-0.282038X0*%
%ADD67RoundRect,0.225000X0.277230X-0.190444X0.218493X0.255707X-0.277230X0.190444X-0.218493X-0.255707X0*%
%ADD68RoundRect,0.225000X0.250000X-0.225000X0.250000X0.225000X-0.250000X0.225000X-0.250000X-0.225000X0*%
%ADD69RoundRect,0.225000X0.218493X-0.255707X0.277230X0.190444X-0.218493X0.255707X-0.277230X-0.190444X0*%
%ADD70RoundRect,0.225000X0.183247X-0.282038X0.299716X0.152629X-0.183247X0.282038X-0.299716X-0.152629X0*%
%ADD71RoundRect,0.225000X0.144866X-0.303544X0.317074X0.112202X-0.144866X0.303544X-0.317074X-0.112202X0*%
%ADD72RoundRect,0.225000X0.104006X-0.319856X0.329006X0.069856X-0.104006X0.319856X-0.329006X-0.069856X0*%
%ADD73RoundRect,0.225000X0.061367X-0.330695X0.335310X0.026314X-0.061367X0.330695X-0.335310X-0.026314X0*%
%ADD74RoundRect,0.225000X0.017678X-0.335876X0.335876X-0.017678X-0.017678X0.335876X-0.335876X0.017678X0*%
%ADD75RoundRect,0.225000X-0.026314X-0.335310X0.330695X-0.061367X0.026314X0.335310X-0.330695X0.061367X0*%
%ADD76RoundRect,0.225000X-0.069856X-0.329006X0.319856X-0.104006X0.069856X0.329006X-0.319856X0.104006X0*%
%ADD77RoundRect,0.225000X-0.112202X-0.317074X0.303544X-0.144866X0.112202X0.317074X-0.303544X0.144866X0*%
%ADD78RoundRect,0.225000X-0.152629X-0.299716X0.282038X-0.183247X0.152629X0.299716X-0.282038X0.183247X0*%
%ADD79RoundRect,0.225000X-0.190444X-0.277230X0.255707X-0.218493X0.190444X0.277230X-0.255707X0.218493X0*%
%ADD80RoundRect,0.225000X-0.225000X-0.250000X0.225000X-0.250000X0.225000X0.250000X-0.225000X0.250000X0*%
%ADD81RoundRect,0.225000X-0.255707X-0.218493X0.190444X-0.277230X0.255707X0.218493X-0.190444X0.277230X0*%
%ADD82RoundRect,0.225000X-0.282038X-0.183247X0.152629X-0.299716X0.282038X0.183247X-0.152629X0.299716X0*%
%ADD83RoundRect,0.225000X-0.303544X-0.144866X0.112202X-0.317074X0.303544X0.144866X-0.112202X0.317074X0*%
%ADD84RoundRect,0.225000X-0.319856X-0.104006X0.069856X-0.329006X0.319856X0.104006X-0.069856X0.329006X0*%
%ADD85RoundRect,0.225000X-0.330695X-0.061367X0.026314X-0.335310X0.330695X0.061367X-0.026314X0.335310X0*%
%ADD86RoundRect,0.225000X-0.335876X-0.017678X-0.017678X-0.335876X0.335876X0.017678X0.017678X0.335876X0*%
%ADD87RoundRect,0.225000X-0.335310X0.026314X-0.061367X-0.330695X0.335310X-0.026314X0.061367X0.330695X0*%
%ADD88RoundRect,0.225000X-0.329006X0.069856X-0.104006X-0.319856X0.329006X-0.069856X0.104006X0.319856X0*%
%ADD89RoundRect,0.225000X-0.317074X0.112202X-0.144866X-0.303544X0.317074X-0.112202X0.144866X0.303544X0*%
%ADD90RoundRect,0.225000X-0.299716X0.152629X-0.183247X-0.282038X0.299716X-0.152629X0.183247X0.282038X0*%
%ADD91RoundRect,0.225000X-0.277230X0.190444X-0.218493X-0.255707X0.277230X-0.190444X0.218493X0.255707X0*%
%ADD92RoundRect,0.225000X-0.250000X0.225000X-0.250000X-0.225000X0.250000X-0.225000X0.250000X0.225000X0*%
%ADD93RoundRect,0.225000X-0.218493X0.255707X-0.277230X-0.190444X0.218493X-0.255707X0.277230X0.190444X0*%
%ADD94RoundRect,0.225000X-0.183247X0.282038X-0.299716X-0.152629X0.183247X-0.282038X0.299716X0.152629X0*%
%ADD95RoundRect,0.225000X-0.144866X0.303544X-0.317074X-0.112202X0.144866X-0.303544X0.317074X0.112202X0*%
%ADD96RoundRect,0.225000X-0.104006X0.319856X-0.329006X-0.069856X0.104006X-0.319856X0.329006X0.069856X0*%
%ADD97RoundRect,0.225000X-0.061367X0.330695X-0.335310X-0.026314X0.061367X-0.330695X0.335310X0.026314X0*%
%ADD98RoundRect,0.225000X-0.017678X0.335876X-0.335876X0.017678X0.017678X-0.335876X0.335876X-0.017678X0*%
%ADD99RoundRect,0.225000X0.026314X0.335310X-0.330695X0.061367X-0.026314X-0.335310X0.330695X-0.061367X0*%
%ADD100RoundRect,0.225000X0.069856X0.329006X-0.319856X0.104006X-0.069856X-0.329006X0.319856X-0.104006X0*%
%ADD101RoundRect,0.225000X0.112202X0.317074X-0.303544X0.144866X-0.112202X-0.317074X0.303544X-0.144866X0*%
%ADD102RoundRect,0.225000X0.152629X0.299716X-0.282038X0.183247X-0.152629X-0.299716X0.282038X-0.183247X0*%
%ADD103RoundRect,0.225000X0.190444X0.277230X-0.255707X0.218493X-0.190444X-0.277230X0.255707X-0.218493X0*%
%ADD104RoundRect,0.225000X0.225000X0.250000X-0.225000X0.250000X-0.225000X-0.250000X0.225000X-0.250000X0*%
G04 APERTURE END LIST*
D10*
X6312772Y58829310D02*
X6227930Y58184871D01*
X6312772Y58829310D02*
X9128476Y58458615D01*
X6012562Y56548987D02*
X8828266Y56178292D01*
X13937531Y57502035D02*
X13769299Y56874183D01*
X13937531Y57502035D02*
X16680761Y56766989D01*
X13342247Y55280405D02*
X16085477Y54545359D01*
X21323816Y55190884D02*
X21075072Y54590362D01*
X21323816Y55190884D02*
X23947634Y54104063D01*
X20443644Y53065961D02*
X23067462Y51979140D01*
X28345244Y51935402D02*
X28020244Y51372486D01*
X28345244Y51935402D02*
X30804756Y50515402D01*
X27195244Y49943544D02*
X29654756Y48523544D01*
X34881676Y47791291D02*
X34485981Y47275611D01*
X34881676Y47791291D02*
X37134799Y46062408D01*
X33481525Y45966578D02*
X35734648Y44237695D01*
X40821274Y42829457D02*
X40361655Y42369838D01*
X40821274Y42829457D02*
X42829457Y40821274D01*
X39194929Y41203112D02*
X41203112Y39194929D01*
X46062408Y37134799D02*
X45546728Y36739104D01*
X46062408Y37134799D02*
X47791291Y34881676D01*
X44237695Y35734648D02*
X45966578Y33481525D01*
X50515402Y30804756D02*
X49952486Y30479756D01*
X50515402Y30804756D02*
X51935402Y28345244D01*
X48523544Y29654756D02*
X49943544Y27195244D01*
X54104063Y23947634D02*
X53503541Y23698890D01*
X54104063Y23947634D02*
X55190884Y21323816D01*
X51979140Y23067462D02*
X53065961Y20443644D01*
X56766989Y16680761D02*
X56139137Y16512528D01*
X56766989Y16680761D02*
X57502035Y13937531D01*
X54545359Y16085477D02*
X55280405Y13342247D01*
X58458615Y9128476D02*
X57814176Y9043634D01*
X58458615Y9128476D02*
X58829310Y6312772D01*
X56178292Y8828266D02*
X56548987Y6012562D01*
X59150000Y1420000D02*
X58500000Y1420000D01*
X59150000Y1420000D02*
X59150000Y-1420000D01*
X56850000Y1420000D02*
X56850000Y-1420000D01*
X58829310Y-6312772D02*
X58184871Y-6227930D01*
X58829310Y-6312772D02*
X58458615Y-9128476D01*
X56548987Y-6012562D02*
X56178292Y-8828266D01*
X57502035Y-13937531D02*
X56874183Y-13769299D01*
X57502035Y-13937531D02*
X56766989Y-16680761D01*
X55280405Y-13342247D02*
X54545359Y-16085477D01*
X55190884Y-21323816D02*
X54590362Y-21075072D01*
X55190884Y-21323816D02*
X54104063Y-23947634D01*
X53065961Y-20443644D02*
X51979140Y-23067462D01*
X51935402Y-28345244D02*
X51372486Y-28020244D01*
X51935402Y-28345244D02*
X50515402Y-30804756D01*
X49943544Y-27195244D02*
X48523544Y-29654756D01*
X47791291Y-34881676D02*
X47275611Y-34485981D01*
X47791291Y-34881676D02*
X46062408Y-37134799D01*
X45966578Y-33481525D02*
X44237695Y-35734648D01*
X42829457Y-40821274D02*
X42369838Y-40361655D01*
X42829457Y-40821274D02*
X40821274Y-42829457D01*
X41203112Y-39194929D02*
X39194929Y-41203112D01*
X37134799Y-46062408D02*
X36739104Y-45546728D01*
X37134799Y-46062408D02*
X34881676Y-47791291D01*
X35734648Y-44237695D02*
X33481525Y-45966578D01*
X30804756Y-50515402D02*
X30479756Y-49952486D01*
X30804756Y-50515402D02*
X28345244Y-51935402D01*
X29654756Y-48523544D02*
X27195244Y-49943544D01*
X23947634Y-54104063D02*
X23698890Y-53503541D01*
X23947634Y-54104063D02*
X21323816Y-55190884D01*
X23067462Y-51979140D02*
X20443644Y-53065961D01*
X16680761Y-56766989D02*
X16512528Y-56139137D01*
X16680761Y-56766989D02*
X13937531Y-57502035D01*
X16085477Y-54545359D02*
X13342247Y-55280405D01*
X9128476Y-58458615D02*
X9043634Y-57814176D01*
X9128476Y-58458615D02*
X6312772Y-58829310D01*
X8828266Y-56178292D02*
X6012562Y-56548987D01*
X1420000Y-59150000D02*
X1420000Y-58500000D01*
X1420000Y-59150000D02*
X-1420000Y-59150000D01*
X1420000Y-56850000D02*
X-1420000Y-56850000D01*
X-6312772Y-58829310D02*
X-6227930Y-58184871D01*
X-6312772Y-58829310D02*
X-9128476Y-58458615D01*
X-6012562Y-56548987D02*
X-8828266Y-56178292D01*
X-13937531Y-57502035D02*
X-13769299Y-56874183D01*
X-13937531Y-57502035D02*
X-16680761Y-56766989D01*
X-13342247Y-55280405D02*
X-16085477Y-54545359D01*
X-21323816Y-55190884D02*
X-21075072Y-54590362D01*
X-21323816Y-55190884D02*
X-23947634Y-54104063D01*
X-20443644Y-53065961D02*
X-23067462Y-51979140D01*
X-28345243Y-51935402D02*
X-28020243Y-51372486D01*
X-28345243Y-51935402D02*
X-30804755Y-50515402D01*
X-27195243Y-49943544D02*
X-29654755Y-48523544D01*
X-34881676Y-47791291D02*
X-34485981Y-47275611D01*
X-34881676Y-47791291D02*
X-37134799Y-46062408D01*
X-33481525Y-45966578D02*
X-35734648Y-44237695D01*
X-40821274Y-42829457D02*
X-40361655Y-42369838D01*
X-40821274Y-42829457D02*
X-42829457Y-40821274D01*
X-39194929Y-41203112D02*
X-41203112Y-39194929D01*
X-46062408Y-37134799D02*
X-45546728Y-36739104D01*
X-46062408Y-37134799D02*
X-47791291Y-34881676D01*
X-44237695Y-35734648D02*
X-45966578Y-33481525D01*
X-50515402Y-30804755D02*
X-49952486Y-30479755D01*
X-50515402Y-30804755D02*
X-51935402Y-28345243D01*
X-48523544Y-29654755D02*
X-49943544Y-27195243D01*
X-54104063Y-23947634D02*
X-53503541Y-23698890D01*
X-54104063Y-23947634D02*
X-55190884Y-21323816D01*
X-51979140Y-23067462D02*
X-53065961Y-20443644D01*
X-56766989Y-16680761D02*
X-56139137Y-16512528D01*
X-56766989Y-16680761D02*
X-57502035Y-13937531D01*
X-54545359Y-16085477D02*
X-55280405Y-13342247D01*
X-58458615Y-9128476D02*
X-57814176Y-9043634D01*
X-58458615Y-9128476D02*
X-58829310Y-6312772D01*
X-56178292Y-8828266D02*
X-56548987Y-6012562D01*
X-59150000Y-1420000D02*
X-58500000Y-1420000D01*
X-59150000Y-1420000D02*
X-59150000Y1420000D01*
X-56850000Y-1420000D02*
X-56850000Y1420000D01*
X-58829310Y6312772D02*
X-58184871Y6227930D01*
X-58829310Y6312772D02*
X-58458615Y9128476D01*
X-56548987Y6012562D02*
X-56178292Y8828266D01*
X-57502035Y13937531D02*
X-56874183Y13769299D01*
X-57502035Y13937531D02*
X-56766989Y16680761D01*
X-55280405Y13342247D02*
X-54545359Y16085477D01*
X-55190884Y21323816D02*
X-54590362Y21075072D01*
X-55190884Y21323816D02*
X-54104063Y23947634D01*
X-53065961Y20443644D02*
X-51979140Y23067462D01*
X-51935402Y28345244D02*
X-51372486Y28020244D01*
X-51935402Y28345244D02*
X-50515402Y30804756D01*
X-49943544Y27195244D02*
X-48523544Y29654756D01*
X-47791291Y34881676D02*
X-47275611Y34485981D01*
X-47791291Y34881676D02*
X-46062408Y37134799D01*
X-45966578Y33481525D02*
X-44237695Y35734648D01*
X-42829457Y40821274D02*
X-42369838Y40361655D01*
X-42829457Y40821274D02*
X-40821274Y42829457D01*
X-41203112Y39194929D02*
X-39194929Y41203112D01*
X-37134799Y46062408D02*
X-36739104Y45546728D01*
X-37134799Y46062408D02*
X-34881676Y47791291D01*
X-35734648Y44237695D02*
X-33481525Y45966578D01*
X-30804755Y50515402D02*
X-30479755Y49952486D01*
X-30804755Y50515402D02*
X-28345243Y51935402D01*
X-29654755Y48523544D02*
X-27195243Y49943544D01*
X-23947634Y54104063D02*
X-23698890Y53503541D01*
X-23947634Y54104063D02*
X-21323816Y55190884D01*
X-23067462Y51979140D02*
X-20443644Y53065961D01*
X-16680761Y56766989D02*
X-16512528Y56139137D01*
X-16680761Y56766989D02*
X-13937531Y57502035D01*
X-16085477Y54545359D02*
X-13342247Y55280405D01*
X-9128476Y58458615D02*
X-9043634Y57814176D01*
X-9128476Y58458615D02*
X-6312772Y58829310D01*
X-8828266Y56178292D02*
X-6012562Y56548987D01*
X-1420000Y59150000D02*
X-1420000Y58500000D01*
X-1420000Y59150000D02*
X1420000Y59150000D01*
X-1420000Y56850000D02*
X1420000Y56850000D01*
X7969643Y59458428D02*
X7690888Y59495126D01*
X8102780Y60469702D02*
X7824025Y60506400D01*
X15662344Y57909505D02*
X15390764Y57982275D01*
X15926340Y58894749D02*
X15654760Y58967519D01*
X23087057Y55369735D02*
X22827299Y55477330D01*
X23477395Y56312092D02*
X23217637Y56419687D01*
X30116746Y51882573D02*
X29873254Y52023153D01*
X30626746Y52765919D02*
X30383254Y52906499D01*
X36631127Y47507687D02*
X36408068Y47678846D01*
X37252064Y48316908D02*
X37029005Y48488067D01*
X42518741Y42319930D02*
X42319930Y42518741D01*
X43239990Y43041179D02*
X43041179Y43239990D01*
X47678846Y36408068D02*
X47507687Y36631127D01*
X48488067Y37029005D02*
X48316908Y37252064D01*
X52023153Y29873254D02*
X51882573Y30116746D01*
X52906499Y30383254D02*
X52765919Y30626746D01*
X55477330Y22827299D02*
X55369735Y23087057D01*
X56419687Y23217637D02*
X56312092Y23477395D01*
X57982275Y15390764D02*
X57909505Y15662344D01*
X58967519Y15654760D02*
X58894749Y15926340D01*
X59495126Y7690888D02*
X59458428Y7969643D01*
X60506400Y7824025D02*
X60469702Y8102780D01*
X59990000Y-140580D02*
X59990000Y140580D01*
X61010000Y-140580D02*
X61010000Y140580D01*
X59458428Y-7969643D02*
X59495126Y-7690888D01*
X60469702Y-8102780D02*
X60506400Y-7824025D01*
X57909505Y-15662344D02*
X57982275Y-15390764D01*
X58894749Y-15926340D02*
X58967519Y-15654760D01*
X55369735Y-23087057D02*
X55477330Y-22827299D01*
X56312092Y-23477395D02*
X56419687Y-23217637D01*
X51882573Y-30116746D02*
X52023153Y-29873254D01*
X52765919Y-30626746D02*
X52906499Y-30383254D01*
X47507687Y-36631127D02*
X47678846Y-36408068D01*
X48316908Y-37252064D02*
X48488067Y-37029005D01*
X42319930Y-42518741D02*
X42518741Y-42319930D01*
X43041179Y-43239990D02*
X43239990Y-43041179D01*
X36408068Y-47678846D02*
X36631127Y-47507687D01*
X37029005Y-48488067D02*
X37252064Y-48316908D01*
X29873254Y-52023153D02*
X30116746Y-51882573D01*
X30383254Y-52906499D02*
X30626746Y-52765919D01*
X22827299Y-55477330D02*
X23087057Y-55369735D01*
X23217637Y-56419687D02*
X23477395Y-56312092D01*
X15390764Y-57982275D02*
X15662344Y-57909505D01*
X15654760Y-58967519D02*
X15926340Y-58894749D01*
X7690888Y-59495126D02*
X7969643Y-59458428D01*
X7824025Y-60506400D02*
X8102780Y-60469702D01*
X-140580Y-59990000D02*
X140580Y-59990000D01*
X-140580Y-61010000D02*
X140580Y-61010000D01*
X-7969643Y-59458428D02*
X-7690888Y-59495126D01*
X-8102780Y-60469702D02*
X-7824025Y-60506400D01*
X-15662344Y-57909505D02*
X-15390764Y-57982275D01*
X-15926340Y-58894749D02*
X-15654760Y-58967519D01*
X-23087057Y-55369735D02*
X-22827299Y-55477330D01*
X-23477395Y-56312092D02*
X-23217637Y-56419687D01*
X-30116745Y-51882573D02*
X-29873253Y-52023153D01*
X-30626745Y-52765919D02*
X-30383253Y-52906499D01*
X-36631127Y-47507687D02*
X-36408068Y-47678846D01*
X-37252064Y-48316908D02*
X-37029005Y-48488067D01*
X-42518741Y-42319930D02*
X-42319930Y-42518741D01*
X-43239990Y-43041179D02*
X-43041179Y-43239990D01*
X-47678846Y-36408068D02*
X-47507687Y-36631127D01*
X-48488067Y-37029005D02*
X-48316908Y-37252064D01*
X-52023153Y-29873253D02*
X-51882573Y-30116745D01*
X-52906499Y-30383253D02*
X-52765919Y-30626745D01*
X-55477330Y-22827299D02*
X-55369735Y-23087057D01*
X-56419687Y-23217637D02*
X-56312092Y-23477395D01*
X-57982275Y-15390764D02*
X-57909505Y-15662344D01*
X-58967519Y-15654760D02*
X-58894749Y-15926340D01*
X-59495126Y-7690888D02*
X-59458428Y-7969643D01*
X-60506400Y-7824025D02*
X-60469702Y-8102780D01*
X-59990000Y140580D02*
X-59990000Y-140580D01*
X-61010000Y140580D02*
X-61010000Y-140580D01*
X-59458428Y7969643D02*
X-59495126Y7690888D01*
X-60469702Y8102780D02*
X-60506400Y7824025D01*
X-57909505Y15662344D02*
X-57982275Y15390764D01*
X-58894749Y15926340D02*
X-58967519Y15654760D01*
X-55369735Y23087057D02*
X-55477330Y22827299D01*
X-56312092Y23477395D02*
X-56419687Y23217637D01*
X-51882573Y30116746D02*
X-52023153Y29873254D01*
X-52765919Y30626746D02*
X-52906499Y30383254D01*
X-47507687Y36631127D02*
X-47678846Y36408068D01*
X-48316908Y37252064D02*
X-48488067Y37029005D01*
X-42319930Y42518741D02*
X-42518741Y42319930D01*
X-43041179Y43239990D02*
X-43239990Y43041179D01*
X-36408068Y47678846D02*
X-36631127Y47507687D01*
X-37029005Y48488067D02*
X-37252064Y48316908D01*
X-29873253Y52023153D02*
X-30116745Y51882573D01*
X-30383253Y52906499D02*
X-30626745Y52765919D01*
X-22827299Y55477330D02*
X-23087057Y55369735D01*
X-23217637Y56419687D02*
X-23477395Y56312092D01*
X-15390764Y57982275D02*
X-15662344Y57909505D01*
X-15654760Y58967519D02*
X-15926340Y58894749D01*
X-7690888Y59495126D02*
X-7969643Y59458428D01*
X-7824025Y60506400D02*
X-8102780Y60469702D01*
X140581Y59989999D02*
X-140579Y59990001D01*
X140579Y61009999D02*
X-140581Y61010001D01*
%LPC*%
D11*
X-44734469Y-39231076D03*
X44734469Y-39231076D03*
X-44734469Y39231076D03*
X44734469Y39231076D03*
D12*
X6735136Y58168527D03*
X6591558Y57077938D03*
X8405902Y56839075D03*
X8549480Y57929664D03*
D13*
X14270032Y56791776D03*
X13985331Y55729257D03*
X15752976Y55255618D03*
X16037677Y56318137D03*
D14*
X21560765Y54443301D03*
X21139813Y53427034D03*
X22830513Y52726723D03*
X23251465Y53742990D03*
D15*
X28482587Y51163287D03*
X27932587Y50210659D03*
X29517413Y49295659D03*
X30067413Y50248287D03*
D16*
X34917062Y47007854D03*
X34247425Y46135165D03*
X35699262Y45021132D03*
X36368899Y45893821D03*
D17*
X40754099Y42048104D03*
X39976282Y41270287D03*
X41270287Y39976282D03*
X42048104Y40754099D03*
D18*
X45893821Y36368899D03*
X45021132Y35699262D03*
X46135165Y34247425D03*
X47007854Y34917062D03*
D19*
X50248287Y30067413D03*
X49295659Y29517413D03*
X50210659Y27932587D03*
X51163287Y28482587D03*
D20*
X53742990Y23251465D03*
X52726723Y22830513D03*
X53427034Y21139813D03*
X54443301Y21560765D03*
D21*
X56318137Y16037677D03*
X55255618Y15752976D03*
X55729257Y13985331D03*
X56791776Y14270032D03*
D22*
X57929664Y8549480D03*
X56839075Y8405902D03*
X57077938Y6591558D03*
X58168527Y6735136D03*
D23*
X58550000Y915000D03*
X57450000Y915000D03*
X57450000Y-915000D03*
X58550000Y-915000D03*
D24*
X58168527Y-6735136D03*
X57077938Y-6591558D03*
X56839075Y-8405902D03*
X57929664Y-8549480D03*
D25*
X56791776Y-14270032D03*
X55729257Y-13985331D03*
X55255618Y-15752976D03*
X56318137Y-16037677D03*
D26*
X54443301Y-21560765D03*
X53427034Y-21139813D03*
X52726723Y-22830513D03*
X53742990Y-23251465D03*
D27*
X51163287Y-28482587D03*
X50210659Y-27932587D03*
X49295659Y-29517413D03*
X50248287Y-30067413D03*
D28*
X47007854Y-34917062D03*
X46135165Y-34247425D03*
X45021132Y-35699262D03*
X45893821Y-36368899D03*
D29*
X42048104Y-40754099D03*
X41270287Y-39976282D03*
X39976282Y-41270287D03*
X40754099Y-42048104D03*
D30*
X36368899Y-45893821D03*
X35699262Y-45021132D03*
X34247425Y-46135165D03*
X34917062Y-47007854D03*
D31*
X30067413Y-50248287D03*
X29517413Y-49295659D03*
X27932587Y-50210659D03*
X28482587Y-51163287D03*
D32*
X23251465Y-53742990D03*
X22830513Y-52726723D03*
X21139813Y-53427034D03*
X21560765Y-54443301D03*
D33*
X16037677Y-56318137D03*
X15752976Y-55255618D03*
X13985331Y-55729257D03*
X14270032Y-56791776D03*
D34*
X8549480Y-57929664D03*
X8405902Y-56839075D03*
X6591558Y-57077938D03*
X6735136Y-58168527D03*
D23*
X915000Y-58550000D03*
X915000Y-57450000D03*
X-915000Y-57450000D03*
X-915000Y-58550000D03*
D35*
X-6735136Y-58168527D03*
X-6591558Y-57077938D03*
X-8405902Y-56839075D03*
X-8549480Y-57929664D03*
D36*
X-14270032Y-56791776D03*
X-13985331Y-55729257D03*
X-15752976Y-55255618D03*
X-16037677Y-56318137D03*
D37*
X-21560765Y-54443301D03*
X-21139813Y-53427034D03*
X-22830513Y-52726723D03*
X-23251465Y-53742990D03*
D38*
X-28482586Y-51163287D03*
X-27932586Y-50210659D03*
X-29517412Y-49295659D03*
X-30067412Y-50248287D03*
D39*
X-34917062Y-47007854D03*
X-34247425Y-46135165D03*
X-35699262Y-45021132D03*
X-36368899Y-45893821D03*
D40*
X-40754099Y-42048104D03*
X-39976282Y-41270287D03*
X-41270287Y-39976282D03*
X-42048104Y-40754099D03*
D41*
X-45893821Y-36368899D03*
X-45021132Y-35699262D03*
X-46135165Y-34247425D03*
X-47007854Y-34917062D03*
D42*
X-50248287Y-30067412D03*
X-49295659Y-29517412D03*
X-50210659Y-27932586D03*
X-51163287Y-28482586D03*
D43*
X-53742990Y-23251465D03*
X-52726723Y-22830513D03*
X-53427034Y-21139813D03*
X-54443301Y-21560765D03*
D44*
X-56318137Y-16037677D03*
X-55255618Y-15752976D03*
X-55729257Y-13985331D03*
X-56791776Y-14270032D03*
D45*
X-57929664Y-8549480D03*
X-56839075Y-8405902D03*
X-57077938Y-6591558D03*
X-58168527Y-6735136D03*
D23*
X-58550000Y-915000D03*
X-57450000Y-915000D03*
X-57450000Y915000D03*
X-58550000Y915000D03*
D46*
X-58168527Y6735136D03*
X-57077938Y6591558D03*
X-56839075Y8405902D03*
X-57929664Y8549480D03*
D47*
X-56791776Y14270032D03*
X-55729257Y13985331D03*
X-55255618Y15752976D03*
X-56318137Y16037677D03*
D48*
X-54443301Y21560765D03*
X-53427034Y21139813D03*
X-52726723Y22830513D03*
X-53742990Y23251465D03*
D49*
X-51163287Y28482587D03*
X-50210659Y27932587D03*
X-49295659Y29517413D03*
X-50248287Y30067413D03*
D50*
X-47007854Y34917062D03*
X-46135165Y34247425D03*
X-45021132Y35699262D03*
X-45893821Y36368899D03*
D51*
X-42048104Y40754099D03*
X-41270287Y39976282D03*
X-39976282Y41270287D03*
X-40754099Y42048104D03*
D52*
X-36368899Y45893821D03*
X-35699262Y45021132D03*
X-34247425Y46135165D03*
X-34917062Y47007854D03*
D53*
X-30067412Y50248287D03*
X-29517412Y49295659D03*
X-27932586Y50210659D03*
X-28482586Y51163287D03*
D54*
X-23251465Y53742990D03*
X-22830513Y52726723D03*
X-21139813Y53427034D03*
X-21560765Y54443301D03*
D55*
X-16037677Y56318137D03*
X-15752976Y55255618D03*
X-13985331Y55729257D03*
X-14270032Y56791776D03*
D56*
X-8549480Y57929664D03*
X-8405902Y56839075D03*
X-6591558Y57077938D03*
X-6735136Y58168527D03*
D23*
X-915000Y58550000D03*
X-915000Y57450000D03*
X915000Y57450000D03*
X915000Y58550000D03*
D57*
X8665204Y59881256D03*
X7128464Y60083572D03*
D58*
X16407145Y58237927D03*
X14909959Y58639097D03*
D59*
X23868354Y55598131D03*
X22436340Y56191291D03*
D60*
X30921170Y52007036D03*
X29578830Y52782036D03*
D61*
X37444915Y47526087D03*
X36215217Y48469667D03*
D62*
X43327968Y42231952D03*
X42231952Y43327968D03*
D63*
X48469667Y36215217D03*
X47526087Y37444915D03*
D64*
X52782036Y29578830D03*
X52007036Y30921170D03*
D65*
X56191291Y22436340D03*
X55598131Y23868354D03*
D66*
X58639097Y14909959D03*
X58237927Y16407145D03*
D67*
X60083572Y7128464D03*
X59881256Y8665204D03*
D68*
X60500000Y-775000D03*
X60500000Y775000D03*
D69*
X59881256Y-8665204D03*
X60083572Y-7128464D03*
D70*
X58237927Y-16407145D03*
X58639097Y-14909959D03*
D71*
X55598131Y-23868354D03*
X56191291Y-22436340D03*
D72*
X52007036Y-30921170D03*
X52782036Y-29578830D03*
D73*
X47526087Y-37444915D03*
X48469667Y-36215217D03*
D74*
X42231952Y-43327968D03*
X43327968Y-42231952D03*
D75*
X36215217Y-48469667D03*
X37444915Y-47526087D03*
D76*
X29578830Y-52782036D03*
X30921170Y-52007036D03*
D77*
X22436340Y-56191291D03*
X23868354Y-55598131D03*
D78*
X14909959Y-58639097D03*
X16407145Y-58237927D03*
D79*
X7128464Y-60083572D03*
X8665204Y-59881256D03*
D80*
X-775000Y-60500000D03*
X775000Y-60500000D03*
D81*
X-8665204Y-59881256D03*
X-7128464Y-60083572D03*
D82*
X-16407145Y-58237927D03*
X-14909959Y-58639097D03*
D83*
X-23868354Y-55598131D03*
X-22436340Y-56191291D03*
D84*
X-30921169Y-52007036D03*
X-29578829Y-52782036D03*
D85*
X-37444915Y-47526087D03*
X-36215217Y-48469667D03*
D86*
X-43327968Y-42231952D03*
X-42231952Y-43327968D03*
D87*
X-48469667Y-36215217D03*
X-47526087Y-37444915D03*
D88*
X-52782036Y-29578829D03*
X-52007036Y-30921169D03*
D89*
X-56191291Y-22436340D03*
X-55598131Y-23868354D03*
D90*
X-58639097Y-14909959D03*
X-58237927Y-16407145D03*
D91*
X-60083572Y-7128464D03*
X-59881256Y-8665204D03*
D92*
X-60500000Y775000D03*
X-60500000Y-775000D03*
D93*
X-59881256Y8665204D03*
X-60083572Y7128464D03*
D94*
X-58237927Y16407145D03*
X-58639097Y14909959D03*
D95*
X-55598131Y23868354D03*
X-56191291Y22436340D03*
D96*
X-52007036Y30921170D03*
X-52782036Y29578830D03*
D97*
X-47526087Y37444915D03*
X-48469667Y36215217D03*
D98*
X-42231952Y43327968D03*
X-43327968Y42231952D03*
D99*
X-36215217Y48469667D03*
X-37444915Y47526087D03*
D100*
X-29578829Y52782036D03*
X-30921169Y52007036D03*
D101*
X-22436340Y56191291D03*
X-23868354Y55598131D03*
D102*
X-14909959Y58639097D03*
X-16407145Y58237927D03*
D103*
X-7128464Y60083572D03*
X-8665204Y59881256D03*
D104*
X775000Y60499999D03*
X-775000Y60500001D03*
%LPD*%
M02*
